<svg width="20" height="20" viewBox="0 0 20 20" fill="none" xmlns="http://www.w3.org/2000/svg">
<g clip-path="url(#clip0_33_44)">
<path d="M2.91751 16.3633C2.85678 16.3634 2.79677 16.3501 2.74169 16.3245C2.68662 16.2989 2.6378 16.2616 2.59866 16.2152C2.55953 16.1687 2.53101 16.1143 2.51512 16.0557C2.49923 15.9971 2.49635 15.9357 2.50668 15.8758L5.14418 0.694167C5.17176 0.52479 5.25142 0.368214 5.37209 0.246199C5.49276 0.124184 5.64845 0.0427912 5.81751 0.0133332C5.98585 -0.0191597 6.16014 0.00214967 6.31569 0.0742416C6.47124 0.146333 6.60016 0.265551 6.68418 0.415L9.05251 4.49833C9.10798 4.59403 9.12317 4.70785 9.09473 4.81474C9.06628 4.92164 8.99654 5.01286 8.90084 5.06833C8.80514 5.12381 8.69133 5.13899 8.58443 5.11055C8.47754 5.08211 8.38632 5.01237 8.33084 4.91667L5.96334 0.834167L3.32668 16.0175C3.31002 16.1141 3.25987 16.2016 3.18504 16.2649C3.11021 16.3281 3.01549 16.363 2.91751 16.3633Z" fill="#F2C129"/>
<path d="M10 20.0017C9.61253 20.0017 9.22503 19.9042 8.87253 19.7092L2.71503 16.315C2.65873 16.2836 2.61044 16.2396 2.57393 16.1865C2.53742 16.1334 2.51369 16.0726 2.50457 16.0088C2.49546 15.9449 2.50121 15.8799 2.52138 15.8187C2.54155 15.7575 2.5756 15.7017 2.62086 15.6558L14.1375 4.09917C14.2454 3.99144 14.3807 3.91531 14.5288 3.87902C14.6769 3.84274 14.8321 3.84769 14.9775 3.89333C15.275 3.98833 15.4942 4.24 15.5484 4.55L17.495 15.8792C17.5095 15.9645 17.4971 16.0522 17.4595 16.1302C17.4219 16.2082 17.3609 16.2725 17.285 16.3142L11.1275 19.7092C10.7826 19.9007 10.3946 20.0013 10 20.0017V20.0017ZM3.6017 15.8517L9.27503 18.9792C9.7292 19.23 10.2709 19.2292 10.725 18.9792L16.6225 15.7275L14.7259 4.69083L14.725 4.68667L3.6017 15.8517Z" fill="#F2C129"/>
<path d="M2.91666 16.3633C2.8452 16.3636 2.77488 16.3454 2.7125 16.3105C2.65011 16.2757 2.59776 16.2254 2.56049 16.1644C2.52322 16.1034 2.50229 16.0339 2.49972 15.9624C2.49715 15.891 2.51303 15.8202 2.54583 15.7567L9.27749 2.65833C9.34577 2.5244 9.4491 2.4115 9.57648 2.33167C9.70387 2.25183 9.85052 2.20805 10.0008 2.205C10.1517 2.19956 10.3011 2.2364 10.4321 2.31134C10.5632 2.38629 10.6707 2.49637 10.7425 2.62917L12.7717 6.22083C12.82 6.31661 12.8295 6.42729 12.7984 6.52993C12.7673 6.63258 12.6979 6.71931 12.6045 6.77214C12.5112 6.82498 12.4011 6.83986 12.2971 6.81371C12.193 6.78755 12.1031 6.72237 12.0458 6.63167L10.0167 3.04L3.28666 16.1367C3.25191 16.2049 3.19895 16.2622 3.13364 16.3022C3.06834 16.3422 2.99324 16.3634 2.91666 16.3633V16.3633Z" fill="#F2C129"/>
</g>
<defs>
<clipPath id="clip0_33_44">
<rect width="20" height="20" fill="white"/>
</clipPath>
</defs>
</svg>
