<svg width="20" height="20" viewBox="0 0 20 20" fill="none" xmlns="http://www.w3.org/2000/svg">
<path d="M16.6667 15.575L10.5833 18.95C10.1667 19.1667 9.74999 19.1667 9.33333 18.95L3.33333 15.575L14.2083 4.61667L14.5 4.53334C14.75 4.53334 14.8917 4.64167 14.9167 4.86667L16.6667 15.575ZM7.79166 4.78334L4 11.075L5.58333 1.11667C5.60833 0.891674 5.74999 0.78334 5.99999 0.78334C6.16666 0.78334 6.27499 0.833341 6.33333 0.991674L8.12499 4.28334L7.79166 4.78334ZM11.5417 5.83334L3.58333 13.825L9.62499 3.57501C9.70833 3.40834 9.83333 3.33334 9.99999 3.33334C10.1667 3.33334 10.275 3.40834 10.3333 3.57501L11.5417 5.83334Z" fill="#F2C129"/>
</svg>
