<svg width="20" height="20" viewBox="0 0 20 20" fill="none" xmlns="http://www.w3.org/2000/svg">
<g clip-path="url(#clip0_1_78)">
<mask id="path-1-inside-1_1_78" fill="white">
<path d="M9.68882 0.006667C9.49298 0.0133337 9.29715 0.0335003 9.10107 0.060417C8.91223 0.080917 8.72332 0.1145 8.54107 0.141917C8.31865 0.168834 8.09598 0.182334 7.87298 0.209584C7.66365 0.23675 7.44765 0.277334 7.23857 0.31125C7.16415 0.324667 7.08965 0.351584 7.01523 0.364917C6.85357 0.39875 6.68473 0.412417 6.52257 0.466584C6.23265 0.554917 5.94207 0.656584 5.65857 0.764334C5.39507 0.872667 5.13848 0.9875 4.88882 1.12267C4.63223 1.26433 4.38898 1.43308 4.14598 1.59575C3.91607 1.75125 3.68698 1.91342 3.46373 2.08917C3.24823 2.2585 3.0454 2.44758 2.8494 2.637C2.74165 2.74475 2.65357 2.87342 2.55215 2.99508C2.38357 3.19133 2.2149 3.38033 2.05273 3.58333C1.91832 3.75267 1.79607 3.92817 1.66773 4.10417C1.43857 4.41467 1.2429 4.74625 1.06073 5.07767C0.986316 5.21292 0.919067 5.34817 0.851567 5.48308C0.750233 5.68575 0.64215 5.88208 0.547733 6.09175C0.480067 6.23383 0.426066 6.38925 0.385566 6.54467C0.2914 6.87617 0.196733 7.21433 0.1089 7.54533C0.0278998 7.843 0.00748317 8.154 0.0010665 8.45825C-0.00585016 8.72867 0.0211498 8.99242 0.0480665 9.26283C0.0549832 9.33058 0.0148165 9.41158 0.0953998 9.4655C0.0683998 9.53992 0.0887332 9.58092 0.128733 9.59375C0.0820665 9.66817 0.149233 9.71592 0.122483 9.78367C0.115566 9.79708 0.143066 9.824 0.1559 9.84425C0.1559 9.86475 0.149483 9.89167 0.1559 9.91192C0.16315 9.97275 0.1899 10.0336 0.1899 10.1013C0.1899 10.1485 0.230317 10.2028 0.243983 10.2502C0.250567 10.2702 0.243983 10.3039 0.2304 10.3175C0.1899 10.3648 0.196567 10.4053 0.257317 10.4325C0.291483 10.5202 0.2779 10.5607 0.27115 10.6017C0.284483 10.6623 0.264233 10.6827 0.27115 10.6963C0.325066 10.8046 0.3454 10.926 0.351816 11.0476C0.351816 11.0748 0.3654 11.102 0.378983 11.1357C0.38565 11.1357 0.378983 11.2642 0.378983 11.2642C0.412316 11.2442 0.439983 11.2373 0.473567 11.2237C0.494067 11.3114 0.513983 11.393 0.540983 11.4673C0.574817 11.5213 0.574983 11.5479 0.561567 11.5546C0.588567 11.6763 0.6019 11.7913 0.648816 11.9063C0.648816 11.7779 0.6359 11.6496 0.615483 11.5277C0.709817 11.5616 0.7909 11.5953 0.844983 11.5953C0.8519 11.5748 0.85865 11.5481 0.86565 11.5345C0.82515 11.4943 0.791317 11.4335 0.750733 11.3929C0.764233 11.4468 0.750733 11.4673 0.750733 11.4878C0.723817 11.4739 0.689817 11.4603 0.65615 11.4468C0.68315 11.4134 0.710233 11.3793 0.750733 11.3389C0.750733 11.2778 0.7174 11.2236 0.622483 11.2306C0.663066 11.2171 0.703567 11.1971 0.750733 11.1833C0.82515 11.143 0.743983 11.0687 0.743983 10.9741C0.75065 10.8593 0.683317 10.7443 0.662983 10.6224C0.62915 10.4333 0.635983 10.1493 0.615817 9.96C0.575233 9.92608 0.541483 10.0139 0.534817 10.0208C0.5554 10.183 0.575316 10.3451 0.58865 10.5075C0.5484 10.3723 0.52115 10.2235 0.487567 10.0611C0.48065 10.1085 0.474067 10.1286 0.474067 10.1559C0.440733 10.1893 0.4674 10.2304 0.487567 10.2776C0.4404 10.2571 0.386233 10.2643 0.386233 10.2643V10.4536C0.318983 10.3858 0.2989 10.3318 0.264816 10.284C0.251483 10.2301 0.24415 10.1763 0.2314 10.1223C0.24415 10.0883 0.2314 10.0682 0.2314 10.0482C0.223512 9.99406 0.216705 9.9398 0.210983 9.88542C0.21765 9.87875 0.204233 9.77758 0.204233 9.77758C0.25815 9.78425 0.292316 9.79033 0.3259 9.79033C0.2584 9.70308 0.305316 9.64883 0.332733 9.59475C0.346233 9.56758 0.393566 9.56133 0.40715 9.53358C0.461066 9.43217 0.548983 9.3515 0.548983 9.22275C0.548983 9.16192 0.569817 9.09442 0.57615 9.03333C0.58965 8.91833 0.6029 8.8035 0.609316 8.68858C0.62315 8.53975 0.6094 8.39083 0.643483 8.24892C0.6979 8.01292 0.765317 7.776 0.8394 7.53925C0.893317 7.36992 0.954566 7.20842 1.02173 7.039C1.12307 6.77525 1.21757 6.5115 1.3459 6.26167C1.52807 5.89633 1.7374 5.54467 1.94007 5.1865C2.0684 4.96333 2.2034 4.75367 2.34548 4.53742C2.48023 4.32783 2.61498 4.1115 2.77073 3.91517C2.98698 3.63808 3.2234 3.381 3.48665 3.15117C3.75682 2.90792 4.01332 2.65783 4.3034 2.43467C4.68065 2.14315 5.08259 1.88506 5.50465 1.66333C5.84923 1.48117 6.2069 1.3385 6.56482 1.20333C6.79448 1.11558 7.04423 1.075 7.28082 1.00058C7.55073 0.912584 7.82082 0.8725 8.10432 0.865584C8.28648 0.858917 8.46207 0.838334 8.64423 0.818C8.81118 0.805421 8.97787 0.789751 9.14423 0.771C9.13093 0.787608 9.1195 0.805634 9.11015 0.82475C9.03632 0.933084 8.95523 1.04142 8.8809 1.14942C8.82007 1.23742 8.75257 1.332 8.69173 1.41975C8.58348 1.56225 8.46873 1.70408 8.36757 1.85283C8.2124 2.07617 8.07032 2.30592 7.90815 2.52892C7.74648 2.74517 7.57082 2.94825 7.40198 3.15758C7.17923 3.44858 6.96982 3.74592 6.74715 4.03658C6.54448 4.31367 6.32915 4.57783 6.13307 4.85492C5.95757 5.09792 5.80198 5.35525 5.63315 5.60492C5.38348 5.97692 5.13373 6.34192 4.88407 6.714C4.6881 6.99713 4.49004 7.27881 4.2899 7.559C4.27632 7.5795 4.25607 7.58558 4.23607 7.59917C4.18215 7.68692 4.18215 7.73442 4.16157 7.775C4.10773 7.87625 4.0539 7.97783 3.9929 8.07275C3.95898 8.12667 3.91165 8.17375 3.87115 8.22792C3.86448 8.14683 3.97882 8.10617 3.9249 8.00458C3.89157 8.05892 3.8574 8.10608 3.8239 8.16025L3.7429 8.32192C3.7694 8.34208 3.81482 8.35592 3.77123 8.39475C3.76673 8.37892 3.74398 8.36825 3.7269 8.35533L3.72665 8.355C3.66973 8.43414 3.61588 8.51545 3.56523 8.59875C3.60573 8.63233 3.62573 8.61908 3.65273 8.57158C3.67707 8.52275 3.71215 8.48467 3.74373 8.44308C3.73254 8.46394 3.72095 8.48458 3.70898 8.505C3.73822 8.48775 3.76356 8.46462 3.7834 8.43708C3.7834 8.5115 3.74282 8.57217 3.70898 8.63292C3.68198 8.68692 3.61457 8.72775 3.56732 8.768C3.57398 8.77467 3.62132 8.79525 3.62823 8.802C3.68907 8.7815 3.70932 8.748 3.71632 8.768C3.73682 8.74108 3.75665 8.72083 3.76332 8.70058C3.78998 8.63283 3.83057 8.57892 3.89807 8.55167C3.92523 8.53817 3.9454 8.51792 3.96573 8.49792C4.1684 8.28808 4.37748 8.08542 4.55965 7.86208C4.8434 7.51708 5.09998 7.15917 5.37048 6.80767C5.4849 6.65883 5.62023 6.51017 5.74157 6.368C5.76157 6.5235 5.74823 6.67208 5.74157 6.81442C5.72107 7.06442 5.70782 7.31458 5.68782 7.57117C5.6809 7.6725 5.68765 7.77383 5.68073 7.8755C5.68073 7.90242 5.66032 7.92275 5.66032 7.94992C5.66032 8.01742 5.68073 8.09192 5.68073 8.15967C5.66023 8.40983 5.63307 8.65292 5.61282 8.903C5.6059 8.95692 5.63282 9.01133 5.64615 9.05875C5.61282 9.42358 5.68715 9.80933 5.62615 10.1948C5.67332 10.1203 5.68698 10.0729 5.68698 10.0258C5.6934 9.98517 5.68698 9.94467 5.68698 9.89742V9.82983C5.6934 9.70792 5.72015 9.57975 5.70682 9.45783C5.69332 9.32267 5.69315 9.19433 5.72032 9.06575C5.7339 9.01183 5.7139 8.94408 5.74782 8.87642V8.97775C5.74115 9.36258 5.75473 9.74825 5.70082 10.1336C5.6939 10.1675 5.72115 10.2286 5.64673 10.2216C5.58565 10.3433 5.66007 10.4313 5.5929 10.4988C5.57907 10.5123 5.60582 10.5732 5.61282 10.6138C5.58557 10.695 5.58557 10.695 5.62615 10.7018C5.63282 10.8505 5.64665 10.9853 5.65307 11.1275C5.76082 10.8709 5.70698 10.6066 5.75473 10.3428C5.76132 10.4511 5.76832 10.5596 5.7614 10.674C5.7614 10.8503 5.75448 11.0188 5.7479 11.1946C5.7479 11.2285 5.74098 11.2623 5.7344 11.2963C5.71382 11.3912 5.70765 11.4856 5.67382 11.5733C5.64682 11.6411 5.66048 11.7428 5.66048 11.8236V12.0809C5.6874 12.1959 5.65348 12.2566 5.67382 12.3241C5.65323 12.3921 5.64673 12.4125 5.65315 12.4328L5.67382 12.5341C5.80898 12.5206 5.74815 12.6221 5.80207 12.6759C5.76148 12.7303 5.77515 12.7503 5.77515 12.7778C5.77515 12.8387 5.76865 12.8928 5.76182 12.9537C5.76182 13.1091 5.75498 13.2645 5.75498 13.4133C5.75498 13.4338 5.76173 13.4537 5.76173 13.4739C5.76173 13.4878 5.75507 13.6636 5.75507 13.6636C5.76848 13.6836 5.7549 13.7039 5.73432 13.7242C5.7279 13.7242 5.70765 12.8656 5.70765 12.8656H5.60632C5.59298 13.2709 5.62698 13.6359 5.55257 14.0149C5.47148 14.0216 5.44465 14.0349 5.3564 14.0349C5.14707 14.0349 4.93782 14.0348 4.72848 14.0416C4.47857 14.0416 4.23582 14.0483 3.98565 14.0483C3.86457 14.0483 3.7364 14.0622 3.61482 14.0622C3.45257 14.0622 3.28382 14.0415 3.12215 14.0415C2.87198 14.0415 2.6289 14.062 2.37907 14.0687C2.1969 14.0753 2.01482 14.0753 1.83265 14.0822C1.71073 14.0888 1.58882 14.0953 1.46765 14.1091C1.41382 14.1158 1.36648 14.1358 1.29898 14.1561C1.27848 14.1561 1.2314 14.1494 1.19115 14.1561C1.12315 14.1696 1.06298 14.2102 0.994983 14.224C0.89365 14.2445 0.86665 14.271 0.879983 14.3726V14.4403C0.8734 14.4536 1.02865 14.4196 1.02865 14.4196C1.01482 14.4196 1.00815 14.4602 0.98765 14.494C1.04198 14.4735 1.07573 14.4601 1.10965 14.4468C1.21098 14.4943 1.29865 14.4673 1.3794 14.4878C1.64273 14.555 1.91273 14.5828 2.18257 14.6092C2.3584 14.6227 2.52715 14.6297 2.70257 14.6361C2.95232 14.6496 3.20207 14.6633 3.45173 14.6633C3.66107 14.6633 3.86373 14.6428 4.07257 14.6428C4.36257 14.6428 4.65348 14.6562 4.94365 14.6633C5.00448 14.6633 5.07207 14.6566 5.13957 14.6566H5.63215C6.0714 14.6433 6.51015 14.636 6.94915 14.6233C7.19932 14.6158 7.45565 14.6027 7.70532 14.5958L8.47507 14.5751C8.77215 14.5684 9.06923 14.5684 9.35973 14.5623C9.5824 14.5623 9.7984 14.5548 10.0216 14.5482C10.271 14.5415 10.5276 14.5213 10.7775 14.5079C10.9127 14.5013 11.0479 14.4873 11.1829 14.4739C11.3451 14.4606 11.5138 14.4406 11.6755 14.4337C11.9187 14.4198 12.1686 14.4133 12.4118 14.3997C12.7156 14.3797 13.0195 14.3525 13.3299 14.3456C13.6136 14.3323 13.9039 14.3389 14.1877 14.3323C14.4377 14.3256 14.6873 14.3118 14.9438 14.3051L15.3699 14.2844C15.3699 14.2844 15.6532 14.2778 15.7951 14.264C16.0381 14.2507 16.2809 14.2237 16.5241 14.217C16.6791 14.2103 16.8346 14.2172 16.9898 14.2103C17.2395 14.2037 17.4961 14.1897 17.746 14.1897C17.8402 14.1897 17.9414 14.2037 18.0631 14.2103C18.0091 14.2578 17.9753 14.2846 17.9347 14.3185C17.9617 14.3252 17.9886 14.3391 18.0157 14.3525C17.9752 14.3794 17.9416 14.3859 17.9082 14.3859C17.8943 14.4201 17.8807 14.4334 17.8671 14.5012H17.9886C17.9414 14.5012 17.9011 14.562 17.8538 14.6025C17.8 14.5887 17.7522 14.6025 17.7253 14.6769C17.7726 14.7036 17.766 14.7239 17.7593 14.7513C17.6782 14.778 17.6176 14.8052 17.6516 14.8928C17.6241 14.9063 17.5905 14.9198 17.5567 14.9401C17.5232 14.994 17.4622 15.0076 17.4756 15.0819C17.5028 15.0886 17.5295 15.1028 17.5501 15.1088C17.5162 15.1223 17.4826 15.1425 17.4487 15.1558C17.3273 15.2303 17.3812 15.2642 17.4082 15.298C17.3877 15.3115 17.3679 15.325 17.3476 15.332C17.361 15.3928 17.381 15.4064 17.3878 15.4064C17.3638 15.4248 17.3402 15.4436 17.317 15.4629C17.3191 15.4554 17.3219 15.448 17.3253 15.4409H17.2982C17.2982 15.4533 17.3007 15.464 17.3026 15.4746C17.2964 15.4796 17.2929 15.4821 17.2865 15.4873C17.266 15.5482 17.239 15.575 17.2121 15.6155C17.1851 15.6561 17.1715 15.7105 17.1377 15.7508C16.996 15.9067 16.8946 16.0895 16.7124 16.2108C16.6446 16.2583 16.5841 16.3191 16.5232 16.3801C16.4017 16.4948 16.2937 16.6234 16.1655 16.7318C15.9969 16.8736 15.8218 17.0018 15.6392 17.1303C15.4167 17.2858 15.194 17.4415 14.971 17.5903C14.8494 17.6712 14.7143 17.7319 14.586 17.8063C14.4577 17.8808 14.3361 17.9484 14.2078 18.0226C14.1267 18.0765 14.0524 18.1508 13.9647 18.1918C13.7419 18.2868 13.5055 18.3677 13.2761 18.4557C13.0529 18.5507 12.8911 18.6313 12.7224 18.6921C12.5671 18.746 12.405 18.787 12.2431 18.8203C12.1892 18.8342 12.1281 18.8204 12.0672 18.8278C11.9523 18.8483 11.8377 18.8757 11.7227 18.889C11.4256 18.9295 11.1286 18.9565 10.8319 18.9971C10.6561 19.0176 10.487 19.051 10.3115 19.0715C10.1901 19.0782 10.062 19.0648 9.9404 19.0648C9.85265 19.0648 9.75832 19.0855 9.67032 19.0723C9.52865 19.0518 9.38665 19.0186 9.24482 18.9913C9.21148 18.9847 9.1639 18.9707 9.13723 18.9847C9.08332 19.0118 9.0354 18.9713 8.98123 18.9847C8.9479 18.9913 8.91407 18.9643 8.88015 18.9643C8.85298 18.9576 8.81923 18.9718 8.78532 18.9643C8.71098 18.9443 8.64365 18.9171 8.56198 18.9238C8.48173 18.9304 8.40032 18.89 8.31315 18.87C8.19123 18.8428 8.07715 18.8163 7.95498 18.7888C7.90807 18.7753 7.86773 18.7548 7.82023 18.7279C7.64448 18.7279 7.52965 18.7213 7.42165 18.6804C7.32723 18.6471 7.23957 18.5997 7.13832 18.6133C7.11165 18.6199 7.09123 18.6066 7.06382 18.6066C7.04332 18.5794 7.02348 18.5253 7.00348 18.5253C6.86848 18.532 6.78748 18.4177 6.67257 18.3835C6.61198 18.363 6.56465 18.2954 6.50382 18.2752C6.35498 18.2143 6.23407 18.0862 6.06532 18.0659C6.0114 18.0593 5.95732 18.0318 5.89632 18.0118C5.91682 18.0384 5.92982 18.059 5.95032 18.0792C5.75457 17.9842 5.57223 17.8764 5.38982 17.7748C5.36315 17.7682 5.34298 17.7415 5.32273 17.7276L5.14032 17.6048C5.03898 17.6253 4.99857 17.5845 4.97115 17.5712C4.7889 17.4429 4.57982 17.3615 4.40407 17.2196C4.32965 17.1585 4.2424 17.1179 4.18857 17.0436C4.09357 16.9286 3.97882 16.8478 3.85057 16.7803C3.74948 16.7263 3.65507 16.6653 3.56065 16.6044C3.51315 16.5706 3.46582 16.53 3.46582 16.4556C3.46582 16.4081 3.4459 16.3608 3.38515 16.3879C3.35815 16.3474 3.33123 16.3002 3.2974 16.2866C3.21632 16.2533 3.16223 16.1916 3.10148 16.1377C3.04065 16.0838 2.99382 16.0095 2.9194 15.9825C2.78423 15.9286 2.70298 15.8137 2.62215 15.719C2.43282 15.4958 2.26407 15.2521 2.08857 15.0161C2.07498 14.9956 2.04798 14.9819 2.02773 14.9618C2.05465 15.0362 2.08857 15.0969 2.12223 15.1644C2.05498 15.1375 2.0079 15.0899 1.9674 15.0428C1.96048 15.0494 2.43282 15.8271 2.43282 15.8271C2.47382 15.8879 2.50723 15.9489 2.54773 16.0097C2.4464 16.0163 2.3789 15.9622 2.34507 15.9013C2.28448 15.7935 2.21698 15.7261 2.08198 15.7399C2.06865 15.6922 2.05498 15.638 2.04865 15.591C2.01676 15.5915 1.9849 15.589 1.95348 15.5835C2.04848 15.7323 2.12932 15.8608 2.21707 16.0095C2.1829 15.989 2.16323 15.9757 2.14915 15.969C2.27048 16.0973 2.35832 16.2597 2.51348 16.341C2.5474 16.4963 2.7229 16.5707 2.76348 16.7195C2.73015 16.7128 2.70223 16.7058 2.66832 16.6988C2.61448 16.6313 2.55365 16.564 2.49307 16.4897C2.50488 16.5338 2.52548 16.5751 2.55365 16.6111C2.63473 16.7124 2.70923 16.8138 2.80365 16.9018C2.83748 16.9362 2.88465 16.9497 2.88465 17.0105C2.93848 17.0374 2.95915 17.0438 2.97915 17.0438C2.99298 17.085 2.9729 17.1458 3.05365 17.1322C3.10748 17.2335 3.16123 17.2334 3.23565 17.1998C3.32365 17.2878 3.37098 17.2948 3.43148 17.2408C3.43148 17.2742 3.43832 17.3082 3.43832 17.3354C3.46523 17.3219 3.45898 17.3017 3.45898 17.2678C3.49232 17.2947 3.51273 17.3082 3.52607 17.3215C3.59357 17.4164 3.65448 17.5041 3.7489 17.5785C3.87723 17.6868 3.9919 17.8018 4.11298 17.9032C4.34957 18.0995 4.61348 18.2617 4.87648 18.4103C5.20082 18.5929 5.51148 18.789 5.84215 18.9644C6.24032 19.1744 6.66573 19.3167 7.10448 19.418C7.26665 19.4519 7.42198 19.4853 7.58432 19.5255C7.7254 19.5667 7.8674 19.6276 8.00932 19.6612C8.22532 19.7086 8.44807 19.7492 8.66407 19.7894C8.71107 19.7961 8.75907 19.8034 8.81298 19.8101C8.87323 19.8236 8.94748 19.7964 8.96107 19.8168C8.9949 19.8707 9.0219 19.8434 9.0624 19.8368C9.10965 19.8233 9.16365 19.8233 9.21757 19.8233C9.40665 19.83 9.58873 19.8703 9.77782 19.857C9.81882 19.857 9.87948 19.8228 9.9134 19.8903C9.97398 19.8635 10.0079 19.8634 10.0348 19.857C10.0421 19.9176 10.0346 19.9178 10.0217 19.9243C10.0079 19.931 9.98782 19.9377 9.9609 19.958C10.2039 20.0053 10.4334 20.0119 10.6356 19.958C10.9871 19.9849 11.2909 19.9445 11.5814 19.843C11.6083 19.8769 11.6286 19.9242 11.6691 19.8566C11.6825 19.8361 11.7161 19.8293 11.7433 19.8226C11.8039 19.8091 11.8783 19.7819 11.9321 19.8019C11.9932 19.8224 12.0137 19.7685 12.0606 19.7685C12.142 19.7685 12.2161 19.7618 12.2906 19.7481C12.3311 19.7414 12.3716 19.7212 12.4187 19.7076C12.3725 19.6846 12.3215 19.6729 12.2699 19.6733C12.3458 19.6358 12.4224 19.5999 12.4997 19.5657C12.4862 19.5857 12.4726 19.6124 12.446 19.6124H12.54C12.5194 19.6124 12.4926 19.6733 12.459 19.7138C12.7017 19.653 12.9244 19.5989 13.1406 19.5445C13.0663 19.4028 13.2216 19.4503 13.2757 19.369C13.2082 19.3895 13.1407 19.4094 13.0731 19.4228C13.3026 19.3081 13.5389 19.2068 13.7683 19.1054C13.735 19.1459 13.6938 19.1664 13.6336 19.2005C13.6741 19.2072 13.7011 19.2072 13.7213 19.2133C13.8291 19.2473 13.8024 19.1461 13.836 19.085C13.9643 19.085 14.0181 19.065 14.0789 19.0445C14.1464 19.024 14.2139 19.0038 14.2816 18.9768C14.3893 18.9296 14.4907 18.8691 14.5987 18.8152C14.6192 18.8077 14.6527 18.8152 14.6799 18.8152C14.7543 18.7674 14.7808 18.727 14.8011 18.7337C14.8961 18.7472 14.9627 18.7133 14.9899 18.6261C14.9979 18.6203 15.0019 18.6177 15.0092 18.6123C15.0363 18.6718 15.0905 18.6784 15.1782 18.6181C15.1241 18.6181 15.07 18.6114 15.0228 18.6047C15.0178 18.6047 15.0161 18.608 15.0132 18.6097C15.047 18.5847 15.0781 18.5608 15.1049 18.5444C15.2532 18.4633 15.3946 18.3823 15.5434 18.3013C15.5972 18.3013 15.6246 18.3013 15.6379 18.2946C15.7262 18.2535 15.8071 18.2068 15.8879 18.1593C15.8674 18.1526 15.8205 18.1259 15.8205 18.1259C15.8641 18.1178 15.907 18.1064 15.9488 18.0918C16.1104 17.902 16.3337 17.7736 16.5022 17.6248C16.5767 17.6181 16.5767 17.5979 16.5767 17.5846C16.6033 17.5507 16.6306 17.5102 16.6639 17.4829C16.8127 17.3478 16.9743 17.2328 17.1095 17.0909C17.3053 16.8944 17.4942 16.6913 17.6697 16.4818C17.8314 16.2924 17.9942 16.1034 18.1292 15.8938C18.3183 15.6031 18.4801 15.3054 18.649 15.0009C18.7706 14.7849 18.8787 14.5687 19.0007 14.3524C19.0133 14.3319 19.0407 14.3048 19.0609 14.3048C19.2431 14.2843 19.4259 14.2715 19.6013 14.2511C19.6419 14.2444 19.6891 14.2175 19.7296 14.1969C19.7091 14.1631 19.6958 14.1228 19.6757 14.0888C19.6486 14.0478 19.6081 14.0144 19.581 13.9733C19.5543 13.94 19.5338 13.899 19.5136 13.8587C19.4931 13.8253 19.473 13.7979 19.4527 13.7636C19.4116 13.6892 19.3714 13.6148 19.3372 13.5343C19.3306 13.5138 19.3167 13.4803 19.3239 13.4598C19.4455 13.1963 19.4928 12.9126 19.6075 12.6488C19.7222 12.3784 19.7563 12.0741 19.8102 11.7834C19.8574 11.5063 19.8844 11.2291 19.9177 10.952C19.9383 10.756 19.9655 10.5666 19.9719 10.3706C20.0129 10.0596 19.9989 9.76867 19.9922 9.47775C19.9856 9.22108 19.9717 8.95742 19.9589 8.70033L19.9583 8.6995C19.9449 8.43583 19.9381 8.17217 19.911 7.90867C19.8638 7.55025 19.8166 7.185 19.7355 6.8335C19.6747 6.54283 19.5738 6.26558 19.4722 5.9885C19.3439 5.66392 19.2157 5.33267 19.0535 5.02183C18.7902 4.52142 18.446 4.07508 18.1286 3.60858C17.9187 3.311 17.6487 3.06767 17.4461 2.76333C17.3314 2.58758 17.1625 2.43917 16.9937 2.30417C16.7235 2.08733 16.4401 1.89117 16.1566 1.70208C15.9405 1.55325 15.7246 1.41133 15.4946 1.28283C15.3125 1.181 15.1167 1.09992 14.9277 1.01192C14.7116 0.910584 14.5021 0.788584 14.2592 0.741334C14.1981 0.728584 14.1442 0.708 14.0834 0.687584C13.9282 0.633667 13.7797 0.572834 13.6242 0.525334C13.3882 0.450917 13.1586 0.363334 12.9153 0.30225C12.6798 0.241417 12.4366 0.201084 12.1934 0.167C11.9235 0.12725 11.6468 0.11325 11.3764 0.0868337C11.2009 0.0663337 11.0255 0.0462503 10.8566 0.0395837C10.6001 0.026167 10.3369 0.026167 10.0804 0.0195003C9.95207 0.0128337 9.81707 -0.000999672 9.68882 0.00600033V0.006667ZM10.2672 0.79C10.3552 0.803834 10.4366 0.817334 10.5175 0.824167L10.8416 0.844667C11.0846 0.864417 11.3276 0.878167 11.5704 0.9115C11.7731 0.938917 11.9759 0.9795 12.1852 1.01317C12.6311 1.0875 13.0697 1.20925 13.4952 1.35108C13.7451 1.43217 13.9877 1.5405 14.2315 1.64192C14.778 1.86508 15.2981 2.13542 15.8112 2.41917C15.9728 2.50717 16.0678 2.649 16.1888 2.7775C16.3646 2.96025 16.5403 3.14275 16.7088 3.33183C16.9044 3.55508 17.0866 3.785 17.276 4.01492C17.4445 4.21758 17.6199 4.42033 17.7892 4.62358C17.8431 4.68442 17.8841 4.75875 17.9307 4.82625C18.0385 4.98867 18.1602 5.14417 18.2546 5.31967C18.3219 5.44842 18.3626 5.59733 18.4098 5.73917C18.477 5.94883 18.5448 6.1515 18.6125 6.36108C18.6594 6.51658 18.6995 6.67933 18.7333 6.84092C18.7606 6.9495 18.7542 7.06417 18.7875 7.17192C18.8285 7.31458 18.7875 7.46967 18.8285 7.61208C18.8349 7.62558 18.8414 7.64575 18.8486 7.65933C18.8756 7.686 18.8956 7.71333 18.855 7.75383C18.8486 7.7605 18.8486 7.78717 18.855 7.80758C18.8688 7.79425 18.8757 7.78058 18.8892 7.76033C18.8892 7.77383 18.8956 7.78117 18.8956 7.7875C18.8956 7.81417 18.8886 7.84125 18.8956 7.86817C18.8956 7.88158 18.9089 7.90158 18.9156 7.91542C18.9292 7.90158 18.9426 7.89492 18.9695 7.87442C19.0303 8.10458 19.0374 8.33425 19.0374 8.57083C19.0374 8.794 19.0775 9.01725 18.9833 9.2335C19.0033 9.15908 18.9562 9.09125 18.9766 9.02375L18.9793 9.02542C18.9724 9.02542 18.9322 8.98425 18.9256 8.97758C18.9186 8.99808 18.9256 9.018 18.912 9.04525C18.9051 9.02525 18.858 9.03217 18.858 9.01208C18.8511 9.1065 18.8983 9.20108 18.8913 9.29575C18.9119 9.28225 18.9928 9.27525 19.0131 9.25525C19.02 9.26192 19.0336 9.26867 19.0402 9.26867C18.9051 9.37033 18.939 9.47142 18.9998 9.58683C19.0132 9.6135 19.0536 9.66742 19.0131 9.72158C18.9998 9.73508 19.0201 9.7755 19.0267 9.80967H19.0466V9.82275L18.9857 9.84317C18.9723 9.82267 18.8914 9.78275 18.8914 9.74833V10.0937C18.9589 10.1142 18.959 10.2084 18.9859 10.2558C18.9977 10.2394 19.007 10.2213 19.0134 10.2021L19.0201 10.2088C19.0132 10.2493 19.0066 10.2897 18.993 10.3305C18.9796 10.3911 18.966 10.4453 18.9596 10.506C18.9596 10.5127 18.9726 10.5265 18.9726 10.5329C18.8987 10.7023 18.9392 10.8911 18.9122 11.0666C18.8917 11.1949 18.9122 11.331 18.8987 11.466C18.8849 11.581 18.8575 11.7023 18.8308 11.8173C18.8239 11.8378 18.8104 11.8445 18.777 11.8581C18.7904 11.777 18.7837 11.7227 18.7703 11.6483C18.763 11.6483 18.6753 11.6011 18.6684 11.6011C18.6684 11.696 18.7223 11.8245 18.7428 11.9323C18.7223 11.9256 18.6414 11.8782 18.635 11.8782C18.6211 11.9593 18.621 12.0676 18.6143 12.1553C18.6074 12.2231 18.5471 12.2837 18.5401 12.358C18.5401 12.3991 18.5873 12.4258 18.5807 12.4936H18.6344C18.6344 12.3586 18.6956 12.2369 18.6956 12.0948H18.7154C18.7223 12.1083 18.7427 12.1221 18.7361 12.1288C18.7226 12.2032 18.6949 12.2842 18.7021 12.3586C18.7021 12.3992 18.7356 12.4396 18.7227 12.4868C18.7089 12.5279 18.7022 12.5682 18.6953 12.6289C18.6884 12.5951 18.6818 12.5818 18.6818 12.5616C18.6751 12.5616 18.6143 12.5549 18.6073 12.5549C18.6007 12.5955 18.6548 12.636 18.6478 12.6699C18.6412 12.6766 18.6345 12.6766 18.6209 12.6833L18.3982 12.3587C18.2208 12.1008 18.0451 11.8417 17.8713 11.5813C17.8258 11.5168 17.785 11.4491 17.7493 11.3787C17.5402 11.0199 17.3106 10.6752 17.054 10.344C16.8585 10.094 16.7025 9.82308 16.5204 9.56008C16.3521 9.30992 16.1832 9.06633 16.0145 8.81592C15.9536 8.73508 15.8795 8.66075 15.8253 8.57275C15.6502 8.29558 15.4945 8.01158 15.3195 7.73442C15.1707 7.50442 15.0089 7.28117 14.8535 7.05817C14.7996 6.98375 14.7456 6.90233 14.6912 6.82125C14.6846 6.8085 14.6779 6.79508 14.6779 6.77475C14.6643 6.626 14.6508 6.47708 14.6442 6.33517C14.6442 6.19992 14.6577 6.06483 14.6577 5.92267V5.80033C14.6577 5.76642 14.6641 5.7395 14.6641 5.7055C14.6705 5.69883 14.6774 5.68525 14.6841 5.67858C14.4884 5.67858 14.2857 5.67108 14.0899 5.67858C13.9616 5.68525 13.8942 5.63083 13.8066 5.53617C13.5499 5.2455 13.3607 4.91433 13.1381 4.60342C12.9287 4.30575 12.7126 4.01483 12.4966 3.72417C12.3208 3.48758 12.145 3.25783 11.9697 3.02125C11.7737 2.75083 11.585 2.48042 11.3823 2.20992C11.1391 1.88567 10.8891 1.56075 10.6395 1.23642C10.5241 1.08758 10.3958 0.94575 10.2675 0.79H10.2672ZM9.64073 1.14483C9.65515 1.14733 9.66882 1.15942 9.68232 1.17633C9.86448 1.40625 10.0465 1.64283 10.2286 1.87275C10.3641 2.04208 10.4992 2.20375 10.6276 2.37975C10.7828 2.59625 10.9312 2.81258 11.0867 3.02892C11.2622 3.27892 11.4377 3.52925 11.6065 3.78583C11.8631 4.16475 12.1061 4.54333 12.3626 4.92183C12.5518 5.19892 12.7407 5.46958 12.9229 5.74675H12.5781C12.261 5.74008 11.9366 5.71333 11.6196 5.72667C11.1875 5.74717 10.7487 5.79442 10.3167 5.82833C9.76973 5.87567 9.21615 5.882 8.66965 5.882C8.4734 5.882 8.27773 5.9095 8.08215 5.923C7.84565 5.93642 7.6159 5.95 7.37965 5.95642C7.10248 5.97025 6.83315 5.97692 6.55607 5.98392C6.40057 5.99058 6.23873 5.98392 6.06998 5.98392V5.98225C6.28548 5.68458 6.50873 5.38717 6.72473 5.08308C6.79223 4.99458 6.84615 4.89992 6.91357 4.81225C6.93415 4.785 6.96123 4.77142 6.99482 4.74425L6.98807 4.7315C7.01498 4.69733 7.04182 4.66992 7.05548 4.64317C7.08982 4.58933 7.11032 4.52825 7.13715 4.46742C7.14382 4.45467 7.16415 4.44108 7.16415 4.44108C7.25907 4.48833 7.25898 4.38717 7.2924 4.35308C7.35294 4.28499 7.41147 4.21513 7.4679 4.14358C7.5084 4.08967 7.54898 4.04217 7.5829 3.98142C7.5894 3.96092 7.56915 3.92758 7.56215 3.90017H7.54232C7.56282 3.88683 7.5829 3.86675 7.60315 3.85292C7.60982 3.85292 7.60982 3.85275 7.61657 3.84625C7.65541 3.78653 7.6959 3.7279 7.73798 3.67042C7.81882 3.56267 7.90657 3.45425 8.00098 3.35983C7.98765 3.39317 7.97415 3.42717 7.96057 3.45417C7.96748 3.45417 7.96748 3.46083 7.97407 3.46083C8.05515 3.3525 8.14298 3.25117 8.22407 3.14267C8.21715 3.136 8.2104 3.12933 8.2034 3.12933C8.17007 3.16317 8.14298 3.19708 8.10907 3.231C8.10248 3.22433 8.09557 3.21742 8.08848 3.21742C8.1564 3.12942 8.2239 3.04158 8.29115 2.94025C8.30465 2.96075 8.31823 2.9875 8.3449 3.04167C8.3724 2.97417 8.3994 2.92692 8.4194 2.87942C8.3994 2.89992 8.37257 2.92 8.35223 2.94058L8.33165 2.92L8.45332 2.738C8.58165 2.55525 8.70982 2.36583 8.83807 2.18317C8.88557 2.11567 8.9459 2.06175 8.98698 1.994C9.11532 1.7375 9.31807 1.53417 9.47307 1.29767C9.5069 1.25042 9.5539 1.20992 9.59448 1.16933C9.61115 1.14892 9.62632 1.14183 9.64065 1.14433L9.64073 1.14483ZM7.7369 3.77875C7.69657 3.80567 7.66248 3.826 7.62223 3.85317L7.6219 3.8535C7.61498 3.86017 7.60823 3.86017 7.61482 3.86017C7.62173 3.8935 7.62173 3.921 7.6284 3.968C7.6759 3.9 7.70932 3.84608 7.7504 3.79217L7.7369 3.77875ZM13.4351 6.5635C13.4957 6.5635 13.5295 6.58408 13.5634 6.63792C13.6239 6.73925 13.6847 6.84058 13.7521 6.94225C13.7591 6.95558 13.7728 6.9755 13.7728 6.996C13.7728 7.14475 13.7727 7.30033 13.7792 7.44917C13.7857 7.60467 13.8001 7.75342 13.8062 7.90892C13.8062 8.06442 13.7925 8.22658 13.7994 8.38875C13.8063 8.61892 13.8129 8.85558 13.8129 9.09167L13.814 9.09217V9.15333C13.8074 9.15333 13.8006 9.16 13.7871 9.16C13.7601 9.06508 13.7332 8.96367 13.6993 8.869C13.6319 8.67275 13.5574 8.47642 13.4358 8.30092C13.3003 8.11175 13.1791 7.91592 13.0437 7.71967C13.0104 7.67225 12.9626 7.63175 12.9221 7.5915C12.7801 7.43567 12.6385 7.27333 12.4562 7.15867C12.1878 6.99029 11.9054 6.84536 11.6121 6.7255C11.5311 6.69217 11.4568 6.651 11.376 6.60383H11.5376L12.6921 6.58333C12.9421 6.57667 13.1853 6.57667 13.435 6.56325L13.4351 6.5635ZM8.36507 6.73983C8.41398 6.739 8.4629 6.7405 8.5134 6.7465C8.40565 6.80092 8.29723 6.85508 8.20282 6.92258C8.08115 7.00367 7.9669 7.11175 7.84498 7.19967C7.72315 7.28742 7.61515 7.39583 7.51407 7.51083C7.38573 7.666 7.2439 7.80108 7.10865 7.94992C7.01373 8.05817 6.90615 8.15967 6.82532 8.27458C6.71057 8.42342 6.60915 8.58483 6.50115 8.75417C6.53498 8.11167 6.57565 7.47658 6.5484 6.8275L6.54898 6.828C6.86632 6.8145 7.1699 6.79408 7.4809 6.7805C7.7234 6.76692 7.9734 6.75975 8.21615 6.74642C8.26682 6.74308 8.31615 6.73975 8.36507 6.73975V6.73983ZM10.0589 7.08542C10.2608 7.09208 10.4634 7.09208 10.6659 7.1055C10.7536 7.11217 10.8347 7.13233 10.9159 7.15925C11.0169 7.19342 11.1249 7.2405 11.2196 7.28758C11.3343 7.34908 11.4422 7.41633 11.5506 7.49075C11.7463 7.61908 11.9286 7.76108 12.1244 7.876C12.3135 7.991 12.4619 8.14642 12.5836 8.32242C12.7324 8.53183 12.9008 8.72125 12.9683 8.97808L13.0694 9.4245C13.0899 9.50558 13.1372 9.58658 13.1169 9.681C13.0827 9.85033 13.0558 10.0263 13.0289 10.1953C13.0156 10.2633 13.0021 10.3313 13.0091 10.398C13.0218 10.6084 12.941 10.7904 12.8601 10.9797C12.833 11.0405 12.7924 11.1017 12.7588 11.1691C12.7654 11.1758 12.8059 11.1963 12.8126 11.1963L12.8734 11.0748C12.8804 11.0748 12.8804 11.0747 12.887 11.0815C12.8531 11.1759 12.8263 11.2776 12.7921 11.3723C12.7116 11.5818 12.6305 11.798 12.5291 12.0007C12.4752 12.1157 12.3804 12.2103 12.3131 12.3188C12.2459 12.4133 12.1918 12.5148 12.1243 12.6028C12.0635 12.6772 12.003 12.7516 11.9216 12.8055C11.7395 12.9407 11.5503 13.076 11.3546 13.1843C11.2332 13.2587 11.0912 13.299 10.9562 13.3328L10.9581 13.332C10.7418 13.3859 10.5194 13.4472 10.2962 13.4742C10.1074 13.5013 9.91132 13.4946 9.71557 13.4946C9.53957 13.4946 9.37073 13.4879 9.19523 13.4742C8.9994 13.4542 8.80365 13.4337 8.61457 13.3457C8.45223 13.2713 8.28365 13.2039 8.12207 13.1226C7.95932 13.0415 7.79748 12.9469 7.67557 12.7982C7.58832 12.6896 7.46648 12.6021 7.35848 12.5074C7.37821 12.5888 7.42916 12.6591 7.50032 12.7033C7.46648 12.7439 7.41915 12.7238 7.3514 12.6153C7.3314 12.6288 7.31123 12.6358 7.29765 12.6424C7.31815 12.5949 7.33823 12.5477 7.35848 12.5074C7.33157 12.4535 7.29765 12.3923 7.27073 12.3378C7.21647 12.2493 7.16465 12.1592 7.11532 12.0678C7.10182 12.0473 7.10182 12.0272 7.0884 12.007C7.05457 11.9663 7.02082 11.9258 6.99357 11.8853C6.93973 11.8044 6.89265 11.7166 6.82515 11.6353C6.82515 11.6558 6.8319 11.6757 6.8319 11.7029C6.82498 11.7029 6.8184 11.7096 6.8184 11.7096L6.67632 11.3648C6.66965 11.3648 6.66965 11.3647 6.66298 11.3715L6.78407 11.8179C6.77748 11.8179 6.7709 11.8246 6.76373 11.8246C6.74398 11.7979 6.72373 11.7708 6.7099 11.7373C6.69657 11.6829 6.65573 11.6828 6.6224 11.7032C6.6019 11.7166 6.58832 11.7641 6.59523 11.7843C6.64273 11.8993 6.6969 12.0142 6.75098 12.1292C6.76366 12.1686 6.77938 12.207 6.79798 12.2441C6.8049 12.2576 6.82515 12.2708 6.82515 12.2911C6.85232 12.345 6.87273 12.399 6.9064 12.4468C6.96723 12.5278 7.03473 12.6088 7.09548 12.6899C7.15582 12.771 7.20957 12.8593 7.26365 12.9402C7.27032 12.9537 7.29065 12.9537 7.29707 12.9606C7.33123 13.0619 7.4459 13.1362 7.52698 13.0956C7.54748 13.2511 7.71598 13.3052 7.7834 13.454C7.71721 13.4269 7.65197 13.3976 7.58782 13.366C7.5809 13.3727 7.5809 13.3793 7.57398 13.3929C7.65507 13.4334 7.73623 13.4739 7.81007 13.5212C7.87807 13.5623 7.94548 13.6028 8.00623 13.6497C8.08732 13.7241 8.18207 13.7651 8.29623 13.7918C8.28998 13.7712 8.2834 13.7643 8.2834 13.7643C8.47223 13.8523 8.66823 13.9469 8.81648 14.0208C8.11423 14.0347 7.36482 14.0483 6.58823 14.0618C6.58823 13.9335 6.58148 13.8116 6.58148 13.6831C6.58148 13.6292 6.59498 13.5818 6.5879 13.5277C6.5674 13.2172 6.56732 12.9057 6.52707 12.6014C6.48682 12.2771 6.48673 11.9592 6.49373 11.6341C6.50015 11.4589 6.48673 11.2765 6.47982 11.1005C6.47982 10.8639 6.47998 10.6337 6.48723 10.3976C6.48723 10.3637 6.50073 10.3366 6.5144 10.3025H6.53507C6.54148 10.3163 6.53498 10.3366 6.54782 10.3435C6.56832 10.364 6.60215 10.3974 6.61573 10.3908C6.65598 10.3636 6.71682 10.337 6.7304 10.2959C6.76373 10.2151 6.77765 10.127 6.77765 10.0459C6.77765 9.98533 6.80473 9.94492 6.8314 9.90408C6.84523 9.88358 6.85207 9.86367 6.86565 9.83675C6.83873 9.81625 6.81173 9.80283 6.7779 9.77592C6.80515 9.7015 6.79832 9.6135 6.89957 9.57325C6.91298 9.56658 6.91315 9.53208 6.92032 9.51208C6.92673 9.45742 6.93282 9.39667 6.94015 9.34283C6.95348 9.36333 6.96073 9.36967 6.97348 9.38308C6.98073 9.36967 6.9874 9.36242 6.9874 9.36242C6.9874 9.33575 6.98073 9.28158 6.9874 9.28158C7.06848 9.26817 7.03457 9.18033 7.07515 9.13983C7.08157 9.13233 7.0684 9.11233 7.0684 9.09883C7.0684 9.08542 7.06823 9.06542 7.07482 9.06542C7.16898 9.04492 7.15565 8.94358 7.2164 8.89617C7.2369 8.88267 7.24348 8.86267 7.27048 8.8285C7.32432 8.92292 7.22982 8.9705 7.22315 9.03792C7.33765 8.97042 7.3714 8.80825 7.3039 8.76083C7.33186 8.7394 7.35689 8.71438 7.37832 8.68642C7.45273 8.60533 7.5334 8.53108 7.60115 8.45C7.64865 8.38942 7.67565 8.31492 7.72282 8.25417C7.75007 8.22025 7.80382 8.19333 7.84432 8.17283C7.96598 8.10558 8.08048 8.03133 8.1549 7.91633C8.1684 7.90283 8.18865 7.88917 8.20865 7.87558C8.22923 7.86208 8.26965 7.86225 8.27632 7.84192C8.28323 7.82858 8.26298 7.7945 8.2494 7.77425C8.27607 7.76075 8.3034 7.73383 8.35732 7.70658C8.33673 7.74717 8.3304 7.77417 8.31682 7.80142L8.34998 7.83483C8.41098 7.78767 8.5054 7.73383 8.56623 7.69333C8.56623 7.68667 8.53257 7.65992 8.53257 7.65992C8.49223 7.68042 8.4314 7.71392 8.3709 7.74117C8.38365 7.72067 8.38365 7.707 8.39123 7.70033C8.4854 7.6395 8.57982 7.57883 8.68123 7.53117C8.91723 7.42333 9.15373 7.31508 9.39007 7.21375C9.43057 7.19325 9.48515 7.20708 9.53215 7.20708C9.55215 7.20708 9.56548 7.207 9.5859 7.20042C9.69365 7.1665 9.80207 7.13275 9.91007 7.10558C9.95851 7.09233 10.0085 7.0856 10.0587 7.08558L10.0589 7.08542ZM9.79615 7.186C9.72198 7.22008 9.66132 7.24683 9.60048 7.274H9.60023C9.60023 7.28067 9.56665 7.33483 9.57307 7.33483C9.6069 7.32817 9.68115 7.27408 9.72165 7.26717C9.7419 7.26717 9.76907 7.27383 9.78957 7.281C9.78957 7.25383 9.78948 7.22642 9.79598 7.18592L9.79615 7.186ZM14.6778 8.33692C14.7453 8.42467 14.8195 8.50617 14.8667 8.59342C15.0222 8.87767 15.2246 9.12125 15.4137 9.37808C15.5758 9.60133 15.7243 9.84458 15.8732 10.0745C16.0553 10.3516 16.2307 10.6285 16.413 10.9057C16.548 11.1155 16.6903 11.3252 16.8314 11.5282C16.9597 11.7103 17.0951 11.8863 17.2301 12.0623C17.3445 12.2178 17.4662 12.3733 17.5808 12.5288C17.716 12.7182 17.851 12.9072 17.9862 13.0899C18.0534 13.1843 18.1278 13.2788 18.2016 13.3736C18.2427 13.4275 18.3032 13.4688 18.3437 13.5021C18.3344 13.5023 18.3252 13.5 18.3171 13.4954C18.3376 13.5223 18.3506 13.5427 18.3644 13.5563C18.4388 13.5968 18.4454 13.6373 18.4049 13.6983L18.4054 13.6967C18.3988 13.7102 18.3849 13.7238 18.3785 13.7377C18.3716 13.7238 18.3716 13.7037 18.365 13.6763C18.3245 13.7848 18.2367 13.7306 18.1758 13.7306C17.8116 13.7373 17.44 13.7373 17.0752 13.7373C16.7242 13.7373 16.3666 13.7373 16.0156 13.7439C15.9006 13.7439 15.7789 13.7709 15.6639 13.7779C15.3874 13.7913 15.1105 13.7984 14.8336 13.8048C14.8131 13.8048 14.7933 13.7714 14.7595 13.7443C14.7528 13.7578 14.7386 13.7782 14.7186 13.8051C14.7114 13.7918 14.6983 13.7783 14.6847 13.7581C14.6792 13.7765 14.6723 13.7945 14.6641 13.8118H14.6445C14.631 13.7174 14.604 13.6296 14.604 13.5347C14.604 13.332 14.6245 13.1296 14.6309 12.9263C14.6378 12.8319 14.6309 12.744 14.6309 12.6558C14.6582 12.6763 14.6784 12.6901 14.7054 12.7098C14.7173 12.6867 14.7308 12.6643 14.7458 12.643C14.7458 12.643 14.7323 12.6363 14.7186 12.6226C14.7314 12.6159 14.7456 12.6021 14.7456 12.5954C14.7522 12.5749 14.766 12.5546 14.766 12.5413C14.766 12.4938 14.7522 12.4533 14.7456 12.4131C14.7522 12.4131 14.7588 12.4132 14.766 12.4064L14.8062 12.6091H14.8268C14.7997 12.5622 14.8874 12.5212 14.8133 12.4673C14.8066 12.4606 14.8197 12.4198 14.8197 12.3996C14.7992 12.3593 14.7864 12.3188 14.7659 12.2646C14.7726 12.2579 14.7929 12.2511 14.8132 12.2442C14.7862 12.2308 14.7658 12.2174 14.7456 12.2108C14.8131 12.1497 14.8131 12.1158 14.7522 12.0483C14.7661 12.0416 14.7795 12.0416 14.7795 12.0355C14.7795 11.9744 14.7795 11.9138 14.7662 11.8534C14.7526 11.7852 14.7867 11.7046 14.6852 11.6635C14.6912 11.6827 14.7003 11.7009 14.712 11.7173C14.712 11.7173 14.6916 11.7239 14.6716 11.7379C14.5838 11.6566 14.638 11.5479 14.6174 11.4266C14.6646 11.4401 14.6985 11.4538 14.7322 11.4676C14.7186 11.4198 14.685 11.3659 14.6647 11.3051H14.6372V10.8587C14.6372 10.8653 14.6846 10.8653 14.7117 10.8725C14.7117 10.8658 14.7181 10.8588 14.7181 10.8518C14.6976 10.8249 14.6708 10.7979 14.6439 10.7641L14.6574 10.7506C14.6036 10.6833 14.6306 10.5891 14.6306 10.5685V10.0952C14.6983 10.163 14.5971 10.2506 14.6982 10.2911V10.2238H14.6912C14.6845 10.1224 14.6845 10.0211 14.6778 9.9195H14.6644C14.6575 9.93333 14.6575 9.93983 14.6506 9.9535H14.6372L14.6778 8.33692ZM3.30148 8.88983C3.22098 8.9845 3.14657 9.07933 3.07223 9.1735H3.0714C3.08473 9.18017 3.10482 9.22783 3.11873 9.24142C3.1929 9.14008 3.29423 9.01167 3.36873 8.91675C3.36173 8.91008 3.30798 8.8965 3.30157 8.88983H3.30148ZM2.84915 9.22133C2.80857 9.28192 2.70765 9.39042 2.66707 9.45117C2.67373 9.45783 2.7479 9.42417 2.75457 9.43133C2.79507 9.3705 2.83557 9.30267 2.87607 9.24167C2.86282 9.235 2.85607 9.22783 2.84915 9.22125V9.22133ZM2.87607 9.24175L2.87632 9.242V9.2415L2.87607 9.24175V9.24175ZM2.9904 9.32242C2.95015 9.35017 2.90982 9.38408 2.86923 9.411C2.88273 9.42433 2.88273 9.43158 2.88273 9.445C2.8289 9.43833 2.80832 9.46542 2.7814 9.53925C2.77473 9.55975 2.74082 9.56633 2.70698 9.593C2.70032 9.60683 2.69373 9.64092 2.68007 9.6745L2.68682 9.68117C2.67702 9.69015 2.66559 9.69717 2.65315 9.70183C2.61257 9.74208 2.56515 9.77625 2.52465 9.8165C2.51798 9.837 2.51132 9.85708 2.51132 9.87733C2.55873 9.83008 2.63957 9.74208 2.7004 9.68792L2.7074 9.69458C2.7344 9.654 2.75465 9.61375 2.7819 9.57317C2.78832 9.57983 2.78832 9.58642 2.79523 9.59358C2.77473 9.6475 2.75465 9.70817 2.7344 9.76233C2.72023 9.769 2.6999 9.78283 2.6999 9.77583C2.67298 9.79633 2.65265 9.82292 2.6254 9.84317L2.50423 9.924C2.43673 9.98483 2.36923 10.0388 2.29473 10.0998C2.24757 10.1743 2.20057 10.2418 2.14615 10.3298C2.22748 10.3093 2.24765 10.3436 2.24098 10.4113C2.3354 10.4246 2.34223 10.3504 2.36923 10.2963C2.3759 10.2825 2.38273 10.2552 2.39615 10.2485C2.45698 10.1946 2.52448 10.1474 2.59198 10.0933C2.60557 10.0798 2.60557 10.0522 2.60557 10.0322C2.60557 10.0255 2.5714 10.0255 2.55115 10.0187C2.61198 9.95092 2.69982 9.83658 2.7604 9.76217C2.79432 9.74167 2.82807 9.71425 2.82807 9.694C2.82257 9.63192 2.85473 9.60767 2.89707 9.58558C2.86557 9.73167 2.77707 9.85658 2.68707 9.88225C2.71398 9.89575 2.74098 9.90958 2.76148 9.90292C2.78148 9.89625 2.7949 9.86175 2.80848 9.84175L2.99057 9.57825L3.05165 9.47658L3.02473 9.44942L3.02448 9.45025C2.99757 9.4975 2.97048 9.53808 2.94357 9.58558L2.92048 9.57392C2.92123 9.5735 2.92198 9.57308 2.92273 9.57225C2.89557 9.55175 2.88857 9.53192 2.88857 9.52525L2.88882 9.52442C2.89598 9.50392 2.9094 9.48383 2.92298 9.46358C2.9364 9.46358 2.95648 9.45692 2.95648 9.45692C2.98398 9.40967 2.9839 9.37575 3.01082 9.33525C3.00415 9.32858 2.99715 9.32858 2.99015 9.32167L2.9904 9.32242ZM14.7059 10.1541L14.7053 10.1544C14.7048 10.1561 14.7053 10.1578 14.7048 10.1594C14.7053 10.1578 14.7052 10.1561 14.7059 10.1544V10.1541ZM14.7048 10.1591C14.7001 10.1772 14.6981 10.196 14.6988 10.2148C14.6988 10.1962 14.6996 10.1775 14.7048 10.1591ZM14.6988 10.2819V10.2886C14.7057 10.2953 14.7063 10.2953 14.7122 10.2891C14.7056 10.2891 14.7056 10.2893 14.6988 10.2824V10.2819ZM14.6988 10.2954C14.6791 10.3021 14.6586 10.3021 14.6314 10.3089C14.6645 10.3215 14.6973 10.3288 14.6988 10.3415V10.2954ZM14.6988 10.3416V10.3433L14.6993 10.3428C14.6993 10.3424 14.6988 10.3422 14.6988 10.3419V10.3416ZM13.706 11.5265C13.6925 12.2973 13.7804 13.0543 13.8815 13.8183C13.1187 13.8453 12.342 13.8721 11.559 13.8993L11.5592 13.8991C11.8627 13.7708 12.1126 13.5886 12.3417 13.3788C12.3759 13.3449 12.4096 13.3114 12.4501 13.2839C12.7339 13.1084 12.9428 12.865 13.1321 12.5946C13.3481 12.2837 13.49 11.9319 13.6657 11.6007C13.6777 11.5752 13.6911 11.5504 13.706 11.5265V11.5265ZM14.6512 11.5877C14.6621 11.6095 14.6712 11.6321 14.6784 11.6553C14.7117 11.6487 14.7257 11.6487 14.739 11.6418C14.739 11.6352 14.7389 11.6286 14.7457 11.6214L14.7455 11.6212C14.7255 11.6145 14.6987 11.6013 14.6512 11.5878L14.6512 11.5877ZM14.6708 11.6491C14.67 11.6491 14.6682 11.6508 14.6648 11.6541L14.6651 11.6549C14.6715 11.6549 14.6784 11.6616 14.6784 11.6616L14.6717 11.6541C14.6717 11.6508 14.6717 11.6491 14.6709 11.6491H14.6708ZM0.89165 11.6754C0.878233 11.6754 0.837483 11.6959 0.830816 11.7026C0.857816 11.7701 0.89165 11.8446 0.91865 11.9123C0.925233 11.9057 0.965733 11.8854 0.9724 11.8854C0.945317 11.8179 0.918566 11.7435 0.891733 11.6754H0.89165ZM0.702066 11.9528C0.682066 11.9868 0.661733 12.0202 0.668733 12.0468C0.668733 12.0671 0.702233 12.0872 0.722733 12.1077C0.7229 12.101 0.729233 12.0944 0.736067 12.0881C0.722733 12.0407 0.715983 12 0.70215 11.9528L0.702066 11.9528ZM18.7496 11.9595C18.7496 11.9729 18.7563 11.9927 18.7496 12.0065V11.9595ZM1.05315 12.1082C1.04648 12.1082 0.999233 12.1284 0.992567 12.1353C1.0464 12.25 1.10032 12.372 1.15423 12.4869L1.15448 12.4866C1.1614 12.4866 1.21532 12.4597 1.21532 12.4597C1.16098 12.3443 1.12757 12.2158 1.05315 12.1081V12.1082ZM0.9184 12.3785C0.9184 12.4052 0.8844 12.3985 0.8844 12.4255C0.8444 12.4255 0.810567 12.4188 0.776817 12.4188C0.77015 12.4255 0.797067 12.4663 0.803983 12.4732H0.945566C0.945566 12.439 0.939066 12.4123 0.939066 12.3783L0.9184 12.3785ZM7.12923 12.642C7.20373 12.757 7.2784 12.8653 7.35923 12.973H7.35948L7.35273 12.9797C7.33857 12.973 7.31823 12.9663 7.3049 12.9528L7.14298 12.709C7.12965 12.689 7.12215 12.6686 7.1294 12.6416L7.12923 12.642ZM14.6651 13.0073L14.6648 13.0075C14.6582 13.0886 14.6513 13.1494 14.6513 13.2102C14.6513 13.2237 14.665 13.2504 14.672 13.2504C14.6853 13.2579 14.7122 13.2438 14.7257 13.2377C14.7324 13.231 14.7391 13.2174 14.7391 13.2105C14.7188 13.1967 14.6991 13.1901 14.6786 13.176C14.8068 13.1085 14.6786 13.0748 14.6652 13.0073H14.6651ZM2.90373 16.8337C2.9774 16.915 3.05182 16.9962 3.12598 17.0842C3.0854 17.0637 3.03815 17.0503 3.01815 17.023C2.9709 16.9691 2.93057 16.9082 2.88332 16.8543L2.90373 16.8337ZM3.18707 17.0706C3.20765 17.1044 3.2209 17.145 3.2409 17.1856C3.14648 17.1789 3.09923 17.1381 3.12623 17.0842C3.14673 17.0775 3.16715 17.0775 3.18707 17.0707V17.0706ZM16.0495 18.1058C15.9951 18.1185 15.9545 18.1258 15.9212 18.1392C15.9074 18.1663 15.8937 18.1864 15.8802 18.2133C15.8871 18.2133 15.8938 18.22 15.9008 18.2268C15.9414 18.1863 15.9883 18.1527 16.0495 18.1057V18.1058ZM15.7041 18.2941C15.6297 18.3416 15.5489 18.3888 15.4745 18.4359C15.4812 18.4426 15.4812 18.4499 15.4883 18.4566C15.5827 18.4363 15.6572 18.3888 15.7315 18.3349L15.7312 18.3343C15.7247 18.3208 15.711 18.3068 15.7041 18.2941ZM12.3969 19.5795C12.0864 19.6673 11.9849 19.6805 11.9511 19.6333C12.1064 19.6128 12.2486 19.5994 12.3969 19.5795ZM11.9371 19.6401C11.9441 19.6535 11.9441 19.6669 11.9506 19.6803C11.9101 19.6803 11.8831 19.6943 11.8493 19.7007L11.8491 19.7004C11.7549 19.7209 11.6536 19.7347 11.5591 19.7483C11.5252 19.7549 11.4847 19.7889 11.4714 19.7278C11.4579 19.7345 11.4442 19.7345 11.4309 19.7417C11.4642 19.8428 11.5457 19.7614 11.6132 19.802C11.4644 19.8225 11.3233 19.8361 11.1812 19.8561V19.8427C11.2222 19.836 11.2691 19.829 11.3095 19.822V19.8019C11.2422 19.7953 11.1747 19.7884 11.1067 19.7884C11.087 19.7884 11.0596 19.8158 11.0394 19.8224C11.0124 19.8291 10.9855 19.8359 10.9516 19.8359C10.8369 19.8426 10.7225 19.8426 10.6141 19.8493C10.6072 19.8493 10.5936 19.8427 10.587 19.8427V19.822C11.0393 19.7614 11.4847 19.7008 11.9371 19.6399L11.9371 19.6401ZM10.5261 19.8153V19.8352C10.401 19.8553 10.2748 19.8688 10.1482 19.8757V19.8558C10.2766 19.8425 10.3979 19.8287 10.5261 19.8153Z"/>
</mask>
<path d="M9.68882 0.006667C9.49298 0.0133337 9.29715 0.0335003 9.10107 0.060417C8.91223 0.080917 8.72332 0.1145 8.54107 0.141917C8.31865 0.168834 8.09598 0.182334 7.87298 0.209584C7.66365 0.23675 7.44765 0.277334 7.23857 0.31125C7.16415 0.324667 7.08965 0.351584 7.01523 0.364917C6.85357 0.39875 6.68473 0.412417 6.52257 0.466584C6.23265 0.554917 5.94207 0.656584 5.65857 0.764334C5.39507 0.872667 5.13848 0.9875 4.88882 1.12267C4.63223 1.26433 4.38898 1.43308 4.14598 1.59575C3.91607 1.75125 3.68698 1.91342 3.46373 2.08917C3.24823 2.2585 3.0454 2.44758 2.8494 2.637C2.74165 2.74475 2.65357 2.87342 2.55215 2.99508C2.38357 3.19133 2.2149 3.38033 2.05273 3.58333C1.91832 3.75267 1.79607 3.92817 1.66773 4.10417C1.43857 4.41467 1.2429 4.74625 1.06073 5.07767C0.986316 5.21292 0.919067 5.34817 0.851567 5.48308C0.750233 5.68575 0.64215 5.88208 0.547733 6.09175C0.480067 6.23383 0.426066 6.38925 0.385566 6.54467C0.2914 6.87617 0.196733 7.21433 0.1089 7.54533C0.0278998 7.843 0.00748317 8.154 0.0010665 8.45825C-0.00585016 8.72867 0.0211498 8.99242 0.0480665 9.26283C0.0549832 9.33058 0.0148165 9.41158 0.0953998 9.4655C0.0683998 9.53992 0.0887332 9.58092 0.128733 9.59375C0.0820665 9.66817 0.149233 9.71592 0.122483 9.78367C0.115566 9.79708 0.143066 9.824 0.1559 9.84425C0.1559 9.86475 0.149483 9.89167 0.1559 9.91192C0.16315 9.97275 0.1899 10.0336 0.1899 10.1013C0.1899 10.1485 0.230317 10.2028 0.243983 10.2502C0.250567 10.2702 0.243983 10.3039 0.2304 10.3175C0.1899 10.3648 0.196567 10.4053 0.257317 10.4325C0.291483 10.5202 0.2779 10.5607 0.27115 10.6017C0.284483 10.6623 0.264233 10.6827 0.27115 10.6963C0.325066 10.8046 0.3454 10.926 0.351816 11.0476C0.351816 11.0748 0.3654 11.102 0.378983 11.1357C0.38565 11.1357 0.378983 11.2642 0.378983 11.2642C0.412316 11.2442 0.439983 11.2373 0.473567 11.2237C0.494067 11.3114 0.513983 11.393 0.540983 11.4673C0.574817 11.5213 0.574983 11.5479 0.561567 11.5546C0.588567 11.6763 0.6019 11.7913 0.648816 11.9063C0.648816 11.7779 0.6359 11.6496 0.615483 11.5277C0.709817 11.5616 0.7909 11.5953 0.844983 11.5953C0.8519 11.5748 0.85865 11.5481 0.86565 11.5345C0.82515 11.4943 0.791317 11.4335 0.750733 11.3929C0.764233 11.4468 0.750733 11.4673 0.750733 11.4878C0.723817 11.4739 0.689817 11.4603 0.65615 11.4468C0.68315 11.4134 0.710233 11.3793 0.750733 11.3389C0.750733 11.2778 0.7174 11.2236 0.622483 11.2306C0.663066 11.2171 0.703567 11.1971 0.750733 11.1833C0.82515 11.143 0.743983 11.0687 0.743983 10.9741C0.75065 10.8593 0.683317 10.7443 0.662983 10.6224C0.62915 10.4333 0.635983 10.1493 0.615817 9.96C0.575233 9.92608 0.541483 10.0139 0.534817 10.0208C0.5554 10.183 0.575316 10.3451 0.58865 10.5075C0.5484 10.3723 0.52115 10.2235 0.487567 10.0611C0.48065 10.1085 0.474067 10.1286 0.474067 10.1559C0.440733 10.1893 0.4674 10.2304 0.487567 10.2776C0.4404 10.2571 0.386233 10.2643 0.386233 10.2643V10.4536C0.318983 10.3858 0.2989 10.3318 0.264816 10.284C0.251483 10.2301 0.24415 10.1763 0.2314 10.1223C0.24415 10.0883 0.2314 10.0682 0.2314 10.0482C0.223512 9.99406 0.216705 9.9398 0.210983 9.88542C0.21765 9.87875 0.204233 9.77758 0.204233 9.77758C0.25815 9.78425 0.292316 9.79033 0.3259 9.79033C0.2584 9.70308 0.305316 9.64883 0.332733 9.59475C0.346233 9.56758 0.393566 9.56133 0.40715 9.53358C0.461066 9.43217 0.548983 9.3515 0.548983 9.22275C0.548983 9.16192 0.569817 9.09442 0.57615 9.03333C0.58965 8.91833 0.6029 8.8035 0.609316 8.68858C0.62315 8.53975 0.6094 8.39083 0.643483 8.24892C0.6979 8.01292 0.765317 7.776 0.8394 7.53925C0.893317 7.36992 0.954566 7.20842 1.02173 7.039C1.12307 6.77525 1.21757 6.5115 1.3459 6.26167C1.52807 5.89633 1.7374 5.54467 1.94007 5.1865C2.0684 4.96333 2.2034 4.75367 2.34548 4.53742C2.48023 4.32783 2.61498 4.1115 2.77073 3.91517C2.98698 3.63808 3.2234 3.381 3.48665 3.15117C3.75682 2.90792 4.01332 2.65783 4.3034 2.43467C4.68065 2.14315 5.08259 1.88506 5.50465 1.66333C5.84923 1.48117 6.2069 1.3385 6.56482 1.20333C6.79448 1.11558 7.04423 1.075 7.28082 1.00058C7.55073 0.912584 7.82082 0.8725 8.10432 0.865584C8.28648 0.858917 8.46207 0.838334 8.64423 0.818C8.81118 0.805421 8.97787 0.789751 9.14423 0.771C9.13093 0.787608 9.1195 0.805634 9.11015 0.82475C9.03632 0.933084 8.95523 1.04142 8.8809 1.14942C8.82007 1.23742 8.75257 1.332 8.69173 1.41975C8.58348 1.56225 8.46873 1.70408 8.36757 1.85283C8.2124 2.07617 8.07032 2.30592 7.90815 2.52892C7.74648 2.74517 7.57082 2.94825 7.40198 3.15758C7.17923 3.44858 6.96982 3.74592 6.74715 4.03658C6.54448 4.31367 6.32915 4.57783 6.13307 4.85492C5.95757 5.09792 5.80198 5.35525 5.63315 5.60492C5.38348 5.97692 5.13373 6.34192 4.88407 6.714C4.6881 6.99713 4.49004 7.27881 4.2899 7.559C4.27632 7.5795 4.25607 7.58558 4.23607 7.59917C4.18215 7.68692 4.18215 7.73442 4.16157 7.775C4.10773 7.87625 4.0539 7.97783 3.9929 8.07275C3.95898 8.12667 3.91165 8.17375 3.87115 8.22792C3.86448 8.14683 3.97882 8.10617 3.9249 8.00458C3.89157 8.05892 3.8574 8.10608 3.8239 8.16025L3.7429 8.32192C3.7694 8.34208 3.81482 8.35592 3.77123 8.39475C3.76673 8.37892 3.74398 8.36825 3.7269 8.35533L3.72665 8.355C3.66973 8.43414 3.61588 8.51545 3.56523 8.59875C3.60573 8.63233 3.62573 8.61908 3.65273 8.57158C3.67707 8.52275 3.71215 8.48467 3.74373 8.44308C3.73254 8.46394 3.72095 8.48458 3.70898 8.505C3.73822 8.48775 3.76356 8.46462 3.7834 8.43708C3.7834 8.5115 3.74282 8.57217 3.70898 8.63292C3.68198 8.68692 3.61457 8.72775 3.56732 8.768C3.57398 8.77467 3.62132 8.79525 3.62823 8.802C3.68907 8.7815 3.70932 8.748 3.71632 8.768C3.73682 8.74108 3.75665 8.72083 3.76332 8.70058C3.78998 8.63283 3.83057 8.57892 3.89807 8.55167C3.92523 8.53817 3.9454 8.51792 3.96573 8.49792C4.1684 8.28808 4.37748 8.08542 4.55965 7.86208C4.8434 7.51708 5.09998 7.15917 5.37048 6.80767C5.4849 6.65883 5.62023 6.51017 5.74157 6.368C5.76157 6.5235 5.74823 6.67208 5.74157 6.81442C5.72107 7.06442 5.70782 7.31458 5.68782 7.57117C5.6809 7.6725 5.68765 7.77383 5.68073 7.8755C5.68073 7.90242 5.66032 7.92275 5.66032 7.94992C5.66032 8.01742 5.68073 8.09192 5.68073 8.15967C5.66023 8.40983 5.63307 8.65292 5.61282 8.903C5.6059 8.95692 5.63282 9.01133 5.64615 9.05875C5.61282 9.42358 5.68715 9.80933 5.62615 10.1948C5.67332 10.1203 5.68698 10.0729 5.68698 10.0258C5.6934 9.98517 5.68698 9.94467 5.68698 9.89742V9.82983C5.6934 9.70792 5.72015 9.57975 5.70682 9.45783C5.69332 9.32267 5.69315 9.19433 5.72032 9.06575C5.7339 9.01183 5.7139 8.94408 5.74782 8.87642V8.97775C5.74115 9.36258 5.75473 9.74825 5.70082 10.1336C5.6939 10.1675 5.72115 10.2286 5.64673 10.2216C5.58565 10.3433 5.66007 10.4313 5.5929 10.4988C5.57907 10.5123 5.60582 10.5732 5.61282 10.6138C5.58557 10.695 5.58557 10.695 5.62615 10.7018C5.63282 10.8505 5.64665 10.9853 5.65307 11.1275C5.76082 10.8709 5.70698 10.6066 5.75473 10.3428C5.76132 10.4511 5.76832 10.5596 5.7614 10.674C5.7614 10.8503 5.75448 11.0188 5.7479 11.1946C5.7479 11.2285 5.74098 11.2623 5.7344 11.2963C5.71382 11.3912 5.70765 11.4856 5.67382 11.5733C5.64682 11.6411 5.66048 11.7428 5.66048 11.8236V12.0809C5.6874 12.1959 5.65348 12.2566 5.67382 12.3241C5.65323 12.3921 5.64673 12.4125 5.65315 12.4328L5.67382 12.5341C5.80898 12.5206 5.74815 12.6221 5.80207 12.6759C5.76148 12.7303 5.77515 12.7503 5.77515 12.7778C5.77515 12.8387 5.76865 12.8928 5.76182 12.9537C5.76182 13.1091 5.75498 13.2645 5.75498 13.4133C5.75498 13.4338 5.76173 13.4537 5.76173 13.4739C5.76173 13.4878 5.75507 13.6636 5.75507 13.6636C5.76848 13.6836 5.7549 13.7039 5.73432 13.7242C5.7279 13.7242 5.70765 12.8656 5.70765 12.8656H5.60632C5.59298 13.2709 5.62698 13.6359 5.55257 14.0149C5.47148 14.0216 5.44465 14.0349 5.3564 14.0349C5.14707 14.0349 4.93782 14.0348 4.72848 14.0416C4.47857 14.0416 4.23582 14.0483 3.98565 14.0483C3.86457 14.0483 3.7364 14.0622 3.61482 14.0622C3.45257 14.0622 3.28382 14.0415 3.12215 14.0415C2.87198 14.0415 2.6289 14.062 2.37907 14.0687C2.1969 14.0753 2.01482 14.0753 1.83265 14.0822C1.71073 14.0888 1.58882 14.0953 1.46765 14.1091C1.41382 14.1158 1.36648 14.1358 1.29898 14.1561C1.27848 14.1561 1.2314 14.1494 1.19115 14.1561C1.12315 14.1696 1.06298 14.2102 0.994983 14.224C0.89365 14.2445 0.86665 14.271 0.879983 14.3726V14.4403C0.8734 14.4536 1.02865 14.4196 1.02865 14.4196C1.01482 14.4196 1.00815 14.4602 0.98765 14.494C1.04198 14.4735 1.07573 14.4601 1.10965 14.4468C1.21098 14.4943 1.29865 14.4673 1.3794 14.4878C1.64273 14.555 1.91273 14.5828 2.18257 14.6092C2.3584 14.6227 2.52715 14.6297 2.70257 14.6361C2.95232 14.6496 3.20207 14.6633 3.45173 14.6633C3.66107 14.6633 3.86373 14.6428 4.07257 14.6428C4.36257 14.6428 4.65348 14.6562 4.94365 14.6633C5.00448 14.6633 5.07207 14.6566 5.13957 14.6566H5.63215C6.0714 14.6433 6.51015 14.636 6.94915 14.6233C7.19932 14.6158 7.45565 14.6027 7.70532 14.5958L8.47507 14.5751C8.77215 14.5684 9.06923 14.5684 9.35973 14.5623C9.5824 14.5623 9.7984 14.5548 10.0216 14.5482C10.271 14.5415 10.5276 14.5213 10.7775 14.5079C10.9127 14.5013 11.0479 14.4873 11.1829 14.4739C11.3451 14.4606 11.5138 14.4406 11.6755 14.4337C11.9187 14.4198 12.1686 14.4133 12.4118 14.3997C12.7156 14.3797 13.0195 14.3525 13.3299 14.3456C13.6136 14.3323 13.9039 14.3389 14.1877 14.3323C14.4377 14.3256 14.6873 14.3118 14.9438 14.3051L15.3699 14.2844C15.3699 14.2844 15.6532 14.2778 15.7951 14.264C16.0381 14.2507 16.2809 14.2237 16.5241 14.217C16.6791 14.2103 16.8346 14.2172 16.9898 14.2103C17.2395 14.2037 17.4961 14.1897 17.746 14.1897C17.8402 14.1897 17.9414 14.2037 18.0631 14.2103C18.0091 14.2578 17.9753 14.2846 17.9347 14.3185C17.9617 14.3252 17.9886 14.3391 18.0157 14.3525C17.9752 14.3794 17.9416 14.3859 17.9082 14.3859C17.8943 14.4201 17.8807 14.4334 17.8671 14.5012H17.9886C17.9414 14.5012 17.9011 14.562 17.8538 14.6025C17.8 14.5887 17.7522 14.6025 17.7253 14.6769C17.7726 14.7036 17.766 14.7239 17.7593 14.7513C17.6782 14.778 17.6176 14.8052 17.6516 14.8928C17.6241 14.9063 17.5905 14.9198 17.5567 14.9401C17.5232 14.994 17.4622 15.0076 17.4756 15.0819C17.5028 15.0886 17.5295 15.1028 17.5501 15.1088C17.5162 15.1223 17.4826 15.1425 17.4487 15.1558C17.3273 15.2303 17.3812 15.2642 17.4082 15.298C17.3877 15.3115 17.3679 15.325 17.3476 15.332C17.361 15.3928 17.381 15.4064 17.3878 15.4064C17.3638 15.4248 17.3402 15.4436 17.317 15.4629C17.3191 15.4554 17.3219 15.448 17.3253 15.4409H17.2982C17.2982 15.4533 17.3007 15.464 17.3026 15.4746C17.2964 15.4796 17.2929 15.4821 17.2865 15.4873C17.266 15.5482 17.239 15.575 17.2121 15.6155C17.1851 15.6561 17.1715 15.7105 17.1377 15.7508C16.996 15.9067 16.8946 16.0895 16.7124 16.2108C16.6446 16.2583 16.5841 16.3191 16.5232 16.3801C16.4017 16.4948 16.2937 16.6234 16.1655 16.7318C15.9969 16.8736 15.8218 17.0018 15.6392 17.1303C15.4167 17.2858 15.194 17.4415 14.971 17.5903C14.8494 17.6712 14.7143 17.7319 14.586 17.8063C14.4577 17.8808 14.3361 17.9484 14.2078 18.0226C14.1267 18.0765 14.0524 18.1508 13.9647 18.1918C13.7419 18.2868 13.5055 18.3677 13.2761 18.4557C13.0529 18.5507 12.8911 18.6313 12.7224 18.6921C12.5671 18.746 12.405 18.787 12.2431 18.8203C12.1892 18.8342 12.1281 18.8204 12.0672 18.8278C11.9523 18.8483 11.8377 18.8757 11.7227 18.889C11.4256 18.9295 11.1286 18.9565 10.8319 18.9971C10.6561 19.0176 10.487 19.051 10.3115 19.0715C10.1901 19.0782 10.062 19.0648 9.9404 19.0648C9.85265 19.0648 9.75832 19.0855 9.67032 19.0723C9.52865 19.0518 9.38665 19.0186 9.24482 18.9913C9.21148 18.9847 9.1639 18.9707 9.13723 18.9847C9.08332 19.0118 9.0354 18.9713 8.98123 18.9847C8.9479 18.9913 8.91407 18.9643 8.88015 18.9643C8.85298 18.9576 8.81923 18.9718 8.78532 18.9643C8.71098 18.9443 8.64365 18.9171 8.56198 18.9238C8.48173 18.9304 8.40032 18.89 8.31315 18.87C8.19123 18.8428 8.07715 18.8163 7.95498 18.7888C7.90807 18.7753 7.86773 18.7548 7.82023 18.7279C7.64448 18.7279 7.52965 18.7213 7.42165 18.6804C7.32723 18.6471 7.23957 18.5997 7.13832 18.6133C7.11165 18.6199 7.09123 18.6066 7.06382 18.6066C7.04332 18.5794 7.02348 18.5253 7.00348 18.5253C6.86848 18.532 6.78748 18.4177 6.67257 18.3835C6.61198 18.363 6.56465 18.2954 6.50382 18.2752C6.35498 18.2143 6.23407 18.0862 6.06532 18.0659C6.0114 18.0593 5.95732 18.0318 5.89632 18.0118C5.91682 18.0384 5.92982 18.059 5.95032 18.0792C5.75457 17.9842 5.57223 17.8764 5.38982 17.7748C5.36315 17.7682 5.34298 17.7415 5.32273 17.7276L5.14032 17.6048C5.03898 17.6253 4.99857 17.5845 4.97115 17.5712C4.7889 17.4429 4.57982 17.3615 4.40407 17.2196C4.32965 17.1585 4.2424 17.1179 4.18857 17.0436C4.09357 16.9286 3.97882 16.8478 3.85057 16.7803C3.74948 16.7263 3.65507 16.6653 3.56065 16.6044C3.51315 16.5706 3.46582 16.53 3.46582 16.4556C3.46582 16.4081 3.4459 16.3608 3.38515 16.3879C3.35815 16.3474 3.33123 16.3002 3.2974 16.2866C3.21632 16.2533 3.16223 16.1916 3.10148 16.1377C3.04065 16.0838 2.99382 16.0095 2.9194 15.9825C2.78423 15.9286 2.70298 15.8137 2.62215 15.719C2.43282 15.4958 2.26407 15.2521 2.08857 15.0161C2.07498 14.9956 2.04798 14.9819 2.02773 14.9618C2.05465 15.0362 2.08857 15.0969 2.12223 15.1644C2.05498 15.1375 2.0079 15.0899 1.9674 15.0428C1.96048 15.0494 2.43282 15.8271 2.43282 15.8271C2.47382 15.8879 2.50723 15.9489 2.54773 16.0097C2.4464 16.0163 2.3789 15.9622 2.34507 15.9013C2.28448 15.7935 2.21698 15.7261 2.08198 15.7399C2.06865 15.6922 2.05498 15.638 2.04865 15.591C2.01676 15.5915 1.9849 15.589 1.95348 15.5835C2.04848 15.7323 2.12932 15.8608 2.21707 16.0095C2.1829 15.989 2.16323 15.9757 2.14915 15.969C2.27048 16.0973 2.35832 16.2597 2.51348 16.341C2.5474 16.4963 2.7229 16.5707 2.76348 16.7195C2.73015 16.7128 2.70223 16.7058 2.66832 16.6988C2.61448 16.6313 2.55365 16.564 2.49307 16.4897C2.50488 16.5338 2.52548 16.5751 2.55365 16.6111C2.63473 16.7124 2.70923 16.8138 2.80365 16.9018C2.83748 16.9362 2.88465 16.9497 2.88465 17.0105C2.93848 17.0374 2.95915 17.0438 2.97915 17.0438C2.99298 17.085 2.9729 17.1458 3.05365 17.1322C3.10748 17.2335 3.16123 17.2334 3.23565 17.1998C3.32365 17.2878 3.37098 17.2948 3.43148 17.2408C3.43148 17.2742 3.43832 17.3082 3.43832 17.3354C3.46523 17.3219 3.45898 17.3017 3.45898 17.2678C3.49232 17.2947 3.51273 17.3082 3.52607 17.3215C3.59357 17.4164 3.65448 17.5041 3.7489 17.5785C3.87723 17.6868 3.9919 17.8018 4.11298 17.9032C4.34957 18.0995 4.61348 18.2617 4.87648 18.4103C5.20082 18.5929 5.51148 18.789 5.84215 18.9644C6.24032 19.1744 6.66573 19.3167 7.10448 19.418C7.26665 19.4519 7.42198 19.4853 7.58432 19.5255C7.7254 19.5667 7.8674 19.6276 8.00932 19.6612C8.22532 19.7086 8.44807 19.7492 8.66407 19.7894C8.71107 19.7961 8.75907 19.8034 8.81298 19.8101C8.87323 19.8236 8.94748 19.7964 8.96107 19.8168C8.9949 19.8707 9.0219 19.8434 9.0624 19.8368C9.10965 19.8233 9.16365 19.8233 9.21757 19.8233C9.40665 19.83 9.58873 19.8703 9.77782 19.857C9.81882 19.857 9.87948 19.8228 9.9134 19.8903C9.97398 19.8635 10.0079 19.8634 10.0348 19.857C10.0421 19.9176 10.0346 19.9178 10.0217 19.9243C10.0079 19.931 9.98782 19.9377 9.9609 19.958C10.2039 20.0053 10.4334 20.0119 10.6356 19.958C10.9871 19.9849 11.2909 19.9445 11.5814 19.843C11.6083 19.8769 11.6286 19.9242 11.6691 19.8566C11.6825 19.8361 11.7161 19.8293 11.7433 19.8226C11.8039 19.8091 11.8783 19.7819 11.9321 19.8019C11.9932 19.8224 12.0137 19.7685 12.0606 19.7685C12.142 19.7685 12.2161 19.7618 12.2906 19.7481C12.3311 19.7414 12.3716 19.7212 12.4187 19.7076C12.3725 19.6846 12.3215 19.6729 12.2699 19.6733C12.3458 19.6358 12.4224 19.5999 12.4997 19.5657C12.4862 19.5857 12.4726 19.6124 12.446 19.6124H12.54C12.5194 19.6124 12.4926 19.6733 12.459 19.7138C12.7017 19.653 12.9244 19.5989 13.1406 19.5445C13.0663 19.4028 13.2216 19.4503 13.2757 19.369C13.2082 19.3895 13.1407 19.4094 13.0731 19.4228C13.3026 19.3081 13.5389 19.2068 13.7683 19.1054C13.735 19.1459 13.6938 19.1664 13.6336 19.2005C13.6741 19.2072 13.7011 19.2072 13.7213 19.2133C13.8291 19.2473 13.8024 19.1461 13.836 19.085C13.9643 19.085 14.0181 19.065 14.0789 19.0445C14.1464 19.024 14.2139 19.0038 14.2816 18.9768C14.3893 18.9296 14.4907 18.8691 14.5987 18.8152C14.6192 18.8077 14.6527 18.8152 14.6799 18.8152C14.7543 18.7674 14.7808 18.727 14.8011 18.7337C14.8961 18.7472 14.9627 18.7133 14.9899 18.6261C14.9979 18.6203 15.0019 18.6177 15.0092 18.6123C15.0363 18.6718 15.0905 18.6784 15.1782 18.6181C15.1241 18.6181 15.07 18.6114 15.0228 18.6047C15.0178 18.6047 15.0161 18.608 15.0132 18.6097C15.047 18.5847 15.0781 18.5608 15.1049 18.5444C15.2532 18.4633 15.3946 18.3823 15.5434 18.3013C15.5972 18.3013 15.6246 18.3013 15.6379 18.2946C15.7262 18.2535 15.8071 18.2068 15.8879 18.1593C15.8674 18.1526 15.8205 18.1259 15.8205 18.1259C15.8641 18.1178 15.907 18.1064 15.9488 18.0918C16.1104 17.902 16.3337 17.7736 16.5022 17.6248C16.5767 17.6181 16.5767 17.5979 16.5767 17.5846C16.6033 17.5507 16.6306 17.5102 16.6639 17.4829C16.8127 17.3478 16.9743 17.2328 17.1095 17.0909C17.3053 16.8944 17.4942 16.6913 17.6697 16.4818C17.8314 16.2924 17.9942 16.1034 18.1292 15.8938C18.3183 15.6031 18.4801 15.3054 18.649 15.0009C18.7706 14.7849 18.8787 14.5687 19.0007 14.3524C19.0133 14.3319 19.0407 14.3048 19.0609 14.3048C19.2431 14.2843 19.4259 14.2715 19.6013 14.2511C19.6419 14.2444 19.6891 14.2175 19.7296 14.1969C19.7091 14.1631 19.6958 14.1228 19.6757 14.0888C19.6486 14.0478 19.6081 14.0144 19.581 13.9733C19.5543 13.94 19.5338 13.899 19.5136 13.8587C19.4931 13.8253 19.473 13.7979 19.4527 13.7636C19.4116 13.6892 19.3714 13.6148 19.3372 13.5343C19.3306 13.5138 19.3167 13.4803 19.3239 13.4598C19.4455 13.1963 19.4928 12.9126 19.6075 12.6488C19.7222 12.3784 19.7563 12.0741 19.8102 11.7834C19.8574 11.5063 19.8844 11.2291 19.9177 10.952C19.9383 10.756 19.9655 10.5666 19.9719 10.3706C20.0129 10.0596 19.9989 9.76867 19.9922 9.47775C19.9856 9.22108 19.9717 8.95742 19.9589 8.70033L19.9583 8.6995C19.9449 8.43583 19.9381 8.17217 19.911 7.90867C19.8638 7.55025 19.8166 7.185 19.7355 6.8335C19.6747 6.54283 19.5738 6.26558 19.4722 5.9885C19.3439 5.66392 19.2157 5.33267 19.0535 5.02183C18.7902 4.52142 18.446 4.07508 18.1286 3.60858C17.9187 3.311 17.6487 3.06767 17.4461 2.76333C17.3314 2.58758 17.1625 2.43917 16.9937 2.30417C16.7235 2.08733 16.4401 1.89117 16.1566 1.70208C15.9405 1.55325 15.7246 1.41133 15.4946 1.28283C15.3125 1.181 15.1167 1.09992 14.9277 1.01192C14.7116 0.910584 14.5021 0.788584 14.2592 0.741334C14.1981 0.728584 14.1442 0.708 14.0834 0.687584C13.9282 0.633667 13.7797 0.572834 13.6242 0.525334C13.3882 0.450917 13.1586 0.363334 12.9153 0.30225C12.6798 0.241417 12.4366 0.201084 12.1934 0.167C11.9235 0.12725 11.6468 0.11325 11.3764 0.0868337C11.2009 0.0663337 11.0255 0.0462503 10.8566 0.0395837C10.6001 0.026167 10.3369 0.026167 10.0804 0.0195003C9.95207 0.0128337 9.81707 -0.000999672 9.68882 0.00600033V0.006667ZM10.2672 0.79C10.3552 0.803834 10.4366 0.817334 10.5175 0.824167L10.8416 0.844667C11.0846 0.864417 11.3276 0.878167 11.5704 0.9115C11.7731 0.938917 11.9759 0.9795 12.1852 1.01317C12.6311 1.0875 13.0697 1.20925 13.4952 1.35108C13.7451 1.43217 13.9877 1.5405 14.2315 1.64192C14.778 1.86508 15.2981 2.13542 15.8112 2.41917C15.9728 2.50717 16.0678 2.649 16.1888 2.7775C16.3646 2.96025 16.5403 3.14275 16.7088 3.33183C16.9044 3.55508 17.0866 3.785 17.276 4.01492C17.4445 4.21758 17.6199 4.42033 17.7892 4.62358C17.8431 4.68442 17.8841 4.75875 17.9307 4.82625C18.0385 4.98867 18.1602 5.14417 18.2546 5.31967C18.3219 5.44842 18.3626 5.59733 18.4098 5.73917C18.477 5.94883 18.5448 6.1515 18.6125 6.36108C18.6594 6.51658 18.6995 6.67933 18.7333 6.84092C18.7606 6.9495 18.7542 7.06417 18.7875 7.17192C18.8285 7.31458 18.7875 7.46967 18.8285 7.61208C18.8349 7.62558 18.8414 7.64575 18.8486 7.65933C18.8756 7.686 18.8956 7.71333 18.855 7.75383C18.8486 7.7605 18.8486 7.78717 18.855 7.80758C18.8688 7.79425 18.8757 7.78058 18.8892 7.76033C18.8892 7.77383 18.8956 7.78117 18.8956 7.7875C18.8956 7.81417 18.8886 7.84125 18.8956 7.86817C18.8956 7.88158 18.9089 7.90158 18.9156 7.91542C18.9292 7.90158 18.9426 7.89492 18.9695 7.87442C19.0303 8.10458 19.0374 8.33425 19.0374 8.57083C19.0374 8.794 19.0775 9.01725 18.9833 9.2335C19.0033 9.15908 18.9562 9.09125 18.9766 9.02375L18.9793 9.02542C18.9724 9.02542 18.9322 8.98425 18.9256 8.97758C18.9186 8.99808 18.9256 9.018 18.912 9.04525C18.9051 9.02525 18.858 9.03217 18.858 9.01208C18.8511 9.1065 18.8983 9.20108 18.8913 9.29575C18.9119 9.28225 18.9928 9.27525 19.0131 9.25525C19.02 9.26192 19.0336 9.26867 19.0402 9.26867C18.9051 9.37033 18.939 9.47142 18.9998 9.58683C19.0132 9.6135 19.0536 9.66742 19.0131 9.72158C18.9998 9.73508 19.0201 9.7755 19.0267 9.80967H19.0466V9.82275L18.9857 9.84317C18.9723 9.82267 18.8914 9.78275 18.8914 9.74833V10.0937C18.9589 10.1142 18.959 10.2084 18.9859 10.2558C18.9977 10.2394 19.007 10.2213 19.0134 10.2021L19.0201 10.2088C19.0132 10.2493 19.0066 10.2897 18.993 10.3305C18.9796 10.3911 18.966 10.4453 18.9596 10.506C18.9596 10.5127 18.9726 10.5265 18.9726 10.5329C18.8987 10.7023 18.9392 10.8911 18.9122 11.0666C18.8917 11.1949 18.9122 11.331 18.8987 11.466C18.8849 11.581 18.8575 11.7023 18.8308 11.8173C18.8239 11.8378 18.8104 11.8445 18.777 11.8581C18.7904 11.777 18.7837 11.7227 18.7703 11.6483C18.763 11.6483 18.6753 11.6011 18.6684 11.6011C18.6684 11.696 18.7223 11.8245 18.7428 11.9323C18.7223 11.9256 18.6414 11.8782 18.635 11.8782C18.6211 11.9593 18.621 12.0676 18.6143 12.1553C18.6074 12.2231 18.5471 12.2837 18.5401 12.358C18.5401 12.3991 18.5873 12.4258 18.5807 12.4936H18.6344C18.6344 12.3586 18.6956 12.2369 18.6956 12.0948H18.7154C18.7223 12.1083 18.7427 12.1221 18.7361 12.1288C18.7226 12.2032 18.6949 12.2842 18.7021 12.3586C18.7021 12.3992 18.7356 12.4396 18.7227 12.4868C18.7089 12.5279 18.7022 12.5682 18.6953 12.6289C18.6884 12.5951 18.6818 12.5818 18.6818 12.5616C18.6751 12.5616 18.6143 12.5549 18.6073 12.5549C18.6007 12.5955 18.6548 12.636 18.6478 12.6699C18.6412 12.6766 18.6345 12.6766 18.6209 12.6833L18.3982 12.3587C18.2208 12.1008 18.0451 11.8417 17.8713 11.5813C17.8258 11.5168 17.785 11.4491 17.7493 11.3787C17.5402 11.0199 17.3106 10.6752 17.054 10.344C16.8585 10.094 16.7025 9.82308 16.5204 9.56008C16.3521 9.30992 16.1832 9.06633 16.0145 8.81592C15.9536 8.73508 15.8795 8.66075 15.8253 8.57275C15.6502 8.29558 15.4945 8.01158 15.3195 7.73442C15.1707 7.50442 15.0089 7.28117 14.8535 7.05817C14.7996 6.98375 14.7456 6.90233 14.6912 6.82125C14.6846 6.8085 14.6779 6.79508 14.6779 6.77475C14.6643 6.626 14.6508 6.47708 14.6442 6.33517C14.6442 6.19992 14.6577 6.06483 14.6577 5.92267V5.80033C14.6577 5.76642 14.6641 5.7395 14.6641 5.7055C14.6705 5.69883 14.6774 5.68525 14.6841 5.67858C14.4884 5.67858 14.2857 5.67108 14.0899 5.67858C13.9616 5.68525 13.8942 5.63083 13.8066 5.53617C13.5499 5.2455 13.3607 4.91433 13.1381 4.60342C12.9287 4.30575 12.7126 4.01483 12.4966 3.72417C12.3208 3.48758 12.145 3.25783 11.9697 3.02125C11.7737 2.75083 11.585 2.48042 11.3823 2.20992C11.1391 1.88567 10.8891 1.56075 10.6395 1.23642C10.5241 1.08758 10.3958 0.94575 10.2675 0.79H10.2672ZM9.64073 1.14483C9.65515 1.14733 9.66882 1.15942 9.68232 1.17633C9.86448 1.40625 10.0465 1.64283 10.2286 1.87275C10.3641 2.04208 10.4992 2.20375 10.6276 2.37975C10.7828 2.59625 10.9312 2.81258 11.0867 3.02892C11.2622 3.27892 11.4377 3.52925 11.6065 3.78583C11.8631 4.16475 12.1061 4.54333 12.3626 4.92183C12.5518 5.19892 12.7407 5.46958 12.9229 5.74675H12.5781C12.261 5.74008 11.9366 5.71333 11.6196 5.72667C11.1875 5.74717 10.7487 5.79442 10.3167 5.82833C9.76973 5.87567 9.21615 5.882 8.66965 5.882C8.4734 5.882 8.27773 5.9095 8.08215 5.923C7.84565 5.93642 7.6159 5.95 7.37965 5.95642C7.10248 5.97025 6.83315 5.97692 6.55607 5.98392C6.40057 5.99058 6.23873 5.98392 6.06998 5.98392V5.98225C6.28548 5.68458 6.50873 5.38717 6.72473 5.08308C6.79223 4.99458 6.84615 4.89992 6.91357 4.81225C6.93415 4.785 6.96123 4.77142 6.99482 4.74425L6.98807 4.7315C7.01498 4.69733 7.04182 4.66992 7.05548 4.64317C7.08982 4.58933 7.11032 4.52825 7.13715 4.46742C7.14382 4.45467 7.16415 4.44108 7.16415 4.44108C7.25907 4.48833 7.25898 4.38717 7.2924 4.35308C7.35294 4.28499 7.41147 4.21513 7.4679 4.14358C7.5084 4.08967 7.54898 4.04217 7.5829 3.98142C7.5894 3.96092 7.56915 3.92758 7.56215 3.90017H7.54232C7.56282 3.88683 7.5829 3.86675 7.60315 3.85292C7.60982 3.85292 7.60982 3.85275 7.61657 3.84625C7.65541 3.78653 7.6959 3.7279 7.73798 3.67042C7.81882 3.56267 7.90657 3.45425 8.00098 3.35983C7.98765 3.39317 7.97415 3.42717 7.96057 3.45417C7.96748 3.45417 7.96748 3.46083 7.97407 3.46083C8.05515 3.3525 8.14298 3.25117 8.22407 3.14267C8.21715 3.136 8.2104 3.12933 8.2034 3.12933C8.17007 3.16317 8.14298 3.19708 8.10907 3.231C8.10248 3.22433 8.09557 3.21742 8.08848 3.21742C8.1564 3.12942 8.2239 3.04158 8.29115 2.94025C8.30465 2.96075 8.31823 2.9875 8.3449 3.04167C8.3724 2.97417 8.3994 2.92692 8.4194 2.87942C8.3994 2.89992 8.37257 2.92 8.35223 2.94058L8.33165 2.92L8.45332 2.738C8.58165 2.55525 8.70982 2.36583 8.83807 2.18317C8.88557 2.11567 8.9459 2.06175 8.98698 1.994C9.11532 1.7375 9.31807 1.53417 9.47307 1.29767C9.5069 1.25042 9.5539 1.20992 9.59448 1.16933C9.61115 1.14892 9.62632 1.14183 9.64065 1.14433L9.64073 1.14483ZM7.7369 3.77875C7.69657 3.80567 7.66248 3.826 7.62223 3.85317L7.6219 3.8535C7.61498 3.86017 7.60823 3.86017 7.61482 3.86017C7.62173 3.8935 7.62173 3.921 7.6284 3.968C7.6759 3.9 7.70932 3.84608 7.7504 3.79217L7.7369 3.77875ZM13.4351 6.5635C13.4957 6.5635 13.5295 6.58408 13.5634 6.63792C13.6239 6.73925 13.6847 6.84058 13.7521 6.94225C13.7591 6.95558 13.7728 6.9755 13.7728 6.996C13.7728 7.14475 13.7727 7.30033 13.7792 7.44917C13.7857 7.60467 13.8001 7.75342 13.8062 7.90892C13.8062 8.06442 13.7925 8.22658 13.7994 8.38875C13.8063 8.61892 13.8129 8.85558 13.8129 9.09167L13.814 9.09217V9.15333C13.8074 9.15333 13.8006 9.16 13.7871 9.16C13.7601 9.06508 13.7332 8.96367 13.6993 8.869C13.6319 8.67275 13.5574 8.47642 13.4358 8.30092C13.3003 8.11175 13.1791 7.91592 13.0437 7.71967C13.0104 7.67225 12.9626 7.63175 12.9221 7.5915C12.7801 7.43567 12.6385 7.27333 12.4562 7.15867C12.1878 6.99029 11.9054 6.84536 11.6121 6.7255C11.5311 6.69217 11.4568 6.651 11.376 6.60383H11.5376L12.6921 6.58333C12.9421 6.57667 13.1853 6.57667 13.435 6.56325L13.4351 6.5635ZM8.36507 6.73983C8.41398 6.739 8.4629 6.7405 8.5134 6.7465C8.40565 6.80092 8.29723 6.85508 8.20282 6.92258C8.08115 7.00367 7.9669 7.11175 7.84498 7.19967C7.72315 7.28742 7.61515 7.39583 7.51407 7.51083C7.38573 7.666 7.2439 7.80108 7.10865 7.94992C7.01373 8.05817 6.90615 8.15967 6.82532 8.27458C6.71057 8.42342 6.60915 8.58483 6.50115 8.75417C6.53498 8.11167 6.57565 7.47658 6.5484 6.8275L6.54898 6.828C6.86632 6.8145 7.1699 6.79408 7.4809 6.7805C7.7234 6.76692 7.9734 6.75975 8.21615 6.74642C8.26682 6.74308 8.31615 6.73975 8.36507 6.73975V6.73983ZM10.0589 7.08542C10.2608 7.09208 10.4634 7.09208 10.6659 7.1055C10.7536 7.11217 10.8347 7.13233 10.9159 7.15925C11.0169 7.19342 11.1249 7.2405 11.2196 7.28758C11.3343 7.34908 11.4422 7.41633 11.5506 7.49075C11.7463 7.61908 11.9286 7.76108 12.1244 7.876C12.3135 7.991 12.4619 8.14642 12.5836 8.32242C12.7324 8.53183 12.9008 8.72125 12.9683 8.97808L13.0694 9.4245C13.0899 9.50558 13.1372 9.58658 13.1169 9.681C13.0827 9.85033 13.0558 10.0263 13.0289 10.1953C13.0156 10.2633 13.0021 10.3313 13.0091 10.398C13.0218 10.6084 12.941 10.7904 12.8601 10.9797C12.833 11.0405 12.7924 11.1017 12.7588 11.1691C12.7654 11.1758 12.8059 11.1963 12.8126 11.1963L12.8734 11.0748C12.8804 11.0748 12.8804 11.0747 12.887 11.0815C12.8531 11.1759 12.8263 11.2776 12.7921 11.3723C12.7116 11.5818 12.6305 11.798 12.5291 12.0007C12.4752 12.1157 12.3804 12.2103 12.3131 12.3188C12.2459 12.4133 12.1918 12.5148 12.1243 12.6028C12.0635 12.6772 12.003 12.7516 11.9216 12.8055C11.7395 12.9407 11.5503 13.076 11.3546 13.1843C11.2332 13.2587 11.0912 13.299 10.9562 13.3328L10.9581 13.332C10.7418 13.3859 10.5194 13.4472 10.2962 13.4742C10.1074 13.5013 9.91132 13.4946 9.71557 13.4946C9.53957 13.4946 9.37073 13.4879 9.19523 13.4742C8.9994 13.4542 8.80365 13.4337 8.61457 13.3457C8.45223 13.2713 8.28365 13.2039 8.12207 13.1226C7.95932 13.0415 7.79748 12.9469 7.67557 12.7982C7.58832 12.6896 7.46648 12.6021 7.35848 12.5074C7.37821 12.5888 7.42916 12.6591 7.50032 12.7033C7.46648 12.7439 7.41915 12.7238 7.3514 12.6153C7.3314 12.6288 7.31123 12.6358 7.29765 12.6424C7.31815 12.5949 7.33823 12.5477 7.35848 12.5074C7.33157 12.4535 7.29765 12.3923 7.27073 12.3378C7.21647 12.2493 7.16465 12.1592 7.11532 12.0678C7.10182 12.0473 7.10182 12.0272 7.0884 12.007C7.05457 11.9663 7.02082 11.9258 6.99357 11.8853C6.93973 11.8044 6.89265 11.7166 6.82515 11.6353C6.82515 11.6558 6.8319 11.6757 6.8319 11.7029C6.82498 11.7029 6.8184 11.7096 6.8184 11.7096L6.67632 11.3648C6.66965 11.3648 6.66965 11.3647 6.66298 11.3715L6.78407 11.8179C6.77748 11.8179 6.7709 11.8246 6.76373 11.8246C6.74398 11.7979 6.72373 11.7708 6.7099 11.7373C6.69657 11.6829 6.65573 11.6828 6.6224 11.7032C6.6019 11.7166 6.58832 11.7641 6.59523 11.7843C6.64273 11.8993 6.6969 12.0142 6.75098 12.1292C6.76366 12.1686 6.77938 12.207 6.79798 12.2441C6.8049 12.2576 6.82515 12.2708 6.82515 12.2911C6.85232 12.345 6.87273 12.399 6.9064 12.4468C6.96723 12.5278 7.03473 12.6088 7.09548 12.6899C7.15582 12.771 7.20957 12.8593 7.26365 12.9402C7.27032 12.9537 7.29065 12.9537 7.29707 12.9606C7.33123 13.0619 7.4459 13.1362 7.52698 13.0956C7.54748 13.2511 7.71598 13.3052 7.7834 13.454C7.71721 13.4269 7.65197 13.3976 7.58782 13.366C7.5809 13.3727 7.5809 13.3793 7.57398 13.3929C7.65507 13.4334 7.73623 13.4739 7.81007 13.5212C7.87807 13.5623 7.94548 13.6028 8.00623 13.6497C8.08732 13.7241 8.18207 13.7651 8.29623 13.7918C8.28998 13.7712 8.2834 13.7643 8.2834 13.7643C8.47223 13.8523 8.66823 13.9469 8.81648 14.0208C8.11423 14.0347 7.36482 14.0483 6.58823 14.0618C6.58823 13.9335 6.58148 13.8116 6.58148 13.6831C6.58148 13.6292 6.59498 13.5818 6.5879 13.5277C6.5674 13.2172 6.56732 12.9057 6.52707 12.6014C6.48682 12.2771 6.48673 11.9592 6.49373 11.6341C6.50015 11.4589 6.48673 11.2765 6.47982 11.1005C6.47982 10.8639 6.47998 10.6337 6.48723 10.3976C6.48723 10.3637 6.50073 10.3366 6.5144 10.3025H6.53507C6.54148 10.3163 6.53498 10.3366 6.54782 10.3435C6.56832 10.364 6.60215 10.3974 6.61573 10.3908C6.65598 10.3636 6.71682 10.337 6.7304 10.2959C6.76373 10.2151 6.77765 10.127 6.77765 10.0459C6.77765 9.98533 6.80473 9.94492 6.8314 9.90408C6.84523 9.88358 6.85207 9.86367 6.86565 9.83675C6.83873 9.81625 6.81173 9.80283 6.7779 9.77592C6.80515 9.7015 6.79832 9.6135 6.89957 9.57325C6.91298 9.56658 6.91315 9.53208 6.92032 9.51208C6.92673 9.45742 6.93282 9.39667 6.94015 9.34283C6.95348 9.36333 6.96073 9.36967 6.97348 9.38308C6.98073 9.36967 6.9874 9.36242 6.9874 9.36242C6.9874 9.33575 6.98073 9.28158 6.9874 9.28158C7.06848 9.26817 7.03457 9.18033 7.07515 9.13983C7.08157 9.13233 7.0684 9.11233 7.0684 9.09883C7.0684 9.08542 7.06823 9.06542 7.07482 9.06542C7.16898 9.04492 7.15565 8.94358 7.2164 8.89617C7.2369 8.88267 7.24348 8.86267 7.27048 8.8285C7.32432 8.92292 7.22982 8.9705 7.22315 9.03792C7.33765 8.97042 7.3714 8.80825 7.3039 8.76083C7.33186 8.7394 7.35689 8.71438 7.37832 8.68642C7.45273 8.60533 7.5334 8.53108 7.60115 8.45C7.64865 8.38942 7.67565 8.31492 7.72282 8.25417C7.75007 8.22025 7.80382 8.19333 7.84432 8.17283C7.96598 8.10558 8.08048 8.03133 8.1549 7.91633C8.1684 7.90283 8.18865 7.88917 8.20865 7.87558C8.22923 7.86208 8.26965 7.86225 8.27632 7.84192C8.28323 7.82858 8.26298 7.7945 8.2494 7.77425C8.27607 7.76075 8.3034 7.73383 8.35732 7.70658C8.33673 7.74717 8.3304 7.77417 8.31682 7.80142L8.34998 7.83483C8.41098 7.78767 8.5054 7.73383 8.56623 7.69333C8.56623 7.68667 8.53257 7.65992 8.53257 7.65992C8.49223 7.68042 8.4314 7.71392 8.3709 7.74117C8.38365 7.72067 8.38365 7.707 8.39123 7.70033C8.4854 7.6395 8.57982 7.57883 8.68123 7.53117C8.91723 7.42333 9.15373 7.31508 9.39007 7.21375C9.43057 7.19325 9.48515 7.20708 9.53215 7.20708C9.55215 7.20708 9.56548 7.207 9.5859 7.20042C9.69365 7.1665 9.80207 7.13275 9.91007 7.10558C9.95851 7.09233 10.0085 7.0856 10.0587 7.08558L10.0589 7.08542ZM9.79615 7.186C9.72198 7.22008 9.66132 7.24683 9.60048 7.274H9.60023C9.60023 7.28067 9.56665 7.33483 9.57307 7.33483C9.6069 7.32817 9.68115 7.27408 9.72165 7.26717C9.7419 7.26717 9.76907 7.27383 9.78957 7.281C9.78957 7.25383 9.78948 7.22642 9.79598 7.18592L9.79615 7.186ZM14.6778 8.33692C14.7453 8.42467 14.8195 8.50617 14.8667 8.59342C15.0222 8.87767 15.2246 9.12125 15.4137 9.37808C15.5758 9.60133 15.7243 9.84458 15.8732 10.0745C16.0553 10.3516 16.2307 10.6285 16.413 10.9057C16.548 11.1155 16.6903 11.3252 16.8314 11.5282C16.9597 11.7103 17.0951 11.8863 17.2301 12.0623C17.3445 12.2178 17.4662 12.3733 17.5808 12.5288C17.716 12.7182 17.851 12.9072 17.9862 13.0899C18.0534 13.1843 18.1278 13.2788 18.2016 13.3736C18.2427 13.4275 18.3032 13.4688 18.3437 13.5021C18.3344 13.5023 18.3252 13.5 18.3171 13.4954C18.3376 13.5223 18.3506 13.5427 18.3644 13.5563C18.4388 13.5968 18.4454 13.6373 18.4049 13.6983L18.4054 13.6967C18.3988 13.7102 18.3849 13.7238 18.3785 13.7377C18.3716 13.7238 18.3716 13.7037 18.365 13.6763C18.3245 13.7848 18.2367 13.7306 18.1758 13.7306C17.8116 13.7373 17.44 13.7373 17.0752 13.7373C16.7242 13.7373 16.3666 13.7373 16.0156 13.7439C15.9006 13.7439 15.7789 13.7709 15.6639 13.7779C15.3874 13.7913 15.1105 13.7984 14.8336 13.8048C14.8131 13.8048 14.7933 13.7714 14.7595 13.7443C14.7528 13.7578 14.7386 13.7782 14.7186 13.8051C14.7114 13.7918 14.6983 13.7783 14.6847 13.7581C14.6792 13.7765 14.6723 13.7945 14.6641 13.8118H14.6445C14.631 13.7174 14.604 13.6296 14.604 13.5347C14.604 13.332 14.6245 13.1296 14.6309 12.9263C14.6378 12.8319 14.6309 12.744 14.6309 12.6558C14.6582 12.6763 14.6784 12.6901 14.7054 12.7098C14.7173 12.6867 14.7308 12.6643 14.7458 12.643C14.7458 12.643 14.7323 12.6363 14.7186 12.6226C14.7314 12.6159 14.7456 12.6021 14.7456 12.5954C14.7522 12.5749 14.766 12.5546 14.766 12.5413C14.766 12.4938 14.7522 12.4533 14.7456 12.4131C14.7522 12.4131 14.7588 12.4132 14.766 12.4064L14.8062 12.6091H14.8268C14.7997 12.5622 14.8874 12.5212 14.8133 12.4673C14.8066 12.4606 14.8197 12.4198 14.8197 12.3996C14.7992 12.3593 14.7864 12.3188 14.7659 12.2646C14.7726 12.2579 14.7929 12.2511 14.8132 12.2442C14.7862 12.2308 14.7658 12.2174 14.7456 12.2108C14.8131 12.1497 14.8131 12.1158 14.7522 12.0483C14.7661 12.0416 14.7795 12.0416 14.7795 12.0355C14.7795 11.9744 14.7795 11.9138 14.7662 11.8534C14.7526 11.7852 14.7867 11.7046 14.6852 11.6635C14.6912 11.6827 14.7003 11.7009 14.712 11.7173C14.712 11.7173 14.6916 11.7239 14.6716 11.7379C14.5838 11.6566 14.638 11.5479 14.6174 11.4266C14.6646 11.4401 14.6985 11.4538 14.7322 11.4676C14.7186 11.4198 14.685 11.3659 14.6647 11.3051H14.6372V10.8587C14.6372 10.8653 14.6846 10.8653 14.7117 10.8725C14.7117 10.8658 14.7181 10.8588 14.7181 10.8518C14.6976 10.8249 14.6708 10.7979 14.6439 10.7641L14.6574 10.7506C14.6036 10.6833 14.6306 10.5891 14.6306 10.5685V10.0952C14.6983 10.163 14.5971 10.2506 14.6982 10.2911V10.2238H14.6912C14.6845 10.1224 14.6845 10.0211 14.6778 9.9195H14.6644C14.6575 9.93333 14.6575 9.93983 14.6506 9.9535H14.6372L14.6778 8.33692ZM3.30148 8.88983C3.22098 8.9845 3.14657 9.07933 3.07223 9.1735H3.0714C3.08473 9.18017 3.10482 9.22783 3.11873 9.24142C3.1929 9.14008 3.29423 9.01167 3.36873 8.91675C3.36173 8.91008 3.30798 8.8965 3.30157 8.88983H3.30148ZM2.84915 9.22133C2.80857 9.28192 2.70765 9.39042 2.66707 9.45117C2.67373 9.45783 2.7479 9.42417 2.75457 9.43133C2.79507 9.3705 2.83557 9.30267 2.87607 9.24167C2.86282 9.235 2.85607 9.22783 2.84915 9.22125V9.22133ZM2.87607 9.24175L2.87632 9.242V9.2415L2.87607 9.24175V9.24175ZM2.9904 9.32242C2.95015 9.35017 2.90982 9.38408 2.86923 9.411C2.88273 9.42433 2.88273 9.43158 2.88273 9.445C2.8289 9.43833 2.80832 9.46542 2.7814 9.53925C2.77473 9.55975 2.74082 9.56633 2.70698 9.593C2.70032 9.60683 2.69373 9.64092 2.68007 9.6745L2.68682 9.68117C2.67702 9.69015 2.66559 9.69717 2.65315 9.70183C2.61257 9.74208 2.56515 9.77625 2.52465 9.8165C2.51798 9.837 2.51132 9.85708 2.51132 9.87733C2.55873 9.83008 2.63957 9.74208 2.7004 9.68792L2.7074 9.69458C2.7344 9.654 2.75465 9.61375 2.7819 9.57317C2.78832 9.57983 2.78832 9.58642 2.79523 9.59358C2.77473 9.6475 2.75465 9.70817 2.7344 9.76233C2.72023 9.769 2.6999 9.78283 2.6999 9.77583C2.67298 9.79633 2.65265 9.82292 2.6254 9.84317L2.50423 9.924C2.43673 9.98483 2.36923 10.0388 2.29473 10.0998C2.24757 10.1743 2.20057 10.2418 2.14615 10.3298C2.22748 10.3093 2.24765 10.3436 2.24098 10.4113C2.3354 10.4246 2.34223 10.3504 2.36923 10.2963C2.3759 10.2825 2.38273 10.2552 2.39615 10.2485C2.45698 10.1946 2.52448 10.1474 2.59198 10.0933C2.60557 10.0798 2.60557 10.0522 2.60557 10.0322C2.60557 10.0255 2.5714 10.0255 2.55115 10.0187C2.61198 9.95092 2.69982 9.83658 2.7604 9.76217C2.79432 9.74167 2.82807 9.71425 2.82807 9.694C2.82257 9.63192 2.85473 9.60767 2.89707 9.58558C2.86557 9.73167 2.77707 9.85658 2.68707 9.88225C2.71398 9.89575 2.74098 9.90958 2.76148 9.90292C2.78148 9.89625 2.7949 9.86175 2.80848 9.84175L2.99057 9.57825L3.05165 9.47658L3.02473 9.44942L3.02448 9.45025C2.99757 9.4975 2.97048 9.53808 2.94357 9.58558L2.92048 9.57392C2.92123 9.5735 2.92198 9.57308 2.92273 9.57225C2.89557 9.55175 2.88857 9.53192 2.88857 9.52525L2.88882 9.52442C2.89598 9.50392 2.9094 9.48383 2.92298 9.46358C2.9364 9.46358 2.95648 9.45692 2.95648 9.45692C2.98398 9.40967 2.9839 9.37575 3.01082 9.33525C3.00415 9.32858 2.99715 9.32858 2.99015 9.32167L2.9904 9.32242ZM14.7059 10.1541L14.7053 10.1544C14.7048 10.1561 14.7053 10.1578 14.7048 10.1594C14.7053 10.1578 14.7052 10.1561 14.7059 10.1544V10.1541ZM14.7048 10.1591C14.7001 10.1772 14.6981 10.196 14.6988 10.2148C14.6988 10.1962 14.6996 10.1775 14.7048 10.1591ZM14.6988 10.2819V10.2886C14.7057 10.2953 14.7063 10.2953 14.7122 10.2891C14.7056 10.2891 14.7056 10.2893 14.6988 10.2824V10.2819ZM14.6988 10.2954C14.6791 10.3021 14.6586 10.3021 14.6314 10.3089C14.6645 10.3215 14.6973 10.3288 14.6988 10.3415V10.2954ZM14.6988 10.3416V10.3433L14.6993 10.3428C14.6993 10.3424 14.6988 10.3422 14.6988 10.3419V10.3416ZM13.706 11.5265C13.6925 12.2973 13.7804 13.0543 13.8815 13.8183C13.1187 13.8453 12.342 13.8721 11.559 13.8993L11.5592 13.8991C11.8627 13.7708 12.1126 13.5886 12.3417 13.3788C12.3759 13.3449 12.4096 13.3114 12.4501 13.2839C12.7339 13.1084 12.9428 12.865 13.1321 12.5946C13.3481 12.2837 13.49 11.9319 13.6657 11.6007C13.6777 11.5752 13.6911 11.5504 13.706 11.5265V11.5265ZM14.6512 11.5877C14.6621 11.6095 14.6712 11.6321 14.6784 11.6553C14.7117 11.6487 14.7257 11.6487 14.739 11.6418C14.739 11.6352 14.7389 11.6286 14.7457 11.6214L14.7455 11.6212C14.7255 11.6145 14.6987 11.6013 14.6512 11.5878L14.6512 11.5877ZM14.6708 11.6491C14.67 11.6491 14.6682 11.6508 14.6648 11.6541L14.6651 11.6549C14.6715 11.6549 14.6784 11.6616 14.6784 11.6616L14.6717 11.6541C14.6717 11.6508 14.6717 11.6491 14.6709 11.6491H14.6708ZM0.89165 11.6754C0.878233 11.6754 0.837483 11.6959 0.830816 11.7026C0.857816 11.7701 0.89165 11.8446 0.91865 11.9123C0.925233 11.9057 0.965733 11.8854 0.9724 11.8854C0.945317 11.8179 0.918566 11.7435 0.891733 11.6754H0.89165ZM0.702066 11.9528C0.682066 11.9868 0.661733 12.0202 0.668733 12.0468C0.668733 12.0671 0.702233 12.0872 0.722733 12.1077C0.7229 12.101 0.729233 12.0944 0.736067 12.0881C0.722733 12.0407 0.715983 12 0.70215 11.9528L0.702066 11.9528ZM18.7496 11.9595C18.7496 11.9729 18.7563 11.9927 18.7496 12.0065V11.9595ZM1.05315 12.1082C1.04648 12.1082 0.999233 12.1284 0.992567 12.1353C1.0464 12.25 1.10032 12.372 1.15423 12.4869L1.15448 12.4866C1.1614 12.4866 1.21532 12.4597 1.21532 12.4597C1.16098 12.3443 1.12757 12.2158 1.05315 12.1081V12.1082ZM0.9184 12.3785C0.9184 12.4052 0.8844 12.3985 0.8844 12.4255C0.8444 12.4255 0.810567 12.4188 0.776817 12.4188C0.77015 12.4255 0.797067 12.4663 0.803983 12.4732H0.945566C0.945566 12.439 0.939066 12.4123 0.939066 12.3783L0.9184 12.3785ZM7.12923 12.642C7.20373 12.757 7.2784 12.8653 7.35923 12.973H7.35948L7.35273 12.9797C7.33857 12.973 7.31823 12.9663 7.3049 12.9528L7.14298 12.709C7.12965 12.689 7.12215 12.6686 7.1294 12.6416L7.12923 12.642ZM14.6651 13.0073L14.6648 13.0075C14.6582 13.0886 14.6513 13.1494 14.6513 13.2102C14.6513 13.2237 14.665 13.2504 14.672 13.2504C14.6853 13.2579 14.7122 13.2438 14.7257 13.2377C14.7324 13.231 14.7391 13.2174 14.7391 13.2105C14.7188 13.1967 14.6991 13.1901 14.6786 13.176C14.8068 13.1085 14.6786 13.0748 14.6652 13.0073H14.6651ZM2.90373 16.8337C2.9774 16.915 3.05182 16.9962 3.12598 17.0842C3.0854 17.0637 3.03815 17.0503 3.01815 17.023C2.9709 16.9691 2.93057 16.9082 2.88332 16.8543L2.90373 16.8337ZM3.18707 17.0706C3.20765 17.1044 3.2209 17.145 3.2409 17.1856C3.14648 17.1789 3.09923 17.1381 3.12623 17.0842C3.14673 17.0775 3.16715 17.0775 3.18707 17.0707V17.0706ZM16.0495 18.1058C15.9951 18.1185 15.9545 18.1258 15.9212 18.1392C15.9074 18.1663 15.8937 18.1864 15.8802 18.2133C15.8871 18.2133 15.8938 18.22 15.9008 18.2268C15.9414 18.1863 15.9883 18.1527 16.0495 18.1057V18.1058ZM15.7041 18.2941C15.6297 18.3416 15.5489 18.3888 15.4745 18.4359C15.4812 18.4426 15.4812 18.4499 15.4883 18.4566C15.5827 18.4363 15.6572 18.3888 15.7315 18.3349L15.7312 18.3343C15.7247 18.3208 15.711 18.3068 15.7041 18.2941ZM12.3969 19.5795C12.0864 19.6673 11.9849 19.6805 11.9511 19.6333C12.1064 19.6128 12.2486 19.5994 12.3969 19.5795ZM11.9371 19.6401C11.9441 19.6535 11.9441 19.6669 11.9506 19.6803C11.9101 19.6803 11.8831 19.6943 11.8493 19.7007L11.8491 19.7004C11.7549 19.7209 11.6536 19.7347 11.5591 19.7483C11.5252 19.7549 11.4847 19.7889 11.4714 19.7278C11.4579 19.7345 11.4442 19.7345 11.4309 19.7417C11.4642 19.8428 11.5457 19.7614 11.6132 19.802C11.4644 19.8225 11.3233 19.8361 11.1812 19.8561V19.8427C11.2222 19.836 11.2691 19.829 11.3095 19.822V19.8019C11.2422 19.7953 11.1747 19.7884 11.1067 19.7884C11.087 19.7884 11.0596 19.8158 11.0394 19.8224C11.0124 19.8291 10.9855 19.8359 10.9516 19.8359C10.8369 19.8426 10.7225 19.8426 10.6141 19.8493C10.6072 19.8493 10.5936 19.8427 10.587 19.8427V19.822C11.0393 19.7614 11.4847 19.7008 11.9371 19.6399L11.9371 19.6401ZM10.5261 19.8153V19.8352C10.401 19.8553 10.2748 19.8688 10.1482 19.8757V19.8558C10.2766 19.8425 10.3979 19.8287 10.5261 19.8153Z" fill="black" stroke="#DD3735" stroke-width="2" mask="url(#path-1-inside-1_1_78)"/>
</g>
<defs>
<clipPath id="clip0_1_78">
<rect width="20" height="20" fill="white"/>
</clipPath>
</defs>
</svg>
