<svg width="20" height="20" viewBox="0 0 20 20" fill="none" xmlns="http://www.w3.org/2000/svg">
<path d="M9.23829 19.9187C7.15298 19.7013 5.88494 18.9458 5.3945 17.6286C5.30821 17.3969 5.30096 17.2856 5.27901 15.8561L5.2556 14.3308L3.94215 14.3079L2.62871 14.2849L2.29016 14.167C-0.735067 13.1136 -0.735067 6.87615 2.29016 5.8071L2.62871 5.68746L6.10298 5.66628L9.57725 5.64509V5.43325V5.2214L7.43761 5.20022L5.29796 5.17903V3.90796C5.29796 2.32912 5.37612 2.04213 5.9853 1.38414C7.72887 -0.499118 12.7412 -0.411519 14.199 1.52769C14.7167 2.21643 14.7387 2.31694 14.7657 4.1198L14.7887 5.64509L16.1021 5.66803L17.4155 5.69097L17.7541 5.80885C19.1866 6.30765 19.9789 7.79593 19.9789 9.98794C19.9789 12.1797 19.1905 13.6612 17.7541 14.1688L17.4155 14.2884L13.9413 14.3096L10.467 14.3308V14.5426V14.7545L12.6066 14.7757L14.7463 14.7969V16.0679C14.7463 18.9306 12.8015 20.2902 9.23829 19.9187ZM11.3568 19.0102C13.2201 18.6961 13.9398 17.971 13.9408 16.4069L13.9413 15.6442L11.8267 15.6333C9.29058 15.6201 9.59844 15.7707 9.59844 14.5426C9.59844 13.3058 9.01544 13.466 13.5632 13.4525L17.4155 13.441L17.6668 13.3234C19.6815 12.3799 19.6815 7.59603 17.6668 6.65252L17.4155 6.53486H16.1021H14.7887L14.7637 7.61527C14.7478 8.30676 14.7194 8.7567 14.6848 8.86517C14.4768 9.51767 13.9511 10.0533 13.2846 10.2917L13.0092 10.3902L10.0221 10.4115L7.0351 10.4328L6.85313 10.53C6.57266 10.6797 6.35019 10.904 6.2208 11.1675L6.10298 11.4073V14.2884C6.10298 17.5482 6.0871 17.3821 6.44527 17.8686C7.19277 18.884 9.25774 19.364 11.3568 19.0102ZM11.9134 17.7241C11.1678 17.4481 11.1752 16.3972 11.9245 16.1388C12.4726 15.9498 13.0266 16.3517 13.0294 16.9404C13.032 17.4888 12.4264 17.914 11.9134 17.7241ZM5.2778 12.3394L5.30001 11.2378L5.41119 10.9763C5.67992 10.3443 6.13397 9.91094 6.76696 9.68245L7.0351 9.58566L10.0221 9.56436L13.0091 9.54307L13.1911 9.4459C13.4716 9.29614 13.6941 9.07187 13.8235 8.80844L13.9413 8.56857L13.9536 5.7979C13.9666 2.87421 13.9615 2.77898 13.7698 2.36545C12.8953 0.479059 7.7767 0.298637 6.44526 2.10728C6.14268 2.51831 6.10401 2.68369 6.10345 3.569L6.10297 4.33165L8.21757 4.34264C10.7537 4.35582 10.4458 4.20514 10.4458 5.43325C10.4458 6.67014 11.0288 6.50984 6.48101 6.52338L2.6287 6.53485L2.33859 6.67225C0.454332 7.56467 0.373523 12.299 2.2263 13.2511C2.61221 13.4495 2.68569 13.4576 4.0057 13.4491L5.25559 13.441L5.2778 12.3394ZM7.56598 3.83963C6.92742 3.58478 6.82038 2.71693 7.38346 2.35984C7.97098 1.98724 8.67454 2.35529 8.68249 3.03939C8.68922 3.6182 8.08903 4.04838 7.56598 3.83963Z" fill="#FFD845"/>
</svg>
