<svg width="20" height="20" viewBox="0 0 20 20" fill="none" xmlns="http://www.w3.org/2000/svg">
<path d="M19.3333 10.1118C19.3333 12.321 15.1547 14.1119 9.99999 14.1119C4.84534 14.1119 0.666656 12.321 0.666656 10.1118C0.666656 7.90269 4.84534 6.11183 9.99999 6.11183C15.1547 6.11183 19.3333 7.90269 19.3333 10.1118Z" stroke="#5CCEEE"/>
<path d="M5.55451 18.3185C7.49698 19.3708 11.0619 16.5495 13.5171 12.017C15.9721 7.4846 16.3877 2.95737 14.4453 1.90517C12.5028 0.85298 8.93787 3.67427 6.48275 8.20669C4.02763 12.7391 3.61204 17.2664 5.55451 18.3185Z" stroke="#5CCEEE"/>
<path d="M14.4453 18.3185C12.5028 19.3708 8.9379 16.5495 6.48278 12.017C4.02766 7.4846 3.61207 2.95737 5.55454 1.90517C7.49701 0.85298 11.062 3.67427 13.5171 8.20669C15.9723 12.7391 16.3877 17.2664 14.4453 18.3185Z" stroke="#5CCEEE"/>
<path d="M8.66666 10.1118C8.66666 10.8482 9.26362 11.4452 9.99999 11.4452C10.7364 11.4452 11.3333 10.8482 11.3333 10.1118C11.3333 9.37543 10.7364 8.77849 9.99999 8.77849C9.26362 8.77849 8.66666 9.37543 8.66666 10.1118Z" stroke="#5CCEEE"/>
</svg>
