<svg width="20" height="20" viewBox="0 0 20 20" fill="none" xmlns="http://www.w3.org/2000/svg">
<path d="M10.022 0L1.32892 4.9935V15.0065L10.022 20L18.6711 15.0065V4.9935L10.022 0ZM9.99917 2.90367L16.1906 6.42583V13.5743L9.99917 17.0964L3.87617 13.6117L3.80942 6.42583L9.99917 2.90367ZM10.0399 3.39517C9.22617 3.86408 8.41334 4.33467 7.60017 4.80467V5.01625L9.773 6.28575V6.68775C9.88592 6.62267 9.991 6.56183 10.1083 6.49408L10.3215 6.61942V6.3395C11.0585 5.91717 11.8276 5.47183 12.4618 5.10575C12.4648 5.00308 12.4641 4.89458 12.4651 4.79492C11.6565 4.32858 10.8482 3.86183 10.0399 3.39517ZM6.94584 5.11558C6.13708 5.57642 5.3365 6.05125 4.53534 6.52508V9.36033C5.3395 9.82308 6.14259 10.2876 6.94584 10.7519L7.28109 10.5582V8.12825C7.9945 7.71617 8.74125 7.28442 9.35625 6.92867V6.52508L6.94584 5.11558ZM13.1486 5.18883L10.7381 6.58042V6.862L12.9353 8.14617V10.7015C13.0065 10.7427 13.0774 10.7841 13.1486 10.8252L15.5591 9.43358V6.59833L13.1486 5.18883ZM10.1083 6.97592C9.30525 7.44125 8.5015 7.90517 7.69775 8.36917V11.2223C8.50192 11.6851 9.305 12.1496 10.1083 12.6139L12.5188 11.2207V8.38542L10.1083 6.97592ZM4.94384 10.0782C4.80825 10.1583 4.67092 10.2356 4.53534 10.3158V13.1511C5.33892 13.6153 6.14233 14.0798 6.94584 14.5443L7.28109 14.3507V11.919C7.4165 11.8407 7.53825 11.7701 7.675 11.6912C7.53925 11.6124 7.42108 11.5442 7.28109 11.4633V11.04L6.94584 11.2338C6.25825 10.8362 5.53733 10.4204 4.94384 10.0782ZM15.1506 10.1497L13.1487 11.307C13.0753 11.2646 13.0093 11.226 12.9354 11.1833V11.4617L12.5253 11.6993L12.9354 11.9386V14.4939C13.0066 14.5351 13.0775 14.5765 13.1487 14.6176L15.5592 13.2243V10.3891L15.1506 10.1497ZM8.09325 11.932C7.9615 12.0081 7.8295 12.0837 7.69775 12.1598V15.013C8.50083 15.4776 9.30458 15.941 10.1083 16.4046L12.5188 15.013V12.1777L12.1103 11.9385L10.1083 13.0957C9.41609 12.6954 8.69058 12.2767 8.09325 11.932Z" fill="#3B76C3"/>
</svg>
