<svg width="20" height="20" viewBox="0 0 20 20" fill="none" xmlns="http://www.w3.org/2000/svg">
<path d="M15.4167 7.92501C14.7917 7.70976 14.2401 7.32275 13.825 6.80834C13.3675 6.2352 12.7851 5.77429 12.1221 5.46086C11.4591 5.14743 10.7333 4.98979 10 5.00001C9.01364 4.93015 8.03716 5.23438 7.26501 5.8521C6.49286 6.46981 5.98171 7.3557 5.83334 8.33334C6.12557 7.84438 6.56538 7.46073 7.0895 7.23761C7.61362 7.01448 8.19501 6.96339 8.75 7.09167C9.37391 7.31318 9.92466 7.70245 10.3417 8.21667C10.8016 8.78524 11.3852 9.24139 12.0481 9.55041C12.7109 9.85944 13.4355 10.0132 14.1667 10C15.153 10.0699 16.1295 9.76564 16.9017 9.14792C17.6738 8.5302 18.185 7.64431 18.3333 6.66667C18.0464 7.16148 17.608 7.55093 17.0828 7.77751C16.5576 8.00409 15.9735 8.0558 15.4167 7.92501ZM4.58334 12.075C5.20829 12.2902 5.75994 12.6773 6.175 13.1917C6.63246 13.7648 7.21496 14.2257 7.87792 14.5392C8.54088 14.8526 9.26676 15.0102 10 15C10.9864 15.0699 11.9629 14.7656 12.735 14.1479C13.5071 13.5302 14.0183 12.6443 14.1667 11.6667C13.8744 12.1556 13.4346 12.5393 12.9105 12.7624C12.3864 12.9855 11.805 13.0366 11.25 12.9083C10.6261 12.6868 10.0754 12.2976 9.65834 11.7833C9.19714 11.2162 8.6133 10.761 7.95076 10.4521C7.28823 10.1432 6.56426 9.98866 5.83334 10C4.84698 9.93015 3.87049 10.2344 3.09834 10.8521C2.32619 11.4698 1.81504 12.3557 1.66667 13.3333C1.95359 12.8385 2.39201 12.4491 2.9172 12.2225C3.44239 11.9959 4.02651 11.9442 4.58334 12.075Z" fill="#39B7D6"/>
</svg>
