<svg width="20" height="20" viewBox="0 0 20 20" fill="none" xmlns="http://www.w3.org/2000/svg">
<path fill-rule="evenodd" clip-rule="evenodd" d="M9.99999 4C7.5111 4 5.95555 5.33333 5.33332 7.99999C6.26666 6.66665 7.35555 6.16667 8.59999 6.49999C9.31002 6.69017 9.81751 7.24207 10.3792 7.85299C11.2943 8.84817 12.3534 9.99999 14.6667 9.99999C17.1556 9.99999 18.7111 8.66665 19.3333 6C18.4 7.33332 17.3111 7.83332 16.0667 7.49999C15.3567 7.3098 14.8492 6.75792 14.2875 6.147C13.3724 5.15181 12.3132 4 9.99999 4ZM5.33332 9.99999C2.84443 9.99999 1.28888 11.3333 0.666656 14C1.59999 12.6666 2.68888 12.1666 3.93332 12.5C4.64335 12.6902 5.15084 13.2421 5.71256 13.8529C6.62764 14.8481 7.68674 16 9.99999 16C12.4889 16 14.0444 14.6667 14.6667 12C13.7333 13.3333 12.6444 13.8333 11.4 13.5C10.69 13.3098 10.1825 12.7579 9.62075 12.147C8.70567 11.1518 7.64658 9.99999 5.33332 9.99999Z" stroke="#39B7D6" stroke-linejoin="round"/>
</svg>
