<svg width="20" height="20" viewBox="0 0 20 20" fill="none" xmlns="http://www.w3.org/2000/svg">
<path d="M5.625 8.5625C6.20833 6.22917 7.66667 5.0625 10 5.0625C13.5 5.0625 13.9375 7.6875 15.6875 8.125C16.8542 8.41667 17.875 7.97917 18.75 6.8125C18.1667 9.14583 16.7083 10.3125 14.375 10.3125C10.875 10.3125 10.4375 7.6875 8.6875 7.25C7.52083 6.95833 6.5 7.39583 5.625 8.5625ZM1.25 13.8125C1.83333 11.4792 3.29167 10.3125 5.625 10.3125C9.125 10.3125 9.5625 12.9375 11.3125 13.375C12.4792 13.6667 13.5 13.2292 14.375 12.0625C13.7917 14.3958 12.3333 15.5625 10 15.5625C6.5 15.5625 6.0625 12.9375 4.3125 12.5C3.14583 12.2083 2.125 12.6458 1.25 13.8125Z" fill="#39B7D6"/>
</svg>
