<svg xmlns="http://www.w3.org/2000/svg" xmlns:xlink="http://www.w3.org/1999/xlink" width="20" height="20" fill="none" xmlns:v="https://vecta.io/nano"><g clip-path="url(#B)"><mask id="A" maskUnits="userSpaceOnUse" x="0" y="0" width="20" height="20"><path d="M20 0H0V20H20V0Z" fill="#fff"/></mask><g mask="url(#A)"><path d="M12.407 1.793l.876-1.314c.1-.15.046-.344-.12-.433s-.382-.042-.481.108l-.925 1.387A5.75 5.75 0 0 0 10 1.263a5.75 5.75 0 0 0-1.757.277L7.319.153c-.1-.15-.315-.198-.481-.108s-.22.284-.12.433l.876 1.314C5.9 2.581 4.737 4.169 4.737 6c0 .175.157.316.351.316h9.824c.194 0 .351-.141.351-.316 0-1.831-1.162-3.419-2.856-4.207zM5.452 5.684C5.632 3.568 7.603 1.895 10 1.895s4.368 1.673 4.548 3.789H5.452zm6.996-2.095h-.463c-.128 0-.231.093-.231.208v.416c0 .115.104.208.231.208h.463c.128 0 .231-.093.231-.208v-.416c0-.115-.104-.208-.232-.208zm-4.434 0h-.463c-.128 0-.231.093-.231.208v.416c0 .115.104.208.231.208h.463c.128 0 .231-.093.231-.208v-.416c0-.115-.104-.208-.231-.208zm6.898 3.043H5.088c-.194 0-.351.141-.351.316v6.37c0 .841.761 1.525 1.696 1.525h.409v1.897c0 .695.629 1.261 1.403 1.261s1.403-.566 1.403-1.261v-1.897h.702v1.897c0 .695.63 1.261 1.404 1.261s1.403-.566 1.403-1.261v-1.897h.409c.935 0 1.696-.684 1.696-1.525v-6.37c0-.175-.157-.316-.351-.316zm-.351 6.685c0 .493-.446.893-.994.893h-.76c-.194 0-.351.141-.351.316v2.212c0 .347-.315.63-.702.63s-.702-.283-.702-.63v-2.212c0-.175-.157-.316-.351-.316H9.298c-.194 0-.351.141-.351.316v2.212c0 .347-.315.63-.702.63s-.702-.283-.702-.63v-2.212c0-.175-.157-.316-.351-.316h-.76c-.548 0-.995-.401-.995-.893V7.263h9.123v6.054z" fill="#a4c638" stroke="#a4c638" stroke-width=".2"/><use xlink:href="#C" fill="#a4c638" stroke="#a4c638" stroke-width=".2"/><path d="M3.158 6.632c-.677 0-1.228.496-1.228 1.106v4.418c0 .61.551 1.106 1.228 1.106s1.228-.496 1.228-1.106V7.738c0-.61-.551-1.106-1.228-1.106zm.526 5.525c0 .262-.236.475-.526.475s-.526-.213-.526-.475V7.738c0-.262.236-.475.526-.475s.526.213.526.475v4.418z" fill="#a4c638" stroke="#a4c638" stroke-width=".2"/></g></g><defs><clipPath id="B"><path fill="#fff" d="M0 0h20v20H0z"/></clipPath><path id="C" d="M16.842 6.632c-.677 0-1.228.496-1.228 1.106v4.418c0 .61.551 1.106 1.228 1.106s1.228-.496 1.228-1.106V7.738c0-.61-.551-1.106-1.228-1.106zm.526 5.525c0 .262-.236.475-.526.475s-.526-.213-.526-.475V7.738c0-.262.236-.475.526-.475s.526.213.526.475v4.418z"/></defs></svg>