<svg width="20" height="20" viewBox="0 0 20 20" fill="none" xmlns="http://www.w3.org/2000/svg">
<g clip-path="url(#clip0_501_2)">
<path d="M10 0.666667L10.1832 0.0256507C10.0635 -0.00855023 9.9366 -0.00855023 9.81689 0.0256507L10 0.666667ZM0.666702 3.33333L0.483554 2.69232C0.170805 2.78168 -0.0318061 3.08368 0.00411326 3.40696L0.666702 3.33333ZM2.00004 15.3333L1.33745 15.4069C1.36242 15.6317 1.49962 15.8285 1.70189 15.9296L2.00004 15.3333ZM10 19.3333L9.70189 19.9296C9.88958 20.0235 10.1105 20.0235 10.2982 19.9296L10 19.3333ZM18 15.3333L18.2982 15.9296C18.5004 15.8285 18.6376 15.6317 18.6626 15.4069L18 15.3333ZM19.3334 3.33333L19.9959 3.40696C20.0319 3.08368 19.8292 2.78168 19.5166 2.69232L19.3334 3.33333ZM10 4L10.6108 3.73279L10 2.33673L9.38926 3.73279L10 4ZM9.81689 0.0256507L0.483554 2.69232L0.84985 3.97435L10.1832 1.30768L9.81689 0.0256507ZM0.00411326 3.40696L1.33745 15.4069L2.66262 15.2597L1.32929 3.25971L0.00411326 3.40696ZM1.70189 15.9296L9.70189 19.9296L10.2982 18.7371L2.29818 14.7371L1.70189 15.9296ZM10.2982 19.9296L18.2982 15.9296L17.7019 14.7371L9.70189 18.7371L10.2982 19.9296ZM18.6626 15.4069L19.9959 3.40696L18.6708 3.25971L17.3375 15.2597L18.6626 15.4069ZM19.5166 2.69232L10.1832 0.0256507L9.81689 1.30768L19.1502 3.97435L19.5166 2.69232ZM5.94414 14.9339L10.6108 4.26721L9.38926 3.73279L4.7226 14.3995L5.94414 14.9339ZM9.38926 4.26721L14.0559 14.9339L15.2775 14.3995L10.6108 3.73279L9.38926 4.26721ZM6.6667 12H13.3334V10.6667H6.6667V12Z" fill="#DD0031"/>
</g>
<defs>
<clipPath id="clip0_501_2">
<rect width="20" height="20" fill="white"/>
</clipPath>
</defs>
</svg>
