<svg xmlns="http://www.w3.org/2000/svg" width="20" height="20" fill="none" xmlns:v="https://vecta.io/nano"><g clip-path="url(#A)"><path d="M10 0C4.477 0 0 4.477 0 10a10 10 0 0 0 10 10c5.523 0 10-4.477 10-10a10.01 10.01 0 0 0-.394-2.786.5.5 0 0 0-.633-.28.5.5 0 0 0-.306.62h-.002A9.03 9.03 0 0 1 19 10a8.94 8.94 0 0 1-2.636 6.364c-.834.838-1.826 1.503-2.918 1.955A8.94 8.94 0 0 1 10 19a8.94 8.94 0 0 1-6.364-2.636A8.94 8.94 0 0 1 1 10a8.94 8.94 0 0 1 2.636-6.364A8.94 8.94 0 0 1 10 1a8.93 8.93 0 0 1 5.798 2.117 1.22 1.22 0 0 0 .46 1.465 1.22 1.22 0 0 0 1.529-.142 1.22 1.22 0 0 0 .182-1.525 1.22 1.22 0 0 0-1.453-.498A9.96 9.96 0 0 0 10 0zM8.8 4.9l-3.5 9.085h2.192l.573-1.54h3.308l-.599-1.702H8.595l1.417-3.909 2.52 7.15h2.192L11.225 4.9H8.8z" fill="#371ea0"/></g><defs><clipPath id="A"><path fill="#fff" d="M0 0h20v20H0z"/></clipPath></defs></svg>