<svg width="20" height="20" viewBox="0 0 20 20" fill="none" xmlns="http://www.w3.org/2000/svg">
<g clip-path="url(#clip0_9_10)">
<path fill-rule="evenodd" clip-rule="evenodd" d="M15 1.25H5C4.00544 1.25 3.05161 1.64509 2.34835 2.34835C1.64509 3.05161 1.25 4.00544 1.25 5V15C1.25 15.9946 1.64509 16.9484 2.34835 17.6517C3.05161 18.3549 4.00544 18.75 5 18.75H15C15.9946 18.75 16.9484 18.3549 17.6517 17.6517C18.3549 16.9484 18.75 15.9946 18.75 15V5C18.75 4.00544 18.3549 3.05161 17.6517 2.34835C16.9484 1.64509 15.9946 1.25 15 1.25ZM5 0C3.67392 0 2.40215 0.526784 1.46447 1.46447C0.526784 2.40215 0 3.67392 0 5L0 15C0 16.3261 0.526784 17.5979 1.46447 18.5355C2.40215 19.4732 3.67392 20 5 20H15C16.3261 20 17.5979 19.4732 18.5355 18.5355C19.4732 17.5979 20 16.3261 20 15V5C20 3.67392 19.4732 2.40215 18.5355 1.46447C17.5979 0.526784 16.3261 0 15 0L5 0Z" fill="#8F75FC"/>
<path fill-rule="evenodd" clip-rule="evenodd" d="M10.6712 15H6.3275V4.43124H10.5763C12.56 4.43124 13.755 5.44249 13.755 7.06874C13.755 8.17374 12.9425 9.16249 11.9012 9.33874V9.46374C13.33 9.60999 14.2812 10.6275 14.2812 12.005C14.2812 13.865 12.9262 15 10.6712 15ZM7.96875 5.82249V8.90624H9.91625C11.3662 8.90624 12.1212 8.37124 12.1212 7.36874C12.1212 6.39374 11.41 5.82249 10.195 5.82249H7.96875ZM10.3412 13.6087H7.96875V10.2025H10.2462C11.7912 10.2025 12.605 10.7812 12.605 11.8875C12.605 13.0075 11.8212 13.6087 10.3412 13.6087Z" fill="#8F75FC"/>
</g>
<defs>
<clipPath id="clip0_9_10">
<rect width="20" height="20" fill="white"/>
</clipPath>
</defs>
</svg>
