<svg xmlns="http://www.w3.org/2000/svg" width="20" height="20" fill="none" xmlns:v="https://vecta.io/nano"><g clip-path="url(#A)" fill-rule="evenodd" fill="#8f75fc"><path d="M15 1.25H5A3.75 3.75 0 0 0 1.25 5v10A3.75 3.75 0 0 0 5 18.75h10A3.75 3.75 0 0 0 18.75 15V5A3.75 3.75 0 0 0 15 1.25zM5 0a5 5 0 0 0-5 5v10a5 5 0 0 0 5 5h10a5 5 0 0 0 5-5V5a5 5 0 0 0-5-5H5zm5.671 15H6.328V4.431h4.249c1.984 0 3.179 1.011 3.179 2.637 0 1.105-.812 2.094-1.854 2.27v.125c1.429.146 2.38 1.164 2.38 2.541 0 1.86-1.355 2.995-3.61 2.995zM7.969 5.823v3.084h1.947c1.45 0 2.205-.535 2.205-1.537 0-.975-.711-1.546-1.926-1.546H7.969zm2.372 7.786H7.969v-3.406h2.277c1.545 0 2.359.579 2.359 1.685 0 1.12-.784 1.721-2.264 1.721z"/></g><defs><clipPath id="A"><path fill="#fff" d="M0 0h20v20H0z"/></clipPath></defs></svg>