<svg xmlns="http://www.w3.org/2000/svg" width="20" height="20" fill="#69d3a7" xmlns:v="https://vecta.io/nano"><path d="M10.047 17.984a7.94 7.94 0 0 1-7.337-4.903 7.94 7.94 0 0 1 1.722-8.655 7.94 7.94 0 0 1 8.655-1.722 7.94 7.94 0 0 1 4.903 7.337 7.95 7.95 0 0 1-7.942 7.942zm0-15.599a7.66 7.66 0 0 0-7.075 4.728 7.66 7.66 0 0 0 1.66 8.346 7.66 7.66 0 0 0 8.346 1.66 7.66 7.66 0 0 0 4.727-7.076c-.002-2.03-.81-3.977-2.246-5.413s-3.382-2.243-5.412-2.246v.001z"/><path d="M14.453 12.807a4.1 4.1 0 0 1-1.305 2.014c-.693.508-1.523.796-2.383.824l-.199-1.305a3.21 3.21 0 0 0 1.446-.454 3.65 3.65 0 0 0 .341-.341L10 6h1.957l1.362 5.645L14.765 6h1.901l-2.213 6.807zm-7.22-6.805a3.23 3.23 0 0 1 1.219.199 3.65 3.65 0 0 1 1.049.625l-.794 1.077a3.11 3.11 0 0 0-.652-.369 1.81 1.81 0 0 0-.681-.114c-.964 0-1.446.738-1.446 2.241a2.61 2.61 0 0 0 .369 1.617c.125.164.289.295.477.379s.395.12.601.103a1.67 1.67 0 0 0 .652-.114c.245-.106.482-.23.709-.369l.794 1.134a3.39 3.39 0 0 1-2.241.794 3.51 3.51 0 0 1-1.759-.426 2.86 2.86 0 0 1-1.134-1.25 4.37 4.37 0 0 1-.397-1.901 4.46 4.46 0 0 1 .397-1.901c.243-.535.637-.988 1.134-1.301C6.053 6.146 6.638 6 7.232 6z"/></svg>