<svg xmlns="http://www.w3.org/2000/svg" width="20" height="20" fill="#44b78b" xmlns:v="https://vecta.io/nano"><path d="M8.834 2.5h2.478v11.356a16.39 16.39 0 0 1-3.214.334c-3.026-.003-4.601-1.355-4.601-3.951 0-2.5 1.671-4.125 4.26-4.125a4.03 4.03 0 0 1 1.078.125V2.5zm0 5.714c-.269-.089-.552-.131-.836-.125-1.25 0-1.977.764-1.977 2.104 0 1.304.692 2.024 1.961 2.024a5.86 5.86 0 0 0 .851-.062V8.217v-.003zm6.416-1.927v5.688c0 1.958-.147 2.899-.577 3.711a3.95 3.95 0 0 1-2.025 1.814l-2.299-1.083a3.57 3.57 0 0 0 1.963-1.643c.354-.701.466-1.512.466-3.648V6.287h2.472zm.003-3.774h-2.477V5.03h2.477V2.513z"/></svg>