<svg xmlns="http://www.w3.org/2000/svg" width="20" height="20" fill="none" xmlns:v="https://vecta.io/nano"><g clip-path="url(#A)"><path d="M8 3.6v2H4v2H2v2H.45a.4.4 0 0 0-.387.325S0 10.267 0 10.7a5.79 5.79 0 0 0 .075.875c-.023.006-.055.02-.075.025h.075c.116.723.381 1.494.825 2.225.003.02.008.03.012.038a.4.4 0 0 0 .15.237c.008.005.017.009.025.013l.4.525C2.558 15.872 4.295 16.8 6.8 16.8c4.089 0 7.547-1.742 9.5-5.2h3.637c-.434-.109-1.367-.256-1.212-.825-.517.598-1.502.673-2.263.537.145-.275.286-.555.413-.85 1.156-.03 1.986-.402 2.45-.85.508-.491.663-1.037.663-1.037a.4.4 0 0 0-.137-.413s-1.011-.737-2.525-.487c-.431-1.414-1.55-2.1-1.55-2.1-.083-.048-.18-.067-.275-.05-.064.014-.125.044-.175.088 0 0-.267.228-.487.637a3.23 3.23 0 0 0-.35 1.838c.034.377.153.734.325 1.075-.097.059-.153.109-.312.175-.331.137-.814.262-1.5.262h-.2v-2h-2v-4H8zm.8.8H10v1.2H8.8V4.4zm-4 2H6v1.2H4.8V6.4zm2 0H8v1.2H6.8V6.4zm2 0H10v1.2H8.8V6.4zm6.837.088c.297.22.834.681 1.025 1.688.02.111.086.206.181.266a.4.4 0 0 0 .319.047c1.02-.28 1.572-.05 1.875.125-.058.127-.048.205-.275.425-.364.352-.981.706-2.137.663-.169-.006-.323.094-.387.25-.159.398-.344.767-.538 1.125a.85.85 0 0 1-.15-.112c-.536.777-3.645.48-3.863-.125-.67.787-2.753.787-3.425 0-.217.605-3.339.902-3.875.125-.48.45-2.373.727-3.162-.187.075.275-.119.453-.375.575-.033-.228-.05-.445-.05-.65 0-.172.012-.187.025-.3H13c.787 0 1.378-.15 1.8-.325s.722-.387.762-.412c.097-.061.162-.159.181-.272s-.011-.227-.081-.316c-.222-.289-.338-.652-.375-1.062-.058-.645.094-1.097.25-1.388.053-.098.056-.078.1-.137zM2.8 8.4H4v1.2H2.8V8.4zm2 0H6v1.2H4.8V8.4zm2 0H8v1.2H6.8V8.4zm2 0H10v1.2H8.8V8.4zm2 0H12v1.2h-1.2V8.4zM.9 11.6h14.5c-1.836 2.966-4.884 4.4-8.6 4.4-2.187 0-3.606-.742-4.537-1.725 1.775.084 3.15-.388 3.15-.388.22-.028.378-.23.35-.45s-.23-.378-.45-.35c-.022.003-.042.006-.062.012-.034.005-.067.013-.1.025 0 0-1.636.558-3.55.287A5.59 5.59 0 0 1 .9 11.6zm5.5.8a.4.4 0 0 0 0 .8.4.4 0 0 0 .4-.4c0-.055-.005-.103-.025-.15a.18.18 0 0 1-.15.088c-.091 0-.162-.084-.162-.175 0-.061.039-.109.087-.137a.43.43 0 0 0-.15-.025z" fill="#019bc6"/></g><defs><clipPath id="A"><path fill="#fff" d="M0 0h20v20H0z"/></clipPath></defs></svg>