<svg xmlns="http://www.w3.org/2000/svg" width="20" height="20" fill="none" xmlns:v="https://vecta.io/nano"><path d="M20 15.497c-.727.185-1.177.008-1.581-.598l-2.871-3.972-.415-.55-3.353 4.536c-.383.546-.785.783-1.5.59l4.294-5.764-3.998-5.206c.688-.134 1.162-.066 1.584.55l2.978 4.022 3-4c.384-.546.797-.753 1.487-.552l-1.55 2.055-2.1 2.734c-.25.313-.216.526.014.828L20 15.497zM.005 9.642l.351-1.728c.956-3.419 4.875-4.839 7.578-2.727 1.579 1.242 1.972 3 1.894 4.969H.925c-.134 3.544 2.417 5.682 5.669 4.591 1.141-.383 1.813-1.276 2.149-2.394.171-.56.453-.647.979-.488-.269 1.398-.875 2.565-2.156 3.296-1.914 1.094-4.647.74-6.084-.78C.625 13.5.271 12.383.113 11.188.088 10.99.038 10.802 0 10.613l.005-.97v-.001zm.936-.238h8.045c-.053-2.562-1.648-4.382-3.829-4.398C2.764 4.988 1.045 6.764.941 9.404z" fill="#b3b3b3"/></svg>