<svg xmlns="http://www.w3.org/2000/svg" width="20" height="20" fill="none" xmlns:v="https://vecta.io/nano"><path d="M13.98 7.344a2.97 2.97 0 0 0 1.566-3.337 2.97 2.97 0 0 0-2.89-2.288H7.344a2.97 2.97 0 0 0-2.89 2.288A2.97 2.97 0 0 0 6.02 7.344c-.494.246-.91.625-1.201 1.094S4.375 9.448 4.375 10s.154 1.093.445 1.562.706.848 1.201 1.094a2.97 2.97 0 0 0-1.641 2.521 2.97 2.97 0 0 0 1.403 2.66 2.97 2.97 0 0 0 3.007.069 2.97 2.97 0 0 0 1.523-2.593v-3.494c.273.352.622.639 1.021.838a2.97 2.97 0 0 0 1.284.311c.446.006.887-.088 1.292-.277a2.97 2.97 0 0 0 1.043-.81c.283-.345.484-.749.589-1.182a2.97 2.97 0 0 0-.54-2.518 2.97 2.97 0 0 0-1.022-.837zM15 4.688c-.001.621-.248 1.217-.687 1.656s-1.034.687-1.655.688h-.002-.003-2.341V2.344h2.344c.621.001 1.217.248 1.656.687s.687 1.035.687 1.657zm-4.163 2.969c-.196.152-.372.329-.525.525v-.525h.525zM5 4.688c.001-.621.248-1.217.687-1.657s1.035-.687 1.657-.687h2.344v4.687H7.344h-.001c-.621-.001-1.216-.248-1.656-.688S5.001 5.309 5 4.688zm2.344 12.969c-.308 0-.613-.06-.897-.178s-.543-.29-.761-.508-.391-.476-.509-.761-.179-.589-.179-.897.061-.613.179-.897.291-.543.509-.761.476-.39.761-.508.59-.178.897-.178h2.344v2.344c-.001.621-.248 1.217-.687 1.656s-1.035.687-1.656.687zm2.344-5.312H7.344c-.621 0-1.217-.247-1.657-.686S5.001 10.622 5 10.001s.246-1.217.686-1.657 1.035-.687 1.656-.687h.001 2.344v4.687zm2.969 0c-.621 0-1.217-.247-1.656-.686s-.686-1.035-.687-1.656.246-1.217.685-1.657 1.034-.687 1.655-.688h.003.001c.621.001 1.217.248 1.656.688s.685 1.035.685 1.657-.247 1.217-.686 1.656-1.035.686-1.656.687z" fill="#a259ff"/></svg>