<svg xmlns="http://www.w3.org/2000/svg" width="20" height="20" fill="none" xmlns:v="https://vecta.io/nano"><g clip-path="url(#A)" fill="#f2c129"><path d="M2.917 16.363c-.061 0-.121-.013-.176-.039s-.104-.063-.143-.109-.068-.101-.084-.159-.019-.12-.008-.18L5.144.694c.028-.169.107-.326.228-.448s.276-.203.445-.233.343-.011.498.061.284.191.368.341l2.368 4.083c.055.096.071.21.042.316s-.098.198-.194.254-.21.071-.316.042-.198-.098-.254-.194L5.963.834 3.327 16.017c-.017.097-.067.184-.142.247s-.17.098-.268.098z"/><path d="M10 20.002c-.387 0-.775-.098-1.127-.293l-6.158-3.394c-.056-.031-.105-.075-.141-.129a.42.42 0 0 1-.053-.368.42.42 0 0 1 .099-.163L14.138 4.099c.108-.108.243-.184.391-.22s.303-.031.449.014a.84.84 0 0 1 .571.657l1.947 11.329c.014.085.002.173-.036.251s-.099.142-.174.184l-6.158 3.395a2.33 2.33 0 0 1-1.127.293zm-6.398-4.15l5.673 3.127c.454.251.996.25 1.45 0l5.897-3.252-1.897-11.037-.001-.004L3.602 15.852z"/><path d="M2.917 16.363c-.071 0-.142-.018-.204-.053s-.115-.085-.152-.146-.058-.131-.061-.202.013-.142.046-.206L9.277 2.658a.83.83 0 0 1 .723-.453.81.81 0 0 1 .742.424l2.029 3.592c.048.096.058.206.027.309s-.101.189-.194.242-.203.068-.307.042-.194-.091-.251-.182L10.017 3.04l-6.73 13.097c-.035.068-.088.125-.153.165s-.14.061-.217.061z"/></g><defs><clipPath id="A"><path fill="#fff" d="M0 0h20v20H0z"/></clipPath></defs></svg>