<svg xmlns="http://www.w3.org/2000/svg" width="20" height="20" fill="none" xmlns:v="https://vecta.io/nano"><path d="M10 18.75c-.08 0-.157-.03-.215-.085l-2.812-2.656-2.812-2.656c-.031-.029-.056-.064-.072-.104s-.026-.081-.026-.124V7.813c0-.083.033-.162.092-.221s.138-.092.221-.092h4.839L4.16 2.727c-.045-.043-.077-.099-.091-.16s-.008-.125.015-.183.063-.108.115-.143.113-.054.175-.054h11.25c.083 0 .162.033.221.092s.091.138.091.221v5.313c0 .083-.033.162-.091.221s-.138.092-.221.092h-4.839l5.054 4.773c.045.043.077.099.09.16s.008.125-.015.183-.063.108-.115.143-.113.054-.175.054h-5.312v5c0 .083-.033.162-.091.221s-.138.091-.221.091zm-5.313-5.76l5 4.722v-4.587c0-.083.033-.162.092-.221s.138-.091.221-.091h4.839L9.876 8.125H4.687v4.865zm5.437-5.49h5.188V2.813H5.161L10.124 7.5z" fill="#e602d1"/></svg>