<svg xmlns="http://www.w3.org/2000/svg" width="20" height="20" fill="none" xmlns:v="https://vecta.io/nano"><path d="M10 1.25a1.2 1.2 0 0 0-.859.352L7.383 3.379a.64.64 0 0 0-.234.215L1.602 9.141c-.474.471-.474 1.245 0 1.719l7.539 7.539a1.22 1.22 0 0 0 1.719 0l7.539-7.539c.474-.471.474-1.245 0-1.719l-7.539-7.539A1.2 1.2 0 0 0 10 1.25zm0 1.27l7.48 7.48-7.48 7.48L2.52 10l5.176-5.176 1.094 1.094c-.029.105-.039.217-.039.332a1.24 1.24 0 0 0 .625 1.074v5.352a1.24 1.24 0 0 0-.625 1.074 1.25 1.25 0 1 0 2.5 0 1.24 1.24 0 0 0-.625-1.074V7.773l1.914 1.914c-.027.1-.039.205-.039.313a1.25 1.25 0 1 0 2.5 0 1.25 1.25 0 0 0-1.25-1.25c-.107 0-.212.012-.312.039l-2.227-2.227c.027-.1.039-.205.039-.312A1.25 1.25 0 0 0 10 5c-.115 0-.227.01-.332.039L8.574 3.945 10 2.52z" fill="#f34f29"/></svg>