<svg xmlns="http://www.w3.org/2000/svg" width="20" height="20" fill="none" xmlns:v="https://vecta.io/nano"><g clip-path="url(#A)" fill="#4a7ebf"><path d="M4.188 0a4.19 4.19 0 0 1 4.188 4.187 4.19 4.19 0 0 1-4.07 4.184c0 .192.008.556.117.775.151.304 1.057.871 1.945.871h.319A2.94 2.94 0 0 1 12.504 10h1.651a2.94 2.94 0 0 1 5.846.43 2.94 2.94 0 0 1-5.846.429h-1.651a2.94 2.94 0 0 1-5.813.008l-.353.011c-.581-.004-1.194-.16-1.687-.494l-.405-.278v.191l-.013 2.018v.218l.022 1.878c.035 1.113.94 2.011 1.939 2.222a2.05 2.05 0 0 0 .494.019 2.94 2.94 0 0 1 5.848.413 2.94 2.94 0 0 1-5.841.46h-.254c-1.909-.104-3.096-1.855-3.075-3.275l.006-5.363v-.591A4.19 4.19 0 0 1 0 4.187 4.19 4.19 0 0 1 4.188 0zm5.408 14.983a2.08 2.08 0 0 0-2.08 2.079 2.08 2.08 0 1 0 4.16 0 2.08 2.08 0 0 0-2.08-2.079zm0-6.634a2.08 2.08 0 0 0-2.08 2.079 2.08 2.08 0 1 0 4.16 0 2.08 2.08 0 0 0-2.08-2.079zm7.465 0a2.08 2.08 0 0 0-2.08 2.079 2.08 2.08 0 0 0 4.16 0 2.08 2.08 0 0 0-2.08-2.079zm1.184 1.204a.43.43 0 0 1 .013.594l-.012.013-1.274 1.277a.43.43 0 0 1-.592.016l-.013-.013-.624-.614a.43.43 0 0 1-.005-.607.43.43 0 0 1 .594-.017l.013.013.32.315.973-.975a.43.43 0 0 1 .607-.001zm-7.499-.006a.43.43 0 0 1 .013.594l-.013.013-1.274 1.277a.43.43 0 0 1-.592.016l-.013-.013-.624-.614a.43.43 0 0 1-.005-.607.43.43 0 0 1 .594-.017l.013.012.32.315.973-.975a.43.43 0 0 1 .607-.001zM4.188.859A3.33 3.33 0 0 0 .859 4.187a3.33 3.33 0 0 0 3.329 3.328 3.33 3.33 0 0 0 3.329-3.328A3.33 3.33 0 0 0 4.188.859zm-.346 1.339l2.073 1.306c.571.377.569 1.06-.008 1.437L3.792 6.246c-.582.339-1.234-.051-1.25-.73L2.54 4.202l.001-1.278c.017-.722.683-1.099 1.3-.726zm-.462.693v.302.443.29.428.981c0 .153.08.147.183.083l1.783-1.104c.098-.061.101-.124.005-.185L3.38 2.891zm7.028 14.6a.43.43 0 0 0 .43-.43.43.43 0 0 0-.43-.429.43.43 0 0 0-.429.429.43.43 0 0 0 .429.43zm-1.644 0a.43.43 0 0 0 .43-.43.43.43 0 0 0-.86 0 .43.43 0 0 0 .43.43zm8.297 1.65a2.08 2.08 0 0 1-2.08-2.079 2.08 2.08 0 0 1 4.16 0 2.08 2.08 0 0 1-2.08 2.079zm0-5.017a2.94 2.94 0 0 0-2.907 2.509h-.481c-.21 0-.38.192-.38.429s.17.429.38.429h.481A2.94 2.94 0 0 0 20 17.062a2.94 2.94 0 0 0-2.939-2.938z"/></g><defs><clipPath id="A"><path fill="#fff" d="M0 0h20v20H0z"/></clipPath></defs></svg>