<svg xmlns="http://www.w3.org/2000/svg" width="20" height="20" fill="none" xmlns:v="https://vecta.io/nano"><g clip-path="url(#A)"><path d="M11.709 2.293l4.113 2.375c.68-.716 1.811-.744 2.527-.064a1.79 1.79 0 0 1 .314.397 1.79 1.79 0 0 1-.663 2.44c-.145.083-.301.146-.465.186v4.749c.955.228 1.545 1.186 1.317 2.141-.04.17-.106.333-.193.484-.493.853-1.584 1.145-2.439.652-.163-.094-.312-.216-.438-.357l-4.087 2.36c.31.937-.198 1.946-1.134 2.255A1.79 1.79 0 0 1 10 20a1.78 1.78 0 0 1-1.783-1.78c0-.171.024-.342.073-.508L4.177 15.34c-.68.712-1.809.739-2.522.058s-.738-1.809-.058-2.522c.236-.247.538-.422.87-.502l.001-4.749C1.509 7.395.919 6.431 1.15 5.472c.039-.165.103-.324.187-.472.493-.853 1.585-1.145 2.439-.652.147.084.282.19.4.314l4.115-2.375A1.78 1.78 0 0 1 9.492.073C9.656.024 9.828 0 10 0a1.78 1.78 0 0 1 1.783 1.778c.001.174-.025.348-.074.514zm-.429.731c-.016.018-.031.032-.048.048l5.384 9.325c.022-.007.047-.013.068-.019V7.622a1.78 1.78 0 0 1-1.298-2.157l.016-.06-4.122-2.382zm-2.512.049l-.05-.05-4.122 2.377a1.78 1.78 0 0 1-1.218 2.204l-.063.018v4.757l.07.019 5.384-9.325-.002.001zm1.73.423c-.325.093-.669.093-.993 0l-5.383 9.324a1.81 1.81 0 0 1 .5.867H15.38a1.79 1.79 0 0 1 .502-.87l-5.385-9.322zm.822 13.522l4.094-2.365-.032-.118H4.618l-.018.069 4.116 2.377A1.77 1.77 0 0 1 10 16.436c.523 0 .992.224 1.319.582z" fill="#e20799"/></g><defs><clipPath id="A"><path fill="#fff" d="M0 0h20v20H0z"/></clipPath></defs></svg>