<svg xmlns="http://www.w3.org/2000/svg" width="20" height="20" fill="none" xmlns:v="https://vecta.io/nano"><path d="M11.734 12.313a2.33 2.33 0 0 0 2.11 1.299c.886 0 1.453-.443 1.453-1.055 0-.733-.582-.993-1.557-1.42l-.535-.229c-1.543-.658-2.569-1.481-2.569-3.223 0-1.604 1.223-2.825 3.133-2.825a3.16 3.16 0 0 1 3.044 1.716l-1.666 1.069c-.109-.274-.299-.509-.545-.673s-.535-.249-.83-.244a.93.93 0 0 0-.714.233.93.93 0 0 0-.31.684c0 .642.397.901 1.313 1.299l.535.229c1.818.779 2.843 1.574 2.843 3.36 0 1.926-1.513 2.981-3.544 2.981a4.11 4.11 0 0 1-3.898-2.187l1.737-1.012zm-7.555.188c.336.596.642 1.1 1.375 1.1.702 0 1.146-.275 1.146-1.344V4.984h2.139v7.302c0 2.214-1.299 3.223-3.194 3.223a3.32 3.32 0 0 1-3.207-1.954L4.179 12.5z" fill="#f2c129"/></svg>