<svg xmlns="http://www.w3.org/2000/svg" width="20" height="20" fill="none" xmlns:v="https://vecta.io/nano"><g clip-path="url(#A)"><path d="M18.542 9.85c0-1.178-.797-2.21-1.94-2.509L19.092 0H6.754l2.497 7.367c-1.107.323-1.869 1.334-1.872 2.487 0 .869.433 1.641 1.094 2.116a6.76 6.76 0 0 1-.902 1.035c-.615.587-1.338 1.052-2.126 1.374-.697-.469-.996-1.299-.726-2.037 2.832-.883 2.207-5.056-.755-5.068-1.432.002-2.594 1.162-2.594 2.594 0 .707.286 1.354.752 1.819l-.124.248c-.387.801-.827 1.703-.996 2.715-.335 2.028.215 3.656 1.543 4.577.716.505 1.575.778 2.454.775 1.52 0 3.067-.765 4.561-1.508 1.068-.524 2.168-1.074 3.248-1.341.401-.098.817-.156 1.257-.222.892-.127 1.813-.26 2.64-.742a3.73 3.73 0 0 0 1.819-2.575 3.84 3.84 0 0 0-.371-2.392 2.56 2.56 0 0 0 .387-1.371l-.001-.001zm-1.129 0a1.46 1.46 0 0 1-1.458 1.458c-1.381-.003-1.986-1.744-.902-2.604l.003-.006.15-.105.078-.048.098-.039.082-.036.088-.026c.003 0 .017-.007.023-.007l.081-.017h.003l.088-.019c.006 0 .016 0 .023-.007.022 0 .046-.007.072-.007h.026l.094-.003h.075l.065.003h.01c.046.007.094.013.14.027.677.143 1.162.742 1.162 1.435h.001zM8.369 1.159h9.108l-2.09 6.165c-.088.017-.172.046-.261.075l-2.2-4.486-2.207 4.457c-.084-.027-.179-.046-.273-.062L8.369 1.159zm4.141 8.186c-.107-.534-.381-1.023-.782-1.39l1.198-2.418 1.211 2.47c-.362.358-.622.817-.726 1.338h-.901zm-2.901-.915a.53.53 0 0 1 .082-.016h.016c.023-.007.046-.007.068-.013h.023c.022 0 .043-.007.065-.007h.224c.023 0 .043.007.059.007s.016 0 .029.007c.023.007.039.007.062.01.007 0 .013 0 .026.006l.078.017h.007c.022.007.049.013.072.026.003 0 .01.003.022.003l.059.022c.038.02.061.027.084.036h.007c.026.01.052.023.075.042h.007c.022.01.045.026.068.039.036.017.052.036.074.046l.007.007c.068.052.133.11.199.169l.003.003a1.44 1.44 0 0 1 .401 1.008c-.062 1.882-2.855 1.882-2.917 0-.003-.667.453-1.25 1.1-1.412l-.001-.001zm-5.7-.042c.804 0 1.458.657 1.458 1.462a1.46 1.46 0 0 1-1.458 1.458A1.46 1.46 0 0 1 2.451 9.85c0-.804.655-1.462 1.458-1.462zm13.47 5.024a2.57 2.57 0 0 1-1.256 1.777c-.632.364-1.41.482-2.223.595l-1.368.244c-1.204.297-2.363.873-3.487 1.429-1.435.713-2.789 1.383-4.046 1.383-.644.003-1.272-.195-1.797-.573-1.273-.879-1.211-2.529-1.058-3.434.137-.847.524-1.638.895-2.396.027-.046.042-.088.066-.133.127.045.26.081.4.104-.222 1.227.403 2.497 1.621 3.122l.218.113.237-.084c1.013-.362 1.953-.944 2.78-1.725.459-.427.862-.908 1.204-1.432a2.41 2.41 0 0 0 .401.029 2.6 2.6 0 0 0 2.507-1.94h.973a2.59 2.59 0 0 0 2.507 1.94 2.56 2.56 0 0 0 1.308-.358c.15.433.198.886.117 1.338v-.001z" fill="#99425b"/></g><defs><clipPath id="A"><path fill="#fff" d="M0 0h20v20H0z"/></clipPath></defs></svg>