<svg xmlns="http://www.w3.org/2000/svg" width="20" height="20" fill="none" xmlns:v="https://vecta.io/nano"><path d="M10 .911c-.209 0-.418.047-.611.14L3.205 4.037c-.385.186-.664.537-.759.954L.917 11.704a1.41 1.41 0 0 0 .27 1.187l4.281 5.383c.266.335.672.531 1.1.531h6.863c.428 0 .833-.195 1.1-.53l4.281-5.382h0c.265-.334.365-.77.271-1.186l-1.529-6.714c-.095-.417-.375-.768-.759-.954l-6.184-2.986A1.4 1.4 0 0 0 10 .911zm0 .8a.61.61 0 0 1 .263.06l6.184 2.986c.166.08.286.231.327.411l1.528 6.713c.041.18-.002.368-.116.512l-4.281 5.383c-.115.145-.289.228-.474.228H6.569c-.185 0-.358-.083-.473-.228l-4.281-5.383c-.115-.145-.158-.332-.117-.512l1.529-6.712c.041-.18.161-.331.327-.411l6.184-2.987c.083-.04.173-.06.263-.06zm-.003 1.683a.44.44 0 0 0-.169.034c-.22.096-.324.352-.228.572a2.23 2.23 0 0 1 .148.648l.009.328c.012.108-.044.216-.124.324s-.092.216-.104.324a4.78 4.78 0 0 0-2.841 1.312l-.007-.004c-.092-.06-.18-.12-.32-.124-.132-.008-.252-.032-.328-.112a2.43 2.43 0 0 1-.244-.212c-.156-.152-.304-.316-.412-.524a.45.45 0 0 0-.264-.216.44.44 0 0 0-.54.3c-.068.228.068.472.3.536.224.068.412.18.596.3.088.06.172.124.256.196.092.06.14.172.176.3.026.128.1.202.172.274A4.77 4.77 0 0 0 5.2 10.4c0 .169.009.336.027.501a.53.53 0 0 0-.255.155c-.088.1-.184.179-.292.188-.104.028-.212.048-.32.06a1.95 1.95 0 0 1-.664-.004c-.112-.02-.236.004-.336.076-.196.136-.24.408-.104.604s.412.245.608.105.396-.213.604-.28c.104-.032.208-.06.316-.08.104-.036.22-.004.344.048.103.053.194.049.284.04.352 1.142 1.122 2.098 2.127 2.702-.034.096-.067.196-.036.323.024.132.028.256-.028.348l-.144.291c-.112.184-.232.368-.408.528-.084.076-.141.184-.145.308-.008.24.18.441.42.449a.44.44 0 0 0 .452-.42c.004-.236.068-.444.14-.652.036-.1.08-.2.128-.296.036-.104.132-.181.248-.245s.168-.144.22-.233c.505.181 1.046.285 1.612.285.576 0 1.126-.108 1.638-.294.054.092.11.18.226.242.116.068.212.14.248.245a3.17 3.17 0 0 1 .124.3c.072.208.132.416.14.651a.42.42 0 0 0 .14.313.44.44 0 0 0 .616-.028.44.44 0 0 0-.028-.616c-.176-.156-.296-.344-.404-.532a3.85 3.85 0 0 1-.144-.287c-.056-.096-.052-.216-.024-.348s-.004-.236-.036-.34l-.003-.01c.997-.61 1.757-1.569 2.101-2.71h.013c.112.008.22.02.34-.048.12-.056.241-.088.345-.056.104.016.212.04.316.068.208.06.417.132.613.264.096.06.216.088.336.06.236-.052.384-.284.332-.516s-.284-.384-.52-.332-.448.043-.668.024l-.32-.052c-.108-.008-.203-.08-.295-.176-.092-.108-.196-.136-.3-.168l-.007-.002.023-.45c0-.992-.303-1.915-.82-2.68.076-.08.152-.156.181-.291.036-.128.084-.24.176-.3.08-.072.168-.136.256-.2.18-.12.368-.236.592-.3a.42.42 0 0 0 .263-.22.43.43 0 1 0-.772-.396 2.14 2.14 0 0 1-.408.524l-.244.216c-.076.08-.196.104-.328.112-.14.004-.228.068-.32.128-.763-.756-1.777-1.257-2.904-1.368-.012-.108-.02-.216-.104-.324s-.136-.216-.124-.324a3.02 3.02 0 0 1 .009-.328A2.23 2.23 0 0 1 10.4 4c.044-.104.048-.228 0-.344a.44.44 0 0 0-.403-.263zm-.573 3.052l-.02.154-.136 1.3-.06.688-.6-.42-1.092-.72-.126-.078c.563-.485 1.262-.812 2.034-.923zm1.153 0c.803.116 1.527.468 2.101.985l-.134.084-1.084.724-.42.296c-.108.076-.256.008-.264-.124l-.044-.512-.136-1.3-.02-.154zM6.633 8.243l.127.133.924.928.4.38c.096.088.06.244-.064.28l-.588.18-1.24.412-.181.063L6 10.4c0-.796.234-1.535.633-2.157zm6.782.079A3.98 3.98 0 0 1 14 10.4c0 .067-.007.132-.01.198l-.142-.045-1.252-.373-.816-.22.613-.588.916-.936.107-.114zM9.752 9.6h.488c.076 0 .148.036.188.092l.312.392c.044.052.06.127.048.195l-.112.484c-.012.076-.064.136-.128.172l-.448.208c-.064.036-.144.036-.208 0l-.448-.208c-.064-.036-.12-.096-.128-.172l-.112-.484c-.012-.068.004-.143.048-.195l.312-.392c.04-.056.112-.092.188-.092zm-1.445 1.908c.124-.02.225.104.177.22l-.216.596-.428 1.236-.055.172c-.712-.473-1.259-1.17-1.55-1.99l.212-.018 1.3-.144.56-.072zm3.456.056l.56.056 1.304.108.139.008c-.286.809-.821 1.499-1.518 1.973l-.045-.145-.416-1.236-.196-.544c-.044-.116.052-.236.172-.22zm-1.734.789c.057 0 .114.029.146.087l.277.496.663 1.124.095.153c-.382.12-.788.187-1.21.187-.409 0-.804-.062-1.176-.176l.1-.16.672-1.12.288-.504c.032-.058.088-.087.145-.087z" fill="#326ce5"/></svg>