<svg xmlns="http://www.w3.org/2000/svg" width="20" height="20" fill="none" xmlns:v="https://vecta.io/nano"><g clip-path="url(#A)" fill-rule="evenodd" fill="#fcd22f"><path d="M16.679 13.918c.431.185.609.544.689.959.086.443.218.857.553 1.181.045.043.077.1.111.153.412.626.318 1.068-.327 1.441-.289.168-.594.307-.892.457-.449.225-.843.514-1.177.899-.424.487-.942.837-1.595.959a1.57 1.57 0 0 1-1.8-.925.31.31 0 0 0-.32-.212l-1.239-.127c-.723-.107-1.418.071-2.123.175a.91.91 0 0 0-.657.37c-.364.467-.915.587-1.469.514-.45-.06-.912-.173-1.32-.366-.595-.279-1.21-.407-1.85-.477l-.723-.109c-.642-.139-.947-.556-.776-1.186a3.88 3.88 0 0 0 .093-1.544c-.095-.757.134-1.112.885-1.325.601-.171.83-.691 1.198-1.085.029-.031.023-.104.019-.156-.105-1.027.202-1.965.633-2.871.472-.993 1.105-1.883 1.791-2.739.746-.93 1.048-2 .972-3.185-.057-.892-.133-1.785.082-2.671C7.719.889 8.516.153 9.701.041c.506-.048 1.037-.069 1.53.03 1.151.231 1.697 1.075 1.954 2.149.202.843.228 1.702.191 2.56-.037.828.154 1.577.653 2.239l1.088 1.419 1.183 1.907c.556 1.109.768 2.215.379 3.573zm-9.126 2.504c.29.488.621.883 1.171 1.071 1.225.422 2.34.167 3.397-.493.118-.073.24-.221.264-.351l.281-1.899c.084-.595.205-1.169.815-1.479.053-.027.079-.124.099-.193.112-.366.292-.542.661-.485.736.115 1.467.279 1.718 1.176.151-.25.075-.465-.083-.625a2.22 2.22 0 0 0-.615-.467c-.291-.135-.394-.268-.367-.627.091-1.228-.481-2.205-1.301-3.062-.017-.018-.049-.023-.075-.034.833.986 1.385 2.035.995 3.369-.437-.033-.443-.031-.483-.223-.164-.797-.489-1.53-.846-2.255l-.807-1.859-.579-1.664-.605.397-.803.421c-.665.377-1.205.327-1.786-.173-.159-.138-.336-.255-.541-.409-.099 1.052-.453 1.959-.849 2.855l-.549 1.207c-.355.758-.545 1.557-.618 2.448-.319-.462-.408-.918-.377-1.403.04-.627.267-1.195.557-1.743l.311-.635-.061-.027c-.459.725-.875 1.474-1.041 2.328-.217 1.112.152 1.844 1.119 2.418.607.359 1.162.799 1.489 1.453.263.523.093.849-.493.963zm-1.279 2.72c.562-.042.965-.117 1.195-.529s.154-.809-.093-1.182l-.495-.694-.868-1.347-.605-.985c-.345-.453-.941-.66-1.395.048-.247.385-.573.629-1.013.762-.457.138-.582.409-.544.891.028.365.083.753-.005 1.097-.203.795-.068 1.049.747 1.133.74.077 1.462.194 2.141.543.321.164.707.203.935.264zm7.519-5.169c-.109.138-.247.255-.306.405-.094.232-.171.485-.191.732-.064.771-.139 1.535-.4 2.269-.053.15-.084.307-.113.463-.089.479-.042.926.366 1.258.402.329.863.34 1.302.127.323-.155.649-.358.89-.619.427-.462.923-.797 1.483-1.059.215-.1.428-.213.624-.347.226-.153.27-.335.15-.582a1.97 1.97 0 0 0-.299-.456c-.212-.233-.322-.505-.387-.805-.041-.186-.085-.375-.163-.547-.185-.414-.721-.505-1.085-.239a2.89 2.89 0 0 1-.775.397c-.347.117-.652-.019-.831-.337-.107-.189-.166-.405-.266-.662zM9.605 6.986c.103-.027.287-.045.445-.121l1.204-.617c.075-.039.143-.094.207-.15.428-.381.359-.805-.163-1.035l-1.116-.504c-.487-.225-.957-.238-1.399.1l-.84.671c-.166.134-.205.305-.121.504.134.314 1.209 1.099 1.556 1.134l.227.019zm1.438-2.246l.244.109c.225.134.376.044.417-.179.061-.332.142-.679.099-1.005-.071-.545-.479-.917-.905-.939-.512-.025-.938.399-1.031 1.021-.071.478-.059.496.407.605.05-.199.069-.414.162-.59.06-.115.229-.242.345-.238s.273.141.332.259c.156.311.103.631-.07.956zm3.125 8.899c.016.267.073.56.363.697.275.131.523-.015.747-.179.055-.041.107-.09.151-.142.159-.183.157-.403-.043-.541a2.48 2.48 0 0 0-.611-.31c-.406-.135-.609.027-.607.475zM8.773 4.432c.133-.105.341-.189.353-.295.045-.396-.057-.773-.365-1.059-.269-.249-.589-.211-.822.081-.374.466-.313 1.365.131 1.802l.236-.176c-.22-.242-.264-.519-.199-.799.028-.119.161-.211.247-.315.097.082.226.147.281.251.073.139.087.307.139.511z"/><path d="M8.526 7.131l.165.141c.525.487.937.544 1.57.209l.541-.307a.43.43 0 0 1 .229-.047c-.521.273-.968.733-1.629.642-.395-.055-.665-.307-.923-.574l.048-.064z"/></g><defs><clipPath id="A"><path fill="#fff" d="M0 0h20v20H0z"/></clipPath></defs></svg>