<svg xmlns="http://www.w3.org/2000/svg" width="20" height="20" fill="none" xmlns:v="https://vecta.io/nano"><path d="M11.462 5.988c4.118-2.291-.92-4.375 0-5.988-3.789 2.899.126 3.723 0 5.988zm-3.077.174c2.794-1.584-.835-3.067 0-4.012-2.487 2.035-.039 2.234 0 4.012zM18 7.733c0-.291-.308-.581-.769-.581H2.769c-.385 0-.769.233-.769.581 0 1.977.385 8.779 4.231 12.093.154.116.308.174.538.174h6.462c.231 0 .385-.058.538-.174C17.615 16.57 18 9.767 18 7.733zm-5.692 10.581H7.769c-.231 0-.385-.058-.538-.174-2.615-2.326-2.923-6.977-3-8.605 0-.291.308-.581.769-.581h10.154c.385 0 .769.233.769.581 0 1.628-.385 6.221-3 8.605-.231.116-.385.174-.615.174zm2.385-5.407c-.308 1.57-.923 3.372-2.231 4.535-.154.116-.308.174-.461.174H8.154c-.154 0-.385-.058-.462-.174-.923-.872-1.538-2.035-1.923-3.256 3.99.39 8.094.09 8.923-1.279z" fill="#8d6748"/></svg>