<svg width="20" height="20" viewBox="0 0 20 20" fill="none" xmlns="http://www.w3.org/2000/svg">
<g clip-path="url(#clip0_2_121)">
<path d="M10.4267 20.0108C10.3808 20.0108 10.3358 20.0033 10.2908 19.9883L9.79167 19.8167C9.62083 19.7583 9.50667 19.5942 9.51083 19.4142C9.51083 19.4008 9.53333 18.2 9.27083 17.46C8.93167 17.1933 8.12583 16.505 7.335 15.4283C7.06 15.0533 6.80833 14.6592 6.58833 14.2583C5.89917 13.0017 5.51 11.6633 5.43167 10.2792C5.41417 9.96083 5.41083 9.64083 5.42667 9.31333C5.575 6.09417 6.865 3.17 8.96417 1.2925C9.30167 0.989999 9.4775 0.702499 9.53417 0.361666C9.565 0.169999 9.72583 0.0241661 9.92167 0.0133328C10.13 -0.0150005 10.2925 0.128333 10.3467 0.315833C10.4408 0.650833 10.6142 1.01583 10.8217 1.31583C10.8925 1.45083 11.0725 1.64417 11.2317 1.81333C12.0133 2.64667 13.6392 4.38167 14.4192 7.92833C15.195 12.6 13.0342 15.485 11.6775 16.7917C11.3783 17.0833 11.1442 17.2658 11.03 17.3525C10.9475 17.4608 10.8967 17.565 10.8733 17.6692C10.7675 18.1575 10.8142 19.2033 10.8417 19.565C10.8517 19.705 10.7908 19.84 10.6808 19.9258C10.6075 19.9808 10.5175 20.0108 10.4267 20.0108ZM9.93583 1.46667C9.82083 1.61917 9.6825 1.76583 9.52083 1.91167C7.58667 3.64083 6.39833 6.3525 6.25917 9.35167C6.24417 9.65083 6.2475 9.94167 6.26417 10.2308C6.33583 11.49 6.69083 12.7108 7.32 13.8575C7.5225 14.2258 7.75417 14.5892 8.0075 14.935C8.82 16.0417 9.63667 16.6942 9.8675 16.8683C9.92667 16.9125 9.97333 16.9717 10.0017 17.0408C10.04 17.1317 10.0742 17.2292 10.1042 17.33C10.1675 17.1425 10.27 16.9633 10.4142 16.7867C10.4358 16.7592 10.4625 16.7342 10.4908 16.7133C10.5683 16.6575 10.7958 16.4875 11.0692 16.23C12.3383 14.9975 14.3108 12.3592 13.6017 8.08583C12.8742 4.78417 11.41 3.2225 10.6242 2.3825C10.3592 2.1 10.1842 1.91333 10.0983 1.72167C10.0433 1.64333 9.98833 1.5575 9.93583 1.46667Z" fill="#38AA52"/>
</g>
<defs>
<clipPath id="clip0_2_121">
<rect width="20" height="20" fill="white"/>
</clipPath>
</defs>
</svg>
