<svg xmlns="http://www.w3.org/2000/svg" width="20" height="20" fill="none" xmlns:v="https://vecta.io/nano"><g clip-path="url(#A)"><path d="M10.427 20.011c-.046 0-.091-.008-.136-.023l-.499-.172c-.171-.058-.285-.223-.281-.402 0-.013.022-1.214-.24-1.954-.339-.267-1.145-.955-1.936-2.032a10.66 10.66 0 0 1-.747-1.17c-.689-1.257-1.078-2.595-1.157-3.979l-.005-.966c.148-3.219 1.438-6.143 3.537-8.021.338-.303.513-.59.57-.931.031-.192.192-.337.388-.348.208-.028.371.115.425.303a3.5 3.5 0 0 0 .475 1c.071.135.251.328.41.498.782.833 2.408 2.568 3.188 6.115.776 4.672-1.385 7.557-2.742 8.863-.299.292-.533.474-.648.561a.82.82 0 0 0-.157.317c-.106.488-.059 1.534-.032 1.896a.42.42 0 0 1-.161.361c-.073.055-.163.085-.254.085zM9.936 1.467c-.115.153-.253.299-.415.445-1.934 1.729-3.123 4.441-3.262 7.44-.015.299-.012.59.005.879.072 1.259.427 2.48 1.056 3.627a9.92 9.92 0 0 0 .688 1.078c.813 1.107 1.629 1.759 1.86 1.933a.41.41 0 0 1 .134.172 2.82 2.82 0 0 1 .103.289c.063-.187.166-.367.31-.543a.4.4 0 0 1 .077-.073c.078-.056.305-.226.578-.483 1.269-1.232 3.242-3.871 2.532-8.144-.727-3.302-2.192-4.863-2.977-5.703-.265-.282-.44-.469-.526-.661l-.162-.255z" fill="#38aa52"/></g><defs><clipPath id="A"><path fill="#fff" d="M0 0h20v20H0z"/></clipPath></defs></svg>