<svg xmlns="http://www.w3.org/2000/svg" width="20" height="20" fill="none" xmlns:v="https://vecta.io/nano"><g clip-path="url(#A)"><path d="M19.905 8.043c-.247-.247-1.517-1.477-2.303-1.477-.427 0-.955.203-1.465.399-.356.137-.76.292-.953.292h-1.686c-.244-.063-1.444-.346-3.152-.346-1.423 0-2.786.919-4.104 1.809-1.059.715-2.155 1.453-3.213 1.653C.73 10.806.136 11.448.076 11.52c-.081.097-.098.231-.045.345s.168.187.294.187h3.358a3.39 3.39 0 0 0 2.206-.816l1.243-1.065.056.111-.872.872c-.061.061-.095.143-.095.229v1.333a.72.72 0 0 0 .719.719h.296c.179 0 .324-.145.324-.324s-.145-.324-.324-.324h-.296c-.039 0-.071-.032-.071-.071v-.714c.404-.089 1.165-.331 1.956-.972l-.179.986c-.015.083.003.168.049.238l.548.822c.15.225.4.359.671.359h.217c.179 0 .324-.145.324-.324s-.145-.324-.324-.324h-.217c-.053 0-.102-.026-.131-.07l-.222-.333 1.197-1.45 2.308-.188a6.8 6.8 0 0 1-.256.866c-.014.037-.022.077-.022.116v1.058a.65.65 0 0 0 .649.649h.366c.179 0 .324-.145.324-.324s-.145-.324-.324-.324l-.367-.001v-.917l1.149-1.023 1.089 1.176.16.799c.071.355.386.613.748.613h.332c.179 0 .324-.145.324-.324s-.145-.324-.324-.324h-.332c-.054 0-.102-.039-.112-.092l-.594-2.969.193-.155c.348-.257 1.219-.628 1.881-.628h1.037c.05 0 .1-.012.145-.034l.691-.346c.093-.047.158-.135.175-.238s-.017-.207-.091-.281zM9.383 11.578l.111-.611.399-.007-.51.618zm5.687-1.161l.24-.209.12.598-.36-.388zm3.839-2.123h-.96c-.767 0-1.773.392-2.266.754-.263.194-1.241 1.056-1.956 1.691l.052-.364c.009-.103-.031-.205-.109-.273s-.184-.095-.285-.072c-.773.175-2.412.267-3.834.289l.37-.479c.102-.147.066-.349-.081-.451s-.349-.066-.451.081c-.515.739-1.154 1.29-1.899 1.635l-.354.145.675-.675c.099-.099.123-.249.061-.374l-.346-.691c-.045-.089-.128-.153-.226-.173s-.199.007-.275.072l-1.558 1.335c-.497.426-1.131.66-1.785.66H1.619c.376-.132.875-.271 1.53-.394 1.19-.224 2.342-1.001 3.455-1.752 1.294-.873 2.517-1.698 3.742-1.698 1.786 0 3.012.331 3.024.334.028.008.057.012.086.012h1.728c.313 0 .718-.155 1.186-.335l.316-.12c.036.258.211.476.476.59.042.018.086.027.129.027.125 0 .245-.073.297-.195.071-.164-.005-.355-.169-.426-.04-.017-.089-.048-.092-.092-.002-.034.019-.083.069-.118.075-.014.146-.022.208-.022.286 0 .944.463 1.515.976l-.209.104z" fill="#810303"/></g><defs><clipPath id="A"><path fill="#fff" d="M0 0h20v20H0z"/></clipPath></defs></svg>