<svg width="20" height="20" viewBox="0 0 20 20" fill="none" xmlns="http://www.w3.org/2000/svg">
<g clip-path="url(#clip0_1_95)">
<path d="M19.9052 8.04309C19.6585 7.79641 18.3882 6.5659 17.6026 6.5659C17.1756 6.5659 16.6477 6.76875 16.1371 6.96496C15.7807 7.10184 15.3768 7.25707 15.1836 7.25707H13.4977C13.2534 7.19454 12.0539 6.91149 10.3455 6.91149C8.9227 6.91149 7.55969 7.83098 6.24149 8.72016C5.18223 9.43473 4.08684 10.1736 3.02856 10.3728C0.729533 10.8056 0.135705 11.4481 0.0755487 11.5199C-0.0052325 11.6164 -0.0228106 11.7509 0.0303925 11.865C0.0837128 11.9789 0.198127 12.0518 0.323947 12.0518H3.68203C4.49086 12.0518 5.27442 11.762 5.88852 11.2356L7.13125 10.1704L7.1868 10.2816L6.3152 11.1532C6.25446 11.2139 6.22035 11.2963 6.22035 11.3822V12.7154C6.22035 13.1117 6.54274 13.4341 6.93899 13.4341H7.23547C7.41442 13.4341 7.55946 13.289 7.55946 13.1101C7.55946 12.9312 7.41446 12.7861 7.23547 12.7861H6.93899C6.90004 12.7861 6.86832 12.7544 6.86832 12.7154V12.001C7.27242 11.912 8.03375 11.67 8.82391 11.0292L8.64461 12.0154C8.62957 12.098 8.64727 12.1832 8.69383 12.2531L9.24192 13.0751C9.39172 13.2999 9.64238 13.434 9.91246 13.434H10.1297C10.3086 13.434 10.4537 13.289 10.4537 13.11C10.4537 12.9311 10.3087 12.7861 10.1297 12.7861H9.91246C9.85949 12.7861 9.81043 12.7598 9.78106 12.7157L9.55891 12.3825L10.7559 10.9329C11.6192 10.8968 12.4522 10.8352 13.0643 10.745C12.9662 11.196 12.8099 11.6062 12.8079 11.6114C12.7936 11.6486 12.7863 11.688 12.7863 11.7277V12.7853C12.7863 13.143 13.0773 13.434 13.435 13.434H13.8014C13.9804 13.434 14.1254 13.2889 14.1254 13.11C14.1254 12.9311 13.9804 12.786 13.8014 12.786L13.4342 12.7853V11.8679C13.7493 11.5855 14.1689 11.2112 14.5831 10.8451L15.6723 12.0215L15.8322 12.8209C15.9032 13.1761 16.2177 13.4339 16.5799 13.4339H16.9116C17.0905 13.4339 17.2356 13.2889 17.2356 13.1099C17.2356 12.931 17.0906 12.7859 16.9116 12.7859H16.5799C16.5255 12.7859 16.4783 12.7472 16.4676 12.6938L15.8737 9.72438C15.9579 9.65442 16.0244 9.60079 16.0671 9.56942C16.4154 9.31282 17.2857 8.94153 17.9483 8.94153H18.985C19.0353 8.94153 19.0849 8.92981 19.1299 8.90731L19.821 8.56172C19.9141 8.51516 19.9792 8.42664 19.9959 8.32383C20.0125 8.22125 19.9788 8.11672 19.9052 8.04309ZM9.38262 11.5784L9.49363 10.9677C9.62543 10.9659 9.75867 10.9635 9.89278 10.9605L9.38262 11.5784ZM15.0695 10.4171C15.152 10.3448 15.2323 10.2747 15.3094 10.2077L15.4289 10.8053L15.0695 10.4171ZM18.9084 8.29375H17.9482C17.1811 8.29375 16.1748 8.68528 15.6825 9.04805C15.4198 9.24157 14.4413 10.1036 13.7263 10.739C13.7491 10.6177 13.7674 10.4948 13.7784 10.3749C13.7878 10.2717 13.7472 10.1702 13.6693 10.1019C13.5914 10.0336 13.4856 10.0068 13.3844 10.0295C12.6117 10.204 10.9723 10.2965 9.55047 10.3186C9.6761 10.1716 9.79985 10.0125 9.92028 9.83957C10.0225 9.69274 9.98641 9.49086 9.83961 9.38856C9.6927 9.28621 9.49082 9.32243 9.3886 9.46922C8.87352 10.2087 8.23469 10.7589 7.48985 11.1047C7.36301 11.1636 7.24418 11.2108 7.13547 11.2492L7.81012 10.5746C7.90867 10.476 7.93321 10.3254 7.87078 10.2007L7.5252 9.50954C7.48063 9.42028 7.39735 9.35657 7.29953 9.33684C7.20168 9.31707 7.10031 9.34348 7.02457 9.4084L5.4668 10.7436C4.97012 11.1694 4.33625 11.4039 3.68203 11.4039H1.61887C1.99528 11.2716 2.49434 11.1327 3.14852 11.0096C4.33828 10.7856 5.49004 10.0087 6.60391 9.25731C7.89828 8.38414 9.1209 7.55942 10.3456 7.55942C12.1313 7.55942 13.3577 7.89004 13.3696 7.89332C13.3977 7.90106 13.4266 7.905 13.4557 7.905H15.1836C15.497 7.905 15.9013 7.74965 16.3695 7.56981C16.4725 7.53024 16.5788 7.48942 16.6851 7.45016C16.7215 7.70778 16.896 7.9259 17.1608 8.04039C17.2027 8.05848 17.2464 8.06707 17.2893 8.06707C17.4146 8.06707 17.5339 7.99395 17.5868 7.87161C17.6579 7.70739 17.5823 7.51664 17.418 7.44563C17.3777 7.42817 17.3289 7.39809 17.3261 7.35391C17.3239 7.32016 17.345 7.27059 17.3948 7.23567C17.4702 7.22184 17.5404 7.21375 17.6027 7.21375C17.8884 7.21375 18.5471 7.67688 19.1173 8.18926L18.9084 8.29375Z" fill="#810303"/>
</g>
<defs>
<clipPath id="clip0_1_95">
<rect width="20" height="20" fill="white"/>
</clipPath>
</defs>
</svg>
