<svg xmlns="http://www.w3.org/2000/svg" width="20" height="20" fill="none" xmlns:v="https://vecta.io/nano"><g clip-path="url(#A)"><path d="M20.108 19.51l-.423-.403a5.55 5.55 0 0 0-.674-.742l-.004-.003-.776-.645c-.215-.148-.511-.326-.887-.534-.309-.139-.551-.383-.682-.687l-.003-.008-.04-.02c.177-.017.338-.05.493-.096l-.019.005.475-.131c.197-.062.424-.102.66-.111h.005a2.89 2.89 0 0 0 .706-.116l-.021.005.332-.091.293-.091v-.141l-.293-.413c-.109-.148-.232-.277-.369-.39l-.004-.003-1.086-.897c-.33-.257-.704-.52-1.093-.763l-.057-.033c-.205-.135-.44-.26-.687-.362l-.028-.01-.736-.332a1.36 1.36 0 0 0-.272-.099l-.009-.002a.43.43 0 0 1-.242-.141l-.001-.001c-.115-.152-.216-.324-.296-.508l-.007-.017-.262-.542-.585-1.189-.543-1.21-.332-.806c-.112-.295-.238-.548-.384-.785l.011.019a14.47 14.47 0 0 0-1.109-1.634l.023.032c-.386-.487-.786-.922-1.216-1.325l-.007-.006c-.424-.398-.881-.778-1.36-1.13l-.041-.029-1.633-1.068c-.238-.14-.513-.254-.804-.328L6.1 1.722l-.927-.232-.524-.04-.524-.02a1.4 1.4 0 0 1-.323-.233c-.092-.087-.191-.17-.294-.246L3.499.946A9.74 9.74 0 0 0 1.797.171L1.726.15a1.11 1.11 0 0 0-.56-.149A1.13 1.13 0 0 0 .75.08L.757.077C.441.203.199.459.095.777L.092.786c-.061.143-.096.309-.096.484a1.26 1.26 0 0 0 .289.807l-.002-.002.695.95.373.504a2.73 2.73 0 0 1 .306.525l.007.018a1.86 1.86 0 0 1 .117.339l.002.013.101.373.343.95a6.06 6.06 0 0 0 .398.94l-.016-.033.243.433.262.413c.054.082.122.149.201.202l.002.002a.34.34 0 0 1 .141.261v.001c-.095.14-.159.308-.181.488v.005c-.029.211-.071.398-.127.579l.007-.025a5.92 5.92 0 0 0-.292 1.859c0 .215.011.427.033.636l-.002-.026a4.72 4.72 0 0 0 .677 2.167l-.012-.021c.164.246.34.46.534.656a.76.76 0 0 0 .57.255c.127 0 .247-.031.352-.086l-.004.002a.77.77 0 0 0 .514-.689v-.002a8.17 8.17 0 0 1 .183-1.093l-.011.056c.02-.053.032-.113.032-.176l-.002-.037v.002c-.007-.061.03-.118.111-.172v.04l.252.564.272.564c.246.374.507.701.793 1.002l-.003-.002c.288.31.601.588.939.834l.018.013c.177.135.332.281.472.44l.003.003a1.62 1.62 0 0 0 .467.378l.008.004v-.02h.04c-.032-.072-.085-.131-.15-.171l-.002-.001c-.066-.037-.123-.073-.176-.113l.004.002-.373-.403-.353-.423-.807-1.223-.726-1.296-.312-.665-.293-.665a.83.83 0 0 1-.08-.278v-.004c-.005-.096-.06-.178-.14-.221l-.002-.001c-.101.172-.213.32-.34.454l.001-.001c-.133.139-.241.303-.318.483l-.004.011a3.56 3.56 0 0 0-.241.962l-.002.016-.121 1.098-.04.02-.02.02a.71.71 0 0 1-.492-.369l-.002-.004-.272-.575c-.207-.531-.335-1.145-.353-1.787v-.008l-.011-.34a5.18 5.18 0 0 1 .249-1.592l-.01.037c.04-.148.127-.397.262-.747s.161-.592.081-.726a.73.73 0 0 0-.221-.342v-.001c-.102-.088-.194-.181-.279-.279l-.003-.003-.272-.433-.232-.453c-.138-.318-.278-.718-.395-1.128l-.018-.074a8.48 8.48 0 0 0-.455-1.252l.022.053c-.093-.21-.2-.392-.325-.558l.005.007-.363-.514-.403-.504c-.136-.164-.257-.349-.355-.547l-.008-.017c-.04-.081-.075-.175-.099-.272l-.002-.009c-.009-.029-.014-.063-.014-.097 0-.068.02-.133.055-.186l-.001.002C.705.998.727.957.757.924S.831.873.876.864h.002a.46.46 0 0 1 .25-.073c.07 0 .137.016.197.044L1.322.834a4.28 4.28 0 0 1 .474.162l-.03-.011.706.313c.248.118.46.243.66.383l-.015-.01.322.222.343.243h.282l.685.031c.244.019.47.065.685.137l-.02-.006a6.01 6.01 0 0 1 1.072.429l-.034-.016.938.534c.491.306.915.619 1.314.962l-.014-.012c.417.357.795.723 1.15 1.109l.008.01c.347.378.678.789.98 1.22l.026.039a12.69 12.69 0 0 1 .812 1.32l.035.071a3.84 3.84 0 0 1 .195.447l.009.028.181.475.475 1.018.475.998.443.967a4.84 4.84 0 0 0 .532.899l-.009-.013a1.16 1.16 0 0 0 .648.352l.007.001a5.82 5.82 0 0 1 .815.266l-.039-.014a4.25 4.25 0 0 0 .43.162l.033.009a1.89 1.89 0 0 1 .471.216l-.008-.004a6.58 6.58 0 0 1 .723.466l-.017-.012.685.475c.108.081.289.198.543.352s.388.299.403.433l-.32-.006c-.41 0-.813.027-1.208.078l.047-.005a4.96 4.96 0 0 0-1.233.325l.033-.012a2.14 2.14 0 0 1-.323.107l-.016.003a.26.26 0 0 0-.222.231v.001a.72.72 0 0 1 .119.217l.002.005c.028.085.063.158.104.227l-.002-.005a2.88 2.88 0 0 0 .326.467l-.003-.004a2.13 2.13 0 0 0 .397.378l.006.004.423.332a4.21 4.21 0 0 0 .443.302l.02.011c.237.145.512.283.798.399l.038.013a4.1 4.1 0 0 1 .828.443l-.013-.009.483.313.463.332c.061.06.114.127.159.199l.002.004c.076.087.181.146.3.161h.003v-.04a.43.43 0 0 1-.153-.222l-.001-.003a.79.79 0 0 0-.093-.227l.002.003.003.003zM4.628 3.506l-.303.01a1.07 1.07 0 0 0-.269.053l.007-.002v.02h.04c.054.081.122.171.203.272l.222.293.322.665.04-.02c.094-.068.167-.16.21-.268l.002-.004a1.13 1.13 0 0 0 .068-.391l-.001-.045v.002a.42.42 0 0 1-.09-.128l-.001-.003-.068-.152c-.044-.07-.106-.125-.178-.16l-.003-.001c-.078-.037-.145-.085-.203-.141z" fill="#47809d"/></g><defs><clipPath id="A"><path fill="#fff" d="M0 0h20v20H0z"/></clipPath></defs></svg>