<svg width="20" height="20" viewBox="0 0 20 20" fill="none" xmlns="http://www.w3.org/2000/svg">
<g clip-path="url(#clip0_1_93)">
<path d="M20.1075 19.5098L19.6842 19.1065C19.475 18.8306 19.2525 18.5865 19.01 18.364L19.0058 18.3606C18.757 18.1345 18.4983 17.9195 18.23 17.7156C18.015 17.5679 17.7195 17.3898 17.3433 17.1815C17.0342 17.0423 16.7925 16.7981 16.6617 16.4948L16.6583 16.4865L16.6183 16.4665C16.795 16.449 16.9567 16.4165 17.1117 16.3706L17.0925 16.3756L17.5675 16.2448C17.7642 16.1831 17.9917 16.1431 18.2275 16.134H18.2325C18.4808 16.124 18.715 16.084 18.9383 16.0181L18.9175 16.0231C19.0253 15.9965 19.1361 15.9662 19.25 15.9323C19.3639 15.8984 19.4614 15.8681 19.5425 15.8415V15.7006C19.462 15.5801 19.3645 15.4423 19.25 15.2873C19.1408 15.139 19.0183 15.0098 18.8808 14.8973L18.8767 14.894C18.5272 14.5851 18.1653 14.2862 17.7908 13.9973C17.4608 13.7398 17.0867 13.4773 16.6983 13.234L16.6417 13.2006C16.4367 13.0656 16.2017 12.9406 15.9542 12.8381L15.9258 12.8281C15.677 12.727 15.4317 12.6162 15.19 12.4956C15.1092 12.4556 15.015 12.4206 14.9175 12.3965L14.9083 12.3948C14.8108 12.3748 14.7275 12.3248 14.6667 12.254L14.6658 12.2531C14.5508 12.1015 14.45 11.929 14.37 11.7456L14.3633 11.729C14.2828 11.5406 14.1956 11.3598 14.1017 11.1865C13.9 10.7965 13.705 10.4001 13.5167 9.99729C13.3283 9.59451 13.1475 9.19118 12.9742 8.78729C12.8536 8.5184 12.7428 8.24979 12.6417 7.98146C12.53 7.68646 12.4042 7.43396 12.2575 7.19646L12.2683 7.21563C11.9083 6.60229 11.5492 6.07896 11.1592 5.58146L11.1825 5.61313C10.7967 5.12646 10.3967 4.69146 9.96667 4.28813L9.96001 4.28229C9.53584 3.88396 9.07917 3.50396 8.60001 3.15229L8.55917 3.12313C8.0614 2.76146 7.51695 2.40535 6.92584 2.05479C6.68834 1.91479 6.41251 1.80063 6.12167 1.72729L6.10001 1.72229L5.17251 1.49063L4.64834 1.45063C4.4739 1.43729 4.29917 1.43063 4.12417 1.43063C4.00084 1.36563 3.89501 1.28813 3.80167 1.19813C3.71001 1.11063 3.61084 1.02813 3.50751 0.952292L3.49917 0.946459C2.99501 0.652292 2.40917 0.383126 1.79667 0.171459L1.72584 0.149792C1.56501 0.0556256 1.37167 0.00062561 1.16584 0.00062561C1.01917 0.00062561 0.87834 0.0289589 0.750007 0.0797923L0.757507 0.0772923C0.44084 0.203126 0.199174 0.458959 0.0950069 0.777292L0.0925069 0.785626C0.0316736 0.928959 -0.00332642 1.09479 -0.00332642 1.26979C-0.00332642 1.57646 0.105007 1.85729 0.28584 2.07646L0.284174 2.07396C0.586396 2.47674 0.818062 2.7934 0.979174 3.02396C1.09973 3.18563 1.22417 3.35368 1.35251 3.52813C1.47001 3.68479 1.57417 3.86396 1.65834 4.05313L1.66501 4.07063C1.71167 4.16979 1.75251 4.28813 1.78251 4.40979L1.78501 4.42313C1.81167 4.53757 1.84528 4.66201 1.88584 4.79646C2.0064 5.10535 2.12056 5.42201 2.22834 5.74646C2.34584 6.10063 2.47584 6.40063 2.62667 6.68646L2.61084 6.65313C2.6914 6.8009 2.77223 6.94535 2.85334 7.08646C2.93445 7.22757 3.02167 7.36535 3.11501 7.49979C3.16917 7.58146 3.23751 7.64896 3.31584 7.70146L3.31834 7.70313C3.40084 7.76313 3.45501 7.85729 3.45917 7.96396V7.96479C3.36417 8.10479 3.30001 8.27229 3.27834 8.45313L3.27751 8.45813C3.24834 8.66896 3.20667 8.85646 3.15001 9.03729L3.15667 9.01229C2.97084 9.56729 2.86417 10.2073 2.86417 10.8715C2.86417 11.0865 2.87501 11.2981 2.89751 11.5073L2.89501 11.4815C2.94501 12.2798 3.18584 13.0131 3.57167 13.6481L3.56001 13.6273C3.72417 13.8731 3.90001 14.0873 4.09417 14.2831C4.23417 14.4398 4.43751 14.5381 4.66417 14.5381C4.79084 14.5381 4.91084 14.5073 5.01584 14.4523L5.01167 14.454C5.30334 14.349 5.51084 14.0823 5.52584 13.7648V13.7631C5.56584 13.3681 5.62584 13.0148 5.70834 12.6698L5.69751 12.7256C5.71751 12.6731 5.72917 12.6131 5.72917 12.5498C5.72917 12.5373 5.72834 12.5248 5.72751 12.5123V12.514C5.72084 12.4534 5.75779 12.3962 5.83834 12.3423V12.3823C5.9189 12.5706 6.00279 12.7587 6.09001 12.9465C6.17723 13.1342 6.26779 13.3223 6.36167 13.5106C6.60751 13.8848 6.86834 14.2115 7.15501 14.5123L7.15251 14.5098C7.44001 14.8198 7.75334 15.0981 8.09167 15.344L8.11001 15.3565C8.28667 15.4915 8.44167 15.6373 8.58167 15.7965L8.58501 15.7998C8.71667 15.9548 8.87417 16.0823 9.05167 16.1781L9.06001 16.1823V16.1623H9.10001C9.06751 16.0898 9.01501 16.0315 8.95001 15.9915L8.94834 15.9906C8.88251 15.954 8.82584 15.9173 8.77251 15.8773L8.77667 15.8798C8.65612 15.7592 8.53167 15.6248 8.40334 15.4765C8.27501 15.3281 8.15751 15.187 8.05084 15.0531C7.76862 14.6631 7.49945 14.2556 7.24334 13.8306C6.98723 13.4056 6.74529 12.9737 6.51751 12.5348C6.40973 12.3198 6.30556 12.0981 6.20501 11.8698C6.10445 11.6415 6.00695 11.4198 5.91251 11.2048C5.87167 11.1223 5.84334 11.0273 5.83251 10.9265V10.9223C5.82751 10.8265 5.77251 10.744 5.69251 10.7015L5.69084 10.7006C5.59001 10.8723 5.47834 11.0206 5.35084 11.1548L5.35167 11.154C5.21917 11.2931 5.11084 11.4573 5.03334 11.6373L5.02917 11.6481C4.91167 11.9331 4.82584 12.264 4.78834 12.6098L4.78667 12.6256C4.74667 12.9817 4.7064 13.3478 4.66584 13.724L4.62584 13.744L4.60584 13.764C4.38917 13.7198 4.21084 13.5815 4.11417 13.3948L4.11251 13.3906C4.0114 13.1956 3.92084 13.004 3.84084 12.8156C3.63417 12.2848 3.50584 11.6706 3.48834 11.029V11.0215C3.48084 10.9198 3.47751 10.8006 3.47751 10.6815C3.47751 10.1265 3.56501 9.59146 3.72667 9.08979L3.71667 9.12646C3.75667 8.97868 3.8439 8.72979 3.97834 8.37979C4.11279 8.02979 4.13973 7.78785 4.05917 7.65396C4.01751 7.51646 3.94001 7.40063 3.83834 7.31229L3.83751 7.31146C3.73584 7.22313 3.64334 7.13063 3.55834 7.03229L3.55584 7.02896C3.46195 6.8934 3.3714 6.74896 3.28417 6.59563C3.19695 6.44229 3.11973 6.29118 3.05251 6.14229C2.91501 5.82396 2.77417 5.42479 2.65751 5.01479L2.63917 4.94063C2.50667 4.46979 2.35917 4.07146 2.18417 3.68813L2.20584 3.74146C2.11334 3.53146 2.00584 3.34979 1.88084 3.18396L1.88584 3.19063C1.75028 3.00951 1.62917 2.83813 1.52251 2.67646C1.38695 2.50201 1.25251 2.33396 1.11917 2.17229C0.98334 2.00813 0.862507 1.82313 0.764174 1.62479L0.756674 1.60813C0.716674 1.52729 0.681674 1.43313 0.657507 1.33563L0.65584 1.32646C0.646674 1.29729 0.641674 1.26313 0.641674 1.22896C0.641674 1.16063 0.661674 1.09646 0.696674 1.04313L0.69584 1.04479C0.705007 0.998126 0.726674 0.957292 0.756674 0.923959C0.789174 0.894792 0.83084 0.873126 0.87584 0.863959H0.877507C0.94834 0.818126 1.03417 0.790626 1.12751 0.790626C1.19751 0.790626 1.26501 0.806459 1.32417 0.834792L1.32167 0.833959C1.50417 0.885626 1.65167 0.937292 1.79584 0.996459L1.76584 0.985626C2.02084 1.0934 2.25612 1.19757 2.47167 1.29813C2.72001 1.41646 2.93167 1.54146 3.13167 1.68063L3.11667 1.67063C3.22445 1.73785 3.33195 1.81174 3.43917 1.89229C3.5464 1.97285 3.66056 2.05368 3.78167 2.13479H4.06417C4.27917 2.13479 4.50751 2.14507 4.74917 2.16563C4.99334 2.18479 5.21917 2.23063 5.43417 2.30229L5.41417 2.29646C5.81501 2.41563 6.15917 2.55646 6.48584 2.72563L6.45167 2.70979C6.78112 2.87757 7.09362 3.05563 7.38917 3.24396C7.88001 3.54979 8.30417 3.86313 8.70334 4.20563L8.68917 4.19396C9.10584 4.55063 9.48417 4.91646 9.83917 5.30313L9.84751 5.31313C10.1942 5.69146 10.525 6.10229 10.8275 6.53313L10.8533 6.57229C11.1317 6.96563 11.4125 7.42063 11.665 7.89229L11.7 7.96313C11.7675 8.09146 11.8358 8.24896 11.895 8.40979L11.9042 8.43729C11.9581 8.59174 12.0183 8.75007 12.085 8.91229C12.2328 9.2484 12.3911 9.58757 12.56 9.92979C12.7289 10.272 12.8872 10.6048 13.035 10.9281L13.4783 11.8956C13.6342 12.234 13.8083 12.5256 14.0108 12.7948L14.0017 12.7823C14.1708 12.9631 14.3967 13.0898 14.65 13.134L14.6567 13.1348C14.9633 13.2115 15.2217 13.2981 15.4717 13.4006L15.4325 13.3865C15.5517 13.4406 15.705 13.4981 15.8625 13.549L15.8958 13.5581C16.0725 13.6123 16.2258 13.684 16.3667 13.774L16.3592 13.7698C16.6317 13.9223 16.8625 14.0723 17.0825 14.2356L17.065 14.2231C17.2933 14.3909 17.5217 14.5492 17.75 14.6981C17.8578 14.7787 18.0386 14.8962 18.2925 15.0506C18.5464 15.2051 18.6808 15.3495 18.6958 15.484C18.6008 15.4806 18.4883 15.4781 18.3758 15.4781C17.9658 15.4781 17.5625 15.5048 17.1675 15.5565L17.2142 15.5515C16.7675 15.6115 16.3625 15.7206 15.9817 15.8765L16.015 15.8648C15.9208 15.9056 15.8083 15.9431 15.6917 15.9723L15.6758 15.9756C15.5575 15.9931 15.4658 16.0881 15.4542 16.2065V16.2073C15.505 16.2706 15.5458 16.344 15.5733 16.424L15.575 16.429C15.6033 16.514 15.6375 16.5873 15.6792 16.6556L15.6767 16.6506C15.7758 16.8265 15.8825 16.9781 16.0025 17.1181L15.9992 17.114C16.1167 17.259 16.2492 17.3848 16.3958 17.4923L16.4017 17.4965C16.5372 17.6042 16.6783 17.7151 16.825 17.829C16.9592 17.934 17.1108 18.0373 17.2683 18.1306L17.2883 18.1415C17.525 18.2865 17.8 18.4248 18.0867 18.5406L18.125 18.554C18.4367 18.679 18.7042 18.824 18.9525 18.9965L18.9392 18.9873C19.1008 19.0812 19.262 19.1853 19.4225 19.2998C19.5831 19.4142 19.7375 19.5251 19.8858 19.6323C19.9467 19.6923 20 19.759 20.045 19.8315L20.0475 19.8356C20.1233 19.9223 20.2283 19.9815 20.3475 19.9965H20.35V19.9565C20.2767 19.9006 20.2225 19.8231 20.1967 19.734L20.1958 19.7306C20.175 19.6456 20.1442 19.5715 20.1025 19.5031L20.1042 19.5065L20.1075 19.5098ZM4.62751 3.50563C4.51973 3.50563 4.4189 3.50896 4.32501 3.51563C4.22917 3.52229 4.14001 3.53979 4.05584 3.56813L4.06334 3.56563V3.58563H4.10334C4.15723 3.66618 4.22501 3.75674 4.30667 3.85729C4.38834 3.95785 4.46223 4.05535 4.52834 4.14979L4.85084 4.81479L4.89084 4.79479C4.98501 4.72646 5.05751 4.63479 5.10084 4.52729L5.10251 4.52313C5.14584 4.40729 5.17084 4.27229 5.17084 4.13229C5.17084 4.11729 5.17084 4.10229 5.17001 4.08729V4.08979C5.13251 4.05313 5.10167 4.00979 5.08001 3.96146L5.07917 3.95896L5.01167 3.80729C4.96751 3.73729 4.90584 3.68229 4.83334 3.64729L4.83084 3.64646C4.75251 3.60896 4.68584 3.56146 4.62751 3.50563Z" fill="#47809D"/>
</g>
<defs>
<clipPath id="clip0_1_93">
<rect width="20" height="20" fill="white"/>
</clipPath>
</defs>
</svg>
