<svg xmlns="http://www.w3.org/2000/svg" width="20" height="20" fill="none" xmlns:v="https://vecta.io/nano"><g clip-path="url(#B)"><mask id="A" maskUnits="userSpaceOnUse" x="0" y="0" width="20" height="20"><path d="M20 0H0V20H20V0Z" fill="#fff"/></mask><g mask="url(#A)"><path d="M6 6l.54-.39c-.169-.234-.47-.333-.746-.244s-.462.345-.462.634H6zm4 12.667A8.67 8.67 0 0 1 1.333 10H0c0 5.523 4.477 10 10 10v-1.333zM18.667 10A8.67 8.67 0 0 1 10 18.667V20c5.523 0 10-4.477 10-10h-1.333zM10 1.333A8.67 8.67 0 0 1 18.667 10H20c0-5.523-4.477-10-10-10v1.333zM10 0C4.477 0 0 4.477 0 10h1.333A8.67 8.67 0 0 1 10 1.333V0zM6.667 16V6H5.333v10h1.333zM5.46 6.39l8.667 12 1.081-.781-8.667-12-1.081.781zm7.874-1.057v8h1.333v-8h-1.333z" fill="#fff"/></g></g><defs><clipPath id="B"><path fill="#fff" d="M0 0h20v20H0z"/></clipPath></defs></svg>