<svg xmlns="http://www.w3.org/2000/svg" width="20" height="20" fill="none" xmlns:v="https://vecta.io/nano"><path d="M10 1.279a1.87 1.87 0 0 0-.95.259L3.425 4.849A1.88 1.88 0 0 0 2.5 6.465v7.292c0 .686.374 1.317.977 1.645l1.843 1.006c.284.155.591.23.898.23a1.88 1.88 0 0 0 .955-.264 1.86 1.86 0 0 0 .918-1.614v-7.93h-1.25v7.93a.61.61 0 0 1-.305.537c-.091.054-.336.166-.618.012l-1.841-1.004c-.201-.11-.327-.32-.327-.549V6.465a.63.63 0 0 1 .308-.54l5.625-3.311a.63.63 0 0 1 .635 0l5.625 3.311c.189.112.308.32.308.54v7.297c0 .225-.125.437-.325.549L10.3 17.376a.64.64 0 0 1-.601 0l-1.099-.601a2.97 2.97 0 0 1-.789.676c-.1.063-.2.111-.3.149l1.587.874c.288.15.588.227.901.227s.613-.077.901-.227l5.625-3.074a1.86 1.86 0 0 0 .974-1.638V6.465a1.88 1.88 0 0 0-.923-1.616l-5.625-3.311A1.88 1.88 0 0 0 10 1.279zm1.814 5.369c-1.975 0-2.976.688-2.976 2.046 0 1.537 1.771 1.766 2.622 1.875l.317.046.374.066c1.3.217 1.599.365 1.599.784 0 .202-.001.816-1.936.816-1.641 0-1.978-.487-1.978-1.218h-1.25c0 1.128.56 2.468 3.228 2.468 2.633 0 3.186-1.123 3.186-2.065 0-1.572-1.528-1.83-2.642-2.019L12 9.385l-.381-.054c-.795-.102-1.531-.25-1.531-.635 0-.279-.001-.797 1.726-.798 1.149 0 1.733.378 1.733 1.123h1.25c0-1.146-.786-2.373-2.983-2.373z" fill="#90c53f"/></svg>