<svg xmlns="http://www.w3.org/2000/svg" width="20" height="20" fill="none" xmlns:v="https://vecta.io/nano"><g clip-path="url(#A)" fill-rule="evenodd" fill="#6181b6"><path d="M14.471 14.766h-1.642l1.462-7.52.124-.012 3.177.006c.299.004.605.047.895.121.945.239 1.505.94 1.514 1.912.011 1.143-.407 2.099-1.314 2.824-.587.47-1.276.634-2.005.658l-1.657.008c-.118-.001-.171.026-.194.155l-.359 1.849zm.618-3.168l1.632-.071c.688-.071 1.177-.442 1.38-1.116a4.16 4.16 0 0 0 .173-1.001c.024-.532-.2-.834-.728-.906-.601-.082-1.213-.081-1.833-.117l-.624 3.211zM1.642 14.763H0l1.461-7.517.156-.012 3.117.006a3.94 3.94 0 0 1 .877.111c.936.228 1.476.821 1.547 1.777.139 1.866-1.11 3.183-2.345 3.485-.33.081-.673.125-1.012.14l-1.617.009c-.111-.001-.159.028-.181.147l-.36 1.854zm.617-3.166l1.628-.07c.706-.072 1.196-.458 1.395-1.15a4.18 4.18 0 0 0 .162-.964c.023-.532-.2-.836-.726-.908-.601-.083-1.214-.082-1.834-.118l-.624 3.211zm6.045-6.363h1.629l-.385 1.999 1.296.004c.432.019.871.03 1.291.119.887.189 1.261.765 1.101 1.672l-.586 3.076-.109.54c-.012.047-.077.114-.118.115l-1.556.005.279-1.449.392-2.07c.087-.506-.108-.757-.624-.78L9.309 8.46l-.836 4.29h-1.63l1.461-7.516z"/></g><defs><clipPath id="A"><path fill="#fff" d="M0 0h20v20H0z"/></clipPath></defs></svg>