<svg width="20" height="20" viewBox="0 0 20 20" fill="none" xmlns="http://www.w3.org/2000/svg">
<g clip-path="url(#clip0_310_35)">
<path d="M9.79 0.0193768H9.68875C9.49281 0.0262518 9.29719 0.0462518 9.10125 0.0734393L8.54094 0.154689L7.87219 0.222189L7.23781 0.323439C7.16344 0.336877 7.08938 0.364064 7.015 0.377502C6.8525 0.411252 6.68375 0.424377 6.52219 0.478752L5.65781 0.775627L4.88906 1.13344C4.63281 1.27531 4.38906 1.44406 4.14625 1.60594L3.46438 2.09875C3.24875 2.2675 3.04563 2.45656 2.85 2.64563C2.74188 2.75375 2.65406 2.88188 2.55313 3.00344L2.05313 3.59094L1.66813 4.11094C1.43844 4.42156 1.24313 4.7525 1.06031 5.08281L0.851564 5.48782L0.547814 6.09563C0.479547 6.24105 0.425038 6.39255 0.385001 6.54813L0.109376 7.54782C0.0281264 7.84469 0.00812641 8.15563 0.00125141 8.45938C-0.00562359 8.72938 0.0209389 8.99282 0.0481264 9.2625C0.0550014 9.33 0.0143764 9.41094 0.0950014 9.465C0.101876 9.465 0.0950014 9.49188 0.0881264 9.49875C0.0678139 9.53938 0.0881264 9.58 0.128751 9.59313C0.128751 9.59313 0.136251 9.6 0.136251 9.60657H0.102501C0.0821889 9.66719 0.149376 9.71469 0.122189 9.78219C0.115314 9.79563 0.142501 9.82282 0.155939 9.84282C0.155939 9.86313 0.149064 9.88969 0.155939 9.91032C0.162814 9.97094 0.189689 10.0322 0.189689 10.0994C0.189689 10.1463 0.230939 10.2006 0.244376 10.2478C0.251251 10.2681 0.244376 10.3019 0.230314 10.3153C0.189689 10.3622 0.196564 10.4028 0.257189 10.43C0.270626 10.4369 0.290939 10.4638 0.290939 10.4769C0.290939 10.5175 0.278439 10.5581 0.271251 10.5988C0.284689 10.6122 0.290939 10.6256 0.283751 10.6394C0.283751 10.6597 0.264064 10.68 0.271251 10.6934C0.325314 10.8016 0.345001 10.9231 0.351564 11.0447C0.351564 11.0716 0.365626 11.0988 0.379689 11.1322C0.386564 11.1322 0.405939 11.1322 0.419376 11.1391L0.379689 11.2609C0.413439 11.2406 0.440314 11.2341 0.474064 11.2203L0.541564 11.4634C0.548439 11.4769 0.561876 11.4903 0.582189 11.5041C0.575314 11.5175 0.574689 11.5447 0.561251 11.5509C0.588126 11.6728 0.602501 11.7872 0.649689 11.9022C0.656564 11.9022 0.662189 11.8953 0.669376 11.8953L0.616251 11.5241V11.4834C0.616251 11.4834 0.628751 11.4766 0.635939 11.4766C0.642814 11.5034 0.656251 11.5372 0.656251 11.5578C0.710314 11.5578 0.791876 11.5916 0.845939 11.5916L0.865626 11.5309C0.825001 11.4903 0.791876 11.4297 0.751564 11.3891C0.765001 11.4431 0.751564 11.4634 0.751564 11.4834C0.724689 11.47 0.690001 11.4566 0.656251 11.4428L0.751564 11.3347C0.751564 11.2741 0.720314 11.22 0.622501 11.2266L0.751564 11.1797L0.771251 11.2338C0.825314 11.1394 0.745001 11.065 0.745001 10.9703C0.751876 10.8556 0.683439 10.7406 0.663751 10.6191C0.630001 10.43 0.637501 10.1466 0.616876 9.9575C0.616876 9.94407 0.596564 9.93063 0.583126 9.91688C0.576251 9.92375 0.541876 10.0113 0.535314 10.0181L0.589376 10.5044C0.582501 10.5044 0.576876 10.5044 0.576876 10.5113L0.488439 10.0588C0.481564 10.1056 0.475939 10.1263 0.475939 10.1531C0.455626 10.1463 0.449064 10.1397 0.415314 10.1263L0.489064 10.2747C0.442189 10.2544 0.387814 10.2613 0.387814 10.2613V10.4503C0.320314 10.3828 0.300314 10.3284 0.265939 10.2816L0.232189 10.1191L0.252501 10.1122C0.245626 10.0853 0.232189 10.0653 0.232189 10.0447L0.212501 9.88219C0.219376 9.87531 0.245626 9.86875 0.259376 9.85532L0.206251 9.77407L0.327189 9.7875C0.327189 9.77406 0.334064 9.76719 0.327189 9.76063C0.259689 9.7 0.306876 9.64594 0.334064 9.59188C0.347501 9.565 0.395626 9.55813 0.409064 9.53125C0.463126 9.43 0.550939 9.34907 0.550939 9.22063C0.550939 9.16 0.571251 9.0925 0.577814 9.03156L0.611564 8.68719C0.625001 8.53875 0.611564 8.39032 0.645314 8.24844L0.840314 7.53907L1.02344 7.03906L1.34375 6.265L1.9375 5.19157L2.34375 4.54375L2.76969 3.9225C2.98531 3.64563 3.22219 3.38906 3.48844 3.15938L4.30469 2.44063C4.67969 2.15 5.08188 1.89375 5.50594 1.67094C5.84375 1.49125 6.20469 1.35 6.5625 1.21469C6.79219 1.12719 7.04188 1.08656 7.28125 1.01219C7.55125 0.924689 7.82188 0.884064 8.105 0.877189L8.64563 0.830314L9.14563 0.783439C9.12531 0.810314 9.11875 0.824064 9.11188 0.837502L8.88219 1.16156L8.69313 1.43156L8.36563 1.8625L7.90625 2.5375L7.4 3.16563L6.745 4.04375L6.13063 4.86063L5.63063 5.61L4.88188 6.71719L4.28813 7.56094C4.27469 7.58125 4.25688 7.58782 4.23344 7.60157C4.22 7.615 4.19375 7.62844 4.19375 7.64219C4.18031 7.68906 4.18031 7.73656 4.16 7.77719L3.99125 8.07407C3.9575 8.12813 3.91 8.17532 3.86938 8.22938C3.85594 8.2225 3.84906 8.21594 3.83563 8.21594C3.8625 8.14844 3.97813 8.10782 3.92406 8.00657L3.82281 8.16188L3.74156 8.32438C3.76781 8.34469 3.81125 8.35813 3.77344 8.39875C3.76656 8.37844 3.74438 8.37188 3.72813 8.35813L3.56563 8.60125C3.60625 8.635 3.62719 8.62157 3.65406 8.57438C3.67594 8.53375 3.70594 8.5 3.73531 8.45969C3.72594 8.48 3.71719 8.49344 3.70719 8.50657C3.71406 8.50657 3.71469 8.51344 3.72125 8.51344L3.78188 8.43906C3.78875 8.43906 3.79438 8.44594 3.80156 8.44594C3.78125 8.51344 3.74094 8.57407 3.70719 8.635C3.68031 8.68907 3.61281 8.72938 3.56531 8.77C3.57219 8.77688 3.61938 8.79688 3.62594 8.80375C3.64625 8.77688 3.65281 8.79031 3.67281 8.76313C3.68625 8.78344 3.70406 8.74969 3.71406 8.77C3.73438 8.74313 3.75375 8.72313 3.76094 8.7025C3.78781 8.635 3.82844 8.58063 3.89594 8.55406C3.92281 8.54063 3.94281 8.52032 3.96344 8.5L4.55844 7.86563L5.36719 6.8125L5.73844 6.37375C5.75188 6.38063 5.76531 6.38063 5.77219 6.38719L5.73844 6.81938L5.68438 7.57563L5.6775 7.87938C5.6775 7.90625 5.65719 7.92625 5.65719 7.95375C5.65719 8.02125 5.6775 8.09563 5.6775 8.16313L5.61 8.90594C5.60313 8.96 5.63031 9.01407 5.64375 9.06125C5.63688 9.05438 5.63031 9.04782 5.61 9.03438C5.61 9.42594 5.68438 9.81094 5.62344 10.1956C5.65031 10.1888 5.66406 10.1822 5.66406 10.1688C5.67094 10.1219 5.68438 10.0744 5.68438 10.0269C5.69125 9.98625 5.68438 9.94563 5.68438 9.89875V9.83125C5.69125 9.70938 5.71813 9.58125 5.70469 9.46C5.69125 9.325 5.69125 9.19657 5.71813 9.06844C5.73156 9.01438 5.71125 8.94656 5.745 8.87938V8.98063C5.73813 9.36563 5.75188 9.75031 5.69813 10.1353C5.69125 10.1691 5.71844 10.2297 5.64406 10.2228C5.63719 10.2228 5.63063 10.2566 5.61719 10.2769C5.58344 10.3444 5.65781 10.4322 5.59031 10.4997C5.57688 10.5131 5.60375 10.5741 5.61063 10.6144C5.61063 10.6278 5.6175 10.6413 5.61063 10.6481C5.58375 10.695 5.58375 10.695 5.62406 10.7022L5.65094 11.1272H5.67125C5.75875 10.8709 5.705 10.6072 5.7525 10.3441L5.75938 10.6753L5.74594 11.1953C5.74594 11.2291 5.73906 11.2628 5.7325 11.2966C5.71219 11.3909 5.70563 11.4856 5.67188 11.5734C5.645 11.6409 5.65844 11.7422 5.65844 11.8234V12.0797C5.65844 12.0866 5.67875 12.1066 5.67875 12.1338C5.68563 12.1944 5.65188 12.2556 5.67188 12.3228C5.67875 12.3363 5.665 12.3566 5.65844 12.3697C5.65156 12.39 5.645 12.4103 5.65156 12.4303L5.67188 12.5316C5.67188 12.5384 5.67875 12.545 5.68531 12.5584C5.69219 12.5316 5.69219 12.5116 5.69219 12.5044C5.80688 12.5178 5.74625 12.6191 5.80031 12.6731C5.77344 12.6866 5.75344 12.6934 5.75344 12.7C5.76031 12.7269 5.77375 12.7469 5.77375 12.7744C5.77375 12.835 5.76688 12.8891 5.76031 12.95L5.75344 13.4094C5.75344 13.4297 5.76031 13.45 5.76031 13.47C5.76031 13.4834 5.75344 13.4969 5.75344 13.5169V13.6588H5.78031C5.76688 13.6791 5.75344 13.6994 5.73344 13.7194C5.72656 13.7194 5.70656 13.7194 5.70656 13.7125V12.8619H5.60531C5.59188 13.2669 5.62563 13.6316 5.55125 14.0097C5.47 14.0166 5.44313 14.03 5.35531 14.03L4.72875 14.0369L3.98594 14.0438L3.61469 14.0572C3.45219 14.0572 3.28344 14.0369 3.12094 14.0369L2.37813 14.0638L1.83188 14.0772L1.46625 14.1041C1.41219 14.1109 1.365 14.1309 1.2975 14.1509C1.27719 14.1509 1.23063 14.1441 1.19 14.1509C1.1225 14.1644 1.06094 14.205 0.993126 14.2184C0.891876 14.2388 0.865626 14.2653 0.879064 14.3669V14.4344C0.865626 14.4209 0.847814 14.4075 0.831251 14.4006C0.824376 14.4006 0.818751 14.4075 0.818751 14.4075C0.825626 14.4278 0.839064 14.4413 0.845626 14.4616C0.872501 14.4481 0.905626 14.4147 0.933126 14.4147H1.0275C1.01406 14.4147 1.00781 14.4553 0.987814 14.4891L1.10875 14.4422C1.11375 14.4598 1.11627 14.478 1.11625 14.4963C1.21063 14.4894 1.2975 14.4625 1.37875 14.4828C1.64219 14.5503 1.91219 14.5772 2.18188 14.6047L2.7025 14.6316L3.45188 14.6584L4.0725 14.6381L4.94344 14.6584L5.14031 14.6516H5.63188L6.94844 14.6178L7.70469 14.5909L8.47438 14.5706L9.35875 14.5572L10.0203 14.5438L10.7766 14.5031L11.6747 14.4288L12.4106 14.395L13.3288 14.3409L14.1863 14.3275L14.9425 14.3006L15.7931 14.26L16.5222 14.2131L16.9878 14.2063L17.7441 14.1859C17.8384 14.1859 17.94 14.1994 18.0613 14.2063L17.9331 14.3144C17.96 14.3213 17.9872 14.3347 18.0144 14.3481C18.0144 14.355 18.0075 14.3616 18.0075 14.375C17.9738 14.375 17.94 14.3819 17.9063 14.3819C17.8928 14.4156 17.8794 14.4288 17.8656 14.4966H17.9875C17.9406 14.4966 17.9 14.5572 17.8525 14.5978C17.8594 14.6047 17.8659 14.6047 17.8728 14.6113C17.7984 14.5844 17.7509 14.5978 17.7244 14.6719C17.7447 14.6788 17.7581 14.6788 17.7784 14.6788L17.7581 14.7463C17.7513 14.7597 17.7447 14.7731 17.7447 14.7931L17.7244 14.7728C17.7244 14.7594 17.7244 14.7459 17.7175 14.7322C17.6769 14.7728 17.6163 14.7997 17.65 14.8875L17.5556 14.9344C17.5625 14.9478 17.5759 14.9613 17.5825 14.9813C17.5219 14.9881 17.4606 15.0016 17.4744 15.0756C17.5013 15.0825 17.5284 15.0959 17.5487 15.1025C17.515 15.1159 17.4813 15.1363 17.4475 15.1494C17.4406 15.1628 17.4341 15.1963 17.4206 15.2034C17.3263 15.2238 17.38 15.2575 17.4072 15.2909C17.3869 15.3044 17.3666 15.3178 17.3466 15.3247C17.3669 15.3316 17.3803 15.3381 17.3934 15.3516C17.3784 15.3616 17.3626 15.3706 17.3463 15.3784C17.3597 15.3853 17.38 15.3988 17.3869 15.3988C17.3666 15.4122 17.3463 15.4325 17.3194 15.4528C17.3194 15.4459 17.3263 15.4394 17.3263 15.4325H17.2994C17.2994 15.4459 17.2994 15.4594 17.3063 15.4663C17.2994 15.4731 17.2928 15.4731 17.2859 15.4797C17.2859 15.4931 17.2859 15.5 17.2928 15.5134C17.2626 15.5419 17.2354 15.5736 17.2119 15.6078C17.185 15.6484 17.1713 15.7022 17.1375 15.7428C16.9956 15.8981 16.8944 16.0803 16.7125 16.2022C16.645 16.2491 16.5844 16.3103 16.5234 16.3709L16.1656 16.7222C15.9959 16.8625 15.8202 16.9954 15.6391 17.1206L14.9703 17.58C14.8484 17.6613 14.7141 17.7219 14.5853 17.7956L14.2103 18.0113C14.1291 18.0653 14.055 18.1394 13.9672 18.18L13.2784 18.4434L13.2244 18.4638L12.7244 18.6794C12.5691 18.7334 12.4072 18.7738 12.245 18.8075C12.1909 18.8209 12.1303 18.8075 12.0694 18.8144L11.725 18.875L10.8338 18.9831L10.3138 19.0575C10.1919 19.0644 10.0638 19.0506 9.9425 19.0506C9.855 19.0506 9.76031 19.0709 9.6725 19.0575L9.2475 18.9763C9.21375 18.9694 9.16625 18.9559 9.13938 18.9694C9.08531 18.9963 9.03813 18.9559 8.98406 18.9694C8.95031 18.9763 8.91656 18.9491 8.88281 18.9491C8.85594 18.9422 8.82219 18.9559 8.78844 18.9491C8.71406 18.9288 8.64656 18.9022 8.56563 18.9084C8.48469 18.9147 8.40313 18.8747 8.31563 18.8544L7.95781 18.7731C7.91094 18.7597 7.87031 18.7394 7.82281 18.7125C7.80938 18.7194 7.78906 18.7328 7.76219 18.7328C7.6475 18.7125 7.5325 18.7059 7.42469 18.6653C7.33031 18.6316 7.2425 18.5841 7.14125 18.5978C7.11438 18.6047 7.09438 18.5909 7.06688 18.5909C7.04656 18.5641 7.02625 18.5097 7.00625 18.5097C6.87125 18.5166 6.79063 18.4016 6.675 18.3678C6.61438 18.3475 6.56688 18.2803 6.50625 18.2597C6.35781 18.1991 6.23625 18.0706 6.0675 18.0503C6.01344 18.0434 5.95938 18.0166 5.89875 17.9963C5.91906 18.0231 5.9325 18.0431 5.95281 18.0638L5.93938 18.0772L5.3925 17.76C5.36563 17.7531 5.34563 17.7263 5.325 17.7131L5.14375 17.5913C5.12344 17.5778 5.08219 17.5575 5.08219 17.5644C5.04156 17.6113 5.00188 17.5713 4.97469 17.5575C4.7925 17.4294 4.5825 17.3481 4.40688 17.2063C4.3325 17.1456 4.24563 17.105 4.19125 17.0306C4.09688 16.9159 3.98188 16.8347 3.85375 16.7672C3.7525 16.7131 3.65688 16.6525 3.56313 16.5916C3.51625 16.5578 3.46875 16.5172 3.46875 16.4431C3.46875 16.3963 3.44906 16.3488 3.38844 16.3756C3.36156 16.335 3.33375 16.2881 3.3 16.2744C3.21875 16.2406 3.165 16.18 3.10406 16.1259C3.04313 16.0719 2.99594 15.9978 2.92188 15.9706C2.78688 15.9166 2.70625 15.8019 2.625 15.7072C2.43594 15.4844 2.26719 15.2416 2.09156 15.005C2.07813 14.9847 2.05188 14.9713 2.03156 14.9509L2.02406 14.9578L2.12531 15.1538C2.11844 15.1606 2.10563 15.1672 2.09906 15.1741L1.97094 15.0322C1.96406 15.0391 1.95688 15.0456 1.95 15.0456L2.43688 15.8153L2.55094 15.9975C2.54406 16.0044 2.5375 16.0109 2.52406 16.0178C2.48738 16.01 2.45277 15.9945 2.4225 15.9724C2.39223 15.9503 2.36699 15.922 2.34844 15.8894C2.28781 15.7813 2.22031 15.7138 2.085 15.7269C2.07156 15.68 2.05813 15.6256 2.05125 15.5784C2.02438 15.5784 2.00438 15.5784 1.95688 15.5716L2.22031 15.9966L2.15281 15.9559C2.27469 16.0841 2.36219 16.2466 2.5175 16.3272C2.55125 16.4825 2.72688 16.5569 2.7675 16.7022L2.67375 16.6819L2.4975 16.4725C2.51094 16.5194 2.53125 16.56 2.55813 16.5944C2.63938 16.6956 2.71438 16.7969 2.80875 16.885C2.8425 16.9188 2.88906 16.9319 2.88906 16.9931C2.9025 16.9797 2.91719 16.9728 2.94375 16.9594L2.91688 17.02C2.94375 17.02 2.96375 17.0269 2.98438 17.0269C2.99781 17.0675 2.97688 17.1281 3.05813 17.1144C3.065 17.1144 3.07219 17.1213 3.07906 17.1278C3.11281 17.2153 3.16656 17.2153 3.24031 17.1819C3.25375 17.175 3.28719 17.1819 3.29438 17.1953C3.32813 17.2697 3.37563 17.2766 3.43625 17.2222C3.43625 17.2559 3.44313 17.2897 3.44313 17.3166H3.47C3.47 17.3031 3.46313 17.2828 3.46313 17.2491L3.53063 17.3031C3.59813 17.3975 3.65969 17.4853 3.75406 17.5594L4.11813 17.8834C4.35438 18.0794 4.61813 18.2413 4.88125 18.3897L5.84625 18.9434C6.24469 19.1528 6.67 19.2947 7.10875 19.3959L7.58813 19.5041L8.01313 19.6391L8.66813 19.7672L8.81656 19.7875V19.8009C8.87719 19.8009 8.95156 19.7741 8.965 19.7941C8.99875 19.8481 9.02563 19.8209 9.06625 19.8144C9.11313 19.8009 9.1675 19.8009 9.22156 19.8009C9.41063 19.8078 9.59281 19.8478 9.78188 19.8347C9.8225 19.8347 9.88313 19.8009 9.91688 19.8684C9.93031 19.8616 9.93719 19.855 9.95063 19.8481C9.9775 19.8413 10.0113 19.8413 10.0381 19.8347V19.8481C10.0247 19.855 10.0113 19.855 9.98406 19.8616C10.0178 19.8684 10.0381 19.875 10.0584 19.8819C10.045 19.8953 10.0381 19.8953 10.0247 19.9022C10.0113 19.9091 9.99094 19.9156 9.96406 19.9359C10.2072 19.9828 10.4366 19.99 10.6391 19.9359V19.8953H10.6659C10.6659 19.9088 10.6728 19.9222 10.6794 19.9359C10.99 19.9628 11.2938 19.9225 11.5841 19.8213C11.6109 19.855 11.6309 19.9025 11.6716 19.8347C11.685 19.8144 11.7184 19.8078 11.7459 19.8009C11.8066 19.7875 11.8809 19.7603 11.935 19.7806C11.9956 19.8009 12.0163 19.7469 12.0631 19.7469C12.1401 19.7471 12.217 19.7403 12.2928 19.7266C12.3334 19.7197 12.3741 19.6997 12.4209 19.6859C12.4209 19.6791 12.4209 19.6725 12.4141 19.6656L12.2722 19.6522L12.5019 19.5441C12.5019 19.5509 12.5088 19.5509 12.5088 19.5575C12.4884 19.5644 12.475 19.5913 12.4481 19.5913H12.5425C12.5222 19.5913 12.4956 19.6519 12.4613 19.6925L13.1431 19.5238V19.5103C13.1163 19.5172 13.0963 19.5172 13.0756 19.5238C13.0688 19.3819 13.2241 19.4294 13.2781 19.3481L13.0756 19.4022V19.3888L13.7709 19.085C13.7709 19.0919 13.7778 19.0919 13.7778 19.0984C13.7372 19.1253 13.6966 19.1453 13.6359 19.1797C13.6766 19.1866 13.7034 19.1866 13.7234 19.1931C13.7234 19.2134 13.7234 19.2269 13.7166 19.2338C13.8313 19.2269 13.8041 19.1256 13.8384 19.065C13.8588 19.0719 13.8853 19.0853 13.9059 19.0784C13.9666 19.065 14.0206 19.0447 14.0816 19.0244L14.2841 18.9569C14.3922 18.91 14.4934 18.8488 14.6013 18.7944C14.6216 18.7875 14.6553 18.7944 14.6825 18.7944C14.7028 18.7944 14.7163 18.7809 14.7294 18.7675C14.7563 18.7472 14.7834 18.7069 14.8038 18.7134C14.8981 18.7269 14.9663 18.6931 14.9928 18.6053C14.9997 18.6053 14.9997 18.5984 15.0063 18.5984C15.0128 18.5984 15.0131 18.5984 15.0131 18.5916C15.04 18.6522 15.0944 18.6591 15.1819 18.5984C15.1278 18.5984 15.0738 18.5916 15.0266 18.585L15.0197 18.5919C15.0466 18.565 15.0803 18.545 15.1072 18.5244L15.5459 18.2813C15.5528 18.2744 15.5663 18.2813 15.5797 18.2813C15.6 18.2813 15.6266 18.2813 15.6403 18.2744C15.7278 18.2338 15.8091 18.1869 15.8903 18.1394C15.87 18.1325 15.8903 18.1259 15.8228 18.1191V18.1056C15.8903 18.0922 15.9103 18.0853 15.9509 18.0719L15.9375 18.0675C16.1131 17.8919 16.3359 17.7638 16.5047 17.615C16.5384 17.6219 16.5516 17.6284 16.5722 17.6284C16.5791 17.6081 16.5791 17.5878 16.5791 17.5744C16.6059 17.5406 16.6331 17.5 16.6666 17.4731L17.1122 17.0816L17.6725 16.4738L18.1319 15.8863L18.6519 14.995L19 14.3469C19.0134 14.3266 19.0406 14.3 19.0606 14.3L19.6013 14.2459C19.6419 14.2391 19.6888 14.2122 19.7294 14.1919C19.7091 14.1581 19.6956 14.1175 19.6753 14.0838C19.6484 14.0431 19.6078 14.0094 19.5809 13.9691C19.5541 13.9353 19.5341 13.8947 19.5134 13.8544L19.4528 13.76L19.3381 13.5303C19.3313 13.51 19.3178 13.4763 19.3247 13.4559C19.4466 13.1925 19.4934 12.9091 19.6081 12.6456C19.7228 12.3756 19.7566 12.0716 19.8106 11.7813L19.9188 10.9506L19.9728 10.37C20.0134 10.0594 19.9997 9.76907 19.9931 9.47875L19.9594 8.70219L19.9125 7.91219L19.7369 6.83875C19.6763 6.54813 19.5744 6.27156 19.4734 5.995L19.0547 5.02625C18.7912 4.52625 18.4469 4.08094 18.1297 3.615C17.9203 3.31813 17.6503 3.07438 17.4478 2.77125C17.3331 2.59563 17.1644 2.44719 16.9953 2.31188C16.7253 2.09625 16.4416 1.9 16.1578 1.71094L15.4963 1.29219C15.3141 1.19094 15.1213 1.11 14.9291 1.02219C14.7134 0.920939 14.5041 0.799377 14.2603 0.752189C14.1997 0.738752 14.1456 0.718439 14.0847 0.698127L13.6253 0.535627L12.9159 0.312814C12.68 0.256252 12.4369 0.215627 12.1938 0.181252C11.9238 0.140627 11.6469 0.127189 11.3769 0.100002L10.8569 0.0531268L10.0803 0.0331268L9.78969 0.0175018L9.79 0.0193768ZM10.2694 0.804689L10.5194 0.838439L10.8434 0.858752L11.5725 0.926252L12.1869 1.0275C12.6325 1.10188 13.0713 1.22344 13.4969 1.365C13.7469 1.44625 13.9897 1.55406 14.2328 1.65563C14.7797 1.87844 15.2997 2.14844 15.8128 2.43219C15.9753 2.51969 16.0691 2.66188 16.1878 2.79L16.7078 3.34375L17.2813 4.025L17.7944 4.63281C17.8484 4.69344 17.8888 4.76781 17.9363 4.83531L18.2603 5.32594C18.3278 5.45406 18.3684 5.60281 18.4156 5.74469L18.6181 6.36594L18.74 6.84532C18.7669 6.95344 18.7603 7.06813 18.7941 7.17657C18.8347 7.31844 18.7941 7.47344 18.8347 7.61531C18.8416 7.62875 18.8481 7.64906 18.855 7.66219C18.8819 7.68906 18.9019 7.71625 18.8619 7.75657C18.855 7.76344 18.855 7.79031 18.8619 7.81063C18.8753 7.79719 18.8822 7.78375 18.8956 7.76375C18.8956 7.77719 18.9025 7.78407 18.9025 7.79063C18.9025 7.8175 18.8956 7.84469 18.9025 7.87188C18.9025 7.88532 18.9159 7.90563 18.9228 7.91875C18.9363 7.90532 18.9497 7.89844 18.9769 7.87813C19.0375 8.10782 19.0444 8.3375 19.0444 8.57344C19.0444 8.79625 19.085 9.01907 18.9903 9.235C19.0106 9.16063 18.9634 9.09313 18.9834 9.02563C18.9766 9.02563 18.9366 8.985 18.9294 8.97875C18.9225 8.99907 18.9294 9.01938 18.9159 9.04625C18.9091 9.02594 18.8619 9.03282 18.8619 9.0125C18.855 9.10688 18.9025 9.20157 18.8956 9.29594C18.9159 9.2825 18.9969 9.27563 19.0175 9.25532C19.0244 9.26219 19.0378 9.26875 19.0444 9.26875C18.9094 9.37 18.9431 9.47125 19.0038 9.58594C19.0172 9.61282 19.0578 9.66719 19.0172 9.72094C19.0038 9.73438 19.0241 9.775 19.0306 9.80844H19.0509V9.82188L18.9903 9.84219C18.9769 9.82188 18.8959 9.78157 18.8959 9.74782V10.0938C18.9634 10.1141 18.9634 10.2084 18.9903 10.2563C19.0038 10.2359 19.0106 10.2225 19.0172 10.2022L19.0241 10.2091C19.0172 10.2497 19.0106 10.2903 18.9972 10.3309L18.9634 10.5066C18.9634 10.5134 18.9769 10.5269 18.9769 10.5334C18.9025 10.7022 18.9431 10.8913 18.9163 11.0669C18.8959 11.195 18.9163 11.3303 18.9028 11.4653C18.8894 11.58 18.8622 11.7016 18.8353 11.8166C18.8284 11.8369 18.815 11.8434 18.7812 11.8572C18.7947 11.7759 18.7881 11.7222 18.7744 11.6478C18.7675 11.6478 18.68 11.6009 18.6731 11.6009C18.6731 11.6953 18.7272 11.8238 18.7475 11.9322C18.7272 11.9253 18.6463 11.8781 18.6394 11.8781C18.6259 11.9594 18.6259 12.0672 18.6191 12.155C18.6122 12.2225 18.5516 12.2831 18.5447 12.3575C18.5447 12.3981 18.5916 12.425 18.5853 12.4925H18.6394C18.6394 12.3575 18.7 12.2363 18.7 12.0941H18.7203C18.7272 12.1075 18.7472 12.1209 18.7406 12.1278C18.7272 12.2022 18.7 12.2831 18.7069 12.3575C18.7069 12.3981 18.7406 12.4388 18.7272 12.4856C18.7138 12.5263 18.7069 12.5669 18.7003 12.6275C18.6934 12.5938 18.6869 12.5806 18.6869 12.56C18.68 12.56 18.6194 12.5531 18.6125 12.5531C18.6056 12.5938 18.6594 12.6344 18.6531 12.6678C18.6463 12.6747 18.6397 12.6747 18.6263 12.6813L18.4034 12.3572L17.8769 11.5806C17.83 11.5131 17.7894 11.4456 17.755 11.3781C17.5456 11.0203 17.3163 10.6759 17.0597 10.345C16.8638 10.095 16.7084 9.825 16.5263 9.56188L16.02 8.81907C15.9594 8.73782 15.885 8.66375 15.8309 8.57594L15.3247 7.73844L14.8591 7.06344L14.6966 6.82719C14.6897 6.81375 14.6831 6.80032 14.6831 6.78032L14.6494 6.34156L14.6628 5.92969V5.80781C14.6628 5.77406 14.6697 5.74719 14.6697 5.71344C14.6766 5.70657 14.6831 5.69313 14.69 5.68656C14.4941 5.68656 14.2916 5.67969 14.0963 5.68656C13.9681 5.69344 13.9003 5.63969 13.8125 5.54469C13.5563 5.25625 13.3669 4.92594 13.1438 4.615L12.5022 3.73688L11.9756 3.03469L11.3881 2.22438L10.6406 1.25L10.2694 0.804689ZM9.625 1.15781C9.64531 1.15781 9.66563 1.16781 9.67906 1.18969L10.6244 2.39156L11.0838 3.03969L11.6038 3.79594L12.36 4.93032L12.9203 5.75219H12.5759L11.6172 5.73188L10.3141 5.83313C9.76719 5.88 9.21344 5.88719 8.66656 5.88719C8.47063 5.88719 8.275 5.91406 8.07906 5.92781L7.37688 5.96157L6.55313 5.98844H6.06688L6.72188 5.0925L6.91094 4.8225C6.93125 4.79563 6.95781 4.78188 6.99219 4.755L6.98531 4.74156C7.01219 4.70781 7.03938 4.68094 7.05281 4.65406C7.08656 4.6 7.10688 4.53938 7.13406 4.47844C7.14094 4.465 7.16094 4.45156 7.16094 4.45156C7.25531 4.49844 7.25531 4.3975 7.28906 4.36406L7.46469 4.15469C7.50531 4.10063 7.54594 4.05344 7.57938 3.99219C7.58625 3.97188 7.56594 3.93813 7.55906 3.91094H7.53875C7.55906 3.8975 7.57938 3.87719 7.59938 3.86406C7.60625 3.86406 7.60625 3.86406 7.61281 3.85719L7.73469 3.68156C7.81594 3.57344 7.90344 3.46594 7.99813 3.37094L7.9575 3.46531C7.96438 3.46531 7.96438 3.47219 7.97094 3.47219L8.22094 3.155C8.21406 3.14813 8.2075 3.14156 8.20063 3.14156L8.10625 3.24281C8.09938 3.23594 8.09281 3.22938 8.08594 3.22938L8.28844 2.9525C8.30188 2.97281 8.31531 2.99938 8.3425 3.05375L8.41688 2.89125C8.39656 2.91156 8.37 2.93188 8.34938 2.95188L8.32906 2.93156L8.45094 2.74938L8.83594 2.19563C8.88281 2.12813 8.94406 2.07375 8.98438 2.00656C9.1125 1.75031 9.31563 1.54719 9.47063 1.31125C9.50438 1.26438 9.55188 1.22375 9.5925 1.18313C9.60594 1.1675 9.61938 1.16031 9.62625 1.15813L9.625 1.15781ZM7.73438 3.78906L7.61969 3.86344C7.61281 3.87031 7.60625 3.87031 7.61281 3.87031C7.61969 3.90406 7.61969 3.93094 7.62625 3.97844L7.74813 3.80281L7.73438 3.78906ZM13.4331 6.56875C13.4938 6.56875 13.5275 6.58906 13.5613 6.64313L13.7503 6.94688C13.7572 6.96031 13.7706 6.98063 13.7706 7.00094L13.7775 7.45344L13.8044 7.91282L13.7975 8.39219L13.8109 9.09438V9.155C13.8041 9.155 13.7975 9.16188 13.7841 9.16188L13.6966 8.87125C13.6291 8.67532 13.5547 8.47969 13.4331 8.30406L13.0416 7.72344C13.0078 7.67657 12.9603 7.63594 12.9197 7.59532C12.7778 7.44 12.6363 7.27813 12.4541 7.16313C12.1856 6.99513 11.9032 6.85053 11.61 6.73094C11.5288 6.69719 11.4547 6.65657 11.3738 6.60907H11.5363L12.6909 6.58875L13.4331 6.56875ZM8.3625 6.74438L8.51094 6.75125C8.40281 6.80532 8.29531 6.85938 8.20031 6.92688C8.07844 7.00813 7.96406 7.11594 7.8425 7.20375C7.72094 7.29157 7.61281 7.39969 7.51125 7.51438C7.38313 7.66969 7.24125 7.805 7.10625 7.95313L6.82281 8.27719C6.70813 8.42563 6.60719 8.58782 6.49875 8.75657L6.54563 6.83219L7.4775 6.78532L8.3625 6.74438ZM10.0572 7.08875L10.665 7.10907C10.7525 7.11594 10.8338 7.13594 10.915 7.16313C11.0191 7.19895 11.1206 7.24187 11.2188 7.29156C11.3329 7.35259 11.4434 7.42021 11.5497 7.49407L12.1238 7.87907C12.3128 7.99375 12.4613 8.14906 12.5831 8.32469C12.7316 8.53406 12.9003 8.72313 12.9681 8.97969L13.0694 9.42531C13.0897 9.50656 13.1369 9.58782 13.1163 9.68157L13.0288 10.1947C13.0153 10.2622 13.0019 10.3297 13.0084 10.3972C13.0219 10.6066 12.9409 10.7888 12.86 10.9778C12.8331 11.0384 12.7925 11.0997 12.7588 11.1669C12.7753 11.1785 12.7936 11.1875 12.8128 11.1938L12.8734 11.0719C12.8803 11.0719 12.8803 11.0719 12.8869 11.0788L12.7925 11.3694L12.5291 11.9975C12.475 12.1122 12.3806 12.2069 12.3134 12.3147L12.1244 12.5981C12.0638 12.6725 12.0025 12.7466 11.9219 12.8006L11.3547 13.1756C11.2328 13.25 11.0913 13.2903 10.9563 13.3241L10.2947 13.4659C10.1056 13.4928 9.90969 13.4863 9.71406 13.4863C9.54053 13.4862 9.36707 13.4795 9.19406 13.4659C8.99813 13.4456 8.8025 13.4253 8.61344 13.3378L8.12063 13.115C7.95813 13.0338 7.79656 12.9394 7.675 12.7909C7.5875 12.6828 7.46563 12.595 7.35781 12.5003C7.37752 12.5817 7.42849 12.6521 7.49969 12.6963C7.46594 12.7369 7.41844 12.7166 7.35125 12.6088C7.33094 12.6222 7.31063 12.6291 7.29719 12.6356L7.35781 12.5003L7.27031 12.3319L7.115 12.0619C7.10156 12.0416 7.10156 12.0213 7.08813 12.0013L6.99375 11.8794C6.93969 11.7981 6.8925 11.7106 6.825 11.6294C6.825 11.6497 6.83188 11.67 6.83188 11.6969C6.825 11.6969 6.81844 11.7038 6.81844 11.7038L6.67656 11.3594C6.66969 11.3594 6.66969 11.3594 6.66313 11.3663L6.785 11.8119C6.77813 11.8119 6.77156 11.8188 6.76469 11.8188C6.74438 11.7919 6.72406 11.7647 6.71063 11.7313C6.69719 11.6772 6.65656 11.6772 6.62313 11.6975C6.60281 11.7109 6.58938 11.7581 6.59625 11.7788L6.75156 12.1231C6.765 12.1638 6.77844 12.1975 6.79844 12.2378C6.80531 12.2513 6.82531 12.2647 6.82531 12.2847C6.85219 12.3388 6.87219 12.3928 6.90656 12.44L7.09563 12.6831L7.26438 12.9331C7.27125 12.9466 7.29125 12.9466 7.29813 12.9534C7.33188 13.0547 7.44656 13.1291 7.52781 13.0884C7.54813 13.2438 7.71688 13.2978 7.78406 13.4463L7.58813 13.3588C7.58125 13.3656 7.58125 13.3722 7.57469 13.3856L7.81094 13.5138L8.00688 13.6419C8.08813 13.7163 8.1825 13.7566 8.2975 13.7838C8.29063 13.7634 8.28406 13.7569 8.28406 13.7569L8.8175 14.0131L6.58938 14.0538L6.5825 13.6788C6.5825 13.6247 6.59594 13.5775 6.58938 13.5234L6.52875 12.5984C6.48813 12.2744 6.48813 11.9569 6.495 11.6297C6.50188 11.4541 6.48813 11.2719 6.48156 11.0963L6.48844 10.3941C6.48844 10.3603 6.50188 10.3334 6.51531 10.2997H6.53563C6.5425 10.3131 6.53563 10.3334 6.54906 10.3403C6.56938 10.3606 6.60313 10.3944 6.61656 10.3872C6.65719 10.3603 6.71781 10.3331 6.73125 10.2928C6.765 10.2116 6.77813 10.1241 6.77813 10.0428C6.77813 9.98219 6.805 9.94157 6.83219 9.90094C6.84563 9.88063 6.8525 9.86031 6.86594 9.83344L6.77844 9.77282C6.80531 9.69844 6.79875 9.61032 6.90031 9.57032C6.91375 9.56344 6.91375 9.52969 6.92063 9.50969L6.94094 9.34094C6.95438 9.36125 6.96125 9.36782 6.97469 9.38157C6.98156 9.36813 6.98813 9.36125 6.98813 9.36125C6.98813 9.33438 6.98125 9.28 6.98813 9.28C7.06938 9.26657 7.035 9.17875 7.07563 9.13813C7.0825 9.13125 7.06875 9.11125 7.06875 9.0975C7.06875 9.08375 7.06875 9.06375 7.07563 9.06375C7.17 9.04344 7.15688 8.94188 7.2175 8.895C7.23781 8.88157 7.24438 8.86125 7.27156 8.8275C7.32563 8.92188 7.23094 8.96938 7.22469 9.03688C7.33938 8.96938 7.37313 8.80719 7.30594 8.76C7.334 8.73871 7.35902 8.71368 7.38031 8.68563L7.60313 8.44938C7.65 8.38875 7.6775 8.31438 7.725 8.25344C7.75188 8.21969 7.80625 8.19281 7.84688 8.17219C7.96875 8.10469 8.08313 8.03031 8.1575 7.91594C8.17094 7.9025 8.19125 7.88907 8.21156 7.87532C8.23188 7.86157 8.27219 7.86188 8.27906 7.84157C8.28594 7.82813 8.26563 7.79469 8.25219 7.77407C8.27906 7.76063 8.30625 7.73344 8.36031 7.70656C8.34 7.74719 8.33344 7.77407 8.31969 7.80094L8.35344 7.83469C8.41406 7.78782 8.50875 7.73344 8.56906 7.69282C8.56906 7.68594 8.53531 7.65907 8.53531 7.65907L8.37281 7.74031C8.38625 7.72 8.38625 7.70657 8.39313 7.69969L8.68375 7.53094L9.39313 7.21375C9.43375 7.19344 9.4875 7.20688 9.535 7.20688C9.55531 7.20688 9.56875 7.20688 9.58906 7.2L9.91313 7.10563C9.96148 7.09227 10.0114 7.08544 10.0616 7.08532L10.0572 7.08875ZM9.79375 7.19L9.59781 7.2775C9.59781 7.28438 9.56406 7.33813 9.57094 7.33813C9.60469 7.33125 9.67906 7.2775 9.71938 7.27063C9.73969 7.27063 9.76625 7.2775 9.78688 7.28407C9.78688 7.25719 9.78688 7.23031 9.79375 7.19ZM14.675 8.33782C14.7425 8.42532 14.8169 8.50656 14.8641 8.59406C15.0194 8.8775 15.2219 9.12063 15.4109 9.37719L15.8703 10.0725L16.4109 10.9031L16.8297 11.5244L17.2281 12.0578L17.5794 12.5234L17.9844 13.0838L18.2 13.3672C18.2406 13.4213 18.3013 13.4616 18.3419 13.4953C18.335 13.4953 18.3284 13.4953 18.315 13.4884L18.3619 13.5491C18.4363 13.5897 18.4431 13.6303 18.4025 13.6909C18.3956 13.7044 18.3822 13.7178 18.3756 13.7316C18.3688 13.7181 18.3688 13.6978 18.3622 13.6709C18.3216 13.7791 18.2341 13.725 18.1731 13.725L16.0125 13.7384C15.8978 13.7384 15.7763 13.7653 15.6613 13.7722L14.8306 13.7991C14.8103 13.7991 14.79 13.7653 14.7563 13.7384C14.7494 13.7519 14.7359 13.7722 14.7156 13.7991C14.7088 13.7856 14.6953 13.7722 14.6819 13.7522L14.6616 13.8063H14.6413C14.6278 13.7119 14.6006 13.6241 14.6006 13.5294L14.6275 12.9216C14.6344 12.8272 14.6275 12.7394 14.6275 12.6516L14.7019 12.7056C14.7139 12.6823 14.7275 12.6597 14.7425 12.6381C14.7425 12.6381 14.7291 12.6313 14.7156 12.6178C14.7291 12.6109 14.7425 12.5975 14.7425 12.5909C14.7494 12.5706 14.7628 12.5503 14.7628 12.5369C14.7628 12.49 14.7494 12.4494 14.7425 12.4088C14.7494 12.4088 14.7559 12.4088 14.7628 12.4019L14.8034 12.6044H14.8238C14.7969 12.5575 14.8844 12.5169 14.8103 12.4625C14.8034 12.4556 14.8172 12.4156 14.8172 12.395C14.7969 12.3544 14.7834 12.3138 14.7631 12.26C14.77 12.2531 14.79 12.2466 14.81 12.2397C14.7831 12.2263 14.7631 12.2128 14.7425 12.2059C14.81 12.1453 14.81 12.1116 14.7494 12.0434C14.7628 12.0366 14.7763 12.0366 14.7763 12.03C14.7763 11.9694 14.7763 11.9081 14.7628 11.8478C14.7494 11.7803 14.7831 11.6994 14.6816 11.6588C14.6884 11.6791 14.695 11.6925 14.7084 11.7128C14.7084 11.7128 14.6881 11.7197 14.6678 11.7331C14.5803 11.6519 14.6341 11.5441 14.6138 11.4225C14.6527 11.4339 14.691 11.4475 14.7284 11.4631C14.715 11.4163 14.6816 11.3619 14.6609 11.3006H14.6341V10.8563C14.6341 10.8631 14.6809 10.8631 14.7084 10.8697C14.7084 10.8628 14.7153 10.8563 14.7153 10.8494C14.695 10.8225 14.6684 10.7953 14.6409 10.7619L14.6544 10.7484C14.6003 10.6809 14.6275 10.5859 14.6275 10.5663V10.0938C14.695 10.1613 14.5938 10.2491 14.695 10.2897C14.7019 10.2966 14.7019 10.2966 14.7084 10.2897C14.7016 10.2897 14.7016 10.2897 14.695 10.2828V10.2222H14.6881L14.6747 9.91844H14.6613C14.6544 9.93188 14.6544 9.93875 14.6478 9.95219H14.6344L14.675 8.33782ZM14.6313 10.3125C14.665 10.3259 14.6988 10.3328 14.6988 10.3463V10.2994C14.6784 10.3063 14.6581 10.3059 14.6313 10.3125ZM3.30219 8.89469L3.07344 9.17813C3.08688 9.185 3.10656 9.23219 3.12031 9.24563L3.37031 8.92157C3.36344 8.91469 3.30906 8.90125 3.30219 8.89469ZM2.84969 9.22594C2.80906 9.28657 2.70844 9.39469 2.66844 9.45563C2.67531 9.4625 2.74875 9.42875 2.75594 9.43532L2.87781 9.24625C2.86438 9.23938 2.85688 9.23282 2.84969 9.22594ZM2.99156 9.32719L2.87063 9.41469C2.88406 9.42813 2.88313 9.435 2.88313 9.44844C2.82906 9.44157 2.80875 9.46875 2.78188 9.54282C2.775 9.56313 2.74219 9.56969 2.70813 9.59688C2.70125 9.61031 2.69406 9.64375 2.68 9.67813L2.68688 9.685C2.67344 9.69844 2.65313 9.70531 2.65313 9.70531C2.6125 9.74594 2.56563 9.77969 2.525 9.82C2.51813 9.84032 2.51156 9.86063 2.51156 9.88063L2.70125 9.69157L2.70813 9.69844L2.78188 9.57657C2.78875 9.58344 2.78875 9.59 2.79531 9.59688L2.73531 9.76563C2.72188 9.7725 2.70156 9.78594 2.70156 9.77907C2.67469 9.79938 2.65375 9.82594 2.62656 9.84657L2.50563 9.92782L2.29625 10.1034L2.14719 10.3331C2.22844 10.3128 2.24844 10.3466 2.24156 10.4144C2.33594 10.4278 2.34344 10.3538 2.37063 10.2997C2.3775 10.2863 2.38406 10.2591 2.3975 10.2528C2.45813 10.1988 2.525 10.1516 2.5925 10.0975C2.60594 10.0841 2.60656 10.0569 2.60656 10.0369C2.60656 10.03 2.57531 10.03 2.55188 10.0234L2.76125 9.76719C2.795 9.74688 2.82875 9.72031 2.82875 9.69969C2.82188 9.63906 2.85688 9.61219 2.89906 9.59157C2.86781 9.74 2.77719 9.86157 2.68719 9.88844C2.71406 9.90188 2.74125 9.91531 2.76156 9.90875C2.78188 9.90219 2.79281 9.86813 2.80938 9.84813L2.99063 9.58469L3.05125 9.48344L3.02438 9.45656L2.94406 9.59157L2.92031 9.58469V9.57782C2.89344 9.5575 2.88656 9.53719 2.88656 9.53094C2.89344 9.51063 2.90688 9.49031 2.92031 9.47031C2.93375 9.47031 2.95406 9.46344 2.95406 9.46344C2.98094 9.41657 2.98219 9.38219 3.00875 9.34157C3.00188 9.33469 2.99469 9.33469 2.98781 9.32813L2.99156 9.32719ZM13.7063 11.525C13.6928 12.2947 13.7806 13.0509 13.8819 13.8141L11.5591 13.8953C11.8628 13.7672 12.1128 13.5847 12.3422 13.3753C12.3759 13.3416 12.4097 13.3078 12.4503 13.2809C12.7338 13.1053 12.9431 12.8622 13.1322 12.5922C13.3478 12.2816 13.49 11.9306 13.6656 11.5997L13.7063 11.525ZM14.6516 11.5856C14.6623 11.6074 14.6713 11.63 14.6784 11.6531C14.7122 11.6463 14.7253 11.6463 14.7391 11.6397C14.7391 11.6328 14.7391 11.6263 14.7459 11.6194C14.7256 11.6125 14.6991 11.5991 14.6516 11.5856ZM14.6719 11.6531H14.665C14.6719 11.6531 14.6784 11.66 14.6784 11.66L14.6719 11.6531ZM0.891876 11.6734C0.878439 11.6734 0.837814 11.6938 0.831251 11.7003L0.919689 11.9097C0.926564 11.9028 0.966564 11.8828 0.972814 11.8828L0.891876 11.6734ZM0.702814 11.9503C0.682501 11.9841 0.662189 12.0178 0.669064 12.0447C0.669064 12.065 0.702814 12.0853 0.723126 12.1053C0.723126 12.0984 0.730001 12.0919 0.736564 12.085L0.702814 11.9503ZM18.7497 11.9572C18.7497 11.9706 18.7566 11.9909 18.7497 12.0041V11.9572ZM1.05406 12.1056C1.0324 12.1117 1.01168 12.1207 0.992501 12.1325L1.155 12.4838C1.16188 12.4838 1.21563 12.4569 1.21563 12.4569C1.16156 12.3422 1.12906 12.2138 1.05406 12.1056ZM0.919064 12.3756C0.919064 12.4025 0.885314 12.3959 0.885314 12.4225C0.844689 12.4225 0.810939 12.4156 0.777189 12.4156C0.770314 12.4225 0.796876 12.4625 0.803439 12.4697H0.945939C0.945939 12.4359 0.938439 12.4091 0.938439 12.3753L0.919064 12.3756ZM7.12938 12.6391L7.35906 12.9703L7.35219 12.9772C7.33875 12.9703 7.31844 12.9638 7.30531 12.9503L7.14281 12.7072C7.12938 12.6869 7.1225 12.6659 7.12938 12.6391ZM14.6647 13.0038L14.6513 13.2063C14.6513 13.2197 14.6647 13.2469 14.6716 13.2469C14.685 13.2538 14.7122 13.24 14.7256 13.2334C14.7325 13.2266 14.7391 13.2131 14.7391 13.2066C14.7188 13.1931 14.6984 13.1863 14.6784 13.1728C14.8066 13.1053 14.6781 13.0713 14.6647 13.0038ZM2.90438 16.825L3.12625 17.075C3.14656 17.0681 3.16688 17.0681 3.18688 17.0616C3.20719 17.0953 3.21813 17.1359 3.24156 17.1763C3.14719 17.1694 3.09938 17.1294 3.12625 17.075C3.08563 17.0547 3.03844 17.0413 3.01781 17.0144L2.88281 16.8456L2.90438 16.825ZM16.0491 18.0944L15.9209 18.1281L15.8803 18.2025C15.8872 18.2025 15.8938 18.2094 15.9006 18.2159C15.9413 18.1753 15.9881 18.1419 16.0491 18.0944ZM15.7047 18.2834L15.475 18.4253C15.4819 18.4322 15.4819 18.4388 15.4884 18.4456C15.5828 18.4253 15.6572 18.3781 15.7316 18.3238C15.7247 18.3103 15.7113 18.2972 15.7047 18.2834ZM12.3963 19.5663C12.0856 19.6538 11.9844 19.6675 11.9506 19.6203L12.3963 19.5663ZM11.9369 19.6269C11.9438 19.6403 11.9438 19.6538 11.9503 19.6675C11.9097 19.6675 11.8828 19.6809 11.8491 19.6878L11.5584 19.7347C11.5247 19.7416 11.4841 19.7753 11.4709 19.7144C11.4575 19.7213 11.4441 19.7213 11.4303 19.7278C11.4641 19.8291 11.545 19.7481 11.6125 19.7884L11.1803 19.8425V19.8291L11.3084 19.8088V19.7884L11.1059 19.775C11.0856 19.775 11.0591 19.8019 11.0384 19.8088C11.0116 19.8156 10.9844 19.8222 10.9509 19.8222L10.6134 19.8356C10.6066 19.8356 10.5931 19.8288 10.5866 19.8288V19.8125L11.9366 19.6303L11.9369 19.6269ZM10.5256 19.8025V19.8228C10.3975 19.8431 10.2756 19.8566 10.1506 19.8634V19.8431L10.5256 19.8025Z" fill="#EEEEEE"/>
</g>
<defs>
<clipPath id="clip0_310_35">
<rect width="20" height="20" fill="white"/>
</clipPath>
</defs>
</svg>
