<svg xmlns="http://www.w3.org/2000/svg" width="20" height="20" fill="none" xmlns:v="https://vecta.io/nano"><path d="M18.186 11.811c-.183-.212-.495-.154-.737-.106-.581.104-1.213.224-1.775-.018 1.005-1.585 1.795-3.316 2.237-5.143.161-.694.285-1.405.261-2.119-.017-.4-.073-.826-.318-1.158-.605-.798-1.482-1.379-2.45-1.639-1.208-.328-2.504-.23-3.692.137-.098.02-.195-.024-.291-.037-1.078-.219-2.267-.133-3.202.492-1.123-.404-2.329-.648-3.524-.523-.889.092-1.781.505-2.291 1.262-.645.944-.732 2.15-.63 3.257.207 1.469.566 2.916 1.021 4.327.3.88.631 1.766 1.165 2.534.271.377.632.757 1.117.817.431.053.822-.215 1.086-.532l1.415-1.604c.319.156.665.246 1.018.273-.191.227-.349.524-.654.613-.411.159-.892.137-1.254.411-.209.149-.219.475-.031.646.339.329.839.4 1.29.438.639.049 1.286-.166 1.771-.585l.116 3.048c.057.592.313 1.182.763 1.581.425.37 1.03.447 1.568.354.529-.101 1.072-.259 1.485-.62.439-.387.626-.972.713-1.533l.392-3.025c1.13.191 2.409-.026 3.254-.851.181-.17.352-.464.174-.695zm-2.508-9.56c.678.258 1.281.705 1.734 1.271.216.271.243.634.257.966.01.793-.15 1.575-.354 2.337a16.66 16.66 0 0 1-1.724 4.022 3.35 3.35 0 0 1-.242.357l-.027-.139c.092-.242.227-.471.28-.729.186-.726.029-1.474-.038-2.205-.07-.69.165-1.361.159-2.049.027-.337-.107-.655-.236-.958-.469-1.048-1.214-1.98-2.171-2.62-.233-.16-.494-.272-.726-.433 1.017-.218 2.107-.191 3.087.178l.001.001zm-.62 5.883c.059.816.297 1.693-.088 2.467-.516-1.027-1.183-2.007-1.415-3.15-.066-.364-.082-.824.241-1.077.41-.291.946-.226 1.42-.197-.021.655-.223 1.297-.157 1.956zm-9.224 4.836c-.185.218-.435.478-.751.413-.369-.107-.604-.444-.809-.746-.556-.889-.89-1.892-1.197-2.889-.344-1.179-.633-2.377-.8-3.595-.083-.927-.031-1.921.443-2.746.355-.625 1.017-1.024 1.713-1.154 1.114-.214 2.257.013 3.326.339-.472.518-.839 1.129-1.053 1.797-.292.892-.425 1.842-.355 2.78.04.661.023 1.325-.069 1.98-.116.856.228 1.736.863 2.314L5.833 12.97l.001-.001zm.976-3.066c-.109-.485.034-.972.05-1.458.037-.549-.002-1.1-.012-1.649.514-.332 1.114-.592 1.737-.556.322.014.62.242.697.559.283 1.126.37 2.379-.171 3.445a10.09 10.09 0 0 0-.474 1.27c-.901.009-1.667-.753-1.826-1.61zm2.803 3.013c-.566.766-1.697.912-2.515.495.403-.187.875-.172 1.264-.402.377-.203.526-.649.878-.878.383-.054.663.515.373.784l-.001.001zm4.85-.895c-.215.346-.139.768-.192 1.152l-.42 3.225c-.083.513-.301 1.058-.785 1.313-.496.252-1.072.411-1.63.325-.53-.093-.864-.587-1.014-1.068-.11-.403-.121-.825-.152-1.24l-.028-3.01c.022-.392-.179-.8-.529-.99-.169-.095-.367-.108-.556-.123.149-.737.598-1.373.751-2.11.2-.911.089-1.859-.115-2.758-.1-.449-.441-.846-.896-.955-.7-.176-1.405.098-2.031.39.079-1.017.351-2.058.974-2.883a2.89 2.89 0 0 1 1.927-1.123 4.83 4.83 0 0 1 3.56.968c.821.649 1.471 1.529 1.821 2.518-.582-.021-1.241-.044-1.711.36-.427.36-.482.973-.386 1.488.223 1.226.946 2.267 1.479 3.369.142.258.332.484.514.716-.216.109-.457.213-.579.435l-.002-.001zm1.497.867c-.384.046-.783.059-1.154-.068.002-.21-.01-.458.159-.614.133-.098.323-.189.477-.082.655.345 1.418.177 2.115.092-.426.415-1.016.608-1.597.671zm-2.013-6.361c-.136.112.011.28.128.332.284.167.674-.066.683-.391-.257-.12-.578-.107-.811.059zm-5.032.518c.121-.069.249-.257.109-.37-.2-.162-.49-.194-.733-.128-.079.027-.161.081-.145.177.056.326.494.524.769.322z" fill="#336791"/></svg>