<svg xmlns="http://www.w3.org/2000/svg" width="20" height="20" fill="none" xmlns:v="https://vecta.io/nano"><g clip-path="url(#A)"><path d="M9.79.019h-.101a5.74 5.74 0 0 0-.588.054l-.56.081-.669.068-.634.101c-.074.013-.148.041-.223.054-.162.034-.331.047-.493.101l-.864.297-.769.358c-.256.142-.5.311-.743.472l-.682.493c-.216.169-.419.358-.614.547-.108.108-.196.236-.297.358l-.5.587-.385.52c-.23.311-.425.642-.608.972l-.209.405-.304.608c-.068.145-.123.297-.163.452l-.276 1c-.081.297-.101.608-.108.912-.007.27.02.533.047.803.007.068-.034.148.047.203.007 0 0 .027-.007.034-.02.041 0 .081.041.094l-.026.013c-.02.061.047.108.02.176-.007.013.02.041.034.061 0 .02-.007.047 0 .068.007.061.034.122.034.189 0 .047.041.101.055.148.007.02 0 .054-.014.068-.041.047-.034.087.027.115.013.007.034.034.034.047 0 .041-.013.081-.02.122.013.013.02.027.012.041 0 .02-.02.041-.012.054.054.108.074.23.08.351 0 .027.014.054.028.087.007 0 .026 0 .04.007l-.04.122c.034-.02.061-.027.094-.041l.068.243c.007.014.02.027.041.041-.007.013-.007.041-.021.047.027.122.041.236.088.351.007 0 .013-.007.02-.007l-.053-.371v-.041s.012-.007.02-.007c.007.027.02.061.02.081.054 0 .136.034.19.034l.02-.061c-.041-.041-.074-.101-.114-.142.013.054 0 .074 0 .094-.027-.013-.062-.027-.095-.041l.095-.108c0-.061-.031-.115-.129-.108l.129-.047.02.054c.054-.094-.026-.169-.026-.264.007-.115-.062-.23-.081-.351-.034-.189-.026-.473-.047-.662 0-.013-.02-.027-.034-.041-.007.007-.041.094-.048.101l.054.486-.101-.446c-.007.047-.013.068-.013.094-.02-.007-.027-.013-.061-.027l.074.148c-.047-.02-.101-.013-.101-.013v.189c-.067-.068-.087-.122-.122-.169l-.034-.162.02-.007c-.007-.027-.02-.047-.02-.067l-.02-.163c.007-.007.033-.013.047-.027l-.053-.081.121.013c0-.013.007-.02 0-.027-.067-.061-.02-.115.007-.169.013-.027.062-.034.075-.061.054-.101.142-.182.142-.311 0-.061.02-.128.027-.189l.034-.344c.013-.148 0-.297.034-.439l.195-.709.183-.5.32-.774.594-1.073.406-.648.426-.621c.216-.277.452-.533.719-.763l.816-.719c.375-.291.777-.547 1.201-.77a9.08 9.08 0 0 1 1.057-.456c.23-.088.479-.128.719-.203a2.86 2.86 0 0 1 .824-.135L8.646.83l.5-.047c-.02.027-.027.041-.034.054l-.23.324-.189.27-.328.431-.459.675-.506.628-.655.878-.614.817-.5.749-.749 1.107-.594.844c-.013.02-.031.027-.055.041-.013.013-.04.027-.04.041-.013.047-.013.094-.034.135l-.169.297c-.034.054-.081.101-.122.155-.013-.007-.02-.013-.034-.013.027-.067.143-.108.088-.209l-.101.155-.081.162c.026.02.07.034.032.074-.007-.02-.029-.027-.045-.041l-.163.243c.041.034.062.02.088-.027.022-.041.052-.074.081-.115-.009.02-.018.034-.028.047l.075-.068c.007 0 .012.007.02.007-.02.067-.061.128-.094.189-.027.054-.094.094-.142.135.007.007.054.027.061.034.02-.027.027-.013.047-.041.013.02.031-.013.041.007.02-.027.04-.047.047-.067.027-.068.067-.122.135-.148.027-.013.047-.034.067-.054l.595-.634.809-1.053.371-.439c.013.007.027.007.034.013l-.034.432-.054.756-.007.304c0 .027-.02.047-.02.074 0 .067.02.142.02.209l-.067.743c-.007.054.02.108.034.155a.18.18 0 0 0-.034-.027c0 .392.074.777.013 1.161.027-.007.041-.013.041-.027.007-.047.02-.094.02-.142.007-.041 0-.081 0-.128v-.067c.007-.122.034-.25.02-.371a1.27 1.27 0 0 1 .013-.392c.013-.054-.007-.122.027-.189v.101l-.047 1.155c-.007.034.02.094-.054.087-.007 0-.013.034-.027.054-.034.068.041.155-.027.223-.013.013.013.074.02.115 0 .013.007.027 0 .034-.027.047-.027.047.013.054l.027.425h.02c.088-.256.034-.52.081-.783l.007.331-.013.52c0 .034-.007.068-.013.101-.02.094-.027.189-.061.277-.027.068-.013.169-.013.25v.256c0 .007.02.027.02.054.007.061-.027.122-.007.189.007.013-.007.034-.013.047-.007.02-.013.041-.007.061l.02.101c0 .007.007.013.013.027.007-.027.007-.047.007-.054.115.013.054.115.108.169-.027.014-.047.02-.047.027.007.027.02.047.02.074 0 .061-.007.115-.013.176l-.007.459c0 .02.007.041.007.061 0 .013-.007.027-.007.047v.142h.027c-.013.02-.027.041-.047.061-.007 0-.027 0-.027-.007v-.851h-.101c-.013.405.02.77-.054 1.148-.081.007-.108.02-.196.02l-.627.007-.743.007-.371.013c-.163 0-.331-.02-.494-.02l-.743.027-.546.013-.366.027c-.054.007-.101.027-.169.047-.02 0-.067-.007-.108 0-.067.014-.129.054-.197.068-.101.02-.127.047-.114.148v.068a.16.16 0 0 0-.048-.034c-.006.027.008.041.014.061.027-.014.06-.047.088-.047h.094c-.013 0-.02.041-.04.074l.121-.047c.005.018.008.036.008.054.094-.007.181-.034.262-.014.263.068.533.094.803.122l.521.027.749.027.621-.02.871.02.197-.007h.492l1.317-.034.756-.027.77-.02.884-.013.662-.013.756-.041.898-.074.736-.034.918-.054.857-.013.756-.027.851-.041.729-.047.466-.007.756-.02c.094 0 .196.014.317.02l-.128.108a.44.44 0 0 1 .081.034c0 .007-.007.013-.007.027-.034 0-.067.007-.101.007-.014.034-.027.047-.041.115h.122c-.047 0-.088.061-.135.101.007.007.013.007.02.014-.074-.027-.122-.014-.148.061.02.007.034.007.054.007l-.02.067c-.007.013-.013.027-.013.047l-.02-.02c0-.013 0-.027-.007-.041-.041.041-.101.067-.068.155l-.094.047c.007.013.02.027.027.047-.061.007-.122.02-.108.094.027.007.054.02.074.027-.034.013-.067.034-.101.047-.007.013-.013.047-.027.054-.094.02-.041.054-.013.088-.02.013-.041.027-.061.034.02.007.034.013.047.027-.015.01-.031.019-.047.027.013.007.034.02.041.02-.02.013-.041.034-.067.054 0-.007.007-.013.007-.02h-.027c0 .013 0 .027.007.034-.007.007-.014.007-.02.013 0 .013 0 .02.007.034-.03.028-.057.06-.081.094-.027.041-.041.094-.074.135-.142.155-.243.338-.425.459-.067.047-.128.108-.189.169l-.358.351-.527.398-.669.459c-.122.081-.256.142-.385.216l-.375.216c-.081.054-.155.128-.243.169l-.689.263-.054.02-.5.216a3.84 3.84 0 0 1-.479.128c-.054.013-.115 0-.176.007l-.344.061-.891.108-.52.074c-.122.007-.25-.007-.371-.007-.088 0-.182.02-.27.007l-.425-.081c-.034-.007-.081-.02-.108-.007-.054.027-.101-.014-.155 0-.034.007-.067-.02-.101-.02-.027-.007-.061.007-.094 0-.074-.02-.142-.047-.223-.041s-.162-.034-.25-.054l-.358-.081c-.047-.013-.088-.034-.135-.061-.013.007-.034.02-.061.02-.115-.02-.23-.027-.338-.068-.094-.034-.182-.081-.283-.067-.027.007-.047-.007-.074-.007-.02-.027-.041-.081-.061-.081-.135.007-.216-.108-.331-.142-.061-.02-.108-.087-.169-.108-.148-.061-.27-.189-.439-.209-.054-.007-.108-.034-.169-.054l.054.067-.013.013-.547-.317c-.027-.007-.047-.034-.067-.047l-.181-.122c-.02-.014-.062-.034-.062-.027-.041.047-.08.007-.107-.007-.182-.128-.392-.209-.568-.351-.074-.061-.161-.101-.216-.176-.094-.115-.209-.196-.338-.263-.101-.054-.197-.115-.291-.176-.047-.034-.094-.074-.094-.148 0-.047-.02-.094-.08-.068-.027-.041-.055-.087-.088-.101-.081-.034-.135-.094-.196-.148s-.108-.128-.182-.155c-.135-.054-.216-.169-.297-.263-.189-.223-.358-.466-.533-.702-.013-.02-.04-.034-.06-.054l-.007.007.101.196c-.007.007-.02.013-.026.02l-.128-.142c-.007.007-.014.013-.021.013l.487.77.114.182c-.007.007-.013.013-.027.02-.037-.008-.071-.023-.102-.045s-.056-.05-.074-.083c-.061-.108-.128-.176-.263-.162-.013-.047-.027-.101-.034-.149-.027 0-.047 0-.094-.007l.263.425-.067-.041c.122.128.209.291.365.371.034.155.209.23.25.375l-.094-.02-.176-.209c.013.047.034.087.061.122.081.101.156.203.251.291.034.034.08.047.08.108.013-.013.028-.02.055-.034l-.027.061c.027 0 .047.007.067.007.013.041-.007.101.074.087.007 0 .014.007.021.013.034.087.087.087.161.054.013-.007.047 0 .054.013.034.074.081.081.142.027 0 .034.007.067.007.094h.027c0-.014-.007-.034-.007-.068l.067.054c.067.094.129.182.223.256l.364.324c.236.196.5.358.763.506l.965.554c.398.209.824.351 1.262.453l.479.108.425.135.655.128.148.02v.013c.061 0 .135-.027.148-.007.034.054.061.027.101.02.047-.014.101-.014.155-.014.189.007.371.047.56.034.041 0 .101-.034.135.034.013-.007.02-.013.034-.02.027-.007.061-.007.087-.013v.013c-.013.007-.027.007-.054.014.034.007.054.013.074.02-.013.013-.02.013-.034.02s-.034.013-.061.034a1.52 1.52 0 0 0 .675 0v-.041h.027c0 .014.007.027.013.041.311.027.614-.013.905-.115.027.034.047.081.088.013.013-.02.047-.027.074-.034.061-.013.135-.041.189-.02.061.02.081-.034.128-.034.077 0 .154-.007.23-.02.041-.007.081-.027.128-.041 0-.007 0-.013-.007-.02l-.142-.013.23-.108c-.013.02-.027.047-.054.047h.094c-.02 0-.047.061-.081.101l.682-.169v-.014c-.027.007-.047.007-.068.014-.007-.142.149-.094.203-.176l-.203.054v-.013l.695-.304c-.034.04-.074.06-.135.095.041.007.068.007.088.013 0 .02 0 .034-.007.041.115-.007.088-.108.122-.169.02.007.047.02.068.013.061-.013.115-.034.176-.054l.203-.067c.108-.047.209-.108.317-.163.02-.007.054 0 .081 0 .02 0 .034-.014.047-.027.027-.02.054-.061.074-.054.094.014.162-.02.189-.108.02-.007.02-.007.02-.014.027.061.081.067.169.007a1.13 1.13 0 0 1-.155-.013l-.007.007c.027-.027.061-.047.088-.067l.439-.243c.007-.007.02 0 .034 0 .02 0 .047 0 .061-.007a2.97 2.97 0 0 0 .25-.135c-.02-.007 0-.013-.067-.02v-.014c.067-.013.087-.02.128-.034l-.013-.004c.176-.176.398-.304.567-.453.034.007.047.013.067.013.007-.02.007-.041.007-.054.027-.034.054-.074.087-.101l.446-.391.56-.608.459-.588.52-.891.348-.648c.013-.02.041-.047.061-.047l.541-.054c.041-.007.088-.034.128-.054-.02-.034-.034-.074-.054-.108-.027-.041-.067-.074-.094-.115-.027-.034-.047-.074-.067-.115l-.061-.094-.115-.23c-.007-.02-.02-.054-.013-.074.122-.263.169-.547.283-.81.115-.27.148-.574.203-.864l.108-.831.054-.581c.041-.311.027-.601.02-.891l-.034-.777-.047-.79-.176-1.073c-.061-.291-.162-.567-.263-.844l-.419-.969c-.263-.5-.608-.945-.925-1.411-.209-.297-.479-.541-.682-.844-.115-.176-.283-.324-.453-.459-.27-.216-.554-.412-.837-.601l-.662-.419c-.182-.101-.375-.182-.567-.27-.216-.101-.425-.223-.669-.27-.061-.013-.115-.034-.176-.054l-.459-.163-.709-.223c-.236-.057-.479-.097-.722-.132L11.377.1l-.52-.047-.777-.02L9.79.018v.002zm.479.785l.25.034.324.02.729.068.614.101c.446.074.884.196 1.31.337.25.081.493.189.736.291.547.223 1.067.493 1.58.777.163.088.256.23.375.358l.52.554.574.681.513.608c.054.061.094.135.142.202l.324.491c.067.128.108.277.155.419l.202.621.122.479c.027.108.02.223.054.331.041.142 0 .297.041.439.007.013.013.034.02.047.027.027.047.054.007.094-.007.007-.007.034 0 .054.013-.013.02-.027.034-.047 0 .013.007.02.007.027 0 .027-.007.054 0 .081 0 .013.013.034.02.047.014-.013.027-.02.054-.041.061.23.067.459.067.695 0 .223.041.446-.054.662.02-.074-.027-.142-.007-.209-.007 0-.047-.041-.054-.047-.007.02 0 .041-.014.068-.007-.02-.054-.013-.054-.034-.007.094.041.189.034.283.02-.013.101-.02.122-.041.007.007.02.013.027.013-.135.101-.101.202-.041.317.013.027.054.081.013.135-.013.013.007.054.013.087h.02v.013l-.061.02c-.013-.02-.094-.061-.094-.094v.346c.067.02.067.115.094.162a.2.2 0 0 0 .027-.054l.007.007c-.007.041-.014.081-.027.122l-.034.176c0 .007.014.02.014.027-.074.169-.034.358-.061.534-.02.128 0 .263-.014.398-.013.115-.041.236-.067.351-.007.02-.02.027-.054.041a.54.54 0 0 0-.007-.209c-.007 0-.094-.047-.101-.047 0 .094.054.223.074.331-.02-.007-.101-.054-.108-.054-.013.081-.013.189-.02.277-.007.068-.067.128-.074.203 0 .041.047.068.041.135h.054c0-.135.061-.256.061-.398h.02c.007.013.027.027.02.034-.013.074-.041.155-.034.23 0 .041.034.081.02.128-.013.041-.02.081-.027.142-.007-.034-.013-.047-.013-.067-.007 0-.068-.007-.074-.007-.007.041.047.081.041.115-.007.007-.013.007-.027.014l-.223-.324-.527-.777a1.74 1.74 0 0 1-.122-.203 9.55 9.55 0 0 0-.695-1.033c-.196-.25-.351-.52-.533-.783l-.506-.743c-.061-.081-.135-.155-.189-.243l-.506-.837-.466-.675-.162-.236c-.007-.013-.014-.027-.014-.047l-.034-.439.013-.412v-.122c0-.034.007-.061.007-.094.007-.007.013-.02.02-.027-.196 0-.398-.007-.594 0-.128.007-.196-.047-.284-.142-.256-.288-.446-.619-.669-.93l-.642-.878-.527-.702-.588-.81-.748-.974-.371-.445zm-.644.353c.02 0 .041.01.054.032l.945 1.202.459.648.52.756.756 1.134.56.822h-.344l-.959-.02-1.303.101c-.547.047-1.101.054-1.648.054-.196 0-.392.027-.588.041l-.702.034-.824.027h-.486l.655-.896.189-.27c.02-.027.047-.041.081-.067l-.007-.013c.027-.034.054-.061.067-.087.034-.054.054-.115.081-.176.007-.013.027-.027.027-.027.094.047.094-.054.128-.087l.176-.209c.041-.054.081-.101.115-.163.007-.02-.013-.054-.02-.081h-.02c.02-.013.041-.034.061-.047l.135-.182c.081-.108.169-.216.263-.311l-.041.094.263-.31c-.007-.007-.013-.013-.02-.013l-.094.101c-.007-.007-.013-.013-.02-.013l.202-.277a1.06 1.06 0 0 1 .054.101l.074-.163c-.02.02-.047.041-.068.061l-.02-.02.122-.182.385-.554c.047-.067.108-.122.148-.189.128-.256.331-.459.486-.695.034-.047.081-.088.122-.128.013-.016.027-.023.034-.025h-.001zM7.734 3.789l-.115.074a.72.72 0 0 0 .007.115l.122-.176-.014-.014zm5.699 2.78c.061 0 .094.02.128.074l.189.304c.007.013.02.034.02.054l.007.452.027.459-.007.479.013.702v.061c-.007 0-.013.007-.027.007l-.088-.291c-.068-.196-.142-.392-.264-.567l-.391-.581c-.034-.047-.081-.088-.122-.128-.142-.155-.283-.317-.466-.432-.268-.168-.551-.313-.844-.432-.081-.034-.155-.074-.236-.122h.163l1.155-.02.742-.02zm-5.071.176l.148.007a2.34 2.34 0 0 0-.311.176c-.122.081-.236.189-.358.277a2.07 2.07 0 0 0-.331.311c-.128.155-.27.291-.405.439l-.283.324c-.115.148-.216.311-.324.479l.047-1.924.932-.047.885-.041zm1.695.344l.608.02c.088.007.169.027.25.054a2.41 2.41 0 0 1 .304.128c.114.061.225.129.331.203l.574.385c.189.115.338.27.459.446.149.209.317.398.385.655l.101.446c.02.081.068.163.047.256l-.088.513c-.014.068-.027.135-.02.203.014.209-.068.392-.148.581-.027.061-.067.122-.101.189.016.012.035.021.054.027l.061-.122-.081.298-.263.628c-.054.115-.149.209-.216.317l-.189.283c-.061.074-.122.149-.202.202l-.567.375c-.122.074-.263.115-.398.149l-.662.142c-.189.027-.385.02-.581.02l-.52-.02c-.196-.02-.392-.041-.581-.128l-.493-.223c-.163-.081-.324-.176-.446-.324-.087-.108-.209-.196-.317-.291a.32.32 0 0 0 .142.196c-.034.041-.081.02-.148-.088-.02.013-.041.02-.054.027l.061-.135-.087-.168-.155-.27c-.013-.02-.013-.041-.027-.061l-.094-.122c-.054-.081-.101-.169-.169-.25 0 .02.007.041.007.067l-.155-.337.108.452c-.007 0-.013.007-.02.007-.02-.027-.041-.054-.054-.088-.013-.054-.054-.054-.088-.034-.02.013-.034.061-.027.081l.155.344c.013.041.027.074.047.115.007.014.027.027.027.047.027.054.047.108.081.155l.189.243.169.25c.007.014.027.014.034.02.034.101.148.176.23.135.02.155.189.209.256.358l-.196-.088c-.007.007-.007.013-.013.027l.236.128.196.128a.62.62 0 0 0 .291.142c-.007-.02-.013-.027-.013-.027l.533.256-2.228.041-.007-.375c0-.054.013-.101.007-.155l-.061-.925c-.041-.324-.041-.642-.034-.969.007-.176-.007-.358-.013-.533l.007-.702c0-.034.013-.061.027-.094h.02c.007.013 0 .034.013.041.02.02.054.054.067.047.041-.027.101-.054.115-.094.034-.081.047-.169.047-.25 0-.061.027-.101.054-.142.013-.02.02-.041.034-.068l-.088-.061c.027-.074.02-.162.122-.202.013-.007.013-.041.02-.061l.02-.169c.013.02.02.027.034.041.007-.013.013-.02.013-.02 0-.027-.007-.081 0-.081.081-.013.047-.101.088-.142.007-.007-.007-.027-.007-.041s0-.034.007-.034c.094-.02.081-.122.142-.169.02-.013.027-.034.054-.067.054.094-.041.142-.047.209.115-.068.148-.23.081-.277.028-.021.053-.046.074-.074l.223-.236c.047-.061.074-.135.122-.196.027-.034.081-.061.122-.081.122-.068.236-.142.311-.256.013-.013.034-.027.054-.041s.061-.013.067-.034c.007-.013-.013-.047-.027-.067.027-.013.054-.041.108-.068-.02.041-.027.068-.041.094l.034.034c.061-.047.155-.101.216-.142 0-.007-.034-.034-.034-.034l-.163.081c.013-.02.013-.034.02-.041l.291-.169.709-.317c.041-.02.094-.007.142-.007.02 0 .034 0 .054-.007l.324-.094a.56.56 0 0 1 .148-.02l-.004.003zm-.263.101l-.196.087c0 .007-.034.061-.027.061.034-.007.108-.061.148-.067.02 0 .047.007.068.013 0-.027 0-.054.007-.094zm4.881 1.148c.067.087.142.169.189.256.155.283.358.527.547.783l.459.695.541.831.419.621.398.533.351.466.405.56.216.283c.041.054.101.094.142.128-.007 0-.014 0-.027-.007l.047.061c.074.041.081.081.041.142-.007.014-.02.027-.027.041-.007-.014-.007-.034-.013-.061-.041.108-.128.054-.189.054l-2.161.013c-.115 0-.236.027-.351.034l-.831.027c-.02 0-.041-.034-.074-.061a.47.47 0 0 1-.041.061c-.007-.013-.02-.027-.034-.047l-.02.054h-.02c-.013-.094-.041-.182-.041-.277l.027-.608c.007-.094 0-.182 0-.27l.074.054a.6.6 0 0 1 .041-.068s-.013-.007-.027-.02c.014-.007.027-.02.027-.027.007-.02.02-.041.02-.054 0-.047-.013-.087-.02-.128.007 0 .013 0 .02-.007l.041.203h.02c-.027-.047.061-.088-.014-.142-.007-.007.007-.047.007-.068-.02-.041-.034-.081-.054-.135.007-.007.027-.013.047-.02-.027-.013-.047-.027-.068-.034.068-.061.068-.094.007-.162.013-.007.027-.007.027-.013 0-.061 0-.122-.014-.182-.013-.067.02-.148-.081-.189.007.02.013.034.027.054 0 0-.02.007-.041.02-.088-.081-.034-.189-.054-.311.039.011.077.025.115.041-.013-.047-.047-.101-.068-.163h-.027v-.444c0 .007.047.007.074.013 0-.007.007-.013.007-.02-.02-.027-.047-.054-.074-.087l.014-.014c-.054-.068-.027-.162-.027-.182v-.473c.068.068-.034.155.068.196v-.067h-.007l-.013-.304h-.013c-.007.013-.007.02-.014.034h-.013l.041-1.614zm-.044 1.975c.034.013.068.02.068.034v-.047c-.02.007-.041.006-.068.013zM3.302 8.895l-.229.283c.013.007.033.054.047.068l.25-.324c-.007-.007-.061-.02-.068-.027zm-.453.331c-.041.061-.141.169-.181.23.007.007.08-.027.087-.02l.122-.189c-.013-.007-.021-.013-.028-.02zm.142.101l-.121.088c.013.013.013.02.013.034-.054-.007-.074.02-.101.094-.007.02-.04.027-.074.054-.007.013-.014.047-.028.081l.007.007c-.013.013-.034.02-.034.02-.041.041-.087.074-.128.115-.007.02-.013.041-.013.061l.19-.189.007.007.074-.122c.007.007.007.013.013.02l-.06.169c-.013.007-.034.02-.034.013-.027.02-.048.047-.075.067l-.121.081-.209.176-.149.23c.081-.02.101.014.094.081.094.013.102-.061.129-.115.007-.013.013-.041.027-.047.061-.054.127-.101.195-.155.013-.013.014-.041.014-.061 0-.007-.031-.007-.055-.013l.209-.256c.034-.02.067-.047.067-.067-.007-.061.028-.088.07-.108-.031.148-.122.27-.212.297.027.013.054.027.074.02s.031-.041.048-.061l.181-.263.061-.101-.027-.027-.08.135-.024-.007v-.007c-.027-.02-.034-.041-.034-.047.007-.02.02-.041.034-.061.013 0 .034-.007.034-.007.027-.047.028-.081.055-.122-.007-.007-.014-.007-.021-.013l.004-.001zm10.715 2.198c-.014.77.074 1.526.176 2.289l-2.323.081c.304-.128.554-.311.783-.52.034-.034.068-.067.108-.094.284-.176.493-.419.682-.689.216-.311.358-.662.533-.992l.041-.075zm.945.061a.46.46 0 0 1 .027.068c.034-.007.047-.007.061-.013 0-.007 0-.013.007-.02-.02-.007-.047-.02-.094-.034zm.02.068h-.007.007zm-13.78.02a.17.17 0 0 0-.061.027l.088.209c.007-.007.047-.027.053-.027l-.081-.209zm-.189.277c-.02.034-.041.067-.034.094 0 .02.034.041.054.061 0-.007.007-.013.013-.02l-.034-.135zm18.047.007c0 .013.007.034 0 .047v-.047zm-17.696.148c-.022.006-.042.015-.062.027l.162.351c.007 0 .061-.027.061-.027-.054-.115-.087-.243-.162-.351zm-.135.27c0 .027-.034.02-.034.047-.041 0-.074-.007-.108-.007-.007.007.02.047.026.054h.142c0-.034-.007-.061-.007-.094H.919zm6.21.263l.23.331-.007.007c-.013-.007-.034-.013-.047-.027l-.163-.243c-.013-.02-.02-.041-.013-.068zm7.535.365l-.013.203c0 .013.013.041.02.041.013.007.041-.007.054-.014.007-.007.014-.02.014-.027-.02-.014-.041-.02-.061-.034.128-.068 0-.101-.014-.169zm-11.76 3.821l.222.25c.02-.007.041-.007.061-.013.02.034.031.074.055.115-.094-.007-.142-.047-.115-.101-.041-.02-.088-.034-.108-.061l-.135-.169.022-.021zm13.145 1.269l-.128.034-.041.074c.007 0 .014.007.02.013.041-.041.087-.074.148-.122zm-.344.189l-.23.142c.007.007.007.014.013.02.094-.02.169-.067.243-.122-.007-.013-.02-.027-.027-.04zm-3.308 1.283c-.311.088-.412.101-.446.054l.446-.054zm-.459.061c.007.013.007.027.013.041-.041 0-.068.013-.101.02l-.291.047c-.034.007-.074.041-.088-.02-.013.007-.027.007-.041.013.034.101.115.02.182.061l-.432.054v-.013l.128-.02v-.02l-.203-.013c-.02 0-.047.027-.068.034-.027.007-.054.013-.087.013l-.338.013c-.007 0-.02-.007-.027-.007v-.016l1.35-.182v-.003zm-1.411.176v.02l-.375.041v-.02l.375-.041z" fill="#dd3735"/></g><defs><clipPath id="A"><path fill="#fff" d="M0 0h20v20H0z"/></clipPath></defs></svg>