<svg xmlns="http://www.w3.org/2000/svg" width="20" height="20" fill="none" xmlns:v="https://vecta.io/nano"><g clip-path="url(#A)"><path d="M9.238 19.919c-2.085-.217-3.353-.973-3.844-2.29-.086-.232-.094-.343-.115-1.772l-.023-1.525-1.313-.023-1.313-.023-.339-.118c-3.025-1.053-3.025-7.291 0-8.36l.339-.12 3.474-.021 3.474-.021v-.212-.212L7.438 5.2l-2.14-.021V3.908c0-1.579.078-1.866.687-2.524 1.744-1.883 6.756-1.796 8.214.144.518.689.54.789.567 2.592l.023 1.525 1.313.023 1.313.023.339.118c1.432.499 2.225 1.987 2.225 4.179s-.788 3.673-2.225 4.181l-.339.12-3.474.021-3.474.021v.212.212l2.14.021 2.14.021v1.271c0 2.863-1.945 4.222-5.508 3.851zm2.119-.909c1.863-.314 2.583-1.039 2.584-2.603v-.763l-2.115-.011c-2.536-.013-2.228.137-2.228-1.091 0-1.237-.583-1.077 3.965-1.09l3.852-.011.251-.118c2.015-.944 2.015-5.727 0-6.671l-.251-.118h-1.313-1.313l-.025 1.08-.079 1.25c-.208.652-.734 1.188-1.4 1.427l-.275.098-2.987.021-2.987.021-.182.097a1.47 1.47 0 0 0-.632.638l-.118.24v2.881c0 3.26-.016 3.094.342 3.58.748 1.015 2.812 1.495 4.912 1.142zm.557-1.286c-.746-.276-.738-1.327.011-1.585.548-.189 1.102.213 1.105.802a.86.86 0 0 1-1.116.784zm-6.636-5.385l.022-1.102.111-.261c.269-.632.723-1.065 1.356-1.294l.268-.097 2.987-.021 2.987-.021.182-.097a1.47 1.47 0 0 0 .632-.637l.118-.24.012-2.771c.013-2.924.008-3.019-.184-3.432C12.895.479 7.777.299 6.445 2.107c-.303.411-.341.576-.342 1.462v.763l2.115.011c2.536.013 2.228-.138 2.228 1.091 0 1.237.583 1.077-3.965 1.09l-3.852.011-.29.137c-1.884.892-1.965 5.627-.112 6.579.386.198.459.207 1.779.198l1.25-.008.022-1.102zm2.288-8.5c-.639-.255-.746-1.123-.183-1.48.588-.373 1.291-.005 1.299.68.007.579-.593 1.009-1.117.8z" fill="#ffd845"/></g><defs><clipPath id="A"><path fill="#fff" d="M0 0h20v20H0z"/></clipPath></defs></svg>