<svg xmlns="http://www.w3.org/2000/svg" width="20" height="20" fill="none" xmlns:v="https://vecta.io/nano"><path d="M5.775 11.406c.137-.078.313-.029.391.111l.052.088 1.25 2.022c.511.752 1.087 1.514 1.729 2.285.049.058.073.133.067.209s-.042.146-.099.195l-.062.055c-2.119 1.852-3.493 2.22-4.128 1.11-.622-1.087-.397-3.06.674-5.924.023-.063.068-.116.127-.15zm9.017 2.178c.153-.026.3.072.329.225l.016.085c.524 2.738.156 4.108-1.104 4.108-1.234 0-2.799-1.169-4.707-3.503-.043-.052-.065-.118-.062-.185 0-.156.13-.283.286-.283h.101l2.341-.081c.892-.072 1.826-.192 2.8-.365zm.726-5.814c.027-.072.08-.131.15-.163s.149-.037.221-.012l.085.029c2.718.925 3.753 1.943 3.099 3.053-.638 1.087-2.493 1.878-5.57 2.373-.068.01-.14-.003-.199-.039-.14-.081-.189-.257-.104-.397l.052-.088 1.139-2.103 1.126-2.653zm-9.02-.82c.068-.01.14.003.199.039.14.081.189.257.104.397l-.052.088-1.139 2.103-1.126 2.653c-.027.072-.08.131-.15.164s-.149.037-.221.012l-.085-.029C1.309 11.452.274 10.433.928 9.323c.638-1.087 2.493-1.878 5.57-2.373zm4.401-3.32c2.119-1.852 3.493-2.22 4.128-1.11.622 1.087.397 3.06-.674 5.924-.023.063-.068.116-.127.15-.137.078-.312.029-.391-.111l-.052-.088-1.25-2.022-1.729-2.285c-.049-.058-.073-.133-.067-.209s.042-.146.099-.195l.062-.055zM6.071 1.895c1.234 0 2.803 1.169 4.707 3.503a.29.29 0 0 1 .065.182.29.29 0 0 1-.29.286l-.098-.003a28.82 28.82 0 0 0-2.34.085l-2.803.365c-.074.013-.149-.004-.211-.047s-.104-.108-.118-.181l-.016-.081c-.524-2.738-.156-4.108 1.104-4.108zm2.393 4.844h3.073a.53.53 0 0 1 .459.264l1.54 2.682c.045.08.068.17.068.262s-.024.182-.068.262l-1.54 2.686a.53.53 0 0 1-.459.264H8.464c-.189 0-.365-.101-.456-.264l-1.543-2.686c-.045-.08-.068-.17-.068-.262s.024-.182.068-.262l1.543-2.682c.091-.163.267-.264.456-.264zm2.692.661a.53.53 0 0 1 .459.264l1.159 2.022c.045.08.068.17.068.262s-.024.182-.068.262l-1.159 2.025a.53.53 0 0 1-.459.264H8.845c-.189 0-.365-.101-.456-.264l-1.162-2.025c-.045-.08-.068-.17-.068-.262s.024-.182.068-.262l1.162-2.021c.091-.163.267-.264.456-.264h2.311zm-.41.723H9.255a.52.52 0 0 0-.456.264L8.05 9.684c-.045.08-.068.17-.068.262s.024.182.068.262l.749 1.302c.046.08.113.147.193.193s.171.071.263.071h1.491c.092 0 .183-.025.263-.071s.146-.113.192-.193l.749-1.302c.045-.08.068-.17.068-.262s-.024-.182-.068-.262l-.749-1.299a.52.52 0 0 0-.456-.264zm-.397.69c.189 0 .365.101.456.264l.352.609a.52.52 0 0 1 0 .524l-.352.612c-.091.163-.267.264-.456.264h-.697c-.092 0-.183-.024-.263-.071s-.146-.113-.193-.193l-.352-.612a.52.52 0 0 1 0-.524l.352-.609c.046-.08.113-.147.193-.193s.171-.071.263-.071h.697zm-.348.68c-.08 0-.158.021-.227.061s-.127.097-.167.167c-.081.14-.081.313 0 .456.04.069.098.126.167.165s.147.06.227.06.158-.02.227-.06.127-.096.167-.165c.081-.143.081-.316 0-.456-.04-.069-.097-.127-.167-.167s-.147-.061-.227-.061zm5.817-3.034c.326-1.579.397-2.786.186-3.665-.124-.524-.352-.947-.7-1.257-.368-.326-.833-.485-1.354-.485-.863 0-1.768.394-2.734 1.139-.394.303-.804.671-1.227 1.097-.036-.042-.072-.085-.114-.12C8.669 2.096 7.656 1.432 6.79 1.175c-.514-.153-.996-.166-1.435-.02-.466.156-.837.478-1.097.931-.43.745-.544 1.729-.384 2.94a12.77 12.77 0 0 0 .335 1.611.93.93 0 0 0-.179.039c-1.523.508-2.604 1.048-3.258 1.67-.387.368-.641.781-.736 1.234-.094.482 0 .963.26 1.416.43.745 1.221 1.331 2.347 1.797.452.186.963.355 1.536.508a.85.85 0 0 0-.059.189c-.325 1.576-.397 2.787-.185 3.662.124.524.355.951.7 1.257.368.326.833.485 1.354.485.863 0 1.768-.394 2.734-1.136.397-.309.81-.68 1.24-1.113a1 1 0 0 0 .163.189c1.205 1.071 2.217 1.735 3.083 1.992.514.153.996.166 1.436.02.465-.156.837-.479 1.097-.931.43-.745.544-1.729.384-2.939a12.44 12.44 0 0 0-.355-1.677c.067-.006.134-.019.199-.039 1.523-.508 2.604-1.048 3.258-1.67.387-.368.641-.781.736-1.234.094-.482 0-.964-.26-1.416-.43-.745-1.221-1.331-2.347-1.797-.465-.192-.996-.368-1.588-.521a.72.72 0 0 0 .049-.163z" fill="#ff4154"/></svg>