<svg width="20" height="20" viewBox="0 0 20 20" fill="none" xmlns="http://www.w3.org/2000/svg">
<path d="M5.77476 11.4062C5.91143 11.3281 6.08726 11.3769 6.16535 11.5169L6.21743 11.6048C6.61785 12.3144 7.03451 12.9882 7.46743 13.6263C7.97851 14.3782 8.55468 15.14 9.19601 15.9114C9.24483 15.9694 9.26879 16.0444 9.26269 16.1199C9.25659 16.1955 9.22092 16.2656 9.16343 16.3151L9.1016 16.3704C6.98243 18.2227 5.60876 18.5904 4.97393 17.4804C4.35226 16.3932 4.57685 14.4206 5.64776 11.556C5.67113 11.4927 5.71611 11.4396 5.77476 11.4062ZM14.7917 13.584C14.9447 13.5579 15.0912 13.6557 15.1204 13.8086L15.1368 13.8932C15.6608 16.6308 15.293 18.0013 14.0332 18.0013C12.7995 18.0013 11.2338 16.8327 9.32618 14.4987C9.28334 14.4466 9.26131 14.3805 9.26435 14.3132C9.26435 14.1569 9.39451 14.0299 9.55076 14.0299H9.65168C10.4326 14.0361 11.2135 14.0089 11.9922 13.9486C12.8841 13.8769 13.8183 13.7565 14.7917 13.584ZM15.5175 7.77016C15.5442 7.69821 15.598 7.63955 15.6673 7.60669C15.7367 7.57384 15.8161 7.5694 15.8887 7.59433L15.9733 7.62367C18.6914 8.54817 19.7266 9.567 19.0723 10.6771C18.4343 11.7643 16.5788 12.5554 13.5026 13.0502C13.4343 13.0599 13.3626 13.0468 13.304 13.011C13.164 12.9297 13.1153 12.7539 13.1998 12.6139L13.2519 12.5261C13.6719 11.8229 14.0494 11.1231 14.3913 10.4232C14.7884 9.59958 15.166 8.71416 15.5176 7.77016H15.5175ZM6.49751 6.94983C6.56585 6.94008 6.63751 6.95317 6.6961 6.989C6.8361 7.07033 6.88485 7.24608 6.80026 7.38608L6.74818 7.47392C6.33905 8.15858 5.95893 8.86018 5.60885 9.57683C5.21168 10.4004 4.8341 11.2858 4.48251 12.2298C4.45583 12.3018 4.40209 12.3604 4.33276 12.3933C4.26342 12.4261 4.184 12.4306 4.11143 12.4057L4.02676 12.3763C1.30868 11.4518 0.273514 10.433 0.927848 9.32292C1.56585 8.23566 3.42135 7.44458 6.49751 6.94983ZM10.8985 3.62958C13.0177 1.77733 14.3913 1.40958 15.0262 2.51958C15.6478 3.60675 15.4233 5.57942 14.3523 8.444C14.329 8.50732 14.284 8.56036 14.2253 8.59375C14.0887 8.67192 13.9128 8.62308 13.8348 8.48308L13.7827 8.39516C13.3823 7.68558 12.9656 7.01175 12.5327 6.37366C12.0216 5.62175 11.4454 4.86 10.8041 4.08858C10.7553 4.03056 10.7313 3.95563 10.7374 3.88005C10.7435 3.80447 10.7792 3.73435 10.8367 3.68491L10.8985 3.62958ZM6.07101 1.89458C7.30476 1.89458 8.87376 3.06316 10.7781 5.39708C10.82 5.44864 10.843 5.51299 10.8432 5.57942C10.8399 5.73892 10.713 5.86591 10.5535 5.86591L10.4558 5.86258C9.67486 5.85908 8.89404 5.88732 8.11535 5.94725C7.22018 6.01891 6.28593 6.13933 5.3126 6.31183C5.23889 6.3244 5.16319 6.30759 5.10173 6.265C5.04028 6.22241 4.99796 6.15743 4.98385 6.084L4.96751 6.00258C4.44335 3.265 4.81118 1.8945 6.07101 1.8945V1.89458ZM8.4636 6.73825H11.5365C11.6294 6.73828 11.7206 6.76264 11.8012 6.8089C11.8817 6.85516 11.9487 6.92171 11.9955 7.00191L13.5353 9.68425C13.5801 9.76431 13.6036 9.85453 13.6036 9.94629C13.6036 10.038 13.5801 10.1283 13.5353 10.2083L11.9955 12.8939C11.9487 12.9741 11.8817 13.0407 11.8012 13.0869C11.7207 13.1332 11.6295 13.1575 11.5366 13.1576H8.46368C8.27485 13.1576 8.0991 13.0567 8.00785 12.8939L6.46493 10.2083C6.42009 10.1283 6.39655 10.038 6.39655 9.94625C6.39655 9.85448 6.42009 9.76424 6.46493 9.68417L8.00793 7.00191C8.09901 6.83917 8.27485 6.73825 8.4636 6.73825ZM11.1557 7.39908C11.2486 7.39911 11.3398 7.42347 11.4203 7.46973C11.5009 7.51599 11.5679 7.58254 11.6147 7.66275L12.7735 9.68425C12.8183 9.76431 12.8419 9.85453 12.8419 9.94629C12.8419 10.038 12.8183 10.1283 12.7735 10.2083L11.6147 12.2331C11.5679 12.3133 11.5009 12.3798 11.4203 12.4261C11.3398 12.4724 11.2486 12.4967 11.1557 12.4967H8.84451C8.65568 12.4967 8.47993 12.3958 8.38876 12.2331L7.22668 10.2083C7.18184 10.1283 7.1583 10.038 7.1583 9.94625C7.1583 9.85448 7.18184 9.76424 7.22668 9.68417L8.38876 7.66275C8.47993 7.5 8.65568 7.39908 8.84451 7.39908H11.1557ZM10.7455 8.12175H9.25468C9.06585 8.12175 8.89335 8.21942 8.79885 8.38542L8.05026 9.68425C8.00544 9.76431 7.9819 9.85453 7.9819 9.94629C7.9819 10.038 8.00544 10.1283 8.05026 10.2083L8.79893 11.5104C8.84506 11.5905 8.91147 11.657 8.99147 11.7033C9.07148 11.7496 9.16225 11.774 9.25468 11.7741H10.7455C10.838 11.774 10.9288 11.7496 11.0088 11.7033C11.0888 11.6571 11.1552 11.5905 11.2013 11.5104L11.9499 10.2083C11.9948 10.1283 12.0183 10.038 12.0183 9.94625C12.0183 9.85448 11.9948 9.76424 11.9499 9.68417L11.2013 8.38542C11.1068 8.21942 10.9343 8.12175 10.7455 8.12175ZM10.3484 8.81183C10.5372 8.81183 10.713 8.91275 10.8041 9.0755L11.1558 9.68425C11.2501 9.847 11.2501 10.0488 11.1558 10.2083L10.8041 10.8203C10.713 10.9831 10.5372 11.084 10.3484 11.084H9.65176C9.55935 11.0839 9.46859 11.0595 9.3886 11.0132C9.30862 10.9669 9.24222 10.9004 9.1961 10.8203L8.84443 10.2083C8.7501 10.0488 8.7501 9.847 8.84443 9.68417L9.1961 9.0755C9.24222 8.99542 9.30862 8.9289 9.3886 8.88261C9.46859 8.83633 9.55935 8.81192 9.65176 8.81183H10.3484ZM10.0001 9.49217C9.92024 9.4924 9.84184 9.51357 9.77273 9.55356C9.70361 9.59355 9.64618 9.65097 9.60618 9.72008C9.52485 9.86008 9.52485 10.0326 9.60618 10.1757C9.64636 10.2445 9.70391 10.3014 9.77305 10.3408C9.8422 10.3803 9.9205 10.4008 10.0001 10.4004C10.0797 10.4008 10.158 10.3803 10.2271 10.3408C10.2963 10.3014 10.3538 10.2445 10.394 10.1757C10.4753 10.0326 10.4753 9.86 10.394 9.72008C10.354 9.65095 10.2966 9.59353 10.2274 9.55354C10.1583 9.51354 10.0799 9.49238 10 9.49217H10.0001ZM6.31518 9.94792H7.13226H6.31518ZM15.8171 6.45833C16.1426 4.87958 16.2142 3.67183 16.0026 2.793C15.8789 2.26883 15.6511 1.84566 15.3028 1.5365C14.9349 1.21091 14.4694 1.0515 13.9486 1.0515C13.0859 1.0515 12.181 1.44533 11.2142 2.19075C10.8203 2.4935 10.4102 2.86133 9.98701 3.28775C9.95118 3.24541 9.91535 3.20317 9.8731 3.16733C8.6686 2.09633 7.65626 1.43233 6.79035 1.17517C6.2761 1.02217 5.79426 1.00908 5.35485 1.15558C4.88935 1.31183 4.51818 1.63408 4.25785 2.08658C3.82818 2.832 3.71418 3.81508 3.87368 5.02608C3.93885 5.51758 4.05276 6.05467 4.20901 6.63733C4.14818 6.64447 4.08819 6.65759 4.02993 6.6765C2.50668 7.18417 1.42585 7.7245 0.771514 8.34625C0.384098 8.71408 0.130264 9.1275 0.0358477 9.58C-0.058569 10.0617 0.0358477 10.5435 0.296264 10.996C0.725931 11.7414 1.51693 12.3274 2.64326 12.7929C3.09576 12.9784 3.60676 13.1477 4.17968 13.3007C4.15289 13.3611 4.13323 13.4245 4.1211 13.4895C3.7956 15.065 3.72401 16.276 3.9356 17.1516C4.05926 17.6757 4.29035 18.1022 4.63543 18.4081C5.00326 18.7337 5.46876 18.8931 5.9896 18.8931C6.85226 18.8931 7.7571 18.4992 8.72401 17.7571C9.1211 17.4478 9.53451 17.0767 9.96418 16.6437C10.0103 16.7132 10.065 16.7767 10.1269 16.8326C11.3314 17.9036 12.3438 18.5676 13.2097 18.8247C13.724 18.9777 14.2058 18.9908 14.6452 18.8443C15.1107 18.6881 15.4818 18.3658 15.7422 17.9133C16.1719 17.1679 16.2858 16.1848 16.1263 14.9739C16.058 14.4628 15.9408 13.9062 15.7715 13.2974C15.8388 13.291 15.9054 13.278 15.9701 13.2584C17.4934 12.7506 18.5743 12.2102 19.2285 11.5884C19.6159 11.2207 19.8698 10.8072 19.9642 10.3547C20.0586 9.873 19.9642 9.39116 19.7038 8.93875C19.2741 8.19325 18.4831 7.60733 17.3568 7.14183C16.8913 6.94983 16.3607 6.774 15.7683 6.621C15.7909 6.56886 15.8073 6.51423 15.8171 6.45825V6.45833Z" fill="#FF4154"/>
</svg>
