<svg xmlns="http://www.w3.org/2000/svg" width="20" height="20" fill="#5cceee" xmlns:v="https://vecta.io/nano"><path d="M10 11.781a1.782 1.782 0 1 0 0-3.563 1.782 1.782 0 1 0 0 3.563zm6.766-4.718l-1.078-.359.234-1.109c.328-2.062-.031-3.516-1.031-4.078a1.94 1.94 0 0 0-1-.25c-1.094 0-2.484.813-3.891 2.172C8.594 2.08 7.203 1.267 6.109 1.267a1.94 1.94 0 0 0-1 .25c-1 .578-1.359 2.031-1.031 4.078l.234 1.109-1.078.359C1.281 7.813.219 8.844.219 10s1.078 2.188 3.016 2.938l1.078.359-.234 1.109c-.328 2.063.031 3.516 1.031 4.078a1.94 1.94 0 0 0 1 .25c1.109 0 2.5-.812 3.891-2.172 1.406 1.359 2.797 2.172 3.891 2.172a1.94 1.94 0 0 0 1-.25c1-.578 1.359-2.031 1.031-4.078l-.234-1.109 1.078-.359c1.953-.75 3.016-1.781 3.016-2.937s-1.062-2.187-3.016-2.937zm-2.312-4.766c.641.375.859 1.531.594 3.172-.047.328-.125.672-.219 1.031-.812-.187-1.672-.312-2.578-.391a22.53 22.53 0 0 0-1.625-2.031c1.156-1.141 2.328-1.922 3.281-1.922.203 0 .391.047.547.141zm-1.75 9.266c-.281.5-.609 1-.953 1.5l-1.75.063c-.609 0-1.187-.016-1.75-.062l-.937-1.5L6.484 10l.828-1.562c.281-.5.609-1 .953-1.5l1.75-.062 1.75.063.938 1.5.828 1.563-.828 1.563zM14 11.047a18.44 18.44 0 0 1 .594 1.609c-.531.125-1.094.219-1.688.297l.563-.937.531-.969zm-4 4.234a17.58 17.58 0 0 1-1.078-1.297l1.078.031 1.078-.031L10 15.281zm-2.906-2.344l-1.687-.297L6 11.031l.531.953.563.953zM6 8.953a18.43 18.43 0 0 1-.594-1.609 17.17 17.17 0 0 1 1.688-.297l-.562.938L6 8.953zm4-4.234c.375.406.734.844 1.078 1.297L10 5.984l-1.078.031L10 4.719zM13.469 8l-.562-.937 1.688.297L14 8.969 13.469 8zM4.953 5.469c-.266-1.641-.047-2.797.594-3.172.156-.094.344-.141.547-.141.938 0 2.109.766 3.281 1.922A20.54 20.54 0 0 0 7.75 6.109c-.906.078-1.766.219-2.578.391l-.219-1.031zM1.094 10c0-.734.891-1.516 2.453-2.094a9.37 9.37 0 0 1 1-.328 22.77 22.77 0 0 0 .937 2.437c-.375.828-.703 1.641-.937 2.422-2.156-.625-3.453-1.562-3.453-2.437zm4.453 7.703c-.641-.375-.859-1.531-.594-3.172a9.41 9.41 0 0 1 .219-1.031 18.56 18.56 0 0 0 2.578.391 22.55 22.55 0 0 0 1.625 2.031c-1.156 1.141-2.328 1.922-3.281 1.922-.203 0-.391-.047-.547-.141zm9.5-3.172c.266 1.641.047 2.797-.594 3.172-.156.094-.344.141-.547.141-.937 0-2.109-.766-3.281-1.922a20.51 20.51 0 0 0 1.625-2.031c.906-.078 1.766-.219 2.578-.391l.219 1.031zm1.406-2.437a9.37 9.37 0 0 1-1 .328 22.77 22.77 0 0 0-.937-2.438c.375-.828.703-1.641.938-2.422 2.156.625 3.453 1.563 3.453 2.438 0 .734-.906 1.516-2.453 2.094z"/></svg>