<svg xmlns="http://www.w3.org/2000/svg" width="20" height="20" fill="none" xmlns:v="https://vecta.io/nano"><g clip-path="url(#A)"><path d="M13.861 13.753c.726-.062 1.286-.7 1.25-1.462s-.664-1.373-1.422-1.373h-.053c-.784.026-1.399.687-1.373 1.474.026.401.188.723.413.96-.876 1.699-2.184 2.947-4.173 3.998-1.334.697-2.744.961-4.117.772-1.149-.159-2.047-.673-2.597-1.497-.824-1.25-.899-2.594-.212-3.945a5.9 5.9 0 0 1 1.747-2.035 8.49 8.49 0 0 1-.348-1.286c-3.697 2.647-3.32 6.27-2.197 7.979.837 1.25 2.545 2.047 4.417 2.047.502 0 1.026-.036 1.537-.163 3.249-.625 5.707-2.572 7.116-5.443l.013-.027zm4.456-3.121c-1.933-2.273-4.782-3.523-8.027-3.523h-.427c-.208-.459-.697-.748-1.247-.748h-.036c-.787 0-1.4.677-1.374 1.462a1.44 1.44 0 0 0 1.423 1.373h.063c.563-.026 1.048-.374 1.25-.876h.462c1.924 0 3.744.563 5.408 1.661 1.269.836 2.184 1.937 2.695 3.248.449 1.071.423 2.123-.039 2.998-.709 1.37-1.911 2.096-3.492 2.096-.999 0-1.973-.312-2.474-.537l-1.162.912c1.101.497 2.211.784 3.285.784 2.435 0 4.245-1.371 4.932-2.695.748-1.498.687-4.021-1.224-6.182l-.012.026zm-12.91 3.571a1.44 1.44 0 0 0 1.426 1.373h.049c.801-.026 1.409-.687 1.373-1.474 0-.749-.648-1.374-1.409-1.374h-.053c-.048 0-.123 0-.188.027a9.34 9.34 0 0 1-1.309-5.645c.098-1.523.599-2.845 1.497-3.945.749-.934 2.158-1.4 3.122-1.422 2.696-.052 3.822 3.31 3.907 4.645l1.25.374c-.29-4.095-2.835-6.243-5.27-6.243-2.285 0-4.395 1.66-5.244 4.095-1.159 3.249-.397 6.368 1.025 8.868-.123.159-.198.449-.176.723z" fill="#764abc"/></g><defs><clipPath id="A"><path fill="#fff" d="M0 0h20v20H0z"/></clipPath></defs></svg>