<svg xmlns="http://www.w3.org/2000/svg" width="20" height="20" fill="none" xmlns:v="https://vecta.io/nano"><path d="M9.465 3.134c-.883-.047-1.876.089-2.848.426-1.544.536-3.213 1.378-4.414 2.476C.777 7.341.548 8.478.642 8.954c.334 1.687 2.713 2.787 3.665 3.601l-.132.071c-.478.232-2.249 1.143-2.703 2.123-.512 1.111.085 1.907.477 2.015 1.224.332 2.436-.249 3.109-1.23s.593-2.265.282-2.849c-.003-.009-.009-.014-.012-.023l.375-.216.688-.381c-.118.309-.202.683-.247 1.221-.052.63.213 1.445.559 1.766.152.141.337.144.45.144.404 0 .586-.326.787-.716.249-.476.469-1.028.469-1.028s-.275 1.494.479 1.494c.275 0 .551-.346.674-.524v.002s.005-.011.02-.034l.044-.068v-.009l.721-1.317c.474-.911.928-2.048.928-2.048a5.57 5.57 0 0 0 .182.739c.082.272.256.57.393.859l-.18.234c-.084.12-.184.243-.287.364l-.879 1.078c-.071.169-.053.294.082.392.099.074.276.086.46.072.337-.023.574-.104.688-.155a2.41 2.41 0 0 0 .591-.303c.366-.264.589-.642.569-1.14-.012-.275-.104-.551-.215-.808l.1-.143c.58-.828 1.028-1.736 1.028-1.736.044.25.104.497.182.739.071.232.208.487.334.736-.544.432-.882.934-1 1.263-.217.61-.046.884.273.947.144.029.348-.036.501-.099.226-.074.439-.181.632-.319.366-.264.721-.633.697-1.134-.009-.226-.072-.453-.157-.67.46-.189 1.057-.292 1.819-.206 1.631.186 1.951 1.183 1.89 1.598s-.404.648-.519.717-.149.095-.14.146c.014.074.067.071.164.054.135-.023.855-.338.887-1.108.047-.973-.91-2.044-2.605-2.036h-.003c-.588 0-1.169.132-1.697.387-.173-.341-.352-.639-.381-.862-.035-.261-.072-.415-.032-.724s.225-.748.222-.78-.041-.189-.419-.192-.703.072-.741.168a3.42 3.42 0 0 0-.155.547c-.067.335-.756 1.533-1.145 2.157-.129-.244-.237-.458-.26-.63-.035-.261-.074-.415-.033-.724s.226-.748.223-.78-.041-.189-.419-.192-.704.072-.742.168-.079.326-.155.547-.993 2.215-1.233 2.733l-.305.619-.026.049c.009-.014.015-.029.015-.023l-.103.192v.002c-.05.092-.106.176-.132.176-.018 0-.056-.241.009-.57.137-.693.463-1.77.46-1.808-.003-.02.06-.206-.215-.306-.267-.094-.362.063-.386.063s-.042.057-.042.057.295-1.215-.569-1.215c-.539 0-1.29.579-1.658 1.102l-1.26.674-.605.326-.042-.043c-1.049-1.094-2.985-1.868-2.903-3.337.029-.536.221-1.941 3.723-3.649 2.871-1.397 5.166-1.014 5.561-.161.568 1.218-1.228 3.484-4.209 3.81-1.136.123-1.66-.357-1.809-.518-.155-.169-.179-.178-.238-.146-.097.051-.035.201 0 .289.088.226.48.581 1.104.781.548.175 1.807.322 3.418-.288 1.81-.682 3.193-2.534 2.78-4.124-.263-1.01-1.431-1.595-2.903-1.672zm-.961 7.672c.046.003.08.02.099.053.103.169-.356 1.416-.474 1.697-.187.45-.583 1.596-.824 1.536-.205-.051-.332-.925-.042-1.785.146-.432.457-.948.642-1.149.222-.243.461-.362.598-.351zm6.088 1.414a1.03 1.03 0 0 1 .055.31c-.003.645-.474.885-.758.985-.059-.04-.051-.175.145-.593.076-.163.253-.438.558-.702zm-9.84.71a2.25 2.25 0 0 1-.559 2.244c-.539.576-1.295.793-1.62.61-.349-.198-.211-1.046.454-1.66.404-.373.926-.716 1.272-.928l.333-.198.035-.019.084-.049zm7.361.1c0 .014.004.03.004.046-.004.512-.509.859-.737.996h.002v.001c-.079.04-.153.065-.188.045-.026-.014.033-.068.033-.068l.568-.623.319-.398z" fill="#cf649a"/></svg>