<svg xmlns="http://www.w3.org/2000/svg" width="20" height="20" fill="none" xmlns:v="https://vecta.io/nano"><g clip-path="url(#A)"><path d="M10.011 0L0 5v10l10.033 5 9.965-4.98V4.98L10.011 0zM2.216 14.003V6.118l7.791-3.967 7.821 3.861v7.927l-7.792 3.989-7.82-3.925zm3.996-1.956v2.808l-2.828-1.337v-2.895l2.828 1.424zm.511-4.333l2.496-1.26L6.391 5.01 3.878 6.297l2.845 1.417zm3.377-.872L7.571 8.137l2.574 1.282 2.508-1.273L10.1 6.842zm-.473 3.323L7.092 8.903v2.609l2.534 1.198v-2.545zm3.72-2.372l2.775-1.409-2.561-1.308-2.781 1.424 2.567 1.292zM12.68 4.69L9.852 3.246 7.071 4.669l2.828 1.424L12.68 4.69zM3.384 7.056V9.68l2.828 1.337V8.465L3.384 7.056zm10.372 5.092v2.816l2.858-1.467v-2.866l-2.858 1.516zm0-3.553v2.528l2.858-1.463V7.144l-2.858 1.451zm-3.137 1.592v2.535l2.534-1.297V8.901l-2.534 1.286zm0 3.509v2.863l2.534-1.297v-2.787l-2.534 1.221zm-.993-.008l-2.534-1.233v2.895l2.534 1.198v-2.859z" fill="#3b76c3"/></g><defs><clipPath id="A"><path fill="#fff" d="M0 0h20v20H0z"/></clipPath></defs></svg>