<svg xmlns="http://www.w3.org/2000/svg" width="20" height="20" fill="none" xmlns:v="https://vecta.io/nano"><g clip-path="url(#A)"><path d="M9.948.013c-.837.003-1.67.107-2.481.316-3.9.97-6.996 4.502-7.392 8.508-.492 3.789 1.426 7.738 4.703 9.694 3.22 2.015 7.578 1.934 10.729-.185 2.832-1.839 4.593-5.189 4.489-8.572-.048-3.346-1.927-6.598-4.802-8.317C13.629.491 11.788.006 9.948.013h0zm-.056 1.413c4.121-.007 8.158 3.18 8.571 7.438.788 4.717-3.128 9.512-7.907 9.652-4.544.453-8.939-3.402-9.069-7.966-.338-3.694 2.1-7.363 5.583-8.584.898-.357 1.856-.54 2.823-.537l.001-.003zm4.245 2.689c-2.24 1.737-4.385 3.59-6.576 5.381l3.018.006 3.558-5.387v.001zm-4.72 6.377l-3.562 5.397c2.247-1.735 4.382-3.6 6.586-5.381l-3.024-.016.001-.001z" fill="#fff"/></g><defs><clipPath id="A"><path fill="#fff" d="M0 0h20v20H0z"/></clipPath></defs></svg>