<svg xmlns="http://www.w3.org/2000/svg" width="20" height="20" fill="none" xmlns:v="https://vecta.io/nano"><path d="M13.512 5.635l-.062.326c-.097.618-.062.794.203 1.023l.256.212-.265 1.182c-.158.705-.352 1.296-.476 1.49-.106.168-.229.414-.256.547-.044.158-.194.318-.423.458-.203.115-.6.423-.882.671l-.464.38-.275.218a1.17 1.17 0 0 0-.157.342c-.019.089-.008.148.02.192s.075.071.14.089c.077.018.156.024.235.019.178-.012.355-.043.527-.093l.144-.044c.062-.076.204-.219.457-.468.67-.661.926-1.023.662-.925-.098.035-.053-.053.114-.23.353-.344.556-.864.979-2.495.335-1.288.335-1.306.582-1.306l.443.02V5.635h-.752-.749zm3.199 2.637c-.053 0-.142.08-.194.168-.097.158.017.255 1.473 1.163l1.543 1.05c-.017.026-.723.485-1.569 1.014-1.535.952-1.543.961-1.402 1.155.177.229 0 .308 1.992-.935L20 10.963v-.697l-1.614-.997-1.675-.997zM3.307 8.37c-.044 0-.803.45-1.675.988L0 10.354v.697l1.623 1.014 1.693 1.014c.035 0 .106-.08.177-.177.106-.168.017-.238-1.473-1.182C.6 10.83.45 10.707.592 10.61c.088-.062.758-.477 1.482-.926C3.723 8.67 3.634 8.74 3.502 8.528c-.052-.088-.142-.167-.194-.158h-.001zm7.237.019c-.243-.002-.767.369-2.333 1.648-.068.161-.073.272-.043.343.02.049.057.083.107.108a.52.52 0 0 0 .187.046c.143.012.311-.01.447-.037L9 10.478a.32.32 0 0 1 .12-.098c.097-.053.503-.423.908-.82.714-.723.882-1.05.591-1.156a.2.2 0 0 0-.075-.014h-.001zm1.83.502c-.214.006-.6.254-1.261.782-.332.269-.542.414-.654.444l-.437.345c-.164.3-.188.486-.145.588.011.025.027.048.046.067a.21.21 0 0 0 .069.044c.064.025.132.038.2.037a1.82 1.82 0 0 0 .483-.071l.242-.077.024-.01.044-.023c.083-.107.275-.31.515-.543.758-.732 1.146-1.252 1.067-1.446-.036-.094-.098-.142-.194-.138zm-2.02.9c-.062.007-.2.113-.449.332-.36.318-.753.502-.888.42l-.095.02a1.77 1.77 0 0 1-.465.037.59.59 0 0 1-.21-.053.28.28 0 0 1-.14-.142c-.031-.075-.031-.168.004-.288l-.542.445-1.226 1.014v1.644l4.017-3.164a.34.34 0 0 1 .013-.102c.031-.112.029-.168-.019-.163h0zm1.728.533c-.061 0-.162.086-.325.258-.221.236-.568.464-.752.511l-.028.015-.092.035-.19.057a1.85 1.85 0 0 1-.503.074.61.61 0 0 1-.229-.045c-.069-.028-.124-.082-.153-.15-.048-.116-.029-.278.077-.509l-3.543 2.791v1.004h1.557l3.302-2.593c.086-.095.215-.225.389-.387.467-.432.572-.582.572-.803 0-.172-.019-.258-.08-.258v.001zm.786 1.625l-.282.282c-.158.15-.441.335-.634.414l-.038.017-.002.004-.008.008c-.094.038-.172.064-.252.087a2.55 2.55 0 0 1-.542.096c-.087.005-.174-.002-.258-.023-.073-.016-.138-.059-.182-.12s-.052-.144-.029-.246c.018-.072.044-.142.079-.208l-2.664 2.105h3.543l.423-.485c.582-.678.847-1.163.847-1.578v-.353z" fill="#934081"/></svg>