<svg xmlns="http://www.w3.org/2000/svg" width="20" height="20" fill="none" xmlns:v="https://vecta.io/nano"><path d="M15.417 7.925c-.625-.215-1.177-.602-1.592-1.117A4.81 4.81 0 0 0 10 5c-.986-.07-1.963.234-2.735.852S5.982 7.356 5.833 8.333A2.69 2.69 0 0 1 8.75 7.092a3.6 3.6 0 0 1 1.592 1.125c.46.569 1.043 1.025 1.706 1.334a4.81 4.81 0 0 0 2.119.45c.986.07 1.963-.234 2.735-.852s1.283-1.504 1.432-2.481c-.287.495-.725.884-1.251 1.111s-1.109.278-1.666.147zm-10.833 4.15c.625.215 1.177.602 1.592 1.117A4.81 4.81 0 0 0 10 15c.986.07 1.963-.234 2.735-.852s1.283-1.504 1.432-2.481a2.69 2.69 0 0 1-2.917 1.242 3.6 3.6 0 0 1-1.592-1.125c-.461-.567-1.045-1.022-1.708-1.331S6.564 9.989 5.833 10c-.986-.07-1.963.234-2.735.852s-1.283 1.504-1.432 2.481c.287-.495.725-.884 1.251-1.111s1.109-.278 1.666-.148z" fill="#39b7d6"/></svg>