<svg xmlns="http://www.w3.org/2000/svg" width="20" height="20" fill="none" xmlns:v="https://vecta.io/nano"><path d="M14.892 5.152c.532.124 1.016.402 1.389.801.206.216.385.455.532.714.007.028-.959.677-1.544 1.039-.021.014-.106-.078-.201-.219a1.26 1.26 0 0 0-1.044-.625c-.673-.046-1.107.306-1.104.896a.81.81 0 0 0 .096.416c.148.306.423.49 1.287.864 1.59.684 2.273 1.136 2.694 1.777.238.405.385.857.43 1.325s-.013.94-.17 1.383a2.98 2.98 0 0 1-.989 1.215c-.432.309-.939.498-1.469.545a6.81 6.81 0 0 1-1.693-.018 4.08 4.08 0 0 1-2.26-1.178c-.23-.259-.425-.547-.579-.857a1.67 1.67 0 0 1 .204-.13l.825-.476.64-.375.134.195a2.98 2.98 0 0 0 .844.807 2.06 2.06 0 0 0 2.161-.109c.162-.158.264-.369.287-.594s-.034-.452-.162-.64c-.172-.247-.525-.454-1.527-.889a5.5 5.5 0 0 1-2.093-1.284c-.282-.321-.49-.7-.61-1.111-.089-.467-.102-.946-.039-1.417.118-.543.399-1.036.807-1.413a2.71 2.71 0 0 1 1.471-.696c.56-.067 1.127-.049 1.682.053zm-5.214.927l.007.909H6.791v8.217H4.75V6.989H1.856v-.893c-.008-.306.001-.611.025-.916.011-.014 1.77-.021 3.903-.018l3.882.011.011.905z" fill="#2d79c7"/></svg>