<?xml version="1.0" encoding="UTF-8" standalone="no"?>
<!-- Created with Inkscape (http://www.inkscape.org/) -->

<svg
   width="37.676601mm"
   height="10.339916mm"
   viewBox="0 0 37.676601 10.339916"
   version="1.1"
   id="svg5"
   sodipodi:docname="aggutierrez.svg"
   inkscape:version="1.1.2 (0a00cf5339, 2022-02-04)"
   xmlns:inkscape="http://www.inkscape.org/namespaces/inkscape"
   xmlns:sodipodi="http://sodipodi.sourceforge.net/DTD/sodipodi-0.dtd"
   xmlns="http://www.w3.org/2000/svg"
   xmlns:svg="http://www.w3.org/2000/svg">
  <sodipodi:namedview
     id="namedview7"
     pagecolor="#ffffff"
     bordercolor="#666666"
     borderopacity="1.0"
     inkscape:pageshadow="2"
     inkscape:pageopacity="0.0"
     inkscape:pagecheckerboard="0"
     inkscape:document-units="mm"
     showgrid="false"
     inkscape:zoom="2.6406589"
     inkscape:cx="69.868925"
     inkscape:cy="69.111538"
     inkscape:window-width="1366"
     inkscape:window-height="699"
     inkscape:window-x="0"
     inkscape:window-y="32"
     inkscape:window-maximized="1"
     inkscape:current-layer="layer1" />
  <defs
     id="defs2">
    <rect
       x="42.013607"
       y="45.535824"
       width="293.41666"
       height="133.83203"
       id="rect14057" />
    <rect
       x="33.002815"
       y="27.822948"
       width="176.1629"
       height="95.436745"
       id="rect11719" />
    <rect
       x="83.436485"
       y="9.4733181"
       width="127.45554"
       height="121.59426"
       id="rect9997" />
    <rect
       x="12.671078"
       y="15.571414"
       width="153.75655"
       height="41.506264"
       id="rect3201" />
  </defs>
  <g
     inkscape:label="Capa 1"
     inkscape:groupmode="layer"
     id="layer1"
     transform="translate(-0.12421321,-0.19677224)">
    <text
       xml:space="preserve"
       transform="scale(0.26458333)"
       id="text3199"
       style="font-style:normal;font-variant:normal;font-weight:normal;font-stretch:normal;font-size:40px;line-height:1.25;font-family:fl;-inkscape-font-specification:fl;white-space:pre;shape-inside:url(#rect3201);fill:#000000;fill-opacity:1;stroke:none"><tspan
         x="12.671875"
         y="92.46875"
         id="tspan58019"><tspan
           dx="0 27.363281 25.390625 25.390625 25.351562 15.683594 11.113281 24.609375 15.742188 15.566406 24.609375"
           id="tspan58017">Aggutierrez</tspan></tspan></text>
    <text
       xml:space="preserve"
       transform="scale(0.26458333)"
       id="text9995"
       style="font-style:normal;font-weight:normal;font-size:40px;line-height:1.25;font-family:sans-serif;white-space:pre;shape-inside:url(#rect9997);fill:#000000;fill-opacity:1;stroke:none" />
    <text
       xml:space="preserve"
       transform="scale(0.26458333)"
       id="text11717"
       style="font-style:normal;font-weight:normal;font-size:40px;line-height:1.25;font-family:sans-serif;white-space:pre;shape-inside:url(#rect11719);fill:#000000;fill-opacity:1;stroke:none" />
    <g
       aria-label="Aggutierrez"
       transform="matrix(0.26458333,0,0,0.26458333,-11.182404,-14.137071)"
       id="text14055"
       style="font-size:40px;line-height:1.25;font-family:'Florilane Cardillac';-inkscape-font-specification:'Florilane Cardillac';white-space:pre;shape-inside:url(#rect14057)">
      <path
         d="m 85.853672,56.095156 q 0,0.56 -0.16,1.08 -0.12,0.48 -0.48,1.16 -0.36,0.64 -1,1.6 -0.64,0.92 -1.68,2.36 -2,2.84 -3.8,5.56 -1.8,2.68 -3.2,5.12 -1.36,2.44 -2.16,4.52 -0.8,2.04 -0.8,3.64 0,0.6 0.08,1.08 0.08,0.52 0.28,0.8 0.04,0.08 0.28,0.2 0.28,0.16 0.56,0.32 0.28,0.16 0.52,0.28 0.24,0.12 0.24,0.12 0,0.16 -0.36,0.28 -0.32,0.12 -0.76,0.12 -1.64,0 -2.32,-0.96 -0.68,-0.92 -0.68,-2.12 0,-1.6 0.64,-3.32 0.68,-1.72 1.96,-4.12 l 0.88,-1.68 -0.24,0.04 q -0.56,0.12 -1.2,0.12 -1.16,0 -2.36,-0.36 -0.4,-0.12 -1.08,-0.44 -0.64,-0.36 -1.28,-0.72 -0.64,-0.4 -1.12,-0.68 -0.48,-0.28 -0.52,-0.28 -0.08,0 -0.28,0.24 -0.16,0.24 -0.44,0.56 -1.8,2.08 -3.88,4.28 -2.04,2.16 -3.72,3.8 -1.44,1.4 -2.64,2.36 -1.2,1 -2.28,1.6 -1.08,0.64 -2.08,0.92 -1,0.28 -2.04,0.28 -1.44,0 -2.56,-0.44 -1.12,-0.44 -1.88,-1.2 -0.76,-0.72 -1.16,-1.68 -0.4,-0.92 -0.4,-1.88 0,-1.24 0.6,-2.64 0.64,-1.44 1.72,-2.64 1.08,-1.2 2.52,-2 1.44,-0.8 3.08,-0.8 1,0 1.8,0.32 0.8,0.32 1.32,0.76 0.56,0.44 0.84,0.92 0.28,0.44 0.28,0.76 0,0.44 -0.36,0.76 -0.32,0.32 -0.64,0.32 -0.2,0 -0.48,-0.2 -0.28,-0.24 -0.88,-0.8 -0.92,-0.88 -1.44,-1.16 -0.48,-0.32 -1.08,-0.4 -1.08,0 -2.24,0.48 -1.16,0.48 -2.12,1.36 -0.96,0.88 -1.6,2.12 -0.6,1.2 -0.6,2.68 0,1.12 0.4,2 0.44,0.88 1.16,1.48 0.76,0.6 1.72,0.88 1,0.32 2.12,0.32 1.76,0 3.32,-0.76 1.6,-0.76 3.6,-2.52 0.52,-0.48 1.44,-1.4 0.96,-0.92 2.04,-2.04 1.12,-1.12 2.24,-2.32 1.12,-1.2 2.04,-2.2 0.92,-1 1.48,-1.68 0.6,-0.72 0.6,-0.88 0,-0.04 -0.2,-0.16 -0.2,-0.16 -0.52,-0.32 -0.28,-0.2 -0.6,-0.4 -0.32,-0.2 -0.56,-0.32 -0.44,-0.24 -0.76,-0.28 -0.28,-0.04 -0.96,-0.04 -0.76,0 -1.36,0.28 -0.56,0.24 -1.16,0.84 -0.36,0.36 -0.48,0.44 -0.08,0.04 -0.36,0.04 -0.52,0 -0.52,-0.2 0,-0.36 0.4,-0.68 0.44,-0.36 1.04,-0.64 0.6,-0.28 1.28,-0.44 0.68,-0.2 1.24,-0.2 1.32,0 3.28,1.12 0.6,0.36 0.76,0.36 0.04,-0.04 0.28,-0.28 0.24,-0.28 0.56,-0.64 5.88,-6.84 9.92,-10.24 4.04,-3.44 6.76,-3.44 1.04,0 1.6,0.44 0.6,0.44 0.6,1.48 z m -10.68,14.04 q 1,-1.6 2.2,-3.36 1.2,-1.8 2.8,-4.04 1.28,-1.8 2.04,-2.96 0.8,-1.2 1.24,-1.96 0.44,-0.8 0.6,-1.32 0.16,-0.52 0.16,-1 0,-0.76 -0.64,-0.76 -0.92,0 -2.16,0.6 -1.24,0.6 -2.68,1.68 -1.44,1.04 -3.04,2.52 -1.6,1.44 -3.24,3.2 -0.2,0.24 -0.72,0.8 -0.52,0.56 -1.16,1.28 -0.64,0.68 -1.32,1.48 -0.68,0.76 -1.28,1.4 -0.56,0.6 -0.92,1.04 -0.36,0.44 -0.36,0.44 0,0.08 0.64,0.52 1.08,0.8 2,1.24 0.96,0.44 1.72,0.68 0.76,0.2 1.28,0.28 0.52,0.04 0.84,0.04 0.28,0 0.48,0 0.2,-0.04 0.36,-0.2 0.2,-0.16 0.44,-0.52 0.28,-0.4 0.72,-1.08 z"
         id="path52558" />
      <path
         d="m 83.213655,78.735156 2.04,-3.04 -1.28,1.24 q -1.12,1.08 -1.96,1.8 -0.84,0.72 -1.52,1.16 -0.64,0.4 -1.2,0.6 -0.56,0.16 -1.08,0.16 -0.8,0 -1.28,-0.44 -0.48,-0.44 -0.48,-1.28 0,-1.56 1.04,-3.16 1,-1.6 2.44,-2.84 1.48,-1.28 3.08,-2.08 1.64,-0.8 2.88,-0.8 0.84,0 1.32,0.36 0.48,0.36 0.48,1.04 0,0.2 -0.08,0.44 -0.04,0.24 -0.04,0.36 0,0.04 0.04,0.04 0.48,-0.72 0.8,-1.12 0.36,-0.44 0.64,-0.68 0.28,-0.24 0.56,-0.28 0.28,-0.08 0.64,-0.08 0.56,0 0.68,0.16 0.16,0.16 0.16,0.32 0,0.04 -0.6,0.8 -0.6,0.72 -1.48,1.84 -0.88,1.08 -1.96,2.36 -1.04,1.28 -1.92,2.44 -0.88,1.16 -1.48,2.04 -0.6,0.84 -0.6,1.04 0,0.04 0.52,-0.28 0.56,-0.28 1.56,-0.84 2.16,-1.24 3.72,-2.44 1.6,-1.24 3.04,-2.76 0.56,-0.56 0.8,-0.8 0.24,-0.24 0.32,-0.24 0.08,0 0.08,0.08 v 0.04 q 0,0.12 -0.08,0.2 -0.48,0.8 -1.48,1.76 -1,0.92 -2.24,1.88 -1.2,0.92 -2.48,1.76 -1.28,0.84 -2.32,1.4 -0.84,0.44 -1.28,0.68 -0.4,0.24 -0.64,0.44 -0.24,0.2 -0.44,0.44 -0.16,0.28 -0.48,0.8 -1.44,2.24 -2.32,3.56 -0.88,1.36 -1.44,2.2 -0.6,0.84 -1.04,1.36 -0.44,0.52 -1,1.04 -0.56,0.56 -0.96,0.88 -0.44,0.36 -0.84,0.56 -0.4,0.24 -0.84,0.32 -0.44,0.08 -1,0.08 -1.32,0 -1.96,-0.64 -0.64,-0.6 -0.64,-1.56 0,-0.76 0.8,-1.88 0.76,-1.12 2.16,-2.32 1.4,-1.2 3.36,-2.4 1.92,-1.2 4.24,-2.2 l 0.96,-0.44 z m -5.56,8.04 q 0.6,-0.76 1.12,-1.52 0.52,-0.72 0.92,-1.28 0.4,-0.56 0.6,-0.92 0.24,-0.32 0.24,-0.32 -0.08,0 -0.72,0.28 -1.96,0.88 -3.64,1.92 -1.68,1.04 -2.92,2.08 -1.28,1.04 -2,2.04 -0.72,1 -0.72,1.76 0,1.12 1.08,1.12 1.16,0 2.68,-1.32 1.48,-1.32 3.36,-3.84 z m 7.04,-11.24 q 0.76,-0.76 1.2,-1.32 0.44,-0.56 0.64,-0.96 0.2,-0.44 0.24,-0.76 0.04,-0.32 0.04,-0.6 0,-0.52 -0.28,-0.84 -0.28,-0.36 -0.72,-0.36 -0.68,0 -1.88,0.84 -1.2,0.8 -2.36,2.04 -1.16,1.2 -2,2.68 -0.84,1.48 -0.84,2.8 0,0.24 0.16,0.48 0.16,0.24 0.32,0.24 0.24,0 0.8,-0.32 0.56,-0.36 1.28,-0.92 0.76,-0.56 1.64,-1.32 0.88,-0.8 1.76,-1.68 z"
         id="path52560" />
      <path
         d="m 97.053606,78.735156 2.04,-3.04 -1.28,1.24 q -1.12,1.08 -1.96,1.8 -0.84,0.72 -1.52,1.16 -0.64,0.4 -1.2,0.6 -0.56,0.16 -1.08,0.16 -0.8,0 -1.28,-0.44 -0.48,-0.44 -0.48,-1.28 0,-1.56 1.04,-3.16 1,-1.6 2.44,-2.84 1.48,-1.28 3.08,-2.08 1.64,-0.8 2.88,-0.8 0.840004,0 1.320004,0.36 0.48,0.36 0.48,1.04 0,0.2 -0.08,0.44 -0.04,0.24 -0.04,0.36 0,0.04 0.04,0.04 0.48,-0.72 0.8,-1.12 0.36,-0.44 0.64,-0.68 0.28,-0.24 0.56,-0.28 0.28,-0.08 0.64,-0.08 0.56,0 0.68,0.16 0.16,0.16 0.16,0.32 0,0.04 -0.6,0.8 -0.6,0.72 -1.48,1.84 -0.88,1.08 -1.96,2.36 -1.040004,1.28 -1.920004,2.44 -0.88,1.16 -1.48,2.04 -0.6,0.84 -0.6,1.04 0,0.04 0.52,-0.28 0.56,-0.28 1.56,-0.84 2.160004,-1.24 3.720004,-2.44 1.6,-1.24 3.04,-2.76 0.56,-0.56 0.8,-0.8 0.24,-0.24 0.32,-0.24 0.08,0 0.08,0.08 v 0.04 q 0,0.12 -0.08,0.2 -0.48,0.8 -1.48,1.76 -1,0.92 -2.24,1.88 -1.2,0.92 -2.48,1.76 -1.280004,0.84 -2.320004,1.4 -0.84,0.44 -1.28,0.68 -0.4,0.24 -0.64,0.44 -0.24,0.2 -0.44,0.44 -0.16,0.28 -0.48,0.8 -1.44,2.24 -2.32,3.56 -0.88,1.36 -1.44,2.2 -0.6,0.84 -1.04,1.36 -0.44,0.52 -1,1.04 -0.56,0.56 -0.96,0.88 -0.44,0.36 -0.84,0.56 -0.4,0.24 -0.84,0.32 -0.44,0.08 -1,0.08 -1.32,0 -1.96,-0.64 -0.64,-0.6 -0.64,-1.56 0,-0.76 0.8,-1.88 0.76,-1.12 2.16,-2.32 1.4,-1.2 3.36,-2.4 1.92,-1.2 4.24,-2.2 l 0.96,-0.44 z m -5.56,8.04 q 0.6,-0.76 1.12,-1.52 0.52,-0.72 0.92,-1.28 0.4,-0.56 0.6,-0.92 0.24,-0.32 0.24,-0.32 -0.08,0 -0.72,0.28 -1.96,0.88 -3.64,1.92 -1.68,1.04 -2.92,2.08 -1.28,1.04 -2,2.04 -0.72,1 -0.72,1.76 0,1.12 1.08,1.12 1.16,0 2.68,-1.32 1.48,-1.32 3.36,-3.84 z m 7.04,-11.24 q 0.76,-0.76 1.2,-1.32 0.440004,-0.56 0.640004,-0.96 0.2,-0.44 0.24,-0.76 0.04,-0.32 0.04,-0.6 0,-0.52 -0.28,-0.84 -0.28,-0.36 -0.720004,-0.36 -0.68,0 -1.88,0.84 -1.2,0.8 -2.36,2.04 -1.16,1.2 -2,2.68 -0.84,1.48 -0.84,2.8 0,0.24 0.16,0.48 0.16,0.24 0.32,0.24 0.24,0 0.8,-0.32 0.56,-0.36 1.28,-0.92 0.76,-0.56 1.64,-1.32 0.88,-0.8 1.76,-1.68 z"
         id="path52562" />
      <path
         d="m 117.65356,74.295156 q 0.52,-0.68 0.72,-0.68 0.04,0 0.12,0.12 0,0.12 -0.28,0.56 -0.28,0.4 -1.08,1.32 -0.88,1.04 -1.72,2 -0.84,0.92 -1.68,1.64 -0.84,0.72 -1.68,1.16 -0.8,0.44 -1.64,0.44 -0.68,0 -1.04,-0.4 -0.36,-0.4 -0.36,-1 0,-0.32 0.12,-0.68 0.12,-0.4 0.12,-0.48 -1.44,1.32 -2.44,1.88 -0.96,0.56 -1.88,0.56 -1.44,0 -1.44,-1.32 0,-0.48 0.12,-0.92 0.12,-0.48 0.48,-1.08 0.32,-0.64 0.92,-1.48 0.6,-0.84 1.56,-2.12 1.12,-1.4 1.64,-2.2 0.52,-0.8 0.8,-1.2 0.32,-0.44 0.56,-0.52 0.24,-0.12 0.8,-0.12 0.32,0 0.64,0.2 0.36,0.16 0.36,0.32 0,0.16 -1.16,1.36 -2.64,2.72 -3.68,4.4 -1,1.68 -1,2.84 0,0.32 0.12,0.56 0.12,0.24 0.4,0.24 0.52,0 1.24,-0.56 0.76,-0.56 1.56,-1.4 0.84,-0.84 1.68,-1.84 0.84,-1.04 1.6,-2 1.12,-1.4 1.64,-2.2 0.56,-0.8 0.84,-1.2 0.32,-0.44 0.52,-0.52 0.24,-0.12 0.8,-0.12 0.32,0 0.64,0.2 0.36,0.16 0.36,0.32 0,0.16 -1.16,1.36 -2.64,2.72 -3.68,4.4 -1,1.68 -1,2.84 0,0.8 0.56,0.8 0.36,0 1,-0.4 0.68,-0.44 1.48,-1.16 0.8,-0.76 1.68,-1.76 0.92,-1 1.84,-2.16 z"
         id="path52564" />
      <path
         d="m 128.21353,60.975156 q 0.44,0 0.56,0.04 0.16,0.04 0.16,0.24 0,0.2 -0.4,0.72 -0.36,0.52 -0.96,1.24 -0.6,0.72 -1.36,1.6 -0.72,0.88 -1.4,1.76 -0.76,0.96 -1.24,1.6 -0.44,0.6 -0.72,0.96 -0.24,0.36 -0.32,0.52 -0.08,0.12 -0.08,0.16 0,0.12 0.36,0.12 h 0.64 q 0.28,0 0.48,0.08 0.2,0.04 0.2,0.24 0,0.08 -0.08,0.12 -0.08,0.04 -0.56,0.04 h -0.48 l -1.08,-0.04 -0.92,1.28 q -2.08,2.88 -3.12,5 -1.04,2.12 -1.04,2.88 0,0.44 0.12,0.56 0.12,0.08 0.4,0.08 0.36,0 0.76,-0.16 0.44,-0.2 0.96,-0.6 0.56,-0.44 1.28,-1.12 0.72,-0.72 1.68,-1.8 1.44,-1.6 1.92,-2.16 0.52,-0.56 0.6,-0.56 0.04,0 0.08,0.08 0.04,0.04 -0.2,0.36 -0.24,0.32 -0.64,0.84 -0.4,0.48 -0.92,1.12 -0.52,0.64 -1.08,1.28 -1.76,2.04 -3.08,2.96 -1.32,0.88 -2.32,0.88 -0.96,0 -1.32,-0.4 -0.4,-0.36 -0.4,-1 0,-0.52 0.44,-1.44 0.44,-0.96 1.16,-2.12 0.72,-1.16 1.64,-2.48 0.92,-1.32 1.92,-2.6 l 0.64,-0.84 h -0.72 q -0.56,0 -0.76,-0.12 -0.2,-0.16 -0.2,-0.36 0,-0.08 0.16,-0.08 0.16,-0.04 0.84,-0.04 h 1.04 l 1.04,-1.52 q 1.72,-2.4 2.68,-3.84 1,-1.44 1.6,-2.2 0.6,-0.8 1,-1.04 0.44,-0.24 1.04,-0.24 z"
         id="path52566" />
      <path
         d="m 128.93347,67.535156 q 0,-0.28 0.2,-0.56 0.24,-0.28 0.52,-0.44 0.32,-0.2 0.64,-0.32 0.36,-0.12 0.6,-0.12 0.32,0 0.56,0.08 0.24,0.08 0.24,0.4 0,0.56 -0.6,0.96 -0.56,0.4 -1.48,0.4 -0.32,0 -0.52,-0.12 -0.16,-0.16 -0.16,-0.28 z m -1.2,4.4 q -1.28,1.32 -2.2,2.4 -0.88,1.08 -1.44,1.96 -0.52,0.84 -0.76,1.56 -0.24,0.68 -0.24,1.28 0,0.84 0.48,0.84 0.4,0 1.04,-0.4 0.64,-0.44 1.44,-1.16 0.84,-0.76 1.72,-1.76 0.92,-1 1.84,-2.16 0.52,-0.68 0.72,-0.68 0.12,0 0.12,0.16 0,0.12 -0.32,0.56 -0.32,0.44 -1.04,1.28 -0.8,0.96 -1.64,1.92 -0.84,0.92 -1.68,1.68 -0.84,0.72 -1.68,1.16 -0.84,0.48 -1.68,0.48 -0.68,0 -1.04,-0.4 -0.36,-0.4 -0.36,-1.04 0,-0.44 0.16,-0.88 0.12,-0.48 0.48,-1.08 0.36,-0.64 0.96,-1.48 0.6,-0.84 1.52,-2.08 0.96,-1.36 1.48,-2.16 0.56,-0.84 0.92,-1.24 0.36,-0.4 0.64,-0.52 0.28,-0.12 0.76,-0.12 0.36,0 0.64,0.2 0.28,0.2 0.36,0.28 0,0.2 -1.2,1.4 z"
         id="path52568" />
      <path
         d="m 142.13346,74.255156 q -0.12,0.16 -0.48,0.56 -0.36,0.36 -0.76,0.76 -2.76,2.76 -5.4,4.08 -2.64,1.32 -5.16,1.32 -1,0 -1.76,-0.64 -0.76,-0.68 -0.68,-1.96 0.04,-1.2 1,-2.68 0.92,-1.52 2.28,-2.88 1.4,-1.36 3.04,-2.28 1.64,-0.92 3.16,-0.92 1.24,0 1.72,0.44 0.52,0.4 0.48,1.04 -0.04,0.92 -0.72,1.76 -0.64,0.84 -1.6,1.52 -0.96,0.64 -2.04,1.04 -1.08,0.4 -2,0.4 -0.8,0 -1.24,-0.12 -0.44,-0.16 -0.56,-0.16 -0.08,0 -0.32,0.44 -0.2,0.44 -0.44,1.04 -0.2,0.56 -0.4,1.16 -0.16,0.56 -0.16,0.8 -0.04,0.76 0.2,1.08 0.28,0.28 1.04,0.28 1,0 2.24,-0.4 1.28,-0.44 2.6,-1.2 1.36,-0.8 2.76,-1.92 1.4,-1.16 2.68,-2.56 0.24,-0.32 0.36,-0.4 0.12,-0.12 0.2,-0.12 0.16,0 0.16,0.16 0,0.04 -0.2,0.36 z m -8.88,-1.4 q -0.2,0.24 -0.48,0.56 -0.24,0.32 -0.48,0.64 -0.2,0.32 -0.36,0.56 -0.16,0.24 -0.16,0.32 -0.04,0.16 0.24,0.24 0.32,0.04 0.76,0.04 0.6,0 1.24,-0.08 0.64,-0.12 1.44,-0.6 0.4,-0.16 0.96,-0.6 0.56,-0.44 1.08,-0.96 0.52,-0.52 0.88,-1 0.4,-0.52 0.4,-0.8 0.04,-0.44 -0.24,-0.64 -0.28,-0.24 -0.72,-0.24 -0.44,0 -1.04,0.2 -0.6,0.2 -1.24,0.56 -0.6,0.36 -1.2,0.84 -0.6,0.44 -1.08,0.96 z"
         id="path52570" />
      <path
         d="m 145.65346,70.375156 q 0,0.12 -0.04,0.24 0,0.08 -0.16,0.32 -0.16,0.2 -0.48,0.6 -0.28,0.4 -0.84,1.12 0.12,0 0.72,-0.6 1.16,-1.16 2,-1.64 0.84,-0.52 1.68,-0.52 0.48,0 0.8,0.32 0.36,0.28 0.36,0.84 0,0.84 -1.12,2.56 -0.36,0.56 -0.48,0.76 -0.08,0.2 -0.08,0.4 0.04,0.2 0.16,0.32 0.16,0.12 0.6,0.12 0.96,0 2.64,-1 0.32,-0.16 0.48,-0.24 0.2,-0.12 0.28,-0.12 0.08,0 0.08,0.08 0,0.16 -0.44,0.44 -0.44,0.28 -1.04,0.6 -0.6,0.28 -1.24,0.52 -0.6,0.2 -0.96,0.2 -0.68,0 -1.24,-0.36 -0.56,-0.4 -0.56,-1 0,-0.28 0.28,-0.84 0.28,-0.6 0.6,-1.2 0.32,-0.6 0.6,-1.08 0.28,-0.48 0.28,-0.48 0,-0.28 -0.36,-0.28 -0.48,0 -1.32,0.56 -0.8,0.52 -1.72,1.36 -0.92,0.84 -1.8,1.84 -0.88,1 -1.52,1.96 -0.6,0.92 -1.04,1.8 -0.48,0.84 -0.88,1.52 -0.44,0.64 -0.84,1.04 -0.4,0.44 -0.88,0.44 -0.32,0 -0.6,-0.12 -0.28,-0.12 -0.28,-0.36 0,-0.24 0.28,-0.68 0.24,-0.48 0.88,-1.28 1.56,-2.08 2.56,-3.52 0.96,-1.44 1.52,-2.36 0.6,-0.96 0.88,-1.48 0.28,-0.56 0.44,-0.8 0.16,-0.24 0.32,-0.28 0.16,-0.08 0.52,-0.08 0.8,0 0.96,0.36 z"
         id="path52572" />
      <path
         d="m 155.53345,70.375156 q 0,0.12 -0.04,0.24 0,0.08 -0.16,0.32 -0.16,0.2 -0.48,0.6 -0.28,0.4 -0.84,1.12 0.12,0 0.72,-0.6 1.16,-1.16 2,-1.64 0.84,-0.52 1.68,-0.52 0.48,0 0.8,0.32 0.36,0.28 0.36,0.84 0,0.84 -1.12,2.56 -0.36,0.56 -0.48,0.76 -0.08,0.2 -0.08,0.4 0.04,0.2 0.16,0.32 0.16,0.12 0.6,0.12 0.96,0 2.64,-1 0.32,-0.16 0.48,-0.24 0.2,-0.12 0.28,-0.12 0.08,0 0.08,0.08 0,0.16 -0.44,0.44 -0.44,0.28 -1.04,0.6 -0.6,0.28 -1.24,0.52 -0.6,0.2 -0.96,0.2 -0.68,0 -1.24,-0.36 -0.56,-0.4 -0.56,-1 0,-0.28 0.28,-0.84 0.28,-0.6 0.6,-1.2 0.32,-0.6 0.6,-1.08 0.28,-0.48 0.28,-0.48 0,-0.28 -0.36,-0.28 -0.48,0 -1.32,0.56 -0.8,0.52 -1.72,1.36 -0.92,0.84 -1.8,1.84 -0.88,1 -1.52,1.96 -0.6,0.92 -1.04,1.8 -0.48,0.84 -0.88,1.52 -0.44,0.64 -0.84,1.04 -0.4,0.44 -0.88,0.44 -0.32,0 -0.6,-0.12 -0.28,-0.12 -0.28,-0.36 0,-0.24 0.28,-0.68 0.24,-0.48 0.88,-1.28 1.56,-2.08 2.56,-3.52 0.96,-1.44 1.52,-2.36 0.6,-0.96 0.88,-1.48 0.28,-0.56 0.44,-0.8 0.16,-0.24 0.32,-0.28 0.16,-0.08 0.52,-0.08 0.8,0 0.96,0.36 z"
         id="path52574" />
      <path
         d="m 173.57344,74.255156 q -0.12,0.16 -0.48,0.56 -0.36,0.36 -0.76,0.76 -2.76,2.76 -5.4,4.08 -2.64,1.32 -5.16,1.32 -1,0 -1.76,-0.64 -0.76,-0.68 -0.68,-1.96 0.04,-1.2 1,-2.68 0.92,-1.52 2.28,-2.88 1.4,-1.36 3.04,-2.28 1.64,-0.92 3.16,-0.92 1.24,0 1.72,0.44 0.52,0.4 0.48,1.04 -0.04,0.92 -0.72,1.76 -0.64,0.84 -1.6,1.52 -0.96,0.64 -2.04,1.04 -1.08,0.4 -2,0.4 -0.8,0 -1.24,-0.12 -0.44,-0.16 -0.56,-0.16 -0.08,0 -0.32,0.44 -0.2,0.44 -0.44,1.04 -0.2,0.56 -0.4,1.16 -0.16,0.56 -0.16,0.8 -0.04,0.76 0.2,1.08 0.28,0.28 1.04,0.28 1,0 2.24,-0.4 1.28,-0.44 2.6,-1.2 1.36,-0.8 2.76,-1.92 1.4,-1.16 2.68,-2.56 0.24,-0.32 0.36,-0.4 0.12,-0.12 0.2,-0.12 0.16,0 0.16,0.16 0,0.04 -0.2,0.36 z m -8.88,-1.4 q -0.2,0.24 -0.48,0.56 -0.24,0.32 -0.48,0.64 -0.2,0.32 -0.36,0.56 -0.16,0.24 -0.16,0.32 -0.04,0.16 0.24,0.24 0.32,0.04 0.76,0.04 0.6,0 1.24,-0.08 0.64,-0.12 1.44,-0.6 0.4,-0.16 0.96,-0.6 0.56,-0.44 1.08,-0.96 0.52,-0.52 0.88,-1 0.4,-0.52 0.4,-0.8 0.04,-0.44 -0.24,-0.64 -0.28,-0.24 -0.72,-0.24 -0.44,0 -1.04,0.2 -0.6,0.2 -1.24,0.56 -0.6,0.36 -1.2,0.84 -0.6,0.44 -1.08,0.96 z"
         id="path52576" />
      <path
         d="m 184.17343,74.535156 q 0.44,-0.4 0.6,-0.6 0.2,-0.24 0.32,-0.24 0.04,0 0.04,0.08 0,0.12 -0.56,0.76 -0.56,0.64 -1.32,1.44 -0.76,0.8 -1.6,1.6 -0.84,0.8 -1.36,1.24 -0.56,0.48 -1.24,1 -0.68,0.48 -1.28,0.88 -0.56,0.44 -0.96,0.72 -0.4,0.28 -0.4,0.32 0,0.08 0,0.12 0.04,0.08 0.04,0.2 0,2.2 -1.16,4.16 -1.12,1.96 -2.8,3.4 -1.68,1.48 -3.6,2.32 -1.96,0.88 -3.56,0.88 -1.28,0 -1.96,-0.6 -0.72,-0.6 -0.72,-1.44 0,-0.68 0.6,-1.44 0.6,-0.76 1.96,-1.76 1.32,-0.96 3.48,-2.2 2.12,-1.24 5.2,-2.92 0.72,-0.4 0.84,-0.52 0.12,-0.12 0.12,-0.56 0,-0.64 -0.4,-1.24 -0.4,-0.6 -1.04,-0.6 -0.24,0 -0.8,0.16 -0.56,0.12 -1.16,0.28 -0.6,0.12 -1.04,0.28 -0.44,0.12 -0.4,0.12 -0.6,0 -0.6,-0.24 0,-0.08 0.28,-0.2 0.28,-0.16 1.32,-0.6 1.84,-0.8 3.44,-2 1.6,-1.2 2.76,-2.4 1.16,-1.2 1.84,-2.2 0.68,-1 0.68,-1.44 0,-0.4 -0.32,-0.64 -0.32,-0.28 -1,-0.28 -1,0 -2.04,0.72 -1.04,0.68 -1.72,1.92 -0.44,0.72 -0.68,0.96 -0.24,0.2 -0.64,0.2 -0.64,0 -0.64,-0.36 0,-0.76 0.6,-1.48 0.64,-0.72 1.52,-1.24 0.88,-0.56 1.8,-0.88 0.96,-0.32 1.56,-0.32 1.08,0 1.96,0.56 0.88,0.56 0.88,1.44 0,0.68 -0.52,1.6 -0.52,0.92 -1.4,1.88 -0.88,0.92 -2,1.8 -1.12,0.88 -2.36,1.48 l -0.84,0.44 0.48,0.16 q 0.6,0.2 1,0.56 0.44,0.32 0.72,0.88 0.16,0.36 0.24,0.36 0.08,0 0.52,-0.32 0.48,-0.28 1.08,-0.68 0.64,-0.44 1.24,-0.88 0.64,-0.48 1,-0.8 0.92,-0.8 2.04,-1.84 1.16,-1.08 1.96,-2 z m -9.72,8.76 q 0.2,-0.6 0.2,-0.68 0,0 -0.44,0.24 -0.4,0.24 -1.08,0.6 -0.64,0.36 -1.44,0.8 -0.84,0.48 -1.6,0.88 -0.76,0.44 -1.4,0.8 -0.64,0.36 -0.96,0.56 -2.28,1.36 -3.28,2.32 -1,1 -1,1.8 0,0.68 0.6,1.04 0.6,0.36 1.4,0.36 1,0 2.32,-0.72 1.32,-0.68 2.64,-1.88 1.28,-1.16 2.36,-2.76 1.12,-1.56 1.68,-3.36 z"
         id="path52578" />
    </g>
  </g>
</svg>
