<svg width="143" height="40" viewBox="0 0 143 40" fill="none" xmlns="http://www.w3.org/2000/svg">
<g clip-path="url(#clip0_13_31)">
<path d="M43.12 1.92C43.12 2.29334 43.0667 2.65333 42.96 3C42.88 3.32 42.72 3.70667 42.48 4.16C42.24 4.58667 41.9067 5.12 41.48 5.76C41.0533 6.37334 40.4933 7.16 39.8 8.12C38.4667 10.0133 37.2 11.8667 36 13.68C34.8 15.4667 33.7333 17.1733 32.8 18.8C31.8933 20.4267 31.1733 21.9333 30.64 23.32C30.1067 24.68 29.84 25.8933 29.84 26.96C29.84 27.36 29.8667 27.72 29.92 28.04C29.9733 28.3867 30.0667 28.6533 30.2 28.84C30.2267 28.8933 30.32 28.96 30.48 29.04C30.6667 29.1467 30.8533 29.2533 31.04 29.36C31.2267 29.4667 31.4 29.56 31.56 29.64C31.72 29.72 31.8 29.76 31.8 29.76C31.8 29.8667 31.68 29.96 31.44 30.04C31.2267 30.12 30.9733 30.16 30.68 30.16C29.5867 30.16 28.8133 29.84 28.36 29.2C27.9067 28.5867 27.68 27.88 27.68 27.08C27.68 26.0133 27.8933 24.9067 28.32 23.76C28.7733 22.6133 29.4267 21.24 30.28 19.64L31.16 17.96L30.92 18C30.5467 18.08 30.1467 18.12 29.72 18.12C28.9467 18.12 28.16 18 27.36 17.76C27.0933 17.68 26.7333 17.5333 26.28 17.32C25.8533 17.08 25.4267 16.84 25 16.6C24.5733 16.3333 24.2 16.1067 23.88 15.92C23.56 15.7333 23.3867 15.64 23.36 15.64C23.3067 15.64 23.2133 15.72 23.08 15.88C22.9733 16.04 22.8267 16.2267 22.64 16.44C21.44 17.8267 20.1467 19.2533 18.76 20.72C17.4 22.16 16.16 23.4267 15.04 24.52C14.08 25.4533 13.2 26.24 12.4 26.88C11.6 27.5467 10.84 28.08 10.12 28.48C9.4 28.9067 8.70666 29.2133 8.04 29.4C7.37333 29.5867 6.69333 29.68 6 29.68C5.04 29.68 4.18667 29.5333 3.44 29.24C2.69333 28.9467 2.06666 28.5467 1.56 28.04C1.05333 27.56 0.666664 27 0.399998 26.36C0.133331 25.7467 0 25.12 0 24.48C0 23.6533 0.199998 22.7733 0.599998 21.84C1.02667 20.88 1.6 20 2.32 19.2C3.04 18.4 3.88 17.7333 4.84 17.2C5.8 16.6667 6.82666 16.4 7.92 16.4C8.58666 16.4 9.18666 16.5067 9.72 16.72C10.2533 16.9333 10.6933 17.1867 11.04 17.48C11.4133 17.7733 11.6933 18.08 11.88 18.4C12.0667 18.6933 12.16 18.9467 12.16 19.16C12.16 19.4533 12.04 19.7067 11.8 19.92C11.5867 20.1333 11.3733 20.24 11.16 20.24C11.0267 20.24 10.8667 20.1733 10.68 20.04C10.4933 19.88 10.2 19.6133 9.8 19.24C9.18667 18.6533 8.70667 18.2667 8.36 18.08C8.04 17.8667 7.68 17.7333 7.28 17.68C6.56 17.68 5.81333 17.84 5.04 18.16C4.26666 18.48 3.56 18.9333 2.92 19.52C2.28 20.1067 1.74667 20.8133 1.32 21.64C0.92 22.44 0.719997 23.3333 0.719997 24.32C0.719997 25.0667 0.853332 25.7333 1.12 26.32C1.41333 26.9067 1.8 27.4 2.28 27.8C2.78667 28.2 3.36 28.4933 4 28.68C4.66667 28.8933 5.37333 29 6.12 29C7.29333 29 8.4 28.7467 9.44 28.24C10.5067 27.7333 11.7067 26.8933 13.04 25.72C13.3867 25.4 13.8667 24.9333 14.48 24.32C15.12 23.7067 15.8 23.0267 16.52 22.28C17.2667 21.5333 18.0133 20.76 18.76 19.96C19.5067 19.16 20.1867 18.4267 20.8 17.76C21.4133 17.0933 21.9067 16.5333 22.28 16.08C22.68 15.6 22.88 15.3067 22.88 15.2C22.88 15.1733 22.8133 15.12 22.68 15.04C22.5467 14.9333 22.3733 14.8267 22.16 14.72C21.9733 14.5867 21.7733 14.4533 21.56 14.32C21.3467 14.1867 21.16 14.08 21 14C20.7067 13.84 20.4533 13.7467 20.24 13.72C20.0533 13.6933 19.7333 13.68 19.28 13.68C18.7733 13.68 18.32 13.7733 17.92 13.96C17.5467 14.12 17.16 14.4 16.76 14.8C16.52 15.04 16.36 15.1867 16.28 15.24C16.2267 15.2667 16.1067 15.28 15.92 15.28C15.5733 15.28 15.4 15.2133 15.4 15.08C15.4 14.84 15.5333 14.6133 15.8 14.4C16.0933 14.16 16.44 13.9467 16.84 13.76C17.24 13.5733 17.6667 13.4267 18.12 13.32C18.5733 13.1867 18.9867 13.12 19.36 13.12C20.24 13.12 21.3333 13.4933 22.64 14.24C23.04 14.48 23.2933 14.6 23.4 14.6C23.4267 14.5733 23.52 14.48 23.68 14.32C23.84 14.1333 24.0267 13.92 24.24 13.68C28.16 9.12 31.4667 5.70667 34.16 3.44C36.8533 1.14667 39.1067 0 40.92 0C41.6133 0 42.1467 0.146665 42.52 0.439999C42.92 0.733332 43.12 1.22667 43.12 1.92V1.92ZM32.44 15.96C33.1067 14.8933 33.84 13.7733 34.64 12.6C35.44 11.4 36.3733 10.0533 37.44 8.56C38.2933 7.36 38.9733 6.37333 39.48 5.6C40.0133 4.8 40.4267 4.14667 40.72 3.64C41.0133 3.10667 41.2133 2.66667 41.32 2.32C41.4267 1.97333 41.48 1.64 41.48 1.32C41.48 0.813333 41.2667 0.560001 40.84 0.560001C40.2267 0.560001 39.5067 0.76 38.68 1.16C37.8533 1.56 36.96 2.12 36 2.84C35.04 3.53333 34.0267 4.37333 32.96 5.36C31.8933 6.32 30.8133 7.38667 29.72 8.56C29.5867 8.72 29.3467 8.98667 29 9.36C28.6533 9.73333 28.2667 10.16 27.84 10.64C27.4133 11.0933 26.9733 11.5867 26.52 12.12C26.0667 12.6267 25.64 13.0933 25.24 13.52C24.8667 13.92 24.56 14.2667 24.32 14.56C24.08 14.8533 23.96 15 23.96 15C23.96 15.0533 24.1733 15.2267 24.6 15.52C25.32 16.0533 25.9867 16.4667 26.6 16.76C27.24 17.0533 27.8133 17.28 28.32 17.44C28.8267 17.5733 29.2533 17.6667 29.6 17.72C29.9467 17.7467 30.2267 17.76 30.44 17.76C30.6267 17.76 30.7867 17.76 30.92 17.76C31.0533 17.7333 31.1733 17.6667 31.28 17.56C31.4133 17.4533 31.56 17.28 31.72 17.04C31.9067 16.7733 32.1467 16.4133 32.44 15.96V15.96Z" fill="#F0F5F9"/>
<path d="M40.48 24.56L42.52 21.52L41.24 22.76C40.4933 23.48 39.84 24.08 39.28 24.56C38.72 25.04 38.2133 25.4267 37.76 25.72C37.3333 25.9867 36.9333 26.1867 36.56 26.32C36.1867 26.4267 35.8267 26.48 35.48 26.48C34.9467 26.48 34.52 26.3333 34.2 26.04C33.88 25.7467 33.72 25.32 33.72 24.76C33.72 23.72 34.0667 22.6667 34.76 21.6C35.4267 20.5333 36.24 19.5867 37.2 18.76C38.1867 17.9067 39.2133 17.2133 40.28 16.68C41.3733 16.1467 42.3333 15.88 43.16 15.88C43.72 15.88 44.16 16 44.48 16.24C44.8 16.48 44.96 16.8267 44.96 17.28C44.96 17.4133 44.9333 17.56 44.88 17.72C44.8533 17.88 44.84 18 44.84 18.08C44.84 18.1067 44.8533 18.12 44.88 18.12C45.2 17.64 45.4667 17.2667 45.68 17C45.92 16.7067 46.1333 16.48 46.32 16.32C46.5067 16.16 46.6933 16.0667 46.88 16.04C47.0667 15.9867 47.28 15.96 47.52 15.96C47.8933 15.96 48.12 16.0133 48.2 16.12C48.3067 16.2267 48.36 16.3333 48.36 16.44C48.36 16.4667 48.16 16.7333 47.76 17.24C47.36 17.72 46.8667 18.3333 46.28 19.08C45.6933 19.8 45.04 20.5867 44.32 21.44C43.6267 22.2933 42.9867 23.1067 42.4 23.88C41.8133 24.6533 41.32 25.3333 40.92 25.92C40.52 26.48 40.32 26.8267 40.32 26.96C40.32 26.9867 40.4933 26.8933 40.84 26.68C41.2133 26.4933 41.7333 26.2133 42.4 25.84C43.84 25.0133 45.08 24.2 46.12 23.4C47.1867 22.5733 48.2 21.6533 49.16 20.64C49.5333 20.2667 49.8 20 49.96 19.84C50.12 19.68 50.2267 19.6 50.28 19.6C50.3333 19.6 50.36 19.6267 50.36 19.68V19.72C50.36 19.8 50.3333 19.8667 50.28 19.92C49.96 20.4533 49.4667 21.04 48.8 21.68C48.1333 22.2933 47.3867 22.92 46.56 23.56C45.76 24.1733 44.9333 24.76 44.08 25.32C43.2267 25.88 42.4533 26.3467 41.76 26.72C41.2 27.0133 40.7733 27.24 40.48 27.4C40.2133 27.56 40 27.7067 39.84 27.84C39.68 27.9733 39.5333 28.12 39.4 28.28C39.2933 28.4667 39.1333 28.7333 38.92 29.08C37.96 30.5733 37.1867 31.76 36.6 32.64C36.0133 33.5467 35.5333 34.28 35.16 34.84C34.76 35.4 34.4133 35.8533 34.12 36.2C33.8267 36.5467 33.4933 36.8933 33.12 37.24C32.7467 37.6133 32.4267 37.9067 32.16 38.12C31.8667 38.36 31.5867 38.5467 31.32 38.68C31.0533 38.84 30.7733 38.9467 30.48 39C30.1867 39.0533 29.8533 39.08 29.48 39.08C28.6 39.08 27.9467 38.8667 27.52 38.44C27.0933 38.04 26.88 37.52 26.88 36.88C26.88 36.3733 27.1467 35.7467 27.68 35C28.1867 34.2533 28.9067 33.48 29.84 32.68C30.7733 31.88 31.8933 31.08 33.2 30.28C34.48 29.48 35.8933 28.7467 37.44 28.08L38.4 27.64L40.48 24.56ZM34.92 32.6C35.32 32.0933 35.6933 31.5867 36.04 31.08C36.3867 30.6 36.6933 30.1733 36.96 29.8C37.2267 29.4267 37.4267 29.12 37.56 28.88C37.72 28.6667 37.8 28.56 37.8 28.56C37.7467 28.56 37.5067 28.6533 37.08 28.84C35.7733 29.4267 34.56 30.0667 33.44 30.76C32.32 31.4533 31.3467 32.1467 30.52 32.84C29.6667 33.5333 29 34.2133 28.52 34.88C28.04 35.5467 27.8 36.1333 27.8 36.64C27.8 37.3867 28.16 37.76 28.88 37.76C29.6533 37.76 30.5467 37.32 31.56 36.44C32.5467 35.56 33.6667 34.28 34.92 32.6V32.6ZM41.96 21.36C42.4667 20.8533 42.8667 20.4133 43.16 20.04C43.4533 19.6667 43.6667 19.3467 43.8 19.08C43.9333 18.7867 44.0133 18.5333 44.04 18.32C44.0667 18.1067 44.08 17.9067 44.08 17.72C44.08 17.3733 43.9867 17.0933 43.8 16.88C43.6133 16.64 43.3733 16.52 43.08 16.52C42.6267 16.52 42 16.8 41.2 17.36C40.4 17.8933 39.6133 18.5733 38.84 19.4C38.0667 20.2 37.4 21.0933 36.84 22.08C36.28 23.0667 36 24 36 24.88C36 25.04 36.0533 25.2 36.16 25.36C36.2667 25.52 36.3733 25.6 36.48 25.6C36.64 25.6 36.9067 25.4933 37.28 25.28C37.6533 25.04 38.08 24.7333 38.56 24.36C39.0667 23.9867 39.6133 23.5467 40.2 23.04C40.7867 22.5067 41.3733 21.9467 41.96 21.36V21.36Z" fill="#F0F5F9"/>
<path d="M54.3199 24.56L56.3599 21.52L55.0799 22.76C54.3333 23.48 53.6799 24.08 53.1199 24.56C52.5599 25.04 52.0533 25.4267 51.5999 25.72C51.1733 25.9867 50.7733 26.1867 50.3999 26.32C50.0266 26.4267 49.6666 26.48 49.3199 26.48C48.7866 26.48 48.3599 26.3333 48.0399 26.04C47.7199 25.7467 47.5599 25.32 47.5599 24.76C47.5599 23.72 47.9066 22.6667 48.5999 21.6C49.2666 20.5333 50.0799 19.5867 51.0399 18.76C52.0266 17.9067 53.0533 17.2133 54.1199 16.68C55.2133 16.1467 56.1733 15.88 56.9999 15.88C57.5599 15.88 57.9999 16 58.3199 16.24C58.6399 16.48 58.7999 16.8267 58.7999 17.28C58.7999 17.4133 58.7733 17.56 58.7199 17.72C58.6933 17.88 58.6799 18 58.6799 18.08C58.6799 18.1067 58.6933 18.12 58.7199 18.12C59.0399 17.64 59.3066 17.2667 59.5199 17C59.7599 16.7067 59.9733 16.48 60.1599 16.32C60.3466 16.16 60.5333 16.0667 60.7199 16.04C60.9066 15.9867 61.1199 15.96 61.3599 15.96C61.7333 15.96 61.9599 16.0133 62.0399 16.12C62.1466 16.2267 62.1999 16.3333 62.1999 16.44C62.1999 16.4667 61.9999 16.7333 61.5999 17.24C61.1999 17.72 60.7066 18.3333 60.1199 19.08C59.5333 19.8 58.8799 20.5867 58.1599 21.44C57.4666 22.2933 56.8266 23.1067 56.2399 23.88C55.6533 24.6533 55.1599 25.3333 54.7599 25.92C54.3599 26.48 54.1599 26.8267 54.1599 26.96C54.1599 26.9867 54.3333 26.8933 54.6799 26.68C55.0533 26.4933 55.5733 26.2133 56.2399 25.84C57.6799 25.0133 58.9199 24.2 59.9599 23.4C61.0266 22.5733 62.0399 21.6533 62.9999 20.64C63.3733 20.2667 63.6399 20 63.7999 19.84C63.9599 19.68 64.0666 19.6 64.1199 19.6C64.1733 19.6 64.1999 19.6267 64.1999 19.68V19.72C64.1999 19.8 64.1733 19.8667 64.1199 19.92C63.7999 20.4533 63.3066 21.04 62.6399 21.68C61.9733 22.2933 61.2266 22.92 60.3999 23.56C59.5999 24.1733 58.7733 24.76 57.9199 25.32C57.0666 25.88 56.2933 26.3467 55.5999 26.72C55.0399 27.0133 54.6133 27.24 54.3199 27.4C54.0533 27.56 53.8399 27.7067 53.6799 27.84C53.5199 27.9733 53.3733 28.12 53.2399 28.28C53.1333 28.4667 52.9733 28.7333 52.7599 29.08C51.7999 30.5733 51.0266 31.76 50.4399 32.64C49.8533 33.5467 49.3733 34.28 48.9999 34.84C48.5999 35.4 48.2533 35.8533 47.9599 36.2C47.6666 36.5467 47.3333 36.8933 46.9599 37.24C46.5866 37.6133 46.2666 37.9067 45.9999 38.12C45.7066 38.36 45.4266 38.5467 45.1599 38.68C44.8933 38.84 44.6133 38.9467 44.3199 39C44.0266 39.0533 43.6933 39.08 43.3199 39.08C42.4399 39.08 41.7866 38.8667 41.3599 38.44C40.9333 38.04 40.7199 37.52 40.7199 36.88C40.7199 36.3733 40.9866 35.7467 41.5199 35C42.0266 34.2533 42.7466 33.48 43.6799 32.68C44.6133 31.88 45.7333 31.08 47.0399 30.28C48.3199 29.48 49.7333 28.7467 51.2799 28.08L52.2399 27.64L54.3199 24.56ZM48.7599 32.6C49.1599 32.0933 49.5333 31.5867 49.8799 31.08C50.2266 30.6 50.5333 30.1733 50.7999 29.8C51.0666 29.4267 51.2666 29.12 51.3999 28.88C51.5599 28.6667 51.6399 28.56 51.6399 28.56C51.5866 28.56 51.3466 28.6533 50.9199 28.84C49.6133 29.4267 48.3999 30.0667 47.2799 30.76C46.1599 31.4533 45.1866 32.1467 44.3599 32.84C43.5066 33.5333 42.8399 34.2133 42.3599 34.88C41.8799 35.5467 41.6399 36.1333 41.6399 36.64C41.6399 37.3867 41.9999 37.76 42.7199 37.76C43.4933 37.76 44.3866 37.32 45.3999 36.44C46.3866 35.56 47.5066 34.28 48.7599 32.6V32.6ZM55.7999 21.36C56.3066 20.8533 56.7066 20.4133 56.9999 20.04C57.2933 19.6667 57.5066 19.3467 57.6399 19.08C57.7733 18.7867 57.8533 18.5333 57.8799 18.32C57.9066 18.1067 57.9199 17.9067 57.9199 17.72C57.9199 17.3733 57.8266 17.0933 57.6399 16.88C57.4533 16.64 57.2133 16.52 56.9199 16.52C56.4666 16.52 55.8399 16.8 55.0399 17.36C54.2399 17.8933 53.4533 18.5733 52.6799 19.4C51.9066 20.2 51.2399 21.0933 50.6799 22.08C50.1199 23.0667 49.8399 24 49.8399 24.88C49.8399 25.04 49.8933 25.2 49.9999 25.36C50.1066 25.52 50.2133 25.6 50.3199 25.6C50.4799 25.6 50.7466 25.4933 51.1199 25.28C51.4933 25.04 51.9199 24.7333 52.3999 24.36C52.9066 23.9867 53.4533 23.5467 54.0399 23.04C54.6266 22.5067 55.2133 21.9467 55.7999 21.36V21.36Z" fill="#F0F5F9"/>
<path d="M74.9199 20.12C75.2666 19.6667 75.5066 19.44 75.6399 19.44C75.6666 19.44 75.7066 19.48 75.7599 19.56C75.7599 19.64 75.6666 19.8267 75.4799 20.12C75.2932 20.3867 74.9332 20.8267 74.3999 21.44C73.8132 22.1333 73.2399 22.8 72.6799 23.44C72.1199 24.0533 71.5599 24.6 70.9999 25.08C70.4399 25.56 69.8799 25.9467 69.3199 26.24C68.7866 26.5333 68.2399 26.68 67.6799 26.68C67.2266 26.68 66.8799 26.5467 66.6399 26.28C66.3999 26.0133 66.2799 25.68 66.2799 25.28C66.2799 25.0667 66.3199 24.84 66.3999 24.6C66.4799 24.3333 66.5199 24.1733 66.5199 24.12C65.5599 25 64.7466 25.6267 64.0799 26C63.4399 26.3733 62.8132 26.56 62.1999 26.56C61.2399 26.56 60.7599 26.12 60.7599 25.24C60.7599 24.92 60.7999 24.6133 60.8799 24.32C60.9599 24 61.1199 23.64 61.3599 23.24C61.5732 22.8133 61.8799 22.32 62.2799 21.76C62.6799 21.2 63.1999 20.4933 63.8399 19.64C64.5866 18.7067 65.1332 17.9733 65.4799 17.44C65.8266 16.9067 66.0932 16.5067 66.2799 16.24C66.4932 15.9467 66.6799 15.7733 66.8399 15.72C66.9999 15.64 67.2666 15.6 67.6399 15.6C67.8532 15.6 68.0666 15.6667 68.2799 15.8C68.5199 15.9067 68.6399 16.0133 68.6399 16.12C68.6399 16.2267 68.2532 16.68 67.4799 17.48C65.7199 19.2933 64.4932 20.76 63.7999 21.88C63.1332 23 62.7999 23.9467 62.7999 24.72C62.7999 24.9333 62.8399 25.12 62.9199 25.28C62.9999 25.44 63.1332 25.52 63.3199 25.52C63.6666 25.52 64.0799 25.3333 64.5599 24.96C65.0665 24.5867 65.5866 24.12 66.1199 23.56C66.6799 23 67.2399 22.3867 67.7999 21.72C68.3599 21.0267 68.8932 20.36 69.3999 19.72C70.1466 18.7867 70.6932 18.0533 71.0399 17.52C71.4132 16.9867 71.6932 16.5867 71.8799 16.32C72.0932 16.0267 72.2666 15.8533 72.3999 15.8C72.5599 15.72 72.8266 15.68 73.1999 15.68C73.4132 15.68 73.6266 15.7467 73.8399 15.88C74.0799 15.9867 74.1999 16.0933 74.1999 16.2C74.1999 16.3067 73.8132 16.76 73.0399 17.56C71.2799 19.3733 70.0532 20.84 69.3599 21.96C68.6932 23.08 68.3599 24.0267 68.3599 24.8C68.3599 25.3333 68.5466 25.6 68.9199 25.6C69.1599 25.6 69.4932 25.4667 69.9199 25.2C70.3732 24.9067 70.8666 24.52 71.3999 24.04C71.9332 23.5333 72.4932 22.9467 73.0799 22.28C73.6932 21.6133 74.3066 20.8933 74.9199 20.12V20.12Z" fill="#F0F5F9"/>
<path d="M85.4799 6.79999C85.7732 6.79999 85.9599 6.81332 86.0399 6.83999C86.1465 6.86666 86.1999 6.94666 86.1999 7.07999C86.1999 7.21332 86.0665 7.45332 85.7999 7.79999C85.5599 8.14665 85.2399 8.55999 84.8399 9.03999C84.4399 9.51999 83.9865 10.0533 83.4799 10.64C82.9999 11.2267 82.5332 11.8133 82.0799 12.4C81.5732 13.04 81.1599 13.5733 80.8399 14C80.5465 14.4 80.3065 14.72 80.1199 14.96C79.9599 15.2 79.8532 15.3733 79.7999 15.48C79.7465 15.56 79.7199 15.6133 79.7199 15.64C79.7199 15.72 79.8399 15.76 80.0799 15.76H80.7199C80.9065 15.76 81.0665 15.7867 81.1999 15.84C81.3332 15.8667 81.3999 15.9467 81.3999 16.08C81.3999 16.1333 81.3732 16.1733 81.3199 16.2C81.2665 16.2267 81.0799 16.24 80.7599 16.24H80.2799L79.1999 16.2L78.2799 17.48C76.8932 19.4 75.8532 21.0667 75.1599 22.48C74.4665 23.8933 74.1199 24.8533 74.1199 25.36C74.1199 25.6533 74.1599 25.84 74.2399 25.92C74.3199 25.9733 74.4532 26 74.6399 26C74.8799 26 75.1332 25.9467 75.3999 25.84C75.6932 25.7067 76.0132 25.5067 76.3599 25.24C76.7332 24.9467 77.1599 24.5733 77.6399 24.12C78.1199 23.64 78.6799 23.04 79.3199 22.32C80.2799 21.2533 80.9199 20.5333 81.2399 20.16C81.5865 19.7867 81.7865 19.6 81.8399 19.6C81.8665 19.6 81.8932 19.6267 81.9199 19.68C81.9465 19.7067 81.8799 19.8267 81.7199 20.04C81.5599 20.2533 81.3465 20.5333 81.0799 20.88C80.8132 21.2 80.5065 21.5733 80.1599 22C79.8132 22.4267 79.4532 22.8533 79.0799 23.28C77.9065 24.64 76.8799 25.6267 75.9999 26.24C75.1199 26.8267 74.3465 27.12 73.6799 27.12C73.0399 27.12 72.5999 26.9867 72.3599 26.72C72.0932 26.48 71.9599 26.1467 71.9599 25.72C71.9599 25.3733 72.1065 24.8933 72.3999 24.28C72.6932 23.64 73.0799 22.9333 73.5599 22.16C74.0399 21.3867 74.5865 20.56 75.1999 19.68C75.8132 18.8 76.4532 17.9333 77.1199 17.08L77.7599 16.24H77.0399C76.6665 16.24 76.4132 16.2 76.2799 16.12C76.1465 16.0133 76.0799 15.8933 76.0799 15.76C76.0799 15.7067 76.1332 15.68 76.2399 15.68C76.3465 15.6533 76.6265 15.64 77.0799 15.64H78.1199L79.1599 14.12C80.3065 12.52 81.1999 11.24 81.8399 10.28C82.5065 9.31999 83.0399 8.58666 83.4399 8.07999C83.8399 7.54666 84.1732 7.19999 84.4399 7.03999C84.7332 6.87999 85.0799 6.79999 85.4799 6.79999V6.79999Z" fill="#F0F5F9"/>
<path d="M86.1998 13.36C86.1998 13.1733 86.2665 12.9867 86.3998 12.8C86.5598 12.6133 86.7331 12.4667 86.9198 12.36C87.1331 12.2267 87.3465 12.12 87.5598 12.04C87.7998 11.96 87.9998 11.92 88.1598 11.92C88.3731 11.92 88.5598 11.9467 88.7198 12C88.8798 12.0533 88.9598 12.1867 88.9598 12.4C88.9598 12.7733 88.7598 13.0933 88.3598 13.36C87.9865 13.6267 87.4931 13.76 86.8798 13.76C86.6665 13.76 86.4931 13.72 86.3598 13.64C86.2531 13.5333 86.1998 13.44 86.1998 13.36ZM84.9998 17.76C84.1465 18.64 83.4131 19.44 82.7998 20.16C82.2131 20.88 81.7331 21.5333 81.3598 22.12C81.0131 22.68 80.7598 23.2 80.5998 23.68C80.4398 24.1333 80.3598 24.56 80.3598 24.96C80.3598 25.52 80.5198 25.8 80.8398 25.8C81.1065 25.8 81.4531 25.6667 81.8798 25.4C82.3065 25.1067 82.7865 24.72 83.3198 24.24C83.8798 23.7333 84.4531 23.1467 85.0398 22.48C85.6531 21.8133 86.2665 21.0933 86.8798 20.32C87.2265 19.8667 87.4665 19.64 87.5998 19.64C87.6798 19.64 87.7198 19.6933 87.7198 19.8C87.7198 19.88 87.6131 20.0667 87.3998 20.36C87.1865 20.6533 86.8398 21.08 86.3598 21.64C85.8265 22.28 85.2798 22.92 84.7198 23.56C84.1598 24.1733 83.5998 24.7333 83.0398 25.24C82.4798 25.72 81.9198 26.1067 81.3598 26.4C80.7998 26.72 80.2398 26.88 79.6798 26.88C79.2265 26.88 78.8798 26.7467 78.6398 26.48C78.3998 26.2133 78.2798 25.8667 78.2798 25.44C78.2798 25.1467 78.3331 24.8533 78.4398 24.56C78.5198 24.24 78.6798 23.88 78.9198 23.48C79.1598 23.0533 79.4798 22.56 79.8798 22C80.2798 21.44 80.7865 20.7466 81.3998 19.92C82.0398 19.0133 82.5331 18.2933 82.8798 17.76C83.2531 17.2 83.5598 16.7866 83.7998 16.52C84.0398 16.2533 84.2531 16.08 84.4398 16C84.6265 15.92 84.8798 15.88 85.1998 15.88C85.4398 15.88 85.6531 15.9467 85.8398 16.08C86.0265 16.2133 86.1465 16.3067 86.1998 16.36C86.1998 16.4933 85.7998 16.96 84.9998 17.76V17.76Z" fill="#F0F5F9"/>
<path d="M99.3998 20.08C99.3198 20.1867 99.1598 20.3733 98.9198 20.64C98.6798 20.88 98.4264 21.1333 98.1598 21.4C96.3198 23.24 94.5198 24.6 92.7598 25.48C90.9998 26.36 89.2798 26.8 87.5998 26.8C86.9331 26.8 86.3464 26.5867 85.8398 26.16C85.3331 25.7067 85.1064 25.0533 85.1598 24.2C85.1864 23.4 85.5198 22.5067 86.1598 21.52C86.7731 20.5067 87.5331 19.5467 88.4398 18.64C89.3731 17.7333 90.3864 16.9733 91.4798 16.36C92.5731 15.7467 93.6264 15.44 94.6398 15.44C95.4664 15.44 96.0398 15.5867 96.3598 15.88C96.7064 16.1467 96.8664 16.4933 96.8398 16.92C96.8131 17.5333 96.5731 18.12 96.1198 18.68C95.6931 19.24 95.1598 19.7467 94.5198 20.2C93.8798 20.6267 93.1998 20.9733 92.4798 21.24C91.7598 21.5067 91.0931 21.64 90.4798 21.64C89.9464 21.64 89.5331 21.6 89.2398 21.52C88.9464 21.4133 88.7598 21.36 88.6798 21.36C88.6265 21.36 88.5198 21.5067 88.3598 21.8C88.2264 22.0933 88.0798 22.44 87.9198 22.84C87.7864 23.2133 87.6531 23.6 87.5198 24C87.4131 24.3733 87.3598 24.64 87.3598 24.8C87.3331 25.3067 87.3998 25.6667 87.5598 25.88C87.7464 26.0667 88.0931 26.16 88.5998 26.16C89.2664 26.16 90.0131 26.0267 90.8398 25.76C91.6931 25.4667 92.5598 25.0667 93.4398 24.56C94.3464 24.0267 95.2664 23.3867 96.1998 22.64C97.1331 21.8667 98.0264 21.0133 98.8798 20.08C99.0398 19.8667 99.1598 19.7333 99.2398 19.68C99.3198 19.6 99.3864 19.56 99.4398 19.56C99.5464 19.56 99.5998 19.6133 99.5998 19.72C99.5998 19.7467 99.5331 19.8667 99.3998 20.08V20.08ZM90.5198 18.68C90.3864 18.84 90.2264 19.0267 90.0398 19.24C89.8798 19.4533 89.7198 19.6667 89.5598 19.88C89.4264 20.0933 89.3064 20.28 89.1998 20.44C89.0931 20.6 89.0398 20.7067 89.0398 20.76C89.0131 20.8667 89.0931 20.9467 89.2798 21C89.4931 21.0267 89.7464 21.04 90.0398 21.04C90.4398 21.04 90.8531 21.0133 91.2798 20.96C91.7064 20.88 92.1864 20.68 92.7198 20.36C92.9864 20.2533 93.3065 20.0533 93.6798 19.76C94.0531 19.4667 94.4131 19.1467 94.7598 18.8C95.1064 18.4533 95.3998 18.12 95.6398 17.8C95.9064 17.4533 96.0398 17.1867 96.0398 17C96.0664 16.7067 95.9864 16.4933 95.7998 16.36C95.6131 16.2 95.3731 16.12 95.0798 16.12C94.7864 16.12 94.4398 16.1867 94.0398 16.32C93.6398 16.4533 93.2264 16.64 92.7998 16.88C92.3998 17.12 91.9998 17.4 91.5998 17.72C91.1998 18.0133 90.8398 18.3333 90.5198 18.68V18.68Z" fill="#F0F5F9"/>
<path d="M102.92 16.2C102.92 16.28 102.906 16.36 102.88 16.44C102.88 16.4933 102.826 16.6 102.72 16.76C102.613 16.8933 102.453 17.0933 102.24 17.36C102.053 17.6267 101.773 18 101.4 18.48C101.48 18.48 101.72 18.28 102.12 17.88C102.893 17.1067 103.56 16.56 104.12 16.24C104.68 15.8933 105.24 15.72 105.8 15.72C106.12 15.72 106.386 15.8267 106.6 16.04C106.84 16.2267 106.96 16.5067 106.96 16.88C106.96 17.44 106.586 18.2933 105.84 19.44C105.6 19.8133 105.44 20.0667 105.36 20.2C105.306 20.3333 105.28 20.4667 105.28 20.6C105.306 20.7333 105.36 20.84 105.44 20.92C105.546 21 105.746 21.04 106.04 21.04C106.68 21.04 107.56 20.7067 108.68 20.04C108.893 19.9333 109.053 19.8533 109.16 19.8C109.293 19.72 109.386 19.68 109.44 19.68C109.493 19.68 109.52 19.7067 109.52 19.76C109.52 19.8667 109.373 20.0133 109.08 20.2C108.786 20.3867 108.44 20.5867 108.04 20.8C107.64 20.9867 107.226 21.16 106.8 21.32C106.4 21.4533 106.08 21.52 105.84 21.52C105.386 21.52 104.973 21.4 104.6 21.16C104.226 20.8933 104.04 20.56 104.04 20.16C104.04 19.9733 104.133 19.6933 104.32 19.32C104.506 18.92 104.706 18.52 104.92 18.12C105.133 17.72 105.333 17.36 105.52 17.04C105.706 16.72 105.8 16.56 105.8 16.56C105.8 16.3733 105.68 16.28 105.44 16.28C105.12 16.28 104.68 16.4667 104.12 16.84C103.586 17.1867 103.013 17.64 102.4 18.2C101.786 18.76 101.186 19.3733 100.6 20.04C100.013 20.7067 99.5064 21.36 99.0798 22C98.6798 22.6133 98.3331 23.2133 98.0398 23.8C97.7198 24.36 97.4264 24.8667 97.1598 25.32C96.8664 25.7467 96.5864 26.0933 96.3198 26.36C96.0531 26.6533 95.7598 26.8 95.4398 26.8C95.2264 26.8 95.0264 26.76 94.8398 26.68C94.6531 26.6 94.5598 26.48 94.5598 26.32C94.5598 26.16 94.6531 25.9333 94.8398 25.64C94.9998 25.32 95.2931 24.8933 95.7198 24.36C96.7598 22.9733 97.6131 21.8 98.2798 20.84C98.9198 19.88 99.4264 19.0933 99.7998 18.48C100.2 17.84 100.493 17.3467 100.68 17C100.866 16.6267 101.013 16.36 101.12 16.2C101.226 16.04 101.333 15.9467 101.44 15.92C101.546 15.8667 101.72 15.84 101.96 15.84C102.493 15.84 102.813 15.96 102.92 16.2V16.2Z" fill="#F0F5F9"/>
<path d="M112.8 16.2C112.8 16.28 112.786 16.36 112.76 16.44C112.76 16.4933 112.706 16.6 112.6 16.76C112.493 16.8933 112.333 17.0933 112.12 17.36C111.933 17.6267 111.653 18 111.28 18.48C111.36 18.48 111.6 18.28 112 17.88C112.773 17.1067 113.44 16.56 114 16.24C114.56 15.8933 115.12 15.72 115.68 15.72C116 15.72 116.266 15.8267 116.48 16.04C116.72 16.2267 116.84 16.5067 116.84 16.88C116.84 17.44 116.466 18.2933 115.72 19.44C115.48 19.8133 115.32 20.0667 115.24 20.2C115.186 20.3333 115.16 20.4667 115.16 20.6C115.186 20.7333 115.24 20.84 115.32 20.92C115.426 21 115.626 21.04 115.92 21.04C116.56 21.04 117.44 20.7067 118.56 20.04C118.773 19.9333 118.933 19.8533 119.04 19.8C119.173 19.72 119.266 19.68 119.32 19.68C119.373 19.68 119.4 19.7067 119.4 19.76C119.4 19.8667 119.253 20.0133 118.96 20.2C118.666 20.3867 118.32 20.5867 117.92 20.8C117.52 20.9867 117.106 21.16 116.68 21.32C116.28 21.4533 115.96 21.52 115.72 21.52C115.266 21.52 114.853 21.4 114.48 21.16C114.106 20.8933 113.92 20.56 113.92 20.16C113.92 19.9733 114.013 19.6933 114.2 19.32C114.386 18.92 114.586 18.52 114.8 18.12C115.013 17.72 115.213 17.36 115.4 17.04C115.586 16.72 115.68 16.56 115.68 16.56C115.68 16.3733 115.56 16.28 115.32 16.28C115 16.28 114.56 16.4667 114 16.84C113.466 17.1867 112.893 17.64 112.28 18.2C111.666 18.76 111.066 19.3733 110.48 20.04C109.893 20.7067 109.386 21.36 108.96 22C108.56 22.6133 108.213 23.2133 107.92 23.8C107.6 24.36 107.306 24.8667 107.04 25.32C106.746 25.7467 106.466 26.0933 106.2 26.36C105.933 26.6533 105.64 26.8 105.32 26.8C105.106 26.8 104.906 26.76 104.72 26.68C104.533 26.6 104.44 26.48 104.44 26.32C104.44 26.16 104.533 25.9333 104.72 25.64C104.88 25.32 105.173 24.8933 105.6 24.36C106.64 22.9733 107.493 21.8 108.16 20.84C108.8 19.88 109.306 19.0933 109.68 18.48C110.08 17.84 110.373 17.3467 110.56 17C110.746 16.6267 110.893 16.36 111 16.2C111.106 16.04 111.213 15.9467 111.32 15.92C111.426 15.8667 111.6 15.84 111.84 15.84C112.373 15.84 112.693 15.96 112.8 16.2V16.2Z" fill="#F0F5F9"/>
<path d="M130.84 20.08C130.76 20.1867 130.6 20.3733 130.36 20.64C130.12 20.88 129.866 21.1333 129.6 21.4C127.76 23.24 125.96 24.6 124.2 25.48C122.44 26.36 120.72 26.8 119.04 26.8C118.373 26.8 117.786 26.5867 117.28 26.16C116.773 25.7067 116.546 25.0533 116.6 24.2C116.626 23.4 116.96 22.5067 117.6 21.52C118.213 20.5067 118.973 19.5467 119.88 18.64C120.813 17.7333 121.826 16.9733 122.92 16.36C124.013 15.7467 125.066 15.44 126.08 15.44C126.906 15.44 127.48 15.5867 127.8 15.88C128.146 16.1467 128.306 16.4933 128.28 16.92C128.253 17.5333 128.013 18.12 127.56 18.68C127.133 19.24 126.6 19.7467 125.96 20.2C125.32 20.6267 124.64 20.9733 123.92 21.24C123.2 21.5067 122.533 21.64 121.92 21.64C121.386 21.64 120.973 21.6 120.68 21.52C120.386 21.4133 120.2 21.36 120.12 21.36C120.066 21.36 119.96 21.5067 119.8 21.8C119.666 22.0933 119.52 22.44 119.36 22.84C119.226 23.2133 119.093 23.6 118.96 24C118.853 24.3733 118.8 24.64 118.8 24.8C118.773 25.3067 118.84 25.6667 119 25.88C119.186 26.0667 119.533 26.16 120.04 26.16C120.706 26.16 121.453 26.0267 122.28 25.76C123.133 25.4667 124 25.0667 124.88 24.56C125.786 24.0267 126.706 23.3867 127.64 22.64C128.573 21.8667 129.466 21.0133 130.32 20.08C130.48 19.8667 130.6 19.7333 130.68 19.68C130.76 19.6 130.826 19.56 130.88 19.56C130.986 19.56 131.04 19.6133 131.04 19.72C131.04 19.7467 130.973 19.8667 130.84 20.08V20.08ZM121.96 18.68C121.826 18.84 121.666 19.0267 121.48 19.24C121.32 19.4533 121.16 19.6667 121 19.88C120.866 20.0933 120.746 20.28 120.64 20.44C120.533 20.6 120.48 20.7067 120.48 20.76C120.453 20.8667 120.533 20.9467 120.72 21C120.933 21.0267 121.186 21.04 121.48 21.04C121.88 21.04 122.293 21.0133 122.72 20.96C123.146 20.88 123.626 20.68 124.16 20.36C124.426 20.2533 124.746 20.0533 125.12 19.76C125.493 19.4667 125.853 19.1467 126.2 18.8C126.546 18.4533 126.84 18.12 127.08 17.8C127.346 17.4533 127.48 17.1867 127.48 17C127.506 16.7067 127.426 16.4933 127.24 16.36C127.053 16.2 126.813 16.12 126.52 16.12C126.226 16.12 125.88 16.1867 125.48 16.32C125.08 16.4533 124.666 16.64 124.24 16.88C123.84 17.12 123.44 17.4 123.04 17.72C122.64 18.0133 122.28 18.3333 121.96 18.68V18.68Z" fill="#F0F5F9"/>
<path d="M141.44 20.36C141.733 20.0933 141.933 19.8933 142.04 19.76C142.173 19.6 142.28 19.52 142.36 19.52C142.386 19.52 142.4 19.5467 142.4 19.6C142.4 19.68 142.213 19.9333 141.84 20.36C141.466 20.7867 141.026 21.2667 140.52 21.8C140.013 22.3333 139.48 22.8667 138.92 23.4C138.36 23.9333 137.906 24.3467 137.56 24.64C137.186 24.96 136.773 25.2933 136.32 25.64C135.866 25.96 135.44 26.2533 135.04 26.52C134.666 26.8133 134.346 27.0533 134.08 27.24C133.813 27.4267 133.68 27.5333 133.68 27.56C133.68 27.6133 133.68 27.6533 133.68 27.68C133.706 27.7333 133.72 27.8 133.72 27.88C133.72 29.3467 133.333 30.7333 132.56 32.04C131.813 33.3467 130.88 34.48 129.76 35.44C128.64 36.4267 127.44 37.2 126.16 37.76C124.853 38.3467 123.666 38.64 122.6 38.64C121.746 38.64 121.093 38.44 120.64 38.04C120.16 37.64 119.92 37.16 119.92 36.6C119.92 36.1467 120.12 35.6667 120.52 35.16C120.92 34.6533 121.573 34.0667 122.48 33.4C123.36 32.76 124.52 32.0267 125.96 31.2C127.373 30.3733 129.106 29.4 131.16 28.28C131.64 28.0133 131.92 27.84 132 27.76C132.08 27.68 132.12 27.4933 132.12 27.2C132.12 26.7733 131.986 26.36 131.72 25.96C131.453 25.56 131.106 25.36 130.68 25.36C130.52 25.36 130.253 25.4133 129.88 25.52C129.506 25.6 129.12 25.6933 128.72 25.8C128.32 25.88 127.973 25.9733 127.68 26.08C127.386 26.16 127.253 26.2 127.28 26.2C126.88 26.2 126.68 26.12 126.68 25.96C126.68 25.9067 126.773 25.84 126.96 25.76C127.146 25.6533 127.586 25.4533 128.28 25.16C129.506 24.6267 130.653 23.96 131.72 23.16C132.786 22.36 133.706 21.56 134.48 20.76C135.253 19.96 135.866 19.2267 136.32 18.56C136.773 17.8933 137 17.4133 137 17.12C137 16.8533 136.893 16.64 136.68 16.48C136.466 16.2933 136.133 16.2 135.68 16.2C135.013 16.2 134.333 16.44 133.64 16.92C132.946 17.3733 132.373 18.0133 131.92 18.84C131.626 19.32 131.4 19.64 131.24 19.8C131.08 19.9333 130.866 20 130.6 20C130.173 20 129.96 19.88 129.96 19.64C129.96 19.1333 130.16 18.64 130.56 18.16C130.986 17.68 131.493 17.2667 132.08 16.92C132.666 16.5467 133.266 16.2533 133.88 16.04C134.52 15.8267 135.04 15.72 135.44 15.72C136.16 15.72 136.813 15.9067 137.4 16.28C137.986 16.6533 138.28 17.1333 138.28 17.72C138.28 18.1733 138.106 18.7067 137.76 19.32C137.413 19.9333 136.946 20.56 136.36 21.2C135.773 21.8133 135.106 22.4133 134.36 23C133.613 23.5867 132.826 24.08 132 24.48L131.16 24.92L131.64 25.08C132.04 25.2133 132.373 25.4 132.64 25.64C132.933 25.8533 133.173 26.1467 133.36 26.52C133.466 26.76 133.546 26.88 133.6 26.88C133.653 26.88 133.826 26.7733 134.12 26.56C134.44 26.3733 134.8 26.1467 135.2 25.88C135.626 25.5867 136.04 25.2933 136.44 25C136.866 24.68 137.2 24.4133 137.44 24.2C138.053 23.6667 138.733 23.0533 139.48 22.36C140.253 21.64 140.906 20.9733 141.44 20.36V20.36ZM131.72 29.12C131.853 28.72 131.92 28.4933 131.92 28.44C131.92 28.44 131.773 28.52 131.48 28.68C131.213 28.84 130.853 29.04 130.4 29.28C129.973 29.52 129.493 29.7867 128.96 30.08C128.4 30.4 127.866 30.6933 127.36 30.96C126.853 31.2533 126.386 31.52 125.96 31.76C125.533 32 125.213 32.1867 125 32.32C123.48 33.2267 122.386 34 121.72 34.64C121.053 35.3067 120.72 35.9067 120.72 36.44C120.72 36.8933 120.92 37.24 121.32 37.48C121.72 37.72 122.186 37.84 122.72 37.84C123.386 37.84 124.16 37.6 125.04 37.12C125.92 36.6667 126.8 36.04 127.68 35.24C128.533 34.4667 129.32 33.5467 130.04 32.48C130.786 31.44 131.346 30.32 131.72 29.12V29.12Z" fill="#F0F5F9"/>
<path d="M43.12 1.92C43.12 2.29334 43.0667 2.65333 42.96 3C42.88 3.32 42.72 3.70667 42.48 4.16C42.24 4.58667 41.9067 5.12 41.48 5.76C41.0533 6.37334 40.4933 7.16 39.8 8.12C38.4667 10.0133 37.2 11.8667 36 13.68C34.8 15.4667 33.7333 17.1733 32.8 18.8C31.8933 20.4267 31.1733 21.9333 30.64 23.32C30.1067 24.68 29.84 25.8933 29.84 26.96C29.84 27.36 29.8667 27.72 29.92 28.04C29.9733 28.3867 30.0667 28.6533 30.2 28.84C30.2267 28.8933 30.32 28.96 30.48 29.04C30.6667 29.1467 30.8533 29.2533 31.04 29.36C31.2267 29.4667 31.4 29.56 31.56 29.64C31.72 29.72 31.8 29.76 31.8 29.76C31.8 29.8667 31.68 29.96 31.44 30.04C31.2267 30.12 30.9733 30.16 30.68 30.16C29.5867 30.16 28.8133 29.84 28.36 29.2C27.9067 28.5867 27.68 27.88 27.68 27.08C27.68 26.0133 27.8933 24.9067 28.32 23.76C28.7733 22.6133 29.4267 21.24 30.28 19.64L31.16 17.96L30.92 18C30.5467 18.08 30.1467 18.12 29.72 18.12C28.9467 18.12 28.16 18 27.36 17.76C27.0933 17.68 26.7333 17.5333 26.28 17.32C25.8533 17.08 25.4267 16.84 25 16.6C24.5733 16.3333 24.2 16.1067 23.88 15.92C23.56 15.7333 23.3867 15.64 23.36 15.64C23.3067 15.64 23.2133 15.72 23.08 15.88C22.9733 16.04 22.8267 16.2267 22.64 16.44C21.44 17.8267 20.1467 19.2533 18.76 20.72C17.4 22.16 16.16 23.4267 15.04 24.52C14.08 25.4533 13.2 26.24 12.4 26.88C11.6 27.5467 10.84 28.08 10.12 28.48C9.4 28.9067 8.70666 29.2133 8.04 29.4C7.37333 29.5867 6.69333 29.68 6 29.68C5.04 29.68 4.18667 29.5333 3.44 29.24C2.69333 28.9467 2.06666 28.5467 1.56 28.04C1.05333 27.56 0.666664 27 0.399998 26.36C0.133331 25.7467 0 25.12 0 24.48C0 23.6533 0.199998 22.7733 0.599998 21.84C1.02667 20.88 1.6 20 2.32 19.2C3.04 18.4 3.88 17.7333 4.84 17.2C5.8 16.6667 6.82666 16.4 7.92 16.4C8.58666 16.4 9.18666 16.5067 9.72 16.72C10.2533 16.9333 10.6933 17.1867 11.04 17.48C11.4133 17.7733 11.6933 18.08 11.88 18.4C12.0667 18.6933 12.16 18.9467 12.16 19.16C12.16 19.4533 12.04 19.7067 11.8 19.92C11.5867 20.1333 11.3733 20.24 11.16 20.24C11.0267 20.24 10.8667 20.1733 10.68 20.04C10.4933 19.88 10.2 19.6133 9.8 19.24C9.18667 18.6533 8.70667 18.2667 8.36 18.08C8.04 17.8667 7.68 17.7333 7.28 17.68C6.56 17.68 5.81333 17.84 5.04 18.16C4.26666 18.48 3.56 18.9333 2.92 19.52C2.28 20.1067 1.74667 20.8133 1.32 21.64C0.92 22.44 0.719997 23.3333 0.719997 24.32C0.719997 25.0667 0.853332 25.7333 1.12 26.32C1.41333 26.9067 1.8 27.4 2.28 27.8C2.78667 28.2 3.36 28.4933 4 28.68C4.66667 28.8933 5.37333 29 6.12 29C7.29333 29 8.4 28.7467 9.44 28.24C10.5067 27.7333 11.7067 26.8933 13.04 25.72C13.3867 25.4 13.8667 24.9333 14.48 24.32C15.12 23.7067 15.8 23.0267 16.52 22.28C17.2667 21.5333 18.0133 20.76 18.76 19.96C19.5067 19.16 20.1867 18.4267 20.8 17.76C21.4133 17.0933 21.9067 16.5333 22.28 16.08C22.68 15.6 22.88 15.3067 22.88 15.2C22.88 15.1733 22.8133 15.12 22.68 15.04C22.5467 14.9333 22.3733 14.8267 22.16 14.72C21.9733 14.5867 21.7733 14.4533 21.56 14.32C21.3467 14.1867 21.16 14.08 21 14C20.7067 13.84 20.4533 13.7467 20.24 13.72C20.0533 13.6933 19.7333 13.68 19.28 13.68C18.7733 13.68 18.32 13.7733 17.92 13.96C17.5467 14.12 17.16 14.4 16.76 14.8C16.52 15.04 16.36 15.1867 16.28 15.24C16.2267 15.2667 16.1067 15.28 15.92 15.28C15.5733 15.28 15.4 15.2133 15.4 15.08C15.4 14.84 15.5333 14.6133 15.8 14.4C16.0933 14.16 16.44 13.9467 16.84 13.76C17.24 13.5733 17.6667 13.4267 18.12 13.32C18.5733 13.1867 18.9867 13.12 19.36 13.12C20.24 13.12 21.3333 13.4933 22.64 14.24C23.04 14.48 23.2933 14.6 23.4 14.6C23.4267 14.5733 23.52 14.48 23.68 14.32C23.84 14.1333 24.0267 13.92 24.24 13.68C28.16 9.12 31.4667 5.70667 34.16 3.44C36.8533 1.14667 39.1067 0 40.92 0C41.6133 0 42.1467 0.146665 42.52 0.439999C42.92 0.733332 43.12 1.22667 43.12 1.92V1.92ZM32.44 15.96C33.1067 14.8933 33.84 13.7733 34.64 12.6C35.44 11.4 36.3733 10.0533 37.44 8.56C38.2933 7.36 38.9733 6.37333 39.48 5.6C40.0133 4.8 40.4267 4.14667 40.72 3.64C41.0133 3.10667 41.2133 2.66667 41.32 2.32C41.4267 1.97333 41.48 1.64 41.48 1.32C41.48 0.813333 41.2667 0.560001 40.84 0.560001C40.2267 0.560001 39.5067 0.76 38.68 1.16C37.8533 1.56 36.96 2.12 36 2.84C35.04 3.53333 34.0267 4.37333 32.96 5.36C31.8933 6.32 30.8133 7.38667 29.72 8.56C29.5867 8.72 29.3467 8.98667 29 9.36C28.6533 9.73333 28.2667 10.16 27.84 10.64C27.4133 11.0933 26.9733 11.5867 26.52 12.12C26.0667 12.6267 25.64 13.0933 25.24 13.52C24.8667 13.92 24.56 14.2667 24.32 14.56C24.08 14.8533 23.96 15 23.96 15C23.96 15.0533 24.1733 15.2267 24.6 15.52C25.32 16.0533 25.9867 16.4667 26.6 16.76C27.24 17.0533 27.8133 17.28 28.32 17.44C28.8267 17.5733 29.2533 17.6667 29.6 17.72C29.9467 17.7467 30.2267 17.76 30.44 17.76C30.6267 17.76 30.7867 17.76 30.92 17.76C31.0533 17.7333 31.1733 17.6667 31.28 17.56C31.4133 17.4533 31.56 17.28 31.72 17.04C31.9067 16.7733 32.1467 16.4133 32.44 15.96V15.96Z" fill="#F0F5F9"/>
<path d="M40.48 24.56L42.52 21.52L41.24 22.76C40.4933 23.48 39.84 24.08 39.28 24.56C38.72 25.04 38.2133 25.4267 37.76 25.72C37.3333 25.9867 36.9333 26.1867 36.56 26.32C36.1867 26.4267 35.8267 26.48 35.48 26.48C34.9467 26.48 34.52 26.3333 34.2 26.04C33.88 25.7467 33.72 25.32 33.72 24.76C33.72 23.72 34.0667 22.6667 34.76 21.6C35.4267 20.5333 36.24 19.5867 37.2 18.76C38.1867 17.9067 39.2133 17.2133 40.28 16.68C41.3733 16.1467 42.3333 15.88 43.16 15.88C43.72 15.88 44.16 16 44.48 16.24C44.8 16.48 44.96 16.8267 44.96 17.28C44.96 17.4133 44.9333 17.56 44.88 17.72C44.8533 17.88 44.84 18 44.84 18.08C44.84 18.1067 44.8533 18.12 44.88 18.12C45.2 17.64 45.4667 17.2667 45.68 17C45.92 16.7067 46.1333 16.48 46.32 16.32C46.5067 16.16 46.6933 16.0667 46.88 16.04C47.0667 15.9867 47.28 15.96 47.52 15.96C47.8933 15.96 48.12 16.0133 48.2 16.12C48.3067 16.2267 48.36 16.3333 48.36 16.44C48.36 16.4667 48.16 16.7333 47.76 17.24C47.36 17.72 46.8667 18.3333 46.28 19.08C45.6933 19.8 45.04 20.5867 44.32 21.44C43.6267 22.2933 42.9867 23.1067 42.4 23.88C41.8133 24.6533 41.32 25.3333 40.92 25.92C40.52 26.48 40.32 26.8267 40.32 26.96C40.32 26.9867 40.4933 26.8933 40.84 26.68C41.2133 26.4933 41.7333 26.2133 42.4 25.84C43.84 25.0133 45.08 24.2 46.12 23.4C47.1867 22.5733 48.2 21.6533 49.16 20.64C49.5333 20.2667 49.8 20 49.96 19.84C50.12 19.68 50.2267 19.6 50.28 19.6C50.3333 19.6 50.36 19.6267 50.36 19.68V19.72C50.36 19.8 50.3333 19.8667 50.28 19.92C49.96 20.4533 49.4667 21.04 48.8 21.68C48.1333 22.2933 47.3867 22.92 46.56 23.56C45.76 24.1733 44.9333 24.76 44.08 25.32C43.2267 25.88 42.4533 26.3467 41.76 26.72C41.2 27.0133 40.7733 27.24 40.48 27.4C40.2133 27.56 40 27.7067 39.84 27.84C39.68 27.9733 39.5333 28.12 39.4 28.28C39.2933 28.4667 39.1333 28.7333 38.92 29.08C37.96 30.5733 37.1867 31.76 36.6 32.64C36.0133 33.5467 35.5333 34.28 35.16 34.84C34.76 35.4 34.4133 35.8533 34.12 36.2C33.8267 36.5467 33.4933 36.8933 33.12 37.24C32.7467 37.6133 32.4267 37.9067 32.16 38.12C31.8667 38.36 31.5867 38.5467 31.32 38.68C31.0533 38.84 30.7733 38.9467 30.48 39C30.1867 39.0533 29.8533 39.08 29.48 39.08C28.6 39.08 27.9467 38.8667 27.52 38.44C27.0933 38.04 26.88 37.52 26.88 36.88C26.88 36.3733 27.1467 35.7467 27.68 35C28.1867 34.2533 28.9067 33.48 29.84 32.68C30.7733 31.88 31.8933 31.08 33.2 30.28C34.48 29.48 35.8933 28.7467 37.44 28.08L38.4 27.64L40.48 24.56ZM34.92 32.6C35.32 32.0933 35.6933 31.5867 36.04 31.08C36.3867 30.6 36.6933 30.1733 36.96 29.8C37.2267 29.4267 37.4267 29.12 37.56 28.88C37.72 28.6667 37.8 28.56 37.8 28.56C37.7467 28.56 37.5067 28.6533 37.08 28.84C35.7733 29.4267 34.56 30.0667 33.44 30.76C32.32 31.4533 31.3467 32.1467 30.52 32.84C29.6667 33.5333 29 34.2133 28.52 34.88C28.04 35.5467 27.8 36.1333 27.8 36.64C27.8 37.3867 28.16 37.76 28.88 37.76C29.6533 37.76 30.5467 37.32 31.56 36.44C32.5467 35.56 33.6667 34.28 34.92 32.6V32.6ZM41.96 21.36C42.4667 20.8533 42.8667 20.4133 43.16 20.04C43.4533 19.6667 43.6667 19.3467 43.8 19.08C43.9333 18.7867 44.0133 18.5333 44.04 18.32C44.0667 18.1067 44.08 17.9067 44.08 17.72C44.08 17.3733 43.9867 17.0933 43.8 16.88C43.6133 16.64 43.3733 16.52 43.08 16.52C42.6267 16.52 42 16.8 41.2 17.36C40.4 17.8933 39.6133 18.5733 38.84 19.4C38.0667 20.2 37.4 21.0933 36.84 22.08C36.28 23.0667 36 24 36 24.88C36 25.04 36.0533 25.2 36.16 25.36C36.2667 25.52 36.3733 25.6 36.48 25.6C36.64 25.6 36.9067 25.4933 37.28 25.28C37.6533 25.04 38.08 24.7333 38.56 24.36C39.0667 23.9867 39.6133 23.5467 40.2 23.04C40.7867 22.5067 41.3733 21.9467 41.96 21.36V21.36Z" fill="#F0F5F9"/>
<path d="M54.3199 24.56L56.3599 21.52L55.0799 22.76C54.3333 23.48 53.6799 24.08 53.1199 24.56C52.5599 25.04 52.0533 25.4267 51.5999 25.72C51.1733 25.9867 50.7733 26.1867 50.3999 26.32C50.0266 26.4267 49.6666 26.48 49.3199 26.48C48.7866 26.48 48.3599 26.3333 48.0399 26.04C47.7199 25.7467 47.5599 25.32 47.5599 24.76C47.5599 23.72 47.9066 22.6667 48.5999 21.6C49.2666 20.5333 50.0799 19.5867 51.0399 18.76C52.0266 17.9067 53.0533 17.2133 54.1199 16.68C55.2133 16.1467 56.1733 15.88 56.9999 15.88C57.5599 15.88 57.9999 16 58.3199 16.24C58.6399 16.48 58.7999 16.8267 58.7999 17.28C58.7999 17.4133 58.7733 17.56 58.7199 17.72C58.6933 17.88 58.6799 18 58.6799 18.08C58.6799 18.1067 58.6933 18.12 58.7199 18.12C59.0399 17.64 59.3066 17.2667 59.5199 17C59.7599 16.7067 59.9733 16.48 60.1599 16.32C60.3466 16.16 60.5333 16.0667 60.7199 16.04C60.9066 15.9867 61.1199 15.96 61.3599 15.96C61.7333 15.96 61.9599 16.0133 62.0399 16.12C62.1466 16.2267 62.1999 16.3333 62.1999 16.44C62.1999 16.4667 61.9999 16.7333 61.5999 17.24C61.1999 17.72 60.7066 18.3333 60.1199 19.08C59.5333 19.8 58.8799 20.5867 58.1599 21.44C57.4666 22.2933 56.8266 23.1067 56.2399 23.88C55.6533 24.6533 55.1599 25.3333 54.7599 25.92C54.3599 26.48 54.1599 26.8267 54.1599 26.96C54.1599 26.9867 54.3333 26.8933 54.6799 26.68C55.0533 26.4933 55.5733 26.2133 56.2399 25.84C57.6799 25.0133 58.9199 24.2 59.9599 23.4C61.0266 22.5733 62.0399 21.6533 62.9999 20.64C63.3733 20.2667 63.6399 20 63.7999 19.84C63.9599 19.68 64.0666 19.6 64.1199 19.6C64.1733 19.6 64.1999 19.6267 64.1999 19.68V19.72C64.1999 19.8 64.1733 19.8667 64.1199 19.92C63.7999 20.4533 63.3066 21.04 62.6399 21.68C61.9733 22.2933 61.2266 22.92 60.3999 23.56C59.5999 24.1733 58.7733 24.76 57.9199 25.32C57.0666 25.88 56.2933 26.3467 55.5999 26.72C55.0399 27.0133 54.6133 27.24 54.3199 27.4C54.0533 27.56 53.8399 27.7067 53.6799 27.84C53.5199 27.9733 53.3733 28.12 53.2399 28.28C53.1333 28.4667 52.9733 28.7333 52.7599 29.08C51.7999 30.5733 51.0266 31.76 50.4399 32.64C49.8533 33.5467 49.3733 34.28 48.9999 34.84C48.5999 35.4 48.2533 35.8533 47.9599 36.2C47.6666 36.5467 47.3333 36.8933 46.9599 37.24C46.5866 37.6133 46.2666 37.9067 45.9999 38.12C45.7066 38.36 45.4266 38.5467 45.1599 38.68C44.8933 38.84 44.6133 38.9467 44.3199 39C44.0266 39.0533 43.6933 39.08 43.3199 39.08C42.4399 39.08 41.7866 38.8667 41.3599 38.44C40.9333 38.04 40.7199 37.52 40.7199 36.88C40.7199 36.3733 40.9866 35.7467 41.5199 35C42.0266 34.2533 42.7466 33.48 43.6799 32.68C44.6133 31.88 45.7333 31.08 47.0399 30.28C48.3199 29.48 49.7333 28.7467 51.2799 28.08L52.2399 27.64L54.3199 24.56ZM48.7599 32.6C49.1599 32.0933 49.5333 31.5867 49.8799 31.08C50.2266 30.6 50.5333 30.1733 50.7999 29.8C51.0666 29.4267 51.2666 29.12 51.3999 28.88C51.5599 28.6667 51.6399 28.56 51.6399 28.56C51.5866 28.56 51.3466 28.6533 50.9199 28.84C49.6133 29.4267 48.3999 30.0667 47.2799 30.76C46.1599 31.4533 45.1866 32.1467 44.3599 32.84C43.5066 33.5333 42.8399 34.2133 42.3599 34.88C41.8799 35.5467 41.6399 36.1333 41.6399 36.64C41.6399 37.3867 41.9999 37.76 42.7199 37.76C43.4933 37.76 44.3866 37.32 45.3999 36.44C46.3866 35.56 47.5066 34.28 48.7599 32.6V32.6ZM55.7999 21.36C56.3066 20.8533 56.7066 20.4133 56.9999 20.04C57.2933 19.6667 57.5066 19.3467 57.6399 19.08C57.7733 18.7867 57.8533 18.5333 57.8799 18.32C57.9066 18.1067 57.9199 17.9067 57.9199 17.72C57.9199 17.3733 57.8266 17.0933 57.6399 16.88C57.4533 16.64 57.2133 16.52 56.9199 16.52C56.4666 16.52 55.8399 16.8 55.0399 17.36C54.2399 17.8933 53.4533 18.5733 52.6799 19.4C51.9066 20.2 51.2399 21.0933 50.6799 22.08C50.1199 23.0667 49.8399 24 49.8399 24.88C49.8399 25.04 49.8933 25.2 49.9999 25.36C50.1066 25.52 50.2133 25.6 50.3199 25.6C50.4799 25.6 50.7466 25.4933 51.1199 25.28C51.4933 25.04 51.9199 24.7333 52.3999 24.36C52.9066 23.9867 53.4533 23.5467 54.0399 23.04C54.6266 22.5067 55.2133 21.9467 55.7999 21.36V21.36Z" fill="#F0F5F9"/>
<path d="M74.9199 20.12C75.2666 19.6667 75.5066 19.44 75.6399 19.44C75.6666 19.44 75.7066 19.48 75.7599 19.56C75.7599 19.64 75.6666 19.8267 75.4799 20.12C75.2932 20.3867 74.9332 20.8267 74.3999 21.44C73.8132 22.1333 73.2399 22.8 72.6799 23.44C72.1199 24.0533 71.5599 24.6 70.9999 25.08C70.4399 25.56 69.8799 25.9467 69.3199 26.24C68.7866 26.5333 68.2399 26.68 67.6799 26.68C67.2266 26.68 66.8799 26.5467 66.6399 26.28C66.3999 26.0133 66.2799 25.68 66.2799 25.28C66.2799 25.0667 66.3199 24.84 66.3999 24.6C66.4799 24.3333 66.5199 24.1733 66.5199 24.12C65.5599 25 64.7466 25.6267 64.0799 26C63.4399 26.3733 62.8132 26.56 62.1999 26.56C61.2399 26.56 60.7599 26.12 60.7599 25.24C60.7599 24.92 60.7999 24.6133 60.8799 24.32C60.9599 24 61.1199 23.64 61.3599 23.24C61.5732 22.8133 61.8799 22.32 62.2799 21.76C62.6799 21.2 63.1999 20.4933 63.8399 19.64C64.5866 18.7067 65.1332 17.9733 65.4799 17.44C65.8266 16.9067 66.0932 16.5067 66.2799 16.24C66.4932 15.9467 66.6799 15.7733 66.8399 15.72C66.9999 15.64 67.2666 15.6 67.6399 15.6C67.8532 15.6 68.0666 15.6667 68.2799 15.8C68.5199 15.9067 68.6399 16.0133 68.6399 16.12C68.6399 16.2267 68.2532 16.68 67.4799 17.48C65.7199 19.2933 64.4932 20.76 63.7999 21.88C63.1332 23 62.7999 23.9467 62.7999 24.72C62.7999 24.9333 62.8399 25.12 62.9199 25.28C62.9999 25.44 63.1332 25.52 63.3199 25.52C63.6666 25.52 64.0799 25.3333 64.5599 24.96C65.0665 24.5867 65.5866 24.12 66.1199 23.56C66.6799 23 67.2399 22.3867 67.7999 21.72C68.3599 21.0267 68.8932 20.36 69.3999 19.72C70.1466 18.7867 70.6932 18.0533 71.0399 17.52C71.4132 16.9867 71.6932 16.5867 71.8799 16.32C72.0932 16.0267 72.2666 15.8533 72.3999 15.8C72.5599 15.72 72.8266 15.68 73.1999 15.68C73.4132 15.68 73.6266 15.7467 73.8399 15.88C74.0799 15.9867 74.1999 16.0933 74.1999 16.2C74.1999 16.3067 73.8132 16.76 73.0399 17.56C71.2799 19.3733 70.0532 20.84 69.3599 21.96C68.6932 23.08 68.3599 24.0267 68.3599 24.8C68.3599 25.3333 68.5466 25.6 68.9199 25.6C69.1599 25.6 69.4932 25.4667 69.9199 25.2C70.3732 24.9067 70.8666 24.52 71.3999 24.04C71.9332 23.5333 72.4932 22.9467 73.0799 22.28C73.6932 21.6133 74.3066 20.8933 74.9199 20.12V20.12Z" fill="#F0F5F9"/>
<path d="M85.4799 6.79999C85.7732 6.79999 85.9599 6.81332 86.0399 6.83999C86.1465 6.86666 86.1999 6.94666 86.1999 7.07999C86.1999 7.21332 86.0665 7.45332 85.7999 7.79999C85.5599 8.14665 85.2399 8.55999 84.8399 9.03999C84.4399 9.51999 83.9865 10.0533 83.4799 10.64C82.9999 11.2267 82.5332 11.8133 82.0799 12.4C81.5732 13.04 81.1599 13.5733 80.8399 14C80.5465 14.4 80.3065 14.72 80.1199 14.96C79.9599 15.2 79.8532 15.3733 79.7999 15.48C79.7465 15.56 79.7199 15.6133 79.7199 15.64C79.7199 15.72 79.8399 15.76 80.0799 15.76H80.7199C80.9065 15.76 81.0665 15.7867 81.1999 15.84C81.3332 15.8667 81.3999 15.9467 81.3999 16.08C81.3999 16.1333 81.3732 16.1733 81.3199 16.2C81.2665 16.2267 81.0799 16.24 80.7599 16.24H80.2799L79.1999 16.2L78.2799 17.48C76.8932 19.4 75.8532 21.0667 75.1599 22.48C74.4665 23.8933 74.1199 24.8533 74.1199 25.36C74.1199 25.6533 74.1599 25.84 74.2399 25.92C74.3199 25.9733 74.4532 26 74.6399 26C74.8799 26 75.1332 25.9467 75.3999 25.84C75.6932 25.7067 76.0132 25.5067 76.3599 25.24C76.7332 24.9467 77.1599 24.5733 77.6399 24.12C78.1199 23.64 78.6799 23.04 79.3199 22.32C80.2799 21.2533 80.9199 20.5333 81.2399 20.16C81.5865 19.7867 81.7865 19.6 81.8399 19.6C81.8665 19.6 81.8932 19.6267 81.9199 19.68C81.9465 19.7067 81.8799 19.8267 81.7199 20.04C81.5599 20.2533 81.3465 20.5333 81.0799 20.88C80.8132 21.2 80.5065 21.5733 80.1599 22C79.8132 22.4267 79.4532 22.8533 79.0799 23.28C77.9065 24.64 76.8799 25.6267 75.9999 26.24C75.1199 26.8267 74.3465 27.12 73.6799 27.12C73.0399 27.12 72.5999 26.9867 72.3599 26.72C72.0932 26.48 71.9599 26.1467 71.9599 25.72C71.9599 25.3733 72.1065 24.8933 72.3999 24.28C72.6932 23.64 73.0799 22.9333 73.5599 22.16C74.0399 21.3867 74.5865 20.56 75.1999 19.68C75.8132 18.8 76.4532 17.9333 77.1199 17.08L77.7599 16.24H77.0399C76.6665 16.24 76.4132 16.2 76.2799 16.12C76.1465 16.0133 76.0799 15.8933 76.0799 15.76C76.0799 15.7067 76.1332 15.68 76.2399 15.68C76.3465 15.6533 76.6265 15.64 77.0799 15.64H78.1199L79.1599 14.12C80.3065 12.52 81.1999 11.24 81.8399 10.28C82.5065 9.31999 83.0399 8.58666 83.4399 8.07999C83.8399 7.54666 84.1732 7.19999 84.4399 7.03999C84.7332 6.87999 85.0799 6.79999 85.4799 6.79999V6.79999Z" fill="#F0F5F9"/>
<path d="M86.1998 13.36C86.1998 13.1733 86.2665 12.9867 86.3998 12.8C86.5598 12.6133 86.7331 12.4667 86.9198 12.36C87.1331 12.2267 87.3465 12.12 87.5598 12.04C87.7998 11.96 87.9998 11.92 88.1598 11.92C88.3731 11.92 88.5598 11.9467 88.7198 12C88.8798 12.0533 88.9598 12.1867 88.9598 12.4C88.9598 12.7733 88.7598 13.0933 88.3598 13.36C87.9865 13.6267 87.4931 13.76 86.8798 13.76C86.6665 13.76 86.4931 13.72 86.3598 13.64C86.2531 13.5333 86.1998 13.44 86.1998 13.36ZM84.9998 17.76C84.1465 18.64 83.4131 19.44 82.7998 20.16C82.2131 20.88 81.7331 21.5333 81.3598 22.12C81.0131 22.68 80.7598 23.2 80.5998 23.68C80.4398 24.1333 80.3598 24.56 80.3598 24.96C80.3598 25.52 80.5198 25.8 80.8398 25.8C81.1065 25.8 81.4531 25.6667 81.8798 25.4C82.3065 25.1067 82.7865 24.72 83.3198 24.24C83.8798 23.7333 84.4531 23.1467 85.0398 22.48C85.6531 21.8133 86.2665 21.0933 86.8798 20.32C87.2265 19.8667 87.4665 19.64 87.5998 19.64C87.6798 19.64 87.7198 19.6933 87.7198 19.8C87.7198 19.88 87.6131 20.0667 87.3998 20.36C87.1865 20.6533 86.8398 21.08 86.3598 21.64C85.8265 22.28 85.2798 22.92 84.7198 23.56C84.1598 24.1733 83.5998 24.7333 83.0398 25.24C82.4798 25.72 81.9198 26.1067 81.3598 26.4C80.7998 26.72 80.2398 26.88 79.6798 26.88C79.2265 26.88 78.8798 26.7467 78.6398 26.48C78.3998 26.2133 78.2798 25.8667 78.2798 25.44C78.2798 25.1467 78.3331 24.8533 78.4398 24.56C78.5198 24.24 78.6798 23.88 78.9198 23.48C79.1598 23.0533 79.4798 22.56 79.8798 22C80.2798 21.44 80.7865 20.7466 81.3998 19.92C82.0398 19.0133 82.5331 18.2933 82.8798 17.76C83.2531 17.2 83.5598 16.7866 83.7998 16.52C84.0398 16.2533 84.2531 16.08 84.4398 16C84.6265 15.92 84.8798 15.88 85.1998 15.88C85.4398 15.88 85.6531 15.9467 85.8398 16.08C86.0265 16.2133 86.1465 16.3067 86.1998 16.36C86.1998 16.4933 85.7998 16.96 84.9998 17.76V17.76Z" fill="#F0F5F9"/>
<path d="M99.3998 20.08C99.3198 20.1867 99.1598 20.3733 98.9198 20.64C98.6798 20.88 98.4264 21.1333 98.1598 21.4C96.3198 23.24 94.5198 24.6 92.7598 25.48C90.9998 26.36 89.2798 26.8 87.5998 26.8C86.9331 26.8 86.3464 26.5867 85.8398 26.16C85.3331 25.7067 85.1064 25.0533 85.1598 24.2C85.1864 23.4 85.5198 22.5067 86.1598 21.52C86.7731 20.5067 87.5331 19.5467 88.4398 18.64C89.3731 17.7333 90.3864 16.9733 91.4798 16.36C92.5731 15.7467 93.6264 15.44 94.6398 15.44C95.4664 15.44 96.0398 15.5867 96.3598 15.88C96.7064 16.1467 96.8664 16.4933 96.8398 16.92C96.8131 17.5333 96.5731 18.12 96.1198 18.68C95.6931 19.24 95.1598 19.7467 94.5198 20.2C93.8798 20.6267 93.1998 20.9733 92.4798 21.24C91.7598 21.5067 91.0931 21.64 90.4798 21.64C89.9464 21.64 89.5331 21.6 89.2398 21.52C88.9464 21.4133 88.7598 21.36 88.6798 21.36C88.6265 21.36 88.5198 21.5067 88.3598 21.8C88.2264 22.0933 88.0798 22.44 87.9198 22.84C87.7864 23.2133 87.6531 23.6 87.5198 24C87.4131 24.3733 87.3598 24.64 87.3598 24.8C87.3331 25.3067 87.3998 25.6667 87.5598 25.88C87.7464 26.0667 88.0931 26.16 88.5998 26.16C89.2664 26.16 90.0131 26.0267 90.8398 25.76C91.6931 25.4667 92.5598 25.0667 93.4398 24.56C94.3464 24.0267 95.2664 23.3867 96.1998 22.64C97.1331 21.8667 98.0264 21.0133 98.8798 20.08C99.0398 19.8667 99.1598 19.7333 99.2398 19.68C99.3198 19.6 99.3864 19.56 99.4398 19.56C99.5464 19.56 99.5998 19.6133 99.5998 19.72C99.5998 19.7467 99.5331 19.8667 99.3998 20.08V20.08ZM90.5198 18.68C90.3864 18.84 90.2264 19.0267 90.0398 19.24C89.8798 19.4533 89.7198 19.6667 89.5598 19.88C89.4264 20.0933 89.3064 20.28 89.1998 20.44C89.0931 20.6 89.0398 20.7067 89.0398 20.76C89.0131 20.8667 89.0931 20.9467 89.2798 21C89.4931 21.0267 89.7464 21.04 90.0398 21.04C90.4398 21.04 90.8531 21.0133 91.2798 20.96C91.7064 20.88 92.1864 20.68 92.7198 20.36C92.9864 20.2533 93.3065 20.0533 93.6798 19.76C94.0531 19.4667 94.4131 19.1467 94.7598 18.8C95.1064 18.4533 95.3998 18.12 95.6398 17.8C95.9064 17.4533 96.0398 17.1867 96.0398 17C96.0664 16.7067 95.9864 16.4933 95.7998 16.36C95.6131 16.2 95.3731 16.12 95.0798 16.12C94.7864 16.12 94.4398 16.1867 94.0398 16.32C93.6398 16.4533 93.2264 16.64 92.7998 16.88C92.3998 17.12 91.9998 17.4 91.5998 17.72C91.1998 18.0133 90.8398 18.3333 90.5198 18.68V18.68Z" fill="#F0F5F9"/>
<path d="M102.92 16.2C102.92 16.28 102.906 16.36 102.88 16.44C102.88 16.4933 102.826 16.6 102.72 16.76C102.613 16.8933 102.453 17.0933 102.24 17.36C102.053 17.6267 101.773 18 101.4 18.48C101.48 18.48 101.72 18.28 102.12 17.88C102.893 17.1067 103.56 16.56 104.12 16.24C104.68 15.8933 105.24 15.72 105.8 15.72C106.12 15.72 106.386 15.8267 106.6 16.04C106.84 16.2267 106.96 16.5067 106.96 16.88C106.96 17.44 106.586 18.2933 105.84 19.44C105.6 19.8133 105.44 20.0667 105.36 20.2C105.306 20.3333 105.28 20.4667 105.28 20.6C105.306 20.7333 105.36 20.84 105.44 20.92C105.546 21 105.746 21.04 106.04 21.04C106.68 21.04 107.56 20.7067 108.68 20.04C108.893 19.9333 109.053 19.8533 109.16 19.8C109.293 19.72 109.386 19.68 109.44 19.68C109.493 19.68 109.52 19.7067 109.52 19.76C109.52 19.8667 109.373 20.0133 109.08 20.2C108.786 20.3867 108.44 20.5867 108.04 20.8C107.64 20.9867 107.226 21.16 106.8 21.32C106.4 21.4533 106.08 21.52 105.84 21.52C105.386 21.52 104.973 21.4 104.6 21.16C104.226 20.8933 104.04 20.56 104.04 20.16C104.04 19.9733 104.133 19.6933 104.32 19.32C104.506 18.92 104.706 18.52 104.92 18.12C105.133 17.72 105.333 17.36 105.52 17.04C105.706 16.72 105.8 16.56 105.8 16.56C105.8 16.3733 105.68 16.28 105.44 16.28C105.12 16.28 104.68 16.4667 104.12 16.84C103.586 17.1867 103.013 17.64 102.4 18.2C101.786 18.76 101.186 19.3733 100.6 20.04C100.013 20.7067 99.5064 21.36 99.0798 22C98.6798 22.6133 98.3331 23.2133 98.0398 23.8C97.7198 24.36 97.4264 24.8667 97.1598 25.32C96.8664 25.7467 96.5864 26.0933 96.3198 26.36C96.0531 26.6533 95.7598 26.8 95.4398 26.8C95.2264 26.8 95.0264 26.76 94.8398 26.68C94.6531 26.6 94.5598 26.48 94.5598 26.32C94.5598 26.16 94.6531 25.9333 94.8398 25.64C94.9998 25.32 95.2931 24.8933 95.7198 24.36C96.7598 22.9733 97.6131 21.8 98.2798 20.84C98.9198 19.88 99.4264 19.0933 99.7998 18.48C100.2 17.84 100.493 17.3467 100.68 17C100.866 16.6267 101.013 16.36 101.12 16.2C101.226 16.04 101.333 15.9467 101.44 15.92C101.546 15.8667 101.72 15.84 101.96 15.84C102.493 15.84 102.813 15.96 102.92 16.2V16.2Z" fill="#F0F5F9"/>
<path d="M112.8 16.2C112.8 16.28 112.786 16.36 112.76 16.44C112.76 16.4933 112.706 16.6 112.6 16.76C112.493 16.8933 112.333 17.0933 112.12 17.36C111.933 17.6267 111.653 18 111.28 18.48C111.36 18.48 111.6 18.28 112 17.88C112.773 17.1067 113.44 16.56 114 16.24C114.56 15.8933 115.12 15.72 115.68 15.72C116 15.72 116.266 15.8267 116.48 16.04C116.72 16.2267 116.84 16.5067 116.84 16.88C116.84 17.44 116.466 18.2933 115.72 19.44C115.48 19.8133 115.32 20.0667 115.24 20.2C115.186 20.3333 115.16 20.4667 115.16 20.6C115.186 20.7333 115.24 20.84 115.32 20.92C115.426 21 115.626 21.04 115.92 21.04C116.56 21.04 117.44 20.7067 118.56 20.04C118.773 19.9333 118.933 19.8533 119.04 19.8C119.173 19.72 119.266 19.68 119.32 19.68C119.373 19.68 119.4 19.7067 119.4 19.76C119.4 19.8667 119.253 20.0133 118.96 20.2C118.666 20.3867 118.32 20.5867 117.92 20.8C117.52 20.9867 117.106 21.16 116.68 21.32C116.28 21.4533 115.96 21.52 115.72 21.52C115.266 21.52 114.853 21.4 114.48 21.16C114.106 20.8933 113.92 20.56 113.92 20.16C113.92 19.9733 114.013 19.6933 114.2 19.32C114.386 18.92 114.586 18.52 114.8 18.12C115.013 17.72 115.213 17.36 115.4 17.04C115.586 16.72 115.68 16.56 115.68 16.56C115.68 16.3733 115.56 16.28 115.32 16.28C115 16.28 114.56 16.4667 114 16.84C113.466 17.1867 112.893 17.64 112.28 18.2C111.666 18.76 111.066 19.3733 110.48 20.04C109.893 20.7067 109.386 21.36 108.96 22C108.56 22.6133 108.213 23.2133 107.92 23.8C107.6 24.36 107.306 24.8667 107.04 25.32C106.746 25.7467 106.466 26.0933 106.2 26.36C105.933 26.6533 105.64 26.8 105.32 26.8C105.106 26.8 104.906 26.76 104.72 26.68C104.533 26.6 104.44 26.48 104.44 26.32C104.44 26.16 104.533 25.9333 104.72 25.64C104.88 25.32 105.173 24.8933 105.6 24.36C106.64 22.9733 107.493 21.8 108.16 20.84C108.8 19.88 109.306 19.0933 109.68 18.48C110.08 17.84 110.373 17.3467 110.56 17C110.746 16.6267 110.893 16.36 111 16.2C111.106 16.04 111.213 15.9467 111.32 15.92C111.426 15.8667 111.6 15.84 111.84 15.84C112.373 15.84 112.693 15.96 112.8 16.2V16.2Z" fill="#F0F5F9"/>
<path d="M130.84 20.08C130.76 20.1867 130.6 20.3733 130.36 20.64C130.12 20.88 129.866 21.1333 129.6 21.4C127.76 23.24 125.96 24.6 124.2 25.48C122.44 26.36 120.72 26.8 119.04 26.8C118.373 26.8 117.786 26.5867 117.28 26.16C116.773 25.7067 116.546 25.0533 116.6 24.2C116.626 23.4 116.96 22.5067 117.6 21.52C118.213 20.5067 118.973 19.5467 119.88 18.64C120.813 17.7333 121.826 16.9733 122.92 16.36C124.013 15.7467 125.066 15.44 126.08 15.44C126.906 15.44 127.48 15.5867 127.8 15.88C128.146 16.1467 128.306 16.4933 128.28 16.92C128.253 17.5333 128.013 18.12 127.56 18.68C127.133 19.24 126.6 19.7467 125.96 20.2C125.32 20.6267 124.64 20.9733 123.92 21.24C123.2 21.5067 122.533 21.64 121.92 21.64C121.386 21.64 120.973 21.6 120.68 21.52C120.386 21.4133 120.2 21.36 120.12 21.36C120.066 21.36 119.96 21.5067 119.8 21.8C119.666 22.0933 119.52 22.44 119.36 22.84C119.226 23.2133 119.093 23.6 118.96 24C118.853 24.3733 118.8 24.64 118.8 24.8C118.773 25.3067 118.84 25.6667 119 25.88C119.186 26.0667 119.533 26.16 120.04 26.16C120.706 26.16 121.453 26.0267 122.28 25.76C123.133 25.4667 124 25.0667 124.88 24.56C125.786 24.0267 126.706 23.3867 127.64 22.64C128.573 21.8667 129.466 21.0133 130.32 20.08C130.48 19.8667 130.6 19.7333 130.68 19.68C130.76 19.6 130.826 19.56 130.88 19.56C130.986 19.56 131.04 19.6133 131.04 19.72C131.04 19.7467 130.973 19.8667 130.84 20.08V20.08ZM121.96 18.68C121.826 18.84 121.666 19.0267 121.48 19.24C121.32 19.4533 121.16 19.6667 121 19.88C120.866 20.0933 120.746 20.28 120.64 20.44C120.533 20.6 120.48 20.7067 120.48 20.76C120.453 20.8667 120.533 20.9467 120.72 21C120.933 21.0267 121.186 21.04 121.48 21.04C121.88 21.04 122.293 21.0133 122.72 20.96C123.146 20.88 123.626 20.68 124.16 20.36C124.426 20.2533 124.746 20.0533 125.12 19.76C125.493 19.4667 125.853 19.1467 126.2 18.8C126.546 18.4533 126.84 18.12 127.08 17.8C127.346 17.4533 127.48 17.1867 127.48 17C127.506 16.7067 127.426 16.4933 127.24 16.36C127.053 16.2 126.813 16.12 126.52 16.12C126.226 16.12 125.88 16.1867 125.48 16.32C125.08 16.4533 124.666 16.64 124.24 16.88C123.84 17.12 123.44 17.4 123.04 17.72C122.64 18.0133 122.28 18.3333 121.96 18.68V18.68Z" fill="#F0F5F9"/>
<path d="M141.44 20.36C141.733 20.0933 141.933 19.8933 142.04 19.76C142.173 19.6 142.28 19.52 142.36 19.52C142.386 19.52 142.4 19.5467 142.4 19.6C142.4 19.68 142.213 19.9333 141.84 20.36C141.466 20.7867 141.026 21.2667 140.52 21.8C140.013 22.3333 139.48 22.8667 138.92 23.4C138.36 23.9333 137.906 24.3467 137.56 24.64C137.186 24.96 136.773 25.2933 136.32 25.64C135.866 25.96 135.44 26.2533 135.04 26.52C134.666 26.8133 134.346 27.0533 134.08 27.24C133.813 27.4267 133.68 27.5333 133.68 27.56C133.68 27.6133 133.68 27.6533 133.68 27.68C133.706 27.7333 133.72 27.8 133.72 27.88C133.72 29.3467 133.333 30.7333 132.56 32.04C131.813 33.3467 130.88 34.48 129.76 35.44C128.64 36.4267 127.44 37.2 126.16 37.76C124.853 38.3467 123.666 38.64 122.6 38.64C121.746 38.64 121.093 38.44 120.64 38.04C120.16 37.64 119.92 37.16 119.92 36.6C119.92 36.1467 120.12 35.6667 120.52 35.16C120.92 34.6533 121.573 34.0667 122.48 33.4C123.36 32.76 124.52 32.0267 125.96 31.2C127.373 30.3733 129.106 29.4 131.16 28.28C131.64 28.0133 131.92 27.84 132 27.76C132.08 27.68 132.12 27.4933 132.12 27.2C132.12 26.7733 131.986 26.36 131.72 25.96C131.453 25.56 131.106 25.36 130.68 25.36C130.52 25.36 130.253 25.4133 129.88 25.52C129.506 25.6 129.12 25.6933 128.72 25.8C128.32 25.88 127.973 25.9733 127.68 26.08C127.386 26.16 127.253 26.2 127.28 26.2C126.88 26.2 126.68 26.12 126.68 25.96C126.68 25.9067 126.773 25.84 126.96 25.76C127.146 25.6533 127.586 25.4533 128.28 25.16C129.506 24.6267 130.653 23.96 131.72 23.16C132.786 22.36 133.706 21.56 134.48 20.76C135.253 19.96 135.866 19.2267 136.32 18.56C136.773 17.8933 137 17.4133 137 17.12C137 16.8533 136.893 16.64 136.68 16.48C136.466 16.2933 136.133 16.2 135.68 16.2C135.013 16.2 134.333 16.44 133.64 16.92C132.946 17.3733 132.373 18.0133 131.92 18.84C131.626 19.32 131.4 19.64 131.24 19.8C131.08 19.9333 130.866 20 130.6 20C130.173 20 129.96 19.88 129.96 19.64C129.96 19.1333 130.16 18.64 130.56 18.16C130.986 17.68 131.493 17.2667 132.08 16.92C132.666 16.5467 133.266 16.2533 133.88 16.04C134.52 15.8267 135.04 15.72 135.44 15.72C136.16 15.72 136.813 15.9067 137.4 16.28C137.986 16.6533 138.28 17.1333 138.28 17.72C138.28 18.1733 138.106 18.7067 137.76 19.32C137.413 19.9333 136.946 20.56 136.36 21.2C135.773 21.8133 135.106 22.4133 134.36 23C133.613 23.5867 132.826 24.08 132 24.48L131.16 24.92L131.64 25.08C132.04 25.2133 132.373 25.4 132.64 25.64C132.933 25.8533 133.173 26.1467 133.36 26.52C133.466 26.76 133.546 26.88 133.6 26.88C133.653 26.88 133.826 26.7733 134.12 26.56C134.44 26.3733 134.8 26.1467 135.2 25.88C135.626 25.5867 136.04 25.2933 136.44 25C136.866 24.68 137.2 24.4133 137.44 24.2C138.053 23.6667 138.733 23.0533 139.48 22.36C140.253 21.64 140.906 20.9733 141.44 20.36V20.36ZM131.72 29.12C131.853 28.72 131.92 28.4933 131.92 28.44C131.92 28.44 131.773 28.52 131.48 28.68C131.213 28.84 130.853 29.04 130.4 29.28C129.973 29.52 129.493 29.7867 128.96 30.08C128.4 30.4 127.866 30.6933 127.36 30.96C126.853 31.2533 126.386 31.52 125.96 31.76C125.533 32 125.213 32.1867 125 32.32C123.48 33.2267 122.386 34 121.72 34.64C121.053 35.3067 120.72 35.9067 120.72 36.44C120.72 36.8933 120.92 37.24 121.32 37.48C121.72 37.72 122.186 37.84 122.72 37.84C123.386 37.84 124.16 37.6 125.04 37.12C125.92 36.6667 126.8 36.04 127.68 35.24C128.533 34.4667 129.32 33.5467 130.04 32.48C130.786 31.44 131.346 30.32 131.72 29.12V29.12Z" fill="#F0F5F9"/>
</g>
<defs>
<clipPath id="clip0_13_31">
<rect width="142.4" height="39.08" fill="white"/>
</clipPath>
</defs>
</svg>
