<svg id="visual" viewBox="0 0 1980 1024" width="1980" height="1024" xmlns="http://www.w3.org/2000/svg" xmlns:xlink="http://www.w3.org/1999/xlink" version="1.1"><rect x="0" y="0" width="1980" height="1024" fill="#f0f5f9"></rect><g fill="none" stroke="#1e2022" stroke-width="2"><circle r="45" cx="255" cy="132"></circle><circle r="7" cx="1792" cy="374"></circle><circle r="41" cx="692" cy="110"></circle><circle r="24" cx="1278" cy="651"></circle><circle r="18" cx="31" cy="892"></circle><circle r="32" cx="1147" cy="178"></circle><circle r="18" cx="355" cy="875"></circle><circle r="15" cx="979" cy="599"></circle><circle r="33" cx="1866" cy="278"></circle><circle r="22" cx="757" cy="895"></circle><circle r="22" cx="1197" cy="504"></circle><circle r="34" cx="248" cy="722"></circle><circle r="42" cx="1239" cy="312"></circle><circle r="29" cx="1520" cy="690"></circle><circle r="36" cx="973" cy="988"></circle><circle r="13" cx="1110" cy="633"></circle><circle r="26" cx="1974" cy="202"></circle><circle r="12" cx="486" cy="438"></circle><circle r="8" cx="1022" cy="730"></circle><circle r="15" cx="1048" cy="437"></circle><circle r="35" cx="1498" cy="545"></circle><circle r="6" cx="1343" cy="186"></circle><circle r="8" cx="636" cy="965"></circle><circle r="14" cx="1837" cy="470"></circle><circle r="31" cx="1074" cy="921"></circle><circle r="30" cx="1938" cy="886"></circle><circle r="26" cx="457" cy="143"></circle></g></svg>