<svg width="40" height="40" viewBox="0 0 40 40" fill="none" xmlns="http://www.w3.org/2000/svg">
<g clip-path="url(#clip0_45_2)">
<path d="M0.221285 38.7873C0.34573 38.2715 2.34568 29.3464 4.66561 18.9537L8.89319 0.00252002L12.002 0C12.2683 1.18656 12.0138 0.0152177 12.0778 0.328073C12.1133 0.5021 13.9125 8.89789 16.1179 19.0231L20.1276 37.4327L28.4531 37.4683C33.0322 37.4878 36.7785 37.4566 36.7783 37.3988C36.7781 37.341 35.8978 34.6677 34.8221 31.4582L32.9062 25.5538L28.3494 25.6233C25.9474 25.6682 25.4197 25.6658 24.5235 25.6741L21.0894 25.7192L21.7235 28.7181C22.0723 30.3675 22.3666 31.7168 22.346 31.743C22.2881 31.8167 20.6063 31.8062 20.5822 31.761C20.5113 31.6273 18.841 23.5948 18.8766 23.5558C18.9006 23.5296 22.3121 23.4684 26.4576 23.4199L34.3232 23.355L36.6838 30.4041C38.1753 34.8575 39.9973 39.9161 39.9973 39.9161C40.0464 39.8984 39.865 40.0942 0 39.9411L0.10885 39.3347L0.221285 38.7873ZM17.3997 37.469C17.0122 35.8889 15.0358 26.6163 14.6698 24.743C14.1801 22.2366 10.9054 6.21986 10.607 4.87112C10.5164 4.46172 10.4234 4.15071 10.4004 4.17999C10.3523 4.24118 6.89385 21.0389 6.1399 24.8733C5.56185 27.8131 4.86342 30.8483 3.86533 34.7581L3.16482 37.5021H10.3126C17.09 37.5021 17.0783 37.5275 17.3997 37.469V37.469ZM16.1741 10.3394L13.9517 0.0224548L20.111 0.0132031L25.9558 0.00547274L26.3585 1.09716L26.7168 2.16903L23.0882 2.21127C21.3257 2.2318 19.0087 2.26425 18.019 2.27013L16.319 2.27475L17.9703 10.2558C18.8672 14.5908 19.6878 18.1673 19.7301 18.2254C19.7724 18.2834 22.2726 18.3146 25.2861 18.2948L30.6696 18.2596L29.4648 14.7158L28.1644 11.1729L24.5156 11.185L20.8795 11.2004L20.707 10.5111C20.638 10.2353 20.4866 9.57225 20.4433 9.29579C20.3757 8.86344 20.2914 8.99993 20.6469 8.94454C20.8425 8.91408 23.4533 8.88641 25.5227 8.90888L29.2854 8.94979L31.3936 14.7068C32.5532 17.8731 33.3343 20.4405 33.3343 20.4646C33.3343 20.4886 30.0956 20.5513 25.9324 20.5513H18.3629L16.1741 10.3394Z" fill="#00ADB5"/>
</g>
<defs>
<clipPath id="clip0_45_2">
<rect width="40" height="40" fill="white"/>
</clipPath>
</defs>
</svg>
