<?xml version="1.0" standalone="no"?>
<!DOCTYPE svg PUBLIC "-//W3C//DTD SVG 20010904//EN"
 "http://www.w3.org/TR/2001/REC-SVG-20010904/DTD/svg10.dtd">
<svg version="1.0" xmlns="http://www.w3.org/2000/svg"
 width="700.000000pt" height="700.000000pt" viewBox="0 0 700.000000 700.000000"
 preserveAspectRatio="xMidYMid meet">
<metadata>
Created by potrace 1.14, written by Peter Selinger 2001-2017
</metadata>
<g transform="translate(0.000000,700.000000) scale(0.100000,-0.100000)"
fill="#000000" stroke="none">
<path d="M3307 6994 c-1 -1 -38 -4 -82 -8 -388 -31 -810 -143 -1170 -311 -240
-112 -264 -125 -470 -260 -117 -77 -327 -231 -345 -254 -3 -4 -43 -39 -90 -78
-106 -88 -370 -357 -406 -415 -15 -23 -33 -49 -41 -56 -7 -7 -13 -17 -13 -20
0 -4 -10 -18 -23 -32 -61 -66 -193 -276 -279 -445 -126 -246 -289 -711 -322
-918 -3 -20 -10 -56 -15 -79 -5 -24 -13 -70 -16 -103 -4 -33 -9 -68 -10 -77
-26 -139 -27 -689 -1 -848 2 -14 7 -47 11 -75 28 -213 111 -522 202 -760 45
-118 40 -106 127 -285 90 -185 116 -231 212 -375 89 -135 140 -195 164 -195
13 0 17 -5 13 -20 -9 -33 113 -180 148 -180 10 0 21 -4 24 -10 3 -5 -3 -10
-14 -10 -14 0 -19 -5 -15 -15 4 -8 14 -15 25 -15 13 0 33 30 75 117 31 65 69
145 85 178 16 33 29 65 29 71 0 6 -24 36 -53 65 -29 30 -85 97 -124 149 -38
53 -78 104 -88 114 -25 24 -223 410 -240 466 -4 14 -13 39 -21 55 -33 76 -122
357 -139 443 -25 128 -45 236 -50 272 -3 25 -8 61 -10 80 -26 189 -23 520 6
740 9 66 14 98 34 200 3 14 8 38 10 54 33 175 186 605 260 726 12 19 25 43 28
54 11 30 116 204 172 286 28 41 81 118 118 171 37 53 67 102 67 108 0 6 6 11
14 11 7 0 28 17 47 37 90 100 235 236 330 309 409 320 729 487 1204 631 109
33 329 75 463 89 28 3 59 7 68 8 9 1 26 26 39 57 12 30 50 119 84 199 33 80
61 148 61 151 0 6 -76 9 -83 3z"/>
<path d="M3640 6985 c-8 -9 -4 -31 13 -76 25 -66 127 -312 131 -317 3 -2 43
-8 166 -22 47 -5 99 -12 115 -15 25 -4 126 -25 145 -30 3 -1 21 -5 40 -9 90
-19 360 -109 455 -151 314 -138 530 -266 772 -457 81 -64 108 -88 227 -200
107 -99 138 -127 167 -145 15 -9 34 -32 43 -52 8 -20 46 -76 83 -126 164 -218
245 -348 342 -547 246 -508 341 -1050 286 -1638 -6 -69 -13 -121 -31 -225 -43
-254 -132 -542 -229 -740 -97 -197 -287 -494 -425 -662 -6 -7 -10 -22 -10 -33
0 -20 38 -123 80 -215 42 -93 73 -160 77 -165 5 -6 49 46 76 90 12 19 34 45
49 58 35 30 258 329 258 346 0 3 22 40 48 83 112 182 237 458 315 698 43 133
100 350 113 431 3 20 8 46 10 58 2 11 7 37 9 56 3 19 8 45 10 56 14 64 20 209
19 464 0 368 -9 479 -55 685 -11 50 -22 98 -24 107 -24 108 -138 470 -155 493
-4 6 -11 21 -15 35 -14 46 -108 244 -168 355 -167 307 -349 540 -651 835 -137
133 -185 175 -294 258 -437 331 -1019 589 -1527 676 -274 47 -447 62 -465 41z"/>
<path d="M3473 5653 c-12 -21 -42 -90 -68 -153 -26 -63 -61 -142 -79 -175 -19
-33 -48 -100 -66 -150 -18 -49 -47 -121 -65 -160 -18 -38 -48 -106 -65 -150
-18 -44 -51 -118 -72 -165 -22 -47 -52 -116 -65 -155 -14 -38 -49 -122 -79
-185 -29 -63 -56 -128 -60 -145 -4 -16 -24 -65 -46 -108 -21 -42 -59 -135 -84
-205 -26 -70 -75 -193 -109 -274 -59 -139 -62 -148 -41 -149 60 -4 301 1 334
6 20 3 42 11 48 18 7 7 55 116 109 242 53 127 100 239 105 250 5 11 58 137
118 280 210 501 204 489 220 468 7 -10 32 -56 54 -103 40 -87 399 -920 458
-1065 18 -44 36 -84 41 -89 4 -5 166 -8 371 -7 200 1 485 3 633 4 l270 1 -1
-39 c-1 -73 -15 -169 -45 -318 -17 -83 -27 -158 -23 -170 17 -54 208 -427 215
-420 18 19 127 298 144 371 20 81 24 101 29 132 3 19 8 46 11 60 26 140 40
585 21 703 l-7 47 -690 0 c-648 0 -690 1 -696 18 -17 47 -213 509 -370 871
-96 223 -210 487 -253 586 -102 237 -162 365 -170 365 -3 0 -16 -17 -27 -37z"/>
<path d="M2751 5529 c-139 -57 -333 -154 -423 -210 -150 -93 -472 -386 -581
-529 -163 -214 -311 -534 -362 -778 -2 -9 -8 -39 -14 -65 -6 -27 -14 -72 -17
-100 -3 -29 -7 -55 -9 -58 -8 -11 -18 -199 -19 -314 0 -119 9 -267 19 -315 3
-14 7 -39 9 -55 14 -100 68 -282 145 -484 l39 -104 30 59 c16 32 41 86 55 119
14 33 45 103 69 155 74 159 72 146 49 236 -29 116 -31 139 -32 353 -1 278 13
397 68 566 63 196 195 445 299 565 117 135 180 197 290 286 38 30 112 83 164
118 52 35 103 73 114 84 17 19 71 141 186 420 23 54 34 92 27 91 -7 0 -54 -18
-106 -40z"/>
<path d="M4190 5478 c107 -260 162 -381 182 -402 13 -13 64 -49 113 -81 76
-49 208 -146 225 -165 3 -3 19 -16 35 -29 67 -51 232 -219 295 -301 19 -25 46
-57 59 -72 l24 -27 36 29 c20 16 81 72 135 123 98 94 99 94 80 115 -10 11 -24
27 -29 34 -264 342 -594 617 -935 777 -95 44 -219 91 -243 91 -13 0 -8 -18 23
-92z"/>
<path d="M2406 3118 c-14 -29 -27 -68 -30 -86 -2 -19 -11 -41 -19 -50 -15 -17
-102 -192 -123 -248 -6 -16 -45 -108 -87 -204 -42 -96 -112 -265 -157 -375
-45 -110 -92 -220 -105 -245 -12 -25 -35 -76 -50 -115 -15 -38 -47 -112 -71
-164 -24 -51 -44 -95 -44 -98 0 -4 -22 -57 -72 -173 -6 -14 -14 -34 -19 -45
-55 -137 -117 -284 -145 -343 -19 -40 -34 -76 -34 -79 0 -3 -6 -19 -14 -36
-48 -113 -48 -117 14 -166 69 -55 168 -113 179 -107 5 4 12 -3 16 -13 8 -27
121 -100 299 -192 260 -134 514 -230 781 -294 122 -30 194 -42 403 -72 107
-15 718 -7 822 11 14 3 48 7 75 11 160 20 522 119 705 193 169 68 434 198 490
240 19 15 53 36 75 48 76 39 286 175 322 208 10 9 7 23 -13 66 -14 30 -73 165
-131 300 -57 135 -110 259 -118 275 -7 17 -34 80 -60 140 -83 195 -127 299
-155 360 -15 33 -62 143 -105 245 -43 102 -82 189 -86 195 -5 5 -9 15 -9 22 0
7 -11 36 -25 65 -14 29 -94 215 -179 413 l-155 360 -1075 3 -1074 2 -26 -52z
m1975 -398 c35 -85 40 -98 84 -207 20 -50 69 -169 109 -265 l73 -173 -87 -51
c-101 -59 -286 -150 -380 -187 -71 -28 -267 -87 -315 -94 -16 -3 -66 -11 -110
-18 -81 -14 -399 -14 -480 -1 -311 50 -614 169 -862 338 l-42 29 20 52 c11 29
26 66 33 82 7 17 19 44 26 60 102 245 190 455 200 476 l12 27 846 -2 846 -1
27 -65z m-2073 -1053 c217 -133 515 -253 749 -302 84 -18 94 -20 193 -32 82
-10 475 -10 555 0 112 14 138 18 184 28 25 6 53 12 61 14 127 29 432 151 540
215 50 29 183 99 199 105 16 5 25 -3 44 -42 32 -62 192 -435 268 -622 l58
-145 -34 -20 c-19 -11 -37 -28 -41 -38 -3 -10 -12 -18 -20 -18 -8 0 -22 -4
-32 -10 -67 -37 -370 -177 -464 -214 -191 -75 -456 -149 -618 -171 -25 -3 -52
-8 -60 -10 -8 -2 -49 -7 -90 -11 -303 -27 -545 -18 -835 32 -66 11 -237 55
-346 88 -228 69 -574 234 -716 341 l-41 31 69 175 c38 96 73 183 78 194 6 11
42 97 82 190 90 213 118 275 125 275 3 0 45 -24 92 -53z"/>
</g>
</svg>
