<?xml version="1.0" standalone="no"?>
<!DOCTYPE svg PUBLIC "-//W3C//DTD SVG 20010904//EN"
 "http://www.w3.org/TR/2001/REC-SVG-20010904/DTD/svg10.dtd">
<svg version="1.0" xmlns="http://www.w3.org/2000/svg"
 width="700.000000pt" height="700.000000pt" viewBox="0 0 700.000000 700.000000"
 preserveAspectRatio="xMidYMid meet">
<metadata>
Created by potrace 1.14, written by Peter Selinger 2001-2017
</metadata>
<g transform="translate(0.000000,700.000000) scale(0.100000,-0.100000)"
fill="#000000" stroke="none">
<path d="M880 6994 c-232 -34 -422 -127 -581 -285 -142 -140 -237 -315 -279
-514 -18 -87 -19 -181 -19 -2695 0 -2485 1 -2609 18 -2690 46 -212 129 -367
276 -515 147 -148 322 -240 530 -279 70 -13 400 -15 2666 -16 2793 0 2662 -2
2822 51 75 25 202 88 264 132 63 44 195 175 230 228 15 24 33 50 40 57 16 17
79 149 99 209 9 27 25 89 35 138 18 86 19 194 19 2690 -1 2547 -1 2602 -20
2690 -24 107 -53 190 -93 265 -129 239 -327 406 -577 490 -152 51 -32 49
-2810 48 -1427 0 -2606 -2 -2620 -4z m5312 -425 c191 -74 323 -212 381 -394
l22 -70 0 -2595 c0 -1427 -3 -2611 -7 -2632 -41 -202 -200 -379 -407 -450
l-66 -23 -2615 0 c-2529 0 -2617 1 -2670 19 -170 58 -292 161 -365 311 -70
141 -65 -75 -62 2795 l2 2595 21 55 c83 216 222 346 428 400 69 18 155 19
2671 17 l2600 -2 67 -26z"/>
<path d="M2053 5926 c-49 -23 -83 -59 -102 -109 -6 -14 -49 -178 -96 -364 -48
-186 -118 -457 -155 -603 -185 -724 -252 -986 -255 -1000 -2 -8 -12 -49 -23
-90 -12 -41 -23 -86 -26 -100 -3 -14 -27 -110 -55 -215 -27 -104 -81 -316
-121 -470 -39 -154 -99 -386 -132 -515 -33 -129 -62 -242 -63 -250 -2 -8 -22
-87 -45 -175 -23 -88 -71 -275 -107 -415 -36 -140 -66 -276 -67 -303 -5 -89
52 -168 138 -194 32 -10 574 -13 2503 -14 1353 0 2478 3 2500 7 70 13 114 45
147 111 33 65 24 106 -160 746 -97 337 -185 641 -195 677 -39 141 -57 197 -72
226 -25 48 -78 89 -130 100 -36 8 -1668 7 -1717 -1 -110 -17 -179 -108 -167
-219 3 -28 26 -136 51 -240 26 -104 48 -199 51 -210 2 -12 9 -41 16 -66 6 -25
12 -52 14 -60 40 -180 79 -330 91 -347 7 -12 30 -34 51 -50 31 -24 46 -28 98
-28 52 0 67 4 98 28 77 59 90 116 57 247 -12 47 -24 96 -26 110 -3 14 -7 33
-10 42 -3 9 -6 25 -9 35 -2 10 -24 105 -50 211 -26 106 -45 195 -43 198 8 8
1331 5 1338 -3 5 -6 171 -575 185 -633 1 -8 10 -37 18 -65 27 -86 68 -229 72
-250 3 -11 18 -64 34 -118 l29 -97 -36 -1 c-342 -5 -1956 1 -1961 7 -5 5 -23
81 -40 169 -18 88 -35 169 -37 180 -2 11 -6 31 -9 45 -2 14 -29 147 -60 295
-30 149 -66 324 -80 391 -24 122 -30 150 -39 194 -3 14 -8 36 -11 50 -2 14 -9
48 -15 75 -6 28 -12 59 -14 70 -2 11 -12 56 -21 100 -9 44 -19 91 -21 105 -3
14 -29 144 -59 290 -30 146 -56 276 -59 290 -5 28 -76 377 -106 520 -12 52
-23 106 -25 120 -2 14 -16 79 -29 145 -14 66 -28 135 -31 152 -3 18 -12 61
-20 95 -8 35 -17 79 -20 98 -3 19 -21 109 -40 200 -19 91 -36 176 -39 190 -2
14 -18 93 -35 175 -18 83 -34 161 -36 175 -3 14 -7 36 -10 50 -2 14 -10 50
-16 80 -25 128 -75 197 -158 220 -25 6 -146 10 -314 10 -264 -1 -275 -2 -324
-24z m491 -463 c15 -76 30 -149 32 -163 3 -14 21 -101 40 -195 19 -93 44 -213
54 -265 110 -534 160 -779 164 -800 7 -38 47 -232 52 -255 2 -11 7 -33 10 -50
3 -16 12 -64 20 -105 9 -41 17 -82 19 -90 2 -8 24 -116 49 -240 25 -124 48
-234 50 -245 27 -133 79 -386 83 -405 2 -14 16 -79 30 -145 14 -66 27 -131 30
-145 2 -14 18 -90 34 -170 16 -80 32 -157 34 -173 3 -15 12 -60 21 -100 23
-108 23 -108 34 -167 6 -30 12 -64 14 -75 35 -158 45 -210 41 -213 -3 -3
-1913 -5 -2122 -3 l-42 1 10 33 c10 33 168 650 174 677 2 8 18 69 35 135 40
156 161 626 165 645 2 8 18 69 35 135 17 66 33 127 35 135 2 8 13 53 25 100
12 47 23 92 25 100 2 8 12 49 23 90 18 64 97 374 108 420 2 8 15 60 29 115 26
96 53 204 60 235 2 8 19 76 38 150 48 184 178 691 182 710 2 8 25 96 50 195
26 99 48 185 49 190 1 6 6 25 10 43 l8 32 132 0 132 0 28 -137z"/>
<path d="M3173 5940 c-47 -11 -100 -55 -124 -102 -32 -63 -23 -134 80 -608 51
-234 96 -443 101 -465 4 -22 24 -116 45 -210 43 -197 39 -178 60 -280 20 -94
16 -75 54 -250 16 -77 50 -237 76 -355 25 -118 50 -235 56 -260 6 -25 13 -61
16 -80 8 -54 35 -115 66 -150 60 -67 18 -64 897 -66 851 -2 868 -1 929 47 16
13 39 45 51 71 19 38 22 57 17 105 -5 46 -73 309 -147 563 -5 19 -28 100 -50
180 -22 80 -47 168 -55 195 -8 28 -28 102 -45 165 -53 197 -80 239 -167 269
-42 14 -113 16 -548 16 -563 -1 -551 0 -602 -76 -69 -104 -17 -238 103 -267
22 -5 218 -9 447 -8 225 0 413 -1 417 -4 4 -3 20 -50 35 -105 15 -55 63 -228
107 -385 93 -333 108 -390 108 -405 0 -8 -173 -11 -615 -11 l-615 0 -9 35 c-5
20 -19 79 -30 131 -52 243 -212 988 -216 1010 -7 35 -44 207 -55 255 -6 22
-12 51 -14 65 -4 24 -46 219 -66 305 -5 22 -12 56 -15 75 -3 19 -8 43 -11 52
-3 9 -7 25 -9 35 -2 10 -10 52 -19 93 -9 41 -16 76 -16 78 0 1 304 2 675 2
655 0 677 1 715 20 21 11 51 36 67 57 24 31 28 46 28 99 0 55 -4 67 -31 101
-62 77 -6 72 -879 71 -429 0 -795 -4 -812 -8z"/>
</g>
</svg>
