<?xml version="1.0" standalone="no"?>
<!DOCTYPE svg PUBLIC "-//W3C//DTD SVG 20010904//EN"
 "http://www.w3.org/TR/2001/REC-SVG-20010904/DTD/svg10.dtd">
<svg version="1.0" xmlns="http://www.w3.org/2000/svg"
 width="700.000000pt" height="700.000000pt" viewBox="0 0 700.000000 700.000000"
 preserveAspectRatio="xMidYMid meet">
<metadata>
Created by potrace 1.14, written by Peter Selinger 2001-2017
</metadata>
<g transform="translate(0.000000,700.000000) scale(0.100000,-0.100000)"
fill="#000000" stroke="none">
<path d="M5087 6944 c-3 -3 -438 -6 -967 -6 -1048 0 -1026 1 -1099 -57 -93
-74 -113 -162 -79 -340 10 -53 21 -109 24 -126 10 -57 75 -390 99 -510 13 -66
26 -133 29 -150 3 -16 7 -41 11 -55 3 -14 8 -38 10 -55 3 -16 17 -86 30 -155
13 -69 26 -136 29 -150 2 -14 11 -59 20 -100 9 -41 18 -92 22 -114 3 -21 7
-46 9 -55 11 -55 46 -230 50 -251 3 -14 7 -36 10 -50 2 -14 7 -36 9 -50 2 -14
14 -72 25 -130 11 -58 23 -121 26 -140 3 -19 8 -42 10 -50 3 -8 14 -62 25
-120 10 -58 22 -116 25 -130 3 -14 12 -61 20 -105 7 -44 19 -102 25 -130 6
-27 13 -66 16 -85 2 -19 6 -42 9 -50 2 -8 22 -109 44 -225 22 -115 42 -221 45
-235 43 -223 58 -272 94 -315 37 -45 90 -77 141 -87 25 -5 510 -9 1078 -9
1143 0 1099 -2 1175 65 20 17 48 54 62 82 39 78 31 138 -64 514 -45 179 -83
332 -85 340 -2 8 -22 89 -45 180 -23 91 -43 172 -45 180 -2 8 -20 80 -40 160
-20 80 -38 152 -40 160 -2 8 -11 44 -20 80 -9 36 -19 74 -21 84 -2 10 -8 33
-13 50 -6 17 -12 42 -15 56 -27 156 -78 245 -166 291 l-45 24 -565 3 -565 3
-25 23 c-71 67 -194 67 -276 0 -98 -79 -116 -238 -38 -341 31 -40 102 -83 143
-86 27 -2 31 -6 31 -29 0 -27 2 -28 53 -28 28 -1 269 -1 533 -1 l482 -1 166
-664 c91 -365 166 -668 166 -674 0 -7 -270 -10 -799 -10 l-799 0 -11 63 c-6
34 -13 76 -16 92 -6 33 -12 67 -21 105 -3 14 -7 36 -10 50 -2 14 -11 59 -19
100 -17 89 -23 120 -30 158 -3 15 -10 47 -15 72 -5 25 -21 106 -35 180 -14 74
-27 144 -29 155 -2 11 -16 81 -30 155 -15 74 -29 146 -31 160 -3 14 -8 41 -11
60 -3 19 -8 38 -9 41 -2 3 -7 28 -11 55 -3 27 -8 52 -10 55 -2 3 -5 19 -8 35
-3 16 -7 43 -10 60 -3 17 -19 98 -35 180 -17 82 -32 163 -35 179 -3 17 -8 41
-11 55 -2 14 -7 36 -9 50 -29 147 -118 611 -121 630 -3 14 -7 36 -10 50 -3 14
-14 70 -25 125 -26 135 -30 155 -36 190 -3 17 -7 35 -9 41 -3 10 317 11 1724
5 70 0 148 58 183 137 69 154 -46 342 -209 342 -16 0 -32 -3 -36 -6z"/>
<path d="M1719 6929 c-43 -10 -107 -45 -132 -74 -43 -48 -80 -168 -141 -460
-3 -11 -16 -67 -30 -125 -13 -58 -27 -116 -30 -130 -3 -14 -7 -34 -10 -45 -2
-11 -23 -101 -46 -200 -23 -98 -43 -182 -45 -185 -2 -3 -6 -22 -9 -42 -3 -21
-22 -104 -41 -185 -47 -195 -65 -273 -70 -301 -2 -13 -6 -31 -9 -40 -3 -9 -7
-28 -10 -42 -2 -14 -16 -72 -30 -130 -14 -58 -27 -116 -30 -130 -3 -14 -7 -34
-10 -45 -20 -83 -106 -458 -110 -477 -2 -13 -14 -63 -26 -113 -12 -49 -24
-101 -26 -115 -3 -14 -9 -38 -14 -55 -5 -16 -14 -57 -21 -90 -15 -71 -11 -55
-43 -188 -14 -59 -28 -118 -30 -130 -8 -37 -11 -50 -105 -454 -49 -215 -92
-402 -95 -415 -10 -47 -15 -69 -30 -129 -9 -33 -18 -73 -21 -87 -2 -15 -31
-142 -64 -283 -33 -140 -62 -266 -65 -280 -3 -13 -7 -33 -10 -44 -35 -149 -46
-195 -50 -215 -3 -14 -7 -34 -10 -45 -3 -11 -14 -58 -24 -105 -11 -47 -34
-144 -51 -217 -17 -72 -32 -142 -35 -155 -3 -13 -48 -209 -100 -435 -108 -463
-113 -510 -71 -592 30 -61 90 -109 158 -127 76 -20 6422 -21 6508 0 123 29
196 132 186 263 -5 74 -5 72 -41 205 -14 51 -46 174 -71 273 -26 99 -56 214
-67 255 -11 41 -21 83 -23 93 -2 10 -38 148 -79 305 -41 158 -118 456 -171
662 -53 206 -106 395 -116 420 -24 55 -70 104 -124 133 l-40 22 -1120 0 c-616
0 -1136 -4 -1155 -8 -105 -24 -190 -131 -190 -239 0 -29 7 -85 15 -123 39
-181 57 -262 61 -285 3 -14 16 -76 30 -138 13 -62 29 -132 33 -155 5 -23 19
-87 31 -142 24 -111 28 -129 35 -164 13 -65 57 -267 60 -278 3 -8 15 -9 42 -2
74 17 98 19 144 11 57 -11 125 5 171 40 18 14 47 28 65 32 28 7 31 10 24 34
-5 15 -6 36 -4 47 18 98 5 172 -43 240 -20 28 -36 78 -48 152 -4 17 -18 85
-32 150 -14 65 -27 125 -29 134 -2 9 -13 60 -24 113 -12 52 -21 102 -21 109 0
12 135 14 865 14 476 0 865 -2 865 -4 0 -2 16 -65 36 -141 19 -75 53 -207 75
-292 22 -85 49 -189 60 -230 11 -41 22 -82 24 -90 6 -28 116 -455 147 -570 66
-249 98 -376 98 -388 0 -10 -261 -12 -1292 -10 l-1291 3 -3 25 c-2 14 -10 59
-18 100 -8 41 -17 93 -21 114 -3 21 -7 48 -10 60 -3 12 -7 32 -9 46 -4 22 -31
166 -42 225 -4 18 -16 90 -28 155 -2 14 -14 77 -26 140 -12 63 -23 122 -24
130 -1 8 -5 31 -9 50 -4 19 -9 49 -12 65 -5 28 -33 182 -55 300 -14 76 -90
487 -95 515 -10 51 -37 206 -40 225 -2 11 -17 92 -34 180 -17 88 -32 171 -35
185 -5 29 -24 135 -30 166 -2 12 -7 37 -10 55 -7 42 -12 66 -37 204 -12 61
-23 121 -25 135 -3 14 -29 158 -59 320 -30 162 -56 306 -59 320 -8 48 -26 145
-31 170 -3 14 -12 61 -20 105 -8 44 -16 91 -19 105 -3 14 -10 54 -16 90 -6 36
-17 97 -25 135 -7 39 -16 86 -19 105 -3 19 -8 46 -11 60 -3 14 -16 86 -29 160
-27 146 -30 160 -45 235 -5 28 -12 70 -16 94 -4 25 -20 112 -36 195 -16 83
-32 171 -35 196 -3 25 -8 48 -10 51 -2 4 -6 24 -10 45 -3 22 -12 73 -20 114
-8 41 -19 100 -24 130 -6 30 -25 138 -44 240 -19 102 -37 205 -41 229 -11 69
-37 135 -70 176 -29 36 -90 76 -130 83 -41 8 -741 9 -776 1z m546 -469 c7 -43
16 -96 35 -195 12 -60 25 -135 30 -165 6 -30 12 -66 15 -80 3 -14 9 -50 15
-80 11 -60 17 -92 25 -130 2 -14 7 -41 10 -60 6 -33 50 -277 60 -330 3 -14 9
-50 15 -80 6 -30 12 -66 15 -80 3 -14 8 -41 11 -60 3 -19 7 -42 9 -50 2 -8 13
-67 25 -130 11 -63 22 -124 24 -135 4 -22 32 -174 40 -218 9 -50 26 -142 31
-167 3 -14 8 -41 11 -60 3 -19 21 -118 40 -220 19 -102 37 -198 39 -215 3 -16
8 -41 10 -55 3 -14 8 -36 10 -50 6 -32 75 -407 81 -440 20 -112 25 -138 29
-160 3 -14 12 -63 21 -110 16 -91 50 -276 59 -325 3 -16 28 -151 55 -300 27
-148 51 -281 54 -295 11 -57 75 -408 81 -440 3 -19 8 -42 10 -50 2 -8 7 -31
10 -50 3 -19 7 -46 10 -60 7 -37 13 -72 35 -195 11 -60 22 -120 24 -133 6 -26
54 -286 60 -322 8 -50 87 -476 92 -502 l6 -28 -1401 0 c-1024 0 -1401 3 -1401
11 0 11 100 453 156 689 14 58 31 132 39 165 8 33 32 141 55 240 23 99 43 187
45 195 2 8 20 87 40 175 20 88 38 167 40 175 18 83 58 252 65 280 9 32 216
927 226 975 2 11 29 128 59 260 31 132 58 249 60 260 18 80 128 557 135 585 6
19 19 76 30 125 11 50 31 140 46 200 14 61 28 121 30 134 7 33 71 311 95 411
12 47 23 94 25 105 2 11 29 128 60 260 30 132 57 249 60 260 10 52 104 454
109 468 9 22 327 20 330 -3z"/>
</g>
</svg>
