<svg xmlns="http://www.w3.org/2000/svg" viewBox="0 0 25 25" fill="none" xmlns:v="https://vecta.io/nano"><g clip-path="url(#A)" fill="#000"><path d="M8.834 11.172c-1.203 0-2.182 1.094-2.182 2.438s.977 2.435 2.182 2.435 2.18-1.092 2.18-2.435-.979-2.437-2.18-2.437zm0 4.102c-.781 0-1.4-.742-1.4-1.654s.627-1.656 1.4-1.656 1.398.742 1.398 1.656-.627 1.645-1.398 1.645v.01zm14.961-3.637c-.534-2.092-1.289-4.121-2.25-6.055a.41.41 0 0 0-.139-.15 16.93 16.93 0 0 0-2.975-1.4c-1.918-.697-2.824-.711-2.861-.711a.39.39 0 0 0-.391.336l-.117.814c-1.707-.169-3.426-.169-5.133 0l-.117-.814a.39.39 0 0 0-.391-.336c-.037 0-.943 0-2.861.705a17.01 17.01 0 0 0-2.967 1.406.41.41 0 0 0-.139.15 30.61 30.61 0 0 0-2.25 6.055C.195 15.715 0 17.756 0 17.84a.39.39 0 0 0 .096.293 10.78 10.78 0 0 0 3.555 2.488 14.91 14.91 0 0 0 3.865 1.059.39.39 0 0 0 .375-.195l1.055-1.807c1.174.2 2.364.297 3.555.291a20.56 20.56 0 0 0 3.555-.295l1.055 1.811a.39.39 0 0 0 .336.195h.039a14.91 14.91 0 0 0 3.863-1.051 10.78 10.78 0 0 0 3.555-2.488.39.39 0 0 0 .096-.293c.002-.092-.184-2.133-1.203-6.211zM21.049 19.9a14.99 14.99 0 0 1-3.396.961l-.797-1.367c.914-.242 2.816-.871 4.264-2.187.038-.035.07-.076.092-.123s.035-.097.038-.149a.39.39 0 0 0-.1-.284c-.034-.038-.076-.07-.123-.092s-.097-.035-.149-.038-.103.005-.152.022a.39.39 0 0 0-.132.078c-1.758 1.607-4.387 2.117-4.414 2.123h-.012a18.87 18.87 0 0 1-3.668.344 18.87 18.87 0 0 1-3.668-.332H8.82c-.027 0-2.646-.516-4.414-2.123a.39.39 0 0 0-.284-.1c-.104.006-.202.052-.272.13a.39.39 0 0 0-.1.284.4.4 0 0 0 .13.272c1.447 1.316 3.35 1.953 4.264 2.188l-.797 1.367a14.84 14.84 0 0 1-3.396-.961c-1.18-.52-2.25-1.259-3.154-2.178.064-.568.328-2.553 1.172-5.906.514-1.997 1.228-3.936 2.133-5.789a17.22 17.22 0 0 1 2.734-1.273 11.98 11.98 0 0 1 2.262-.623l.068.467c-.781.195-2.705.754-4.229 1.861a.39.39 0 0 0 .17.701.39.39 0 0 0 .291-.071C7.121 5.85 9.5 5.332 9.668 5.295c.94-.113 1.886-.167 2.832-.164a22.98 22.98 0 0 1 2.834.164c.178.037 2.539.553 4.27 1.807a.39.39 0 1 0 .461-.631c-1.523-1.107-3.439-1.664-4.228-1.861l.068-.467a12.06 12.06 0 0 1 2.26.623 17.28 17.28 0 0 1 2.734 1.273c.91 1.852 1.63 3.792 2.149 5.789l1.172 5.906a10.2 10.2 0 0 1-3.17 2.166h0zm-4.883-8.728c-1.201 0-2.18 1.094-2.18 2.438s.977 2.435 2.18 2.435 2.182-1.092 2.182-2.435-.979-2.437-2.182-2.437zm0 4.102c-.781 0-1.398-.742-1.398-1.654s.627-1.656 1.398-1.656 1.4.742 1.4 1.656-.627 1.645-1.4 1.645v.01z"/></g><defs><clipPath id="A"><path fill="#fff" d="M0 0h25v25H0z"/></clipPath></defs></svg>