<svg xmlns="http://www.w3.org/2000/svg" viewBox="0 0 25 25" fill="none" xmlns:v="https://vecta.io/nano"><path d="M10.056 21.735a.52.52 0 0 0-.187-.4c-.119-.098-.275-.139-.427-.113-1.657.307-3.759.311-4.369-1.403-.375-.916-.977-1.722-1.749-2.343-.16-.082-.304-.191-.425-.323a.52.52 0 0 0-.512-.436h-.002a.52.52 0 0 0-.521.519c-.003.594.741 1.039.96 1.156a5 5 0 0 1 1.273 1.794c.363 1.02 1.47 2.599 4.919 2.159l.012.725.005.307a.52.52 0 1 0 1.042 0l-.005-.336-.014-1.305zM21.793 5.441l-.1-.123c.07-.22.125-.445.165-.672.161-1.118.018-2.259-.414-3.302a.52.52 0 0 0-.322-.302c-.148-.049-1.493-.411-4.302 1.439-2.353-.598-4.818-.598-7.172 0C6.841.652 5.503.995 5.355 1.039s-.27.159-.329.304a6.29 6.29 0 0 0-.411 3.353c.04.208.09.414.152.616l-.104.133c-.882 1.119-1.351 2.507-1.329 3.932a8.95 8.95 0 0 0 .045.967c.354 4.858 3.488 6.21 6.195 6.672a3.93 3.93 0 0 0-.392 1.007.52.52 0 1 0 1.011.248 2.37 2.37 0 0 1 .693-1.252.52.52 0 0 0-.284-.91c-2.872-.326-5.852-1.275-6.186-5.859a8 8 0 0 1-.041-.873 5.19 5.19 0 0 1 1.115-3.3c.078-.106.166-.202.252-.298a.52.52 0 0 0 .101-.537 4.22 4.22 0 0 1-.202-.724 5.16 5.16 0 0 1 .242-2.49 6.99 6.99 0 0 1 3.383 1.45.52.52 0 0 0 .43.069c2.317-.629 4.76-.629 7.077 0a.52.52 0 0 0 .432-.07c.971-.785 2.139-1.288 3.376-1.456.28.786.365 1.628.247 2.454-.046.262-.118.52-.215.768a.52.52 0 0 0 .101.537l.263.314a5.12 5.12 0 0 1 1.115 3.284 7.84 7.84 0 0 1-.044.892c-.331 4.563-3.322 5.513-6.205 5.84a.52.52 0 0 0-.284.91c.359.338.6.784.686 1.27a3.88 3.88 0 0 1 .123 1.051v2.561l-.011 1.474a.52.52 0 1 0 1.042 0l.011-1.466v-2.57c.008-.441-.044-.881-.156-1.308-.078-.355-.207-.697-.383-1.015 2.717-.461 5.863-1.812 6.214-6.651.035-.328.05-.659.048-.989.024-1.428-.451-2.82-1.344-3.936z" fill="#000"/></svg>