<svg xmlns="http://www.w3.org/2000/svg" viewBox="0 0 25 25" fill="none" xmlns:v="https://vecta.io/nano"><path d="M2.75 3.5A2.26 2.26 0 0 0 .5 5.742V19.25a2.26 2.26 0 0 0 2.25 2.25h19.5a2.26 2.26 0 0 0 2.25-2.25V5.75a2.26 2.26 0 0 0-2.25-2.25H2.75zm1.301 1h16.9L12.5 10.391 4.051 4.5zm-1.664.059L12.5 11.609l10.115-7.051a1.24 1.24 0 0 1 .885 1.186c-.002.105-.109.316-.266.486s-.312.279-.312.279l-.002.004-10.42 7.375L2.08 6.514l-.002-.004s-.154-.107-.313-.279-.264-.381-.266-.486a1.24 1.24 0 0 1 .887-1.186zM1.5 7.326l.004.004.004.002v.002L3 8.389V20.5h-.25c-.695 0-1.25-.555-1.25-1.25V7.326zm22 0V19.25c0 .695-.555 1.25-1.25 1.25H22V8.389l1.492-1.055v-.002l.008-.006zM4 9.096l8.5 6.016L21 9.096V20.5H4V9.096z" fill="#000"/></svg>