<svg xmlns="http://www.w3.org/2000/svg" viewBox="0 0 25 25" fill="none" xmlns:v="https://vecta.io/nano"><g clip-path="url(#A)" fill="#000"><path d="M3.125 6.25A3.13 3.13 0 0 1 0 3.125 3.13 3.13 0 0 1 3.125 0 3.13 3.13 0 0 1 6.25 3.125 3.13 3.13 0 0 1 3.125 6.25zm0-5.208c-1.149 0-2.083.934-2.083 2.083s.934 2.083 2.083 2.083 2.083-.934 2.083-2.083-.934-2.083-2.083-2.083zM5.729 25H.521A.52.52 0 0 1 0 24.479V8.854a.52.52 0 0 1 .521-.521h5.208a.52.52 0 0 1 .521.521v15.625a.52.52 0 0 1-.521.521zm-4.687-1.042h4.167V9.375H1.042v14.583zM24.479 25h-5.208a.52.52 0 0 1-.521-.521v-9.375c0-1.182-.493-2.07-1.353-2.433-.889-.377-1.973-.146-2.814.579v11.229a.52.52 0 0 1-.521.521H8.854a.52.52 0 0 1-.521-.521V8.854a.52.52 0 0 1 .521-.521h5.208a.52.52 0 0 1 .504.391c1.671-1.202 4.454-1.871 6.68-1.108 1.68.576 3.694 2.159 3.753 6.441V24.48a.52.52 0 0 1-.521.52zm-4.687-1.042h4.167v-9.896c-.04-2.901-1.095-4.793-3.049-5.461-2.427-.831-5.486.424-6.441 1.62a.52.52 0 0 1-.927-.325v-.521H9.375v14.583h4.167V13.021a.52.52 0 0 1 .157-.373c1.165-1.131 2.778-1.496 4.103-.936 1.265.535 1.989 1.772 1.989 3.393v8.854h.001z"/></g><defs><clipPath id="A"><path fill="#fff" d="M0 0h25v25H0z"/></clipPath></defs></svg>